<svg width="33" height="33" viewBox="0 0 33 33" fill="none" xmlns="http://www.w3.org/2000/svg">
  <circle cx="16.5" cy="16.5" r="16.5" fill="#828282" fill-opacity="0.2"/>
  <path fill="#FFFFFF" fill-rule="evenodd" clip-rule="evenodd" d="M16.5 9.5C12.36 9.5 9 12.86 9 17C9 20.17 11.06 22.84 13.96 23.66C14.3 23.72 14.41 23.53 14.41 23.37C14.41 23.23 14.41 22.89 14.41 22.4C12.39 22.83 11.97 21.6 11.97 21.6C11.67 20.81 11.2 20.6 11.2 20.6C10.54 20.14 11.26 20.15 11.26 20.15C11.99 20.21 12.38 20.91 12.38 20.91C13.04 22.05 14.13 21.71 14.59 21.51C14.65 21.04 14.84 20.73 15.05 20.55C13.3 20.36 11.44 19.72 11.44 16.67C11.44 15.8 11.75 15.09 12.26 14.53C12.18 14.34 11.91 13.58 12.34 12.5C12.34 12.5 13.02 12.29 14.41 13.18C15.06 13.01 15.76 12.93 16.47 12.93C17.18 12.93 17.89 13.01 18.54 13.18C19.92 12.29 20.6 12.5 20.6 12.5C21.03 13.58 20.76 14.34 20.68 14.53C21.2 15.09 21.5 15.8 21.5 16.67C21.5 19.73 19.63 20.35 17.87 20.54C18.14 20.77 18.39 21.21 18.39 21.89C18.39 22.87 18.38 23.61 18.38 23.87C18.38 24.03 18.49 24.22 18.84 24.16C21.74 23.34 23.8 20.17 23.8 17C23.8 12.86 20.44 9.5 16.5 9.5Z"/>
</svg>
