<svg width="33" height="33" viewBox="0 0 33 33" fill="none" xmlns="http://www.w3.org/2000/svg">
  <circle cx="16.5" cy="16.5" r="16.5" fill="#828282" fill-opacity="0.2"/>
  <path fill="#FFFFFF" d="M11,6.966C9.878,6.966,8.966,7.878,8.966,9S9.878,11.034,11,11.034S13.034,10.122,13.034,9
      S12.122,6.966,11,6.966z M11,9.966c-0.532,0-0.966-0.434-0.966-0.966S10.468,8.034,11,8.034S11.966,8.468,11.966,9
      S11.532,9.966,11,9.966z"/>
  <path fill="#FFFFFF" d="M12.428,11.951H9.46c-0.295,0-0.534,0.239-0.46,0.549v11c-0.074,0.28,0.165,0.52,0.46,0.5h2.968
      c0.295,0.02,0.534-0.22,0.534-0.515v-11C12.962,12.19,12.723,11.951,12.428,11.951z M12,23H9.994v-9.98H12V23z"/>
  <path fill="#FFFFFF" d="M19.515,11.952c-0.678,0-1.18,0.171-1.573,0.387c-0.063-0.224-0.27-0.388-0.514-0.339h-2.984
      c-0.295-0.049-0.534,0.19-0.443,0.5v11c-0.091,0.28,0.148,0.52,0.443,0.5h2.984c0.295,0.02,0.534-0.22,0.534-0.515l-0.001-6.648
      c-0.001-0.003-0.012-0.321,0.189-0.54c0.161-0.174,0.438-0.263,0.821-0.263c0.638,0,0.922,0.261,1.028,0.845v6.606
      C19.894,23.78,20.133,24.02,20.428,24h3.145c0.295,0.02,0.534-0.22,0.428-0.515v-6.828
      C24.106,13.185,21.633,11.952,19.515,11.952z M23.038,23h-2.076v-6.121c0-1.181-0.763-1.913-1.99-1.913
      c-0.694,0-1.234,0.204-1.606,0.606C16.849,16.132,16.889,16.842,17,17v6h-2.022v-9.98h1.916v0.336c0,0.203,0.115,0.39,0.298,0.479
      c0.183,0.089,0.4,0.067,0.562-0.056l0.14-0.108c0.405-0.319,0.824-0.65,1.622-0.65c0.826,0,3.523,0.263,3.523,3.637V23z"/>
</svg>
