<?xml version="1.0" encoding="UTF-8"?>
<svg version="1.1" xmlns="http://www.w3.org/2000/svg" width="500" height="500">
<path d="M0 0 C0.7734375 0.03544922 1.546875 0.07089844 2.34375 0.10742188 C17.74454981 0.97307086 32.10277378 8.04738651 43.25 18.6875 C45.10447224 20.82086551 46.75529794 23.05986856 48.375 25.375 C48.80876953 25.99149414 49.24253906 26.60798828 49.68945312 27.24316406 C53.04696442 32.14186985 55.59561413 36.9548606 57.25 42.6875 C57.47171875 43.41453125 57.6934375 44.1415625 57.921875 44.890625 C62.05525093 61.31241584 59.38628524 78.64004324 50.87890625 93.16015625 C41.68685677 107.42216108 28.79081389 118.07491922 12.25 122.6875 C0.58783596 125.0613558 -10.20764417 124.09047295 -21.4453125 120.66015625 C-22.53585937 120.33917969 -23.62640625 120.01820313 -24.75 119.6875 C-25.7090625 119.38972656 -26.668125 119.09195313 -27.65625 118.78515625 C-32.26798333 118.63958386 -35.24263332 120.74136974 -39.125 123.0625 C-44.76175534 126.40805623 -49.1156569 128.47279634 -55.75 128.6875 C-58.3125 127.1875 -58.3125 127.1875 -59.75 124.6875 C-59.65117271 119.4496534 -57.93692386 115.34659866 -55.75 110.6875 C-55.09 110.6875 -54.43 110.6875 -53.75 110.6875 C-53.62625 110.15125 -53.5025 109.615 -53.375 109.0625 C-52.75 106.6875 -52.75 106.6875 -51.625 103.625 C-50.43799831 100.66701334 -50.43799831 100.66701334 -51.75 97.6875 C-52.41 97.6875 -53.07 97.6875 -53.75 97.6875 C-63.68783141 81.71598523 -65.90338743 63.88557901 -61.75 45.6875 C-57.46024722 29.23949762 -46.86925583 16.1683344 -32.4453125 7.55078125 C-26.26822134 4.24679489 -19.48871233 2.47375708 -12.75 0.6875 C-12.10264893 0.50268066 -11.45529785 0.31786133 -10.78833008 0.12744141 C-7.20270158 -0.64645997 -3.63941333 -0.21705651 0 0 Z M-17.75 38.6875 C-18.8292499 41.37575818 -19.79817641 44.03836451 -20.71875 46.78125 C-20.99972534 47.6019397 -21.28070068 48.42262939 -21.57019043 49.26818848 C-22.1654205 51.01221838 -22.75698928 52.75750142 -23.34521484 54.50390625 C-24.23791428 57.15165375 -25.14333387 59.79477586 -26.05078125 62.4375 C-26.62837665 64.13515404 -27.20522256 65.8330633 -27.78125 67.53125 C-28.04901245 68.31286499 -28.3167749 69.09447998 -28.59265137 69.89978027 C-30.33624944 75.10233136 -31.66222847 80.31002632 -32.75 85.6875 C-29.46303767 86.48703138 -28.03976808 86.78408936 -24.75 85.6875 C-23.76 82.7175 -22.77 79.7475 -21.75 76.6875 C-15.48 76.6875 -9.21 76.6875 -2.75 76.6875 C-1.74088542 78.99869792 -0.73177083 81.30989583 0.27734375 83.62109375 C1.08122323 85.63160117 1.08122323 85.63160117 2.25 86.6875 C4.58944736 86.40019945 6.9239143 86.06813221 9.25 85.6875 C6.26982431 76.68083726 3.26908492 67.68119509 0.25 58.6875 C-0.10674805 57.62305664 -0.46349609 56.55861328 -0.83105469 55.46191406 C-1.77451035 52.65905308 -2.72864901 49.86012554 -3.6875 47.0625 C-3.96924072 46.22299805 -4.25098145 45.38349609 -4.54125977 44.51855469 C-5.68060941 40.35115966 -5.68060941 40.35115966 -8.75 37.6875 C-13.40275976 37.3822378 -13.40275976 37.3822378 -17.75 38.6875 Z M19.25 37.6875 C18.03995168 38.67716726 18.03995168 38.67716726 18.12974548 40.59205627 C18.13196609 41.42478561 18.13418671 42.25751495 18.13647461 43.11547852 C18.13655014 44.05637833 18.13662567 44.99727814 18.13670349 45.96669006 C18.14186478 46.98959641 18.14702606 48.01250275 18.15234375 49.06640625 C18.1537587 50.10820541 18.15517365 51.15000458 18.15663147 52.22337341 C18.1622492 55.56561094 18.1748047 58.90778257 18.1875 62.25 C18.19251272 64.50976466 18.19707602 66.76953037 18.20117188 69.02929688 C18.21222439 74.58205391 18.22897976 80.13477225 18.25 85.6875 C21.53941438 87.0596042 21.53941438 87.0596042 26.25 85.6875 C26.25 69.8475 26.25 54.0075 26.25 37.6875 C23.94 37.6875 21.63 37.6875 19.25 37.6875 Z " fill="#23263E" transform="translate(385.75,83.3125)"/>
<path d="M0 0 C0 0.66 0 1.32 0 2 C0.61875 2.28875 1.2375 2.5775 1.875 2.875 C4 4 4 4 6 6 C5.8125 9.5 5.8125 9.5 5 13 C1.90003626 15.06664249 0.70442183 15.42722738 -2.89453125 14.7890625 C-5.58571259 13.78049361 -7.42941191 12.27952939 -9.6875 10.5 C-21.6068656 1.38422659 -36.43386679 -3.91069922 -51 -7 C-51.70165283 -7.17370117 -52.40330566 -7.34740234 -53.1262207 -7.52636719 C-60.70791614 -9.27905335 -68.18018671 -9.3839981 -75.9375 -9.375 C-76.61953491 -9.37545319 -77.30156982 -9.37590637 -78.00427246 -9.37637329 C-89.43521445 -9.35411652 -99.97613037 -8.06407043 -111 -5 C-111.99902344 -4.78472656 -112.99804688 -4.56945312 -114.02734375 -4.34765625 C-122.64301459 -2.4119769 -130.30070734 1.80495942 -138 6 C-139.67642578 6.91265625 -139.67642578 6.91265625 -141.38671875 7.84375 C-153.27612299 14.74633155 -164.19206801 23.62272767 -172 35 C-172.66 35 -173.32 35 -174 35 C-174.27328125 35.73992187 -174.5465625 36.47984375 -174.828125 37.2421875 C-175.92605658 39.82598648 -177.1353532 41.84192415 -178.75 44.125 C-190.10283518 60.9613648 -194.65499055 79.38621908 -199 99 C-197.7521875 98.96648437 -196.504375 98.93296875 -195.21875 98.8984375 C-191.84986193 98.80795084 -190.74581884 99.11801268 -187.5 100.625 C-185 103 -185 103 -184.625 106.25 C-184.810625 107.61125 -184.810625 107.61125 -185 109 C-185.66 109 -186.32 109 -187 109 C-187 109.66 -187 110.32 -187 111 C-190.46950032 112.15650011 -193.03741477 111.99338114 -196.6875 111.875 C-202.60412708 111.82600102 -206.73431692 112.31553412 -212 115 C-212.495 115.99 -212.495 115.99 -213 117 C-213.66 117 -214.32 117 -215 117 C-214.93286699 123.29920815 -214.84300842 129.59780213 -214.73754883 135.89648438 C-214.70435062 138.0380116 -214.67630286 140.17962524 -214.65356445 142.32128906 C-214.61992496 145.40467054 -214.56760346 148.48726369 -214.51171875 151.5703125 C-214.50532883 152.52366486 -214.4989389 153.47701721 -214.49235535 154.45925903 C-214.37692113 159.71062042 -213.92842676 163.45728813 -211 168 C-208.27861756 170.59232719 -205.98072843 171.47523329 -202.3125 172.125 C-201.44238281 172.28355469 -200.57226562 172.44210937 -199.67578125 172.60546875 C-196.39640151 173.08899773 -193.12172601 173.37540445 -189.8125 173.55859375 C-188 174 -188 174 -186 177 C-186.125 180.0625 -186.125 180.0625 -187 183 C-189.89882611 185.27764908 -192.43091866 185.05909075 -196 185 C-194.78672964 200.46178063 -194.78672964 200.46178063 -186.125 212.8125 C-175.52380275 221.35558936 -163.17636496 221.43820334 -150.07421875 221.05761719 C-148.67343774 221.0187066 -147.27230761 220.9909873 -145.87109375 220.97363281 C-143.80825492 220.94609031 -141.74921855 220.88439402 -139.6875 220.8125 C-138.47449219 220.77769531 -137.26148438 220.74289062 -136.01171875 220.70703125 C-132.81594879 220.30624104 -132.81594879 220.30624104 -131.26953125 217.57421875 C-130.85058594 216.72472656 -130.43164062 215.87523437 -130 215 C-126.13637723 212.42425149 -122.87263305 212.65828762 -118.38671875 212.62890625 C-117.53954788 212.61987778 -116.69237701 212.6108493 -115.8195343 212.60154724 C-114.02661676 212.58704109 -112.23364624 212.57815709 -110.44067383 212.57446289 C-107.7075789 212.56258725 -104.97675758 212.51342617 -102.24414062 212.46289062 C-100.50001099 212.45342358 -98.75586752 212.44618989 -97.01171875 212.44140625 C-96.19902023 212.42187393 -95.38632172 212.40234161 -94.54899597 212.38221741 C-90.41334391 212.41483224 -87.80005933 212.7393867 -84.52661133 215.38647461 C-81.97365862 218.02724751 -80.76391002 219.43508656 -80 223 C-80.25448428 227.75037323 -80.9912481 231.26499764 -84 235 C-88.9634216 238.11571421 -92.90632282 238.4311658 -98.57421875 238.36328125 C-99.37986771 238.36377975 -100.18551666 238.36427826 -101.01557922 238.36479187 C-102.70906049 238.36246198 -104.40254592 238.35279785 -106.09594727 238.33618164 C-108.68992925 238.3124778 -111.2828895 238.31564248 -113.87695312 238.32226562 C-115.5260478 238.31669182 -117.17513815 238.30958382 -118.82421875 238.30078125 C-119.5992424 238.30169266 -120.37426605 238.30260406 -121.17277527 238.30354309 C-124.97389824 238.25330237 -126.76157898 238.15894735 -130 236 C-130 235.34 -130 234.68 -130 234 C-131.07781738 234.01571045 -132.15563477 234.0314209 -133.26611328 234.04760742 C-137.33276653 234.10263489 -141.3993882 234.13660983 -145.46630859 234.16479492 C-147.21376104 234.17971807 -148.96117715 234.20006399 -150.70849609 234.22631836 C-165.02466204 234.43576313 -178.66120653 234.25850463 -191 226 C-191 225.34 -191 224.68 -191 224 C-191.86431641 223.63648438 -191.86431641 223.63648438 -192.74609375 223.265625 C-198.71410002 219.9144395 -203.49653131 213.25867173 -206 207 C-206.350625 206.13503906 -206.70125 205.27007812 -207.0625 204.37890625 C-208.22440712 200.19119932 -208.22011605 196.44180527 -208.125 192.125 C-208.11597656 191.34125 -208.10695313 190.5575 -208.09765625 189.75 C-208.07428063 187.83319945 -208.03841653 185.91655809 -208 184 C-208.90492188 183.73316406 -209.80984375 183.46632813 -210.7421875 183.19140625 C-216.92079125 180.93184493 -221.52085266 176.65753662 -224.4375 170.75 C-228.13456515 160.62586609 -227.21569418 149.01960006 -227.24023438 138.37426758 C-227.25002045 135.80713447 -227.28117485 133.24077718 -227.3125 130.67382812 C-227.31902514 129.01823383 -227.32427753 127.36263393 -227.328125 125.70703125 C-227.3404718 124.95162552 -227.3528186 124.19621979 -227.36553955 123.41792297 C-227.33984668 117.21382782 -226.17129135 111.64824866 -222.1328125 106.72265625 C-221.47023438 106.17480469 -220.80765625 105.62695312 -220.125 105.0625 C-219.46757812 104.49660156 -218.81015625 103.93070312 -218.1328125 103.34765625 C-215.74384259 101.83814229 -213.78117682 101.38277521 -211 101 C-210.98582031 100.22140625 -210.97164062 99.4428125 -210.95703125 98.640625 C-210.2002348 80.88658938 -204.86489786 64.81033743 -197 49 C-196.48308594 47.95070313 -195.96617187 46.90140625 -195.43359375 45.8203125 C-191.92660856 39.07390503 -187.59411705 33.04385975 -183 27 C-182.46761719 26.23558594 -181.93523437 25.47117188 -181.38671875 24.68359375 C-180.92910156 24.12800781 -180.47148437 23.57242188 -180 23 C-179.34 23 -178.68 23 -178 23 C-177.7628125 22.43796875 -177.525625 21.8759375 -177.28125 21.296875 C-175.71052303 18.48105958 -173.78528536 16.52044584 -171.5 14.25 C-170.7059375 13.45078125 -169.911875 12.6515625 -169.09375 11.828125 C-167 10 -167 10 -165 10 C-165 9.34 -165 8.68 -165 8 C-163.26451831 6.55473264 -161.46024037 5.1912778 -159.625 3.875 C-158.62726563 3.15054688 -157.62953125 2.42609375 -156.6015625 1.6796875 C-154 0 -154 0 -152 0 C-152 -0.66 -152 -1.32 -152 -2 C-103.31109287 -28.81763551 -47.41437328 -31.60958218 0 0 Z " fill="#6970E9" transform="translate(316,100)"/>
<path d="M0 0 C2.45152715 6.34512908 2.45152715 6.34512908 1 10 C-3.59015492 12.73643851 -8.28925704 14.45983356 -13.3125 16.25 C-19.17873552 18.43960651 -23.75395418 21.37190682 -28.66015625 25.23046875 C-30.72824653 26.7944836 -32.69471757 27.85248164 -35 29 C-36.12516085 30.83284443 -36.12516085 30.83284443 -37 33 C-38.5 35.75 -38.5 35.75 -40 38 C-40.66 38 -41.32 38 -42 38 C-42.268125 38.86625 -42.53625 39.7325 -42.8125 40.625 C-44 44 -44 44 -45.5625 47.0625 C-46.92988483 49.85672116 -47.55328284 51.94743272 -48 55 C-48.185625 56.0725 -48.37125 57.145 -48.5625 58.25 C-49.05528283 62.4738528 -49 66.74749869 -49 71 C25.91 71 100.82 71 178 71 C176.49993309 59.38934114 176.49993309 59.38934114 173.4375 48.375 C173.18355469 47.66698242 172.92960938 46.95896484 172.66796875 46.22949219 C167.32154126 32.28969126 157.36064494 23.17823454 144 17 C138.08207436 14.83971085 132.12329768 13.17824718 125.9375 12 C123.07745694 11.39428186 121.86461179 10.90651766 119.375 9.1875 C118 7 118 7 118.0625 4.4375 C119.58441558 0.48051948 119.58441558 0.48051948 122 -1 C134.62624377 -2.6676171 150.45245962 4.05542022 160.8203125 10.84765625 C166.49225224 15.21001969 171.72429224 20.24332084 176 26 C176 26.66 176 27.32 176 28 C176.66 28 177.32 28 178 28 C184.6354599 40.56166637 189.2755574 51.61768365 190 66 C190.06445312 66.81855469 190.12890625 67.63710938 190.1953125 68.48046875 C190.46598651 73.86688151 189.55760262 76.70994978 186 81 C182.27339138 84.72660862 177.29748303 84.11865677 172.30574131 84.1384055 C171.42101611 84.1368569 170.53629091 84.1353083 169.62475586 84.13371277 C168.67662742 84.13597833 167.72849897 84.13824388 166.75163937 84.14057809 C163.57269513 84.14691134 160.3937936 84.14608916 157.21484375 84.14526367 C154.93653305 84.14825553 152.65822285 84.15165812 150.37991333 84.15544128 C144.18998575 84.16428145 138.00007199 84.16661937 131.8101387 84.16725707 C126.64584551 84.16820612 121.48155555 84.17188426 116.3172636 84.17542917 C104.83276277 84.18310808 93.34827095 84.18609777 81.86376822 84.18542381 C80.83050471 84.18536388 80.83050471 84.18536388 79.77636719 84.18530273 C79.08668362 84.18526185 78.39700005 84.18522097 77.68641698 84.18517885 C66.50300746 84.18477219 55.31963157 84.19434772 44.13623178 84.2084411 C32.65172906 84.22279974 21.16724958 84.22952839 9.6827364 84.22884732 C3.23556831 84.22859201 -3.21156169 84.23146165 -9.65872192 84.24202538 C-15.71943652 84.25168487 -21.78007643 84.25180032 -27.84079361 84.24450874 C-30.06725295 84.24346032 -32.29371688 84.24584101 -34.5201683 84.2518692 C-37.55511947 84.25955542 -40.58981053 84.25496667 -43.62475586 84.24723816 C-44.50948106 84.25238172 -45.39420626 84.25752529 -46.30574131 84.26282471 C-51.90861971 84.23121014 -55.95756396 83.87223303 -60.25 79.9375 C-64.80616108 72.28965819 -63.50077573 61.3194579 -61.52050781 52.98095703 C-58.43968188 41.72208127 -53.16625353 33.09959531 -46 24 C-45.34 23.01 -44.68 22.02 -44 21 C-43.34 21 -42.68 21 -42 21 C-42 20.34 -42 19.68 -42 19 C-41.34 19 -40.68 19 -40 19 C-40 18.34 -40 17.68 -40 17 C-39.34 17 -38.68 17 -38 17 C-38 16.34 -38 15.68 -38 15 C-37.34 15 -36.68 15 -36 15 C-36 14.34 -36 13.68 -36 13 C-33.44719068 11.26384769 -30.9143442 9.67362547 -28.25 8.125 C-27.47736816 7.67535889 -26.70473633 7.22571777 -25.90869141 6.76245117 C-9.45712156 -2.57921497 -9.45712156 -2.57921497 0 0 Z " fill="#2A2C43" transform="translate(175,339)"/>
<path d="M0 0 C0.81050812 -0.00335861 1.62101624 -0.00671722 2.45608521 -0.01017761 C5.13081404 -0.01966073 7.80548002 -0.02162983 10.48022461 -0.02270508 C12.35005214 -0.02592101 14.21987941 -0.02928533 16.08970642 -0.03279114 C20.01114484 -0.0387769 23.93256124 -0.04063176 27.85400391 -0.04003906 C32.85128871 -0.03993782 37.84843022 -0.05355311 42.84568119 -0.07081127 C46.71071505 -0.08199673 50.57571509 -0.08395622 54.44076347 -0.08342934 C56.28134082 -0.08460103 58.12191929 -0.08897668 59.96248055 -0.0967617 C78.06583883 -0.1661265 98.85290101 0.83280729 112.82006836 14.14526367 C113.93346487 17.34627865 113.5750963 18.71859839 112.82006836 22.14526367 C110.82006836 24.14526367 110.82006836 24.14526367 107.69506836 24.64526367 C103.10529825 24.05303527 101.47090873 22.59953016 97.99975586 19.74291992 C90.38303385 14.16005379 81.54304301 12.99965921 72.36474609 12.96826172 C71.10509285 12.95840492 71.10509285 12.95840492 69.81999207 12.948349 C67.04788104 12.92868236 64.27582412 12.91696596 61.50366211 12.90698242 C60.55235979 12.90290689 59.60105747 12.89883137 58.62092781 12.89463234 C53.58208562 12.87379623 48.54327043 12.85948591 43.50439453 12.85009766 C38.32537121 12.83906014 33.1467807 12.80468381 27.96790981 12.76492596 C23.9639054 12.7386528 19.96000228 12.73039619 15.95591927 12.72681618 C14.04833121 12.72197501 12.14074693 12.71043242 10.23324394 12.69177818 C-3.07858659 12.56972476 -14.37859961 13.29285389 -25.65649414 21.19213867 C-27.17993164 22.14526367 -27.17993164 22.14526367 -29.17993164 22.14526367 C-29.17993164 22.80526367 -29.17993164 23.46526367 -29.17993164 24.14526367 C-30.69586914 25.35182617 -30.69586914 25.35182617 -32.24243164 26.58276367 C-40.82220927 33.72099971 -46.36460714 45.22143236 -48.17993164 56.14526367 C-48.28543312 58.51783835 -48.33835352 60.89297575 -48.35693359 63.26782227 C-48.36679039 64.31542221 -48.36679039 64.31542221 -48.37684631 65.38418579 C-48.39649268 67.68735894 -48.4082285 69.99046683 -48.41821289 72.29370117 C-48.42228842 73.08680317 -48.42636395 73.87990517 -48.43056297 74.69704056 C-48.45139659 78.90292343 -48.46570455 83.10877403 -48.47509766 87.31469727 C-48.48609832 91.61908436 -48.52043148 95.92294538 -48.56026936 100.22714806 C-48.58666796 103.56988352 -48.59481031 106.91249865 -48.59837914 110.25532913 C-48.60319302 111.83946877 -48.61465456 113.423605 -48.63341713 115.00764084 C-48.78723683 128.86599571 -47.29039955 142.01258927 -39.24243164 153.77026367 C-38.82541992 154.42381836 -38.4084082 155.07737305 -37.97875977 155.75073242 C-35.96357181 158.83425032 -33.99755507 161.32662704 -31.36743164 163.94213867 C-29.17993164 166.14526367 -29.17993164 166.14526367 -29.11743164 168.77026367 C-30.40603776 171.65067735 -31.35553389 172.7330648 -34.17993164 174.14526367 C-40.9842005 173.49935926 -45.17673089 168.41916723 -49.49243164 163.52026367 C-54.17993164 156.92304145 -54.17993164 156.92304145 -54.17993164 153.14526367 C-54.83993164 153.14526367 -55.49993164 153.14526367 -56.17993164 153.14526367 C-56.83355774 151.29382973 -57.47744382 149.4389561 -58.11743164 147.58276367 C-58.6569043 146.03395508 -58.6569043 146.03395508 -59.20727539 144.45385742 C-60.97785419 138.43104521 -61.32924162 132.48612712 -61.32519531 126.24145508 C-61.32855392 125.48435745 -61.33191254 124.72725983 -61.33537292 123.94721985 C-61.34481133 121.46373824 -61.34682236 118.98032456 -61.34790039 116.49682617 C-61.35111765 114.7571917 -61.35448207 113.0175575 -61.35798645 111.27792358 C-61.36395975 107.63831963 -61.36582818 103.99873936 -61.36523438 100.35913086 C-61.3651328 95.71359876 -61.37878879 91.06821964 -61.39600658 86.42272377 C-61.40716718 82.83146477 -61.40915235 79.2402423 -61.40862465 75.64896774 C-61.4097985 73.93709155 -61.41418658 72.22521422 -61.42195702 70.51335526 C-61.46449062 60.17652127 -61.00278651 50.95616626 -57.55493164 41.08276367 C-57.29454102 40.32866211 -57.03415039 39.57456055 -56.76586914 38.79760742 C-56.57250977 38.25233398 -56.37915039 37.70706055 -56.17993164 37.14526367 C-55.51993164 37.14526367 -54.85993164 37.14526367 -54.17993164 37.14526367 C-54.10258789 36.44401367 -54.02524414 35.74276367 -53.94555664 35.02026367 C-52.97103271 31.36082687 -51.23670432 29.13948516 -48.92993164 26.14526367 C-48.16165039 25.13463867 -47.39336914 24.12401367 -46.60180664 23.08276367 C-34.81380679 8.78506063 -18.60794528 -0.01112538 0 0 Z " fill="#24263C" transform="translate(201.179931640625,141.854736328125)"/>
<path d="M0 0 C0 0.66 0 1.32 0 2 C0.61875 2.28875 1.2375 2.5775 1.875 2.875 C4 4 4 4 6 6 C5.8125 9.5 5.8125 9.5 5 13 C1.90003626 15.06664249 0.70442183 15.42722738 -2.89453125 14.7890625 C-5.58571259 13.78049361 -7.42941191 12.27952939 -9.6875 10.5 C-21.6068656 1.38422659 -36.43386679 -3.91069922 -51 -7 C-51.70165283 -7.17370117 -52.40330566 -7.34740234 -53.1262207 -7.52636719 C-60.70791614 -9.27905335 -68.18018671 -9.3839981 -75.9375 -9.375 C-76.61953491 -9.37545319 -77.30156982 -9.37590637 -78.00427246 -9.37637329 C-89.43521445 -9.35411652 -99.97613037 -8.06407043 -111 -5 C-111.99902344 -4.78472656 -112.99804688 -4.56945312 -114.02734375 -4.34765625 C-122.64301459 -2.4119769 -130.30070734 1.80495942 -138 6 C-139.11761719 6.6084375 -140.23523438 7.216875 -141.38671875 7.84375 C-153.27612299 14.74633155 -164.19206801 23.62272767 -172 35 C-172.66 35 -173.32 35 -174 35 C-174.33 35.99 -174.66 36.98 -175 38 C-178 37 -178 37 -180 34 C-181.98 34.495 -181.98 34.495 -184 35 C-184.32644414 30.83783725 -184.40650982 28.63686538 -182.125 25.0625 C-180 23 -180 23 -178 23 C-177.7628125 22.43796875 -177.525625 21.8759375 -177.28125 21.296875 C-175.71052303 18.48105958 -173.78528536 16.52044584 -171.5 14.25 C-170.30890625 13.05117187 -170.30890625 13.05117187 -169.09375 11.828125 C-167 10 -167 10 -165 10 C-165 9.34 -165 8.68 -165 8 C-163.26451831 6.55473264 -161.46024037 5.1912778 -159.625 3.875 C-158.62726563 3.15054688 -157.62953125 2.42609375 -156.6015625 1.6796875 C-154 0 -154 0 -152 0 C-152 -0.66 -152 -1.32 -152 -2 C-103.31109287 -28.81763551 -47.41437328 -31.60958218 0 0 Z " fill="#7466DF" transform="translate(316,100)"/>
<path d="M0 0 C3 0.375 3 0.375 6 2.375 C6.39440918 4.76789856 6.39440918 4.76789856 6.41992188 7.81176758 C6.44378967 9.52043755 6.44378967 9.52043755 6.46813965 11.2636261 C6.46834106 12.5030748 6.46854248 13.7425235 6.46875 15.01953125 C6.48017029 16.93338875 6.48017029 16.93338875 6.49182129 18.88591003 C6.50529606 21.59712467 6.50682638 24.30804828 6.50097656 27.01928711 C6.49513978 30.45775823 6.52540066 33.89478804 6.56609344 37.33298206 C6.59856065 40.64520304 6.59385372 43.95715262 6.59375 47.26953125 C6.61014526 48.48671341 6.62654053 49.70389557 6.64343262 50.95796204 C6.57442375 59.66275143 4.61643663 66.48509822 1 74.375 C0.62089478 75.20638992 0.24178955 76.03777985 -0.14880371 76.8943634 C-3.55448092 84.02229844 -9.32240412 89.97168412 -15 95.375 C-15.66 95.375 -16.32 95.375 -17 95.375 C-17 96.035 -17 96.695 -17 97.375 C-31.95058281 106.60984276 -45.63199705 110.55072326 -63.25 110.5625 C-64.2296875 110.57474609 -65.209375 110.58699219 -66.21875 110.59960938 C-67.16234375 110.60154297 -68.1059375 110.60347656 -69.078125 110.60546875 C-69.92793945 110.60957764 -70.77775391 110.61368652 -71.65332031 110.61791992 C-74.25955968 110.34813131 -75.83899458 109.8565482 -78 108.375 C-78.9375 104.9375 -78.9375 104.9375 -79 101.375 C-77.92578125 99.6953125 -77.92578125 99.6953125 -76 98.375 C-72.953125 97.86328125 -72.953125 97.86328125 -69.25 97.6875 C-68.25842896 97.63190918 -68.25842896 97.63190918 -67.24682617 97.57519531 C-62.5850865 97.34351496 -57.97819483 97.46610637 -53.3125 97.625 C-45.90678355 97.68703742 -40.50024628 95.78270487 -34 92.375 C-33.33484375 92.05273438 -32.6696875 91.73046875 -31.984375 91.3984375 C-21.60289657 86.02064462 -14.57377561 76.96690142 -10 66.375 C-9.62331656 64.71759285 -9.27942455 63.05154729 -9 61.375 C-8.505 60.385 -8.505 60.385 -8 59.375 C-7.85455106 56.64708269 -7.76551052 53.94091231 -7.71875 51.2109375 C-7.70034058 50.38606842 -7.68193115 49.56119934 -7.66296387 48.71133423 C-7.60414875 46.05762987 -7.55153584 43.403855 -7.5 40.75 C-7.3642986 33.95732081 -7.20929421 27.16584969 -7 20.375 C-6.97647461 19.58661743 -6.95294922 18.79823486 -6.92871094 17.98596191 C-6.85491569 15.77338886 -6.75976767 13.56292183 -6.65625 11.3515625 C-6.60275391 10.09682129 -6.54925781 8.84208008 -6.49414062 7.54931641 C-5.77925229 2.95693591 -4.77317885 0.59664736 0 0 Z " fill="#26283D" transform="translate(333,220.625)"/>
<path d="M0 0 C0.81050812 -0.00335861 1.62101624 -0.00671722 2.45608521 -0.01017761 C5.13081404 -0.01966073 7.80548002 -0.02162983 10.48022461 -0.02270508 C12.35005214 -0.02592101 14.21987941 -0.02928533 16.08970642 -0.03279114 C20.01114484 -0.0387769 23.93256124 -0.04063176 27.85400391 -0.04003906 C32.85128871 -0.03993782 37.84843022 -0.05355311 42.84568119 -0.07081127 C46.71071505 -0.08199673 50.57571509 -0.08395622 54.44076347 -0.08342934 C56.28134082 -0.08460103 58.12191929 -0.08897668 59.96248055 -0.0967617 C78.06583883 -0.1661265 98.85290101 0.83280729 112.82006836 14.14526367 C113.93346487 17.34627865 113.5750963 18.71859839 112.82006836 22.14526367 C110.82006836 24.14526367 110.82006836 24.14526367 107.69506836 24.64526367 C103.10348084 24.05280077 101.46805367 22.59768265 97.99584961 19.73901367 C94.29965549 17.03156807 90.1223325 15.62880303 85.82006836 14.14526367 C84.96690033 13.8041153 84.1137323 13.46296692 83.23471069 13.11148071 C78.9705918 11.90489334 75.10210897 11.83777078 70.69360352 11.82641602 C69.79539886 11.81637039 68.89719421 11.80632477 67.97177124 11.79597473 C65.01756399 11.76520634 62.06344711 11.7481252 59.10913086 11.73120117 C57.05503566 11.71248443 55.00094812 11.69291064 52.9468689 11.67251587 C47.55141717 11.62124224 42.15594053 11.58159092 36.76037598 11.54437256 C31.25026307 11.50430307 25.74025338 11.45322414 20.23022461 11.40307617 C9.42691175 11.30637331 -1.37645945 11.22195042 -12.17993164 11.14526367 C-11.99430664 10.54713867 -11.80868164 9.94901367 -11.61743164 9.33276367 C-10.95899477 6.98117605 -10.95899477 6.98117605 -12.17993164 4.14526367 C-12.83993164 4.14526367 -13.49993164 4.14526367 -14.17993164 4.14526367 C-13.84993164 3.15526367 -13.51993164 2.16526367 -13.17993164 1.14526367 C-8.78645067 0.06073946 -4.49699322 -0.00268868 0 0 Z " fill="#212339" transform="translate(201.179931640625,141.854736328125)"/>
<path d="M0 0 C2.45152715 6.34512908 2.45152715 6.34512908 1 10 C-3.59015492 12.73643851 -8.28925704 14.45983356 -13.3125 16.25 C-19.17873552 18.43960651 -23.75395418 21.37190682 -28.66015625 25.23046875 C-30.72824653 26.7944836 -32.69471757 27.85248164 -35 29 C-36.12516085 30.83284443 -36.12516085 30.83284443 -37 33 C-38.5 35.75 -38.5 35.75 -40 38 C-40.66 38 -41.32 38 -42 38 C-42.268125 38.86625 -42.53625 39.7325 -42.8125 40.625 C-44 44 -44 44 -45.5625 47.0625 C-46.92988483 49.85672116 -47.55328284 51.94743272 -48 55 C-48.185625 56.0725 -48.37125 57.145 -48.5625 58.25 C-49.0548141 62.46983516 -49.50906778 66.76352067 -49 71 C-48.34 71.66 -47.68 72.32 -47 73 C-50.13349732 74.04449911 -50.98968256 73.93423645 -54 73 C-54.66 73.99 -55.32 74.98 -56 76 C-56.66 76 -57.32 76 -58 76 C-57.67 77.98 -57.34 79.96 -57 82 C-60.36817517 79.32273256 -62.30225726 77.26026451 -62.875 73 C-62.95989435 71.33497542 -62.99751907 69.66718557 -63 68 C-63.01160156 67.05125 -63.02320312 66.1025 -63.03515625 65.125 C-62.53072201 48.98310427 -55.75948086 36.39243432 -46 24 C-45.34 23.01 -44.68 22.02 -44 21 C-43.34 21 -42.68 21 -42 21 C-42 20.34 -42 19.68 -42 19 C-41.34 19 -40.68 19 -40 19 C-40 18.34 -40 17.68 -40 17 C-39.34 17 -38.68 17 -38 17 C-38 16.34 -38 15.68 -38 15 C-37.34 15 -36.68 15 -36 15 C-36 14.34 -36 13.68 -36 13 C-33.44719068 11.26384769 -30.9143442 9.67362547 -28.25 8.125 C-27.47736816 7.67535889 -26.70473633 7.22571777 -25.90869141 6.76245117 C-9.45712156 -2.57921497 -9.45712156 -2.57921497 0 0 Z " fill="#2B2D42" transform="translate(175,339)"/>
<path d="M0 0 C4.14598031 5.11337571 4.17082982 10.40994769 4.203125 16.7265625 C4.20882507 17.58881439 4.21452515 18.45106628 4.22039795 19.33944702 C4.22984566 21.166878 4.23638102 22.994326 4.24023438 24.82177734 C4.24989108 27.5937354 4.28089585 30.36493623 4.3125 33.13671875 C4.31903543 34.91666229 4.32428378 36.69661111 4.328125 38.4765625 C4.3404718 39.29565094 4.3528186 40.11473938 4.36553955 40.95864868 C4.33767762 48.29727606 2.69745851 56.1686722 -2 62 C-8.0856205 66.90965519 -15.62622425 70.15620628 -23.5 69.875 C-26 69 -26 69 -28 66 C-27.54716981 59.54716981 -27.54716981 59.54716981 -25 57 C-23.9275 56.87625 -22.855 56.7525 -21.75 56.625 C-17.32073237 55.88678873 -14.19534145 54.19534145 -11 51 C-10.7465666 48.40934744 -10.56825803 45.84808207 -10.4375 43.25 C-10.39286621 42.43466797 -10.34823242 41.61933594 -10.30224609 40.77929688 C-10.04322435 35.31083781 -9.9904095 29.86497764 -10.04296875 24.390625 C-10.05465088 23.08706055 -10.06633301 21.78349609 -10.07836914 20.44042969 C-10.10924304 17.83150445 -10.15381062 15.22270226 -10.21264648 12.61425781 C-10.22755127 11.41124023 -10.24245605 10.20822266 -10.2578125 8.96875 C-10.29092529 7.35129883 -10.29092529 7.35129883 -10.32470703 5.70117188 C-10 3 -10 3 -8.70263672 1.15820312 C-5.77841032 -0.83097525 -3.39884652 -0.4855495 0 0 Z " fill="#7B63DE" transform="translate(375,215)"/>
<path d="M0 0 C3 3.75 3 3.75 3 6 C3.99 6.33 4.98 6.66 6 7 C6.33 6.34 6.66 5.68 7 5 C7.33 4.67 7.66 4.34 8 4 C8.433125 3.46375 8.86625 2.9275 9.3125 2.375 C9.869375 1.92125 10.42625 1.4675 11 1 C13.10546875 1.4140625 13.10546875 1.4140625 15 2 C13.56974806 3.65213589 12.13054455 5.29652589 10.6875 6.9375 C9.48673828 8.31228516 9.48673828 8.31228516 8.26171875 9.71484375 C6 12 6 12 3 13 C3 13.66 3 14.32 3 15 C-11.95058281 24.23484276 -25.63199705 28.17572326 -43.25 28.1875 C-44.2296875 28.19974609 -45.209375 28.21199219 -46.21875 28.22460938 C-47.63414062 28.22750977 -47.63414062 28.22750977 -49.078125 28.23046875 C-49.92793945 28.23457764 -50.77775391 28.23868652 -51.65332031 28.24291992 C-54.25955968 27.97313131 -55.83899458 27.4815482 -58 26 C-58.9375 22.5625 -58.9375 22.5625 -59 19 C-57.92578125 17.3203125 -57.92578125 17.3203125 -56 16 C-52.953125 15.48828125 -52.953125 15.48828125 -49.25 15.3125 C-48.58895264 15.27543945 -47.92790527 15.23837891 -47.24682617 15.20019531 C-42.5850865 14.96851496 -37.97819483 15.09110637 -33.3125 15.25 C-25.90896186 15.31201917 -20.49716264 13.41076466 -14 10 C-13.32324219 9.66613281 -12.64648438 9.33226562 -11.94921875 8.98828125 C-7.44079416 6.61910913 -3.73828904 3.4087742 0 0 Z " fill="#26283E" transform="translate(313,303)"/>
<path d="M0 0 C1.30445653 0.00873852 1.30445653 0.00873852 2.63526571 0.01765358 C3.55577384 0.01594473 4.47628197 0.01423589 5.42468429 0.01247525 C8.52794528 0.00916503 11.63099294 0.0202092 14.73423421 0.03111184 C16.95124975 0.03167562 19.16826565 0.03136004 21.38528097 0.03022683 C27.42012648 0.02965103 33.45489311 0.04144199 39.48972023 0.05537474 C45.79048966 0.06784437 52.09126074 0.06904962 58.39204061 0.07142556 C68.97275295 0.07694328 79.55343932 0.08945102 90.13413656 0.10728371 C101.03354914 0.12563449 111.93295384 0.13979491 122.83237875 0.14829934 C123.5039273 0.14882478 124.17547586 0.14935023 124.86737438 0.1498916 C128.23624909 0.15250163 131.60512386 0.15502905 134.97399867 0.15751541 C162.93364821 0.1784425 190.89326534 0.21363994 218.85288656 0.25816262 C217.25132406 5.03941262 217.25132406 5.03941262 213.66538656 7.00816262 C210.10233282 8.30990459 206.65276445 9.03893889 202.85288656 9.25816262 C201.86288656 8.59816262 200.87288656 7.93816262 199.85288656 7.25816262 C199.85288656 7.91816262 199.85288656 8.57816262 199.85288656 9.25816262 C200.84288656 9.91816262 201.83288656 10.57816262 202.85288656 11.25816262 C200.96791727 13.1431319 198.26207909 12.39070306 195.75718343 12.39488137 C194.94314046 12.39101418 194.1290975 12.38714699 193.29038656 12.38316262 C192.5034139 12.38702981 191.71644125 12.39089699 190.90562093 12.39488137 C185.80194197 12.3864664 180.90440165 11.98724727 175.85288656 11.25816262 C175.85288656 10.92816262 175.85288656 10.59816262 175.85288656 10.25816262 C179.31788656 9.76316262 179.31788656 9.76316262 182.85288656 9.25816262 C182.85288656 8.59816262 182.85288656 7.93816262 182.85288656 7.25816262 C180.87288656 6.76316262 180.87288656 6.76316262 178.85288656 6.25816262 C178.85288656 4.93816262 178.85288656 3.61816262 178.85288656 2.25816262 C117.14288656 2.25816262 55.43288656 2.25816262 -8.14711344 2.25816262 C-5.5060648 -0.38288602 -3.59375047 0.01816659 0 0 Z " fill="#171A2C" transform="translate(134.14711344242096,410.7418373823166)"/>
<path d="M0 0 C2.4375 1.3125 2.4375 1.3125 3.875 3 C4.53447515 5.71117562 4.46547553 7.84267241 3.58984375 10.50390625 C0.49419164 15.36250601 -5.75108023 17.56058991 -10.875 19.6875 C-22.81127777 21.71059793 -33.07438949 20.26340052 -43.1875 13.4375 C-45.79750738 11.3151942 -46.51720724 10.43169147 -47.75 7.1875 C-47.5625 4.3125 -47.5625 4.3125 -46.5625 1.9375 C-44.5625 0.3125 -44.5625 0.3125 -41.3125 -0.25 C-36.57415361 0.46075196 -34.24972191 2.44167029 -30.5625 5.3125 C-25.75200132 8.17279651 -20.86232184 7.3460066 -15.5625 6.3125 C-13.09249319 5.47996512 -10.91417331 4.46433999 -8.5625 3.3125 C-7.5725 2.9825 -6.5825 2.6525 -5.5625 2.3125 C-5.5625 1.6525 -5.5625 0.9925 -5.5625 0.3125 C-2.5625 -0.6875 -2.5625 -0.6875 0 0 Z " fill="#313347" transform="translate(261.5625,267.6875)"/>
<path d="M0 0 C-0.33 0.66 -0.66 1.32 -1 2 C-1.94875 1.95875 -2.8975 1.9175 -3.875 1.875 C-7.10244856 1.65026182 -7.10244856 1.65026182 -9 4 C-9.33 4.99 -9.66 5.98 -10 7 C-11.32 7 -12.64 7 -14 7 C-14 7.66 -14 8.32 -14 9 C-14.62261719 8.7834375 -15.24523437 8.566875 -15.88671875 8.34375 C-22.88140701 6.23656358 -29.34695477 5.69780611 -36.625 5.6875 C-37.92957153 5.67976563 -37.92957153 5.67976563 -39.26049805 5.671875 C-46.08686469 5.7439143 -52.51312896 6.79247774 -59.10009766 8.56518555 C-61 9 -61 9 -64 9 C-64.33 9.33 -64.66 9.66 -65 10 C-66.99958364 10.04080783 -69.00045254 10.04254356 -71 10 C-70.484375 8.906875 -69.96875 7.81375 -69.4375 6.6875 C-67.59997888 3.13472753 -67.59997888 3.13472753 -69 0 C-68.00033203 -0.16435547 -68.00033203 -0.16435547 -66.98046875 -0.33203125 C-62.23150155 -1.14898645 -57.74766236 -2.06299633 -53.1875 -3.625 C-38.34774285 -7.86493061 -13.93812875 -6.96906437 0 0 Z " fill="#715FE0" transform="translate(276,82)"/>
<path d="M0 0 C0.33 0.66 0.66 1.32 1 2 C1.66 2 2.32 2 3 2 C4.0625 3.875 4.0625 3.875 5 6 C4.67 6.66 4.34 7.32 4 8 C34.03 8.33 64.06 8.66 95 9 C95 9.33 95 9.66 95 10 C90.43806439 10.18366932 85.87552581 10.34619803 81.3125 10.5 C80.22711945 10.5375087 80.22711945 10.5375087 79.11981201 10.57577515 C68.52981031 10.92900411 57.95881432 11.01756333 47.36328125 10.92578125 C46.18975601 10.91751312 45.01623077 10.909245 43.80714417 10.90072632 C37.9310346 10.85835941 32.05638668 10.79511004 26.1809082 10.69921875 C12.30026645 10.54320467 1.25084738 10.83273981 -10.4765625 19.046875 C-12 20 -12 20 -14 20 C-14 20.66 -14 21.32 -14 22 C-15.4609375 23.4375 -15.4609375 23.4375 -17.375 25 C-19.34164804 26.61864036 -21.19674196 28.19674196 -23 30 C-23 29.34 -23 28.68 -23 28 C-24.32 27.67 -25.64 27.34 -27 27 C-27.625 25.125 -27.625 25.125 -28 23 C-27.34 22.34 -26.68 21.68 -26 21 C-28.21081851 20.89459074 -28.21081851 20.89459074 -31 22 C-27.50215573 13.41438224 -17.47778123 7.01815492 -9.39453125 3.375 C-6.28165725 2.1800909 -3.16547181 1.04676969 0 0 Z " fill="#2D2F44" transform="translate(186,144)"/>
<path d="M0 0 C2.9914394 3.41878788 3.64514948 5.34048968 3.8671875 9.78125 C3.48139279 13.31562734 1.92850467 15.37656412 -0.375 18 C-4.41814376 20.69542917 -7.62608711 20.66452365 -12.375 20 C-15.56000291 18.37854397 -17.59611096 17.02671736 -19.75 14.1875 C-20.86150077 10.29724731 -20.9071743 6.59652291 -19.625 2.75 C-17.70902724 0.06763813 -15.60111564 -1.4926418 -12.5625 -2.75 C-7.65977168 -3.31031181 -4.23815859 -2.51150139 0 0 Z " fill="#2A2C40" transform="translate(286.375,222)"/>
<path d="M0 0 C4.02165773 2.88510228 6.1095908 6.07393929 7.12109375 10.8671875 C6.8806899 15.10139721 3.90302499 18.11853212 1 21 C-2.71829839 22.85914919 -6.94168736 22.42819992 -11 22 C-14 20.625 -14 20.625 -16 18 C-17.46226415 13.48765962 -18.52178806 9.56536417 -17 5 C-16.34 5 -15.68 5 -15 5 C-14.773125 4.38125 -14.54625 3.7625 -14.3125 3.125 C-11.13504445 -2.01945184 -5.21079937 -1.60332288 0 0 Z " fill="#2D2F43" transform="translate(207,220)"/>
<path d="M0 0 C0.99 0 1.98 0 3 0 C3 1.32 3 2.64 3 4 C4.98 3.67 6.96 3.34 9 3 C10.54839926 6.09679852 10.19039977 9.3521913 10.1875 12.75 C10.18814453 13.52972168 10.18878906 14.30944336 10.18945312 15.11279297 C10.10307323 25.11911824 9.052842 35.05680339 8 45 C7.34 45 6.68 45 6 45 C5.67 45.66 5.34 46.32 5 47 C2.9375 47.625 2.9375 47.625 1 48 C0.21947623 41.81792768 -0.13749927 35.81666708 -0.09765625 29.58984375 C-0.0962413 28.73693253 -0.09482635 27.8840213 -0.09336853 27.00526428 C-0.08782939 24.31597184 -0.0752888 21.62676672 -0.0625 18.9375 C-0.05747712 17.09961059 -0.0529156 15.26171985 -0.04882812 13.42382812 C-0.03788 8.94918578 -0.02065839 4.47460762 0 0 Z " fill="#5F6DEF" transform="translate(91,217)"/>
<path d="M0 0 C-5.68959411 3.0636276 -10.51090534 4.25956379 -17 4 C-17 4.66 -17 5.32 -17 6 C-16.34 6.33 -15.68 6.66 -15 7 C-15.66 8.98 -16.32 10.96 -17 13 C-16.236875 12.835 -15.47375 12.67 -14.6875 12.5 C-12 12 -12 12 -9 12 C-7.53555332 11.71753182 -6.07727906 11.40202599 -4.625 11.0625 C2.15259867 9.4903766 8.29179528 8.81737953 15.25 8.8125 C16.15363281 8.80025391 17.05726563 8.78800781 17.98828125 8.77539062 C23.74814094 8.76295927 29.54100847 8.97537402 35 11 C35.495 11.99 35.495 11.99 36 13 C35.00895264 12.97905273 34.01790527 12.95810547 32.99682617 12.93652344 C6.73088708 12.32114403 6.73088708 12.32114403 -19 17 C-20.66286623 17.35180219 -22.32810468 17.69396907 -24 18 C-24.33 17.01 -24.66 16.02 -25 15 C-24.34 15 -23.68 15 -23 15 C-23.33 14.01 -23.66 13.02 -24 12 C-28.15259416 12.43371539 -32.26740722 12.86433467 -36.375 13.625 C-39.71445972 14.10206567 -41.82878068 13.05707311 -45 12 C-15.05443429 -0.8137532 -15.05443429 -0.8137532 0 0 Z " fill="#7A6DDE" transform="translate(224,78)"/>
<path d="M0 0 C1.70463142 2.38767189 3.30607746 4.77540206 4.875 7.25 C7.65529146 11.61431508 10.32464661 15.33319394 14 19 C14 22.22689045 13.44905935 23.51886498 11.25 25.875 C8.31441878 27.34279061 7.11204903 26.92105487 4 26 C-1.79597968 21.98490793 -8.40512159 16.08834851 -10 9 C-8.6875 6.375 -8.6875 6.375 -7 4 C-6.67 3.01 -6.34 2.02 -6 1 C-3.90006779 0.25486277 -2.22568901 0 0 0 Z " fill="#2F3146" transform="translate(158,289)"/>
<path d="M0 0 C0.99198259 1.94514847 1.94930305 3.87827713 2.7890625 5.89453125 C5.7824121 12.76245018 10.58411606 16.74862195 16.75 20.8125 C21.69781488 22.62035544 26.79580119 23.28421214 32 24 C29.33788628 25.37579827 26.93703384 26.37063561 24 27 C24.495 27.99 24.495 27.99 25 29 C24.01 29.495 24.01 29.495 23 30 C22.27840576 31.64363134 21.60648579 33.31050386 21 35 C14.68368172 34.59683075 10.35006016 32.28767869 5 29 C5 28.34 5 27.68 5 27 C4.13955078 26.64228516 4.13955078 26.64228516 3.26171875 26.27734375 C0.53061383 24.73490626 -1.12478197 22.91933918 -3.1875 20.5625 C-3.88230469 19.78003906 -4.57710938 18.99757813 -5.29296875 18.19140625 C-7 16 -7 16 -8 13 C-7.01 13 -6.02 13 -5 13 C-5 13.99 -5 14.98 -5 16 C-4.01 16.33 -3.02 16.66 -2 17 C-1.54625 17.680625 -1.0925 18.36125 -0.625 19.0625 C0.86943434 21.30563488 0.86943434 21.30563488 3.6875 21.25 C4.450625 21.1675 5.21375 21.085 6 21 C6 20.34 6 19.68 6 19 C6.66 18.67 7.32 18.34 8 18 C8 17.34 8 16.68 8 16 C7.236875 16 6.47375 16 5.6875 16 C3 15 3 15 2 13.3984375 C0.15847311 8.81232728 -0.30672063 4.90753009 0 0 Z " fill="#6773ED" transform="translate(120,297)"/>
<path d="M0 0 C2.10073853 -0.36076355 2.10073853 -0.36076355 4.72509766 -0.34057617 C5.70596344 -0.34034958 6.68682922 -0.34012299 7.69741821 -0.33988953 C8.75891083 -0.32440567 9.82040344 -0.30892181 10.9140625 -0.29296875 C11.99883881 -0.28872391 13.08361511 -0.28447906 14.20126343 -0.28010559 C17.67609167 -0.263273 21.15034618 -0.22561189 24.625 -0.1875 C26.97655414 -0.17245911 29.32811735 -0.15876967 31.6796875 -0.14648438 C37.45332173 -0.11335454 43.22661989 -0.06310982 49 0 C49.495 2.97 49.495 2.97 50 6 C42.7593678 6.16911187 35.51857098 6.32883022 28.27758789 6.48217773 C25.81692876 6.53537855 23.35631427 6.59068904 20.89575195 6.64819336 C17.34856792 6.73071939 13.80128992 6.80552894 10.25390625 6.87890625 C8.61742882 6.91945885 8.61742882 6.91945885 6.94789124 6.96083069 C0.85526098 7.07851552 -4.95997487 6.82100113 -11 6 C-11 5.67 -11 5.34 -11 5 C-10.37351563 4.89042969 -9.74703125 4.78085937 -9.1015625 4.66796875 C-7.87566406 4.43013672 -7.87566406 4.43013672 -6.625 4.1875 C-5.81289062 4.03667969 -5.00078125 3.88585937 -4.1640625 3.73046875 C-1.64179359 3.12455058 -1.64179359 3.12455058 0 0 Z " fill="#1F2139" transform="translate(168,416)"/>
<path d="M0 0 C4.16231155 0.62434673 5.90409612 1.76542535 9.10546875 4.31640625 C11.16889364 5.87990397 13.30430054 6.74726685 15.75 7.5625 C14.1 9.5425 12.45 11.5225 10.75 13.5625 C11.389375 13.85125 12.02875 14.14 12.6875 14.4375 C14.75 15.5625 14.75 15.5625 15.75 17.5625 C18.33605332 18.0308265 18.33605332 18.0308265 21.3125 18.1875 C22.32441406 18.26226562 23.33632812 18.33703125 24.37890625 18.4140625 C25.55259766 18.48753906 25.55259766 18.48753906 26.75 18.5625 C26.255 16.5825 26.255 16.5825 25.75 14.5625 C28.25 15.9375 28.25 15.9375 30.75 17.5625 C30.75 18.2225 30.75 18.8825 30.75 19.5625 C21.27573641 22.37053475 11.45407228 20.93477817 2.75 16.5625 C-1.55987128 14.09178474 -4.6387177 12.17113763 -6.4375 7.4375 C-6.25 4.5625 -6.25 4.5625 -5.25 2.1875 C-3.25 0.5625 -3.25 0.5625 0 0 Z " fill="#2D2F42" transform="translate(220.25,267.4375)"/>
<path d="M0 0 C7.31794303 2.03942675 14.3397145 4.773532 20 10 C21.13240602 13.20078028 20.75609133 14.56850857 20 18 C18 20 18 20 14.875 20.5 C10.27514049 19.90646974 8.42471818 18.41380271 4.93359375 15.53515625 C2.47774849 13.58536395 -0.14892095 12.28298557 -3 11 C-3.32613618 6.32538149 -2.70582788 3.83325617 0 0 Z " fill="#292A40" transform="translate(294,146)"/>
<path d="M0 0 C0.33 0.66 0.66 1.32 1 2 C1.66 2 2.32 2 3 2 C4.0625 3.875 4.0625 3.875 5 6 C4.67 6.66 4.34 7.32 4 8 C34.03 8.33 64.06 8.66 95 9 C95 9.33 95 9.66 95 10 C90.43806701 10.18366922 85.87556095 10.34724901 81.3125 10.5 C80.22961197 10.53651169 80.22961197 10.53651169 79.12484741 10.57376099 C68.47722278 10.91860055 57.84063267 11.03152731 47.1875 10.99609375 C45.40946236 10.99079147 45.40946236 10.99079147 43.59550476 10.98538208 C37.64393297 10.96434725 31.69282435 10.92809417 25.74145508 10.875 C23.52164836 10.86305195 21.30184044 10.85132344 19.08203125 10.83984375 C18.06661255 10.82634384 17.05119385 10.81284393 16.00500488 10.79893494 C10.54493534 10.77978622 6.18351359 11.32155653 1 13 C-0.32 13 -1.64 13 -3 13 C-3 12.34 -3 11.68 -3 11 C-7.31392226 11.4793247 -9.16569547 12.7457985 -12 16 C-12.33 15.01 -12.66 14.02 -13 13 C-13.66 12.67 -14.32 12.34 -15 12 C-14.01 11.319375 -14.01 11.319375 -13 10.625 C-12.34 10.08875 -11.68 9.5525 -11 9 C-11 8.34 -11 7.68 -11 7 C-11.66 6.34 -12.32 5.68 -13 5 C-8.71 3.35 -4.42 1.7 0 0 Z " fill="#444657" transform="translate(186,144)"/>
<path d="M0 0 C1.28197266 -0.03867188 1.28197266 -0.03867188 2.58984375 -0.078125 C5.58541367 0.31939139 6.92687328 1.13401123 9.0625 3.25 C9.3125 6.4375 9.3125 6.4375 9.0625 9.25 C8.4025 9.25 7.7425 9.25 7.0625 9.25 C7.0625 9.91 7.0625 10.57 7.0625 11.25 C3.31480926 12.49923025 -0.00009026 12.1907394 -3.875 11.9375 C-4.59107422 11.90205078 -5.30714844 11.86660156 -6.04492188 11.83007812 C-9.7684321 11.5988685 -12.75822988 11.28373676 -15.9375 9.25 C-15.9375 8.59 -15.9375 7.93 -15.9375 7.25 C-16.5975 6.92 -17.2575 6.59 -17.9375 6.25 C-16.3345947 5.43501438 -14.73012722 4.62310073 -13.125 3.8125 C-12.23167969 3.36003906 -11.33835937 2.90757812 -10.41796875 2.44140625 C-6.81563511 0.71115151 -3.96113081 0.07147905 0 0 Z " fill="#606CEB" transform="translate(121.9375,199.75)"/>
<path d="M0 0 C2.97 0.495 2.97 0.495 6 1 C7.10228696 5.40914783 7.07654536 9.48382401 7 14 C6.01 14 5.02 14 4 14 C3.7525 14.9075 3.505 15.815 3.25 16.75 C1.86714981 20.34541051 1.09353518 21.73335315 -2 24 C-5.01292954 24.54066605 -7.94840449 24.46762031 -11 24.375 C-11.80695313 24.37371094 -12.61390625 24.37242187 -13.4453125 24.37109375 C-17.57742541 24.30972574 -20.3401414 24.06124059 -24 22 C-23.34 20.68 -22.68 19.36 -22 18 C-21.44441406 18.34675781 -20.88882812 18.69351562 -20.31640625 19.05078125 C-17.42181786 20.23692793 -15.95580831 19.89313769 -12.9375 19.1875 C-12.08027344 18.99542969 -11.22304688 18.80335938 -10.33984375 18.60546875 C-8.54045326 18.13985018 -6.7632771 17.58775903 -5 17 C-4.87625 16.360625 -4.7525 15.72125 -4.625 15.0625 C-4.41875 14.381875 -4.2125 13.70125 -4 13 C-2.7625 12.5359375 -2.7625 12.5359375 -1.5 12.0625 C-0.675 11.711875 0.15 11.36125 1 11 C1.89386164 8.45224694 1.89386164 8.45224694 2 6 C1.34 6 0.68 6 0 6 C-0.66 7.32 -1.32 8.64 -2 10 C-2.20086443 6.28400809 -2.1519437 5.22791555 0 2 C0 1.34 0 0.68 0 0 Z " fill="#22243B" transform="translate(356,399)"/>
<path d="M0 0 C0.66 0 1.32 0 2 0 C2.14622803 0.54003662 2.29245605 1.08007324 2.44311523 1.63647461 C3.10443555 4.07110922 3.77089688 6.50430679 4.4375 8.9375 C4.66759766 9.78763672 4.89769531 10.63777344 5.13476562 11.51367188 C5.35712891 12.32255859 5.57949219 13.13144531 5.80859375 13.96484375 C6.01282959 14.7137085 6.21706543 15.46257324 6.42749023 16.23413086 C6.85391799 18.00543922 6.85391799 18.00543922 8 19 C8 20.65 8 22.3 8 24 C3.05 24 -1.9 24 -7 24 C-5.40554307 15.73781407 -2.73981931 7.93711014 0 0 Z " fill="#26293D" transform="translate(373,129)"/>
<path d="M0 0 C0.06859127 2.46928572 0.1093669 4.61113993 -0.5625 7 C-1.1747949 9.09795055 -1.1747949 9.09795055 -0.375 11.5625 C-0.25125 12.366875 -0.1275 13.17125 0 14 C-1.4375 15.6875 -1.4375 15.6875 -3 17 C-3 17.66 -3 18.32 -3 19 C-3.66 19 -4.32 19 -5 19 C-5.33 19.99 -5.66 20.98 -6 22 C-7.11375 21.979375 -8.2275 21.95875 -9.375 21.9375 C-12.83215921 21.73619282 -12.83215921 21.73619282 -15 23 C-15.2226746 21.56465159 -15.42761906 20.12654475 -15.625 18.6875 C-15.74101562 17.88699219 -15.85703125 17.08648437 -15.9765625 16.26171875 C-16 14 -16 14 -14 11 C-13.34 11 -12.68 11 -12 11 C-12 10.34 -12 9.68 -12 9 C-11.34 9 -10.68 9 -10 9 C-10 8.34 -10 7.68 -10 7 C-9.34 7 -8.68 7 -8 7 C-8 6.34 -8 5.68 -8 5 C-7.34 5 -6.68 5 -6 5 C-6 4.34 -6 3.68 -6 3 C-1.5 0 -1.5 0 0 0 Z " fill="#27293F" transform="translate(145,349)"/>
<path d="M0 0 C0.33 0 0.66 0 1 0 C1 1.98 1 3.96 1 6 C2.65 5.34 4.3 4.68 6 4 C7.625 6.25 7.625 6.25 9 9 C8.2734375 10.85546875 8.2734375 10.85546875 7 13 C6.525625 13.81597656 6.05125 14.63195312 5.5625 15.47265625 C5.046875 16.32730469 4.53125 17.18195313 4 18.0625 C3.484375 18.91972656 2.96875 19.77695313 2.4375 20.66015625 C1.32939698 22.4638348 0.17422952 24.23865572 -1 26 C-1 24.35 -1 22.7 -1 21 C-0.34 21 0.32 21 1 21 C1 19.35 1 17.7 1 16 C-2.67111414 15.79604921 -4.79761207 16.23316528 -8 18 C-8.66 18 -9.32 18 -10 18 C-8.64780353 13.28501126 -6.69161848 9.67370412 -3.9375 5.625 C-3.22464844 4.56539062 -2.51179687 3.50578125 -1.77734375 2.4140625 C-1.19082031 1.61742187 -0.60429687 0.82078125 0 0 Z " fill="#7173E4" transform="translate(131,129)"/>
<path d="M0 0 C0.99 0.66 1.98 1.32 3 2 C2.34 3.32 1.68 4.64 1 6 C1.66 6.33 2.32 6.66 3 7 C3 7.66 3 8.32 3 9 C3.66 9 4.32 9 5 9 C4.31238981 12.65564909 2.74550455 15.51867272 0.9375 18.75 C0.38964844 19.73484375 -0.15820312 20.7196875 -0.72265625 21.734375 C-1.14417969 22.48203125 -1.56570312 23.2296875 -2 24 C-2.99 23.67 -3.98 23.34 -5 23 C-5.20140476 19.37471432 -4.85776765 17.13498292 -3 14 C-3.66 13.34 -4.32 12.68 -5 12 C-5 12.99 -5 13.98 -5 15 C-5.99 15 -6.98 15 -8 15 C-8 15.66 -8 16.32 -8 17 C-8.99 16.67 -9.98 16.34 -11 16 C-10.67246974 10.75951583 -7.61858392 6.62705836 -4 3 C-1.80078125 2.265625 -1.80078125 2.265625 0 2 C0 1.34 0 0.68 0 0 Z " fill="#27293D" transform="translate(158,163)"/>
<path d="M0 0 C0.33 0 0.66 0 1 0 C1.10957031 1.0621875 1.21914062 2.124375 1.33203125 3.21875 C2.34147044 13.9642403 2.34147044 13.9642403 6 24 C6.67289063 24.16628906 7.34578125 24.33257812 8.0390625 24.50390625 C8.68617187 24.66761719 9.33328125 24.83132813 10 25 C10.33 25.99 10.66 26.98 11 28 C10.01 28 9.02 28 8 28 C8 28.66 8 29.32 8 30 C6.35 30.33 4.7 30.66 3 31 C2.38125 30.195625 1.7625 29.39125 1.125 28.5625 C-0.74164041 25.96125481 -0.74164041 25.96125481 -3 25 C-3 24.01 -3 23.02 -3 22 C-3.99 22 -4.98 22 -6 22 C-5.505 20.515 -5.505 20.515 -5 19 C-5.33 18.34 -5.66 17.68 -6 17 C-4.68 16.67 -3.36 16.34 -2 16 C-1.34 10.72 -0.68 5.44 0 0 Z " fill="#5F6DEF" transform="translate(118,288)"/>
<path d="M0 0 C1.35544922 -0.01836914 1.35544922 -0.01836914 2.73828125 -0.03710938 C8.49814094 -0.04954073 14.29100847 0.16287402 19.75 2.1875 C20.245 3.1775 20.245 3.1775 20.75 4.1875 C19.26342896 4.1560791 19.26342896 4.1560791 17.74682617 4.12402344 C-8.51911292 3.50864403 -8.51911292 3.50864403 -34.25 8.1875 C-35.91286623 8.53930219 -37.57810468 8.88146907 -39.25 9.1875 C-39.58 8.1975 -39.91 7.2075 -40.25 6.1875 C-39.41855469 6.06632812 -38.58710938 5.94515625 -37.73046875 5.8203125 C-36.64378906 5.65273437 -35.55710938 5.48515625 -34.4375 5.3125 C-33.35855469 5.15007812 -32.27960938 4.98765625 -31.16796875 4.8203125 C-28.07678207 4.33617662 -28.07678207 4.33617662 -25.25 2.1875 C-24.651875 2.3525 -24.05375 2.5175 -23.4375 2.6875 C-20.2949642 3.4057939 -18.23616265 2.28445771 -15.25 1.1875 C-10.14103724 -0.0074053 -5.22221091 0.00366214 0 0 Z " fill="#8A7ED6" transform="translate(239.25,86.8125)"/>
<path d="M0 0 C0.598125 0.495 1.19625 0.99 1.8125 1.5 C3.97029994 3.28276418 3.97029994 3.28276418 7 3 C6.34 4.65 5.68 6.3 5 8 C4.34 8 3.68 8 3 8 C2.67 8.99 2.34 9.98 2 11 C1.01 11.495 1.01 11.495 0 12 C0 12.99 0 13.98 0 15 C-3 15 -3 15 -4.6875 13.5 C-5.120625 13.005 -5.55375 12.51 -6 12 C-6.66 13.98 -7.32 15.96 -8 18 C-8.99 17.67 -9.98 17.34 -11 17 C-11.6875 14.9375 -11.6875 14.9375 -12 13 C-11.01 12.34 -10.02 11.68 -9 11 C-8.67 10.01 -8.34 9.02 -8 8 C-7.34 8 -6.68 8 -6 8 C-5.7525 7.05125 -5.505 6.1025 -5.25 5.125 C-4 2 -4 2 -1.875 0.625 C-1.25625 0.41875 -0.6375 0.2125 0 0 Z " fill="#6762E5" transform="translate(157,105)"/>
<path d="M0 0 C0.33 0.66 0.66 1.32 1 2 C1.99 2.33 2.98 2.66 4 3 C3.67 3.33 3.34 3.66 3 4 C5.8684413 6.10232344 5.8684413 6.10232344 9 7 C9.33 7.66 9.66 8.32 10 9 C12.58605332 9.4683265 12.58605332 9.4683265 15.5625 9.625 C16.57441406 9.69976562 17.58632812 9.77453125 18.62890625 9.8515625 C19.80259766 9.92503906 19.80259766 9.92503906 21 10 C20.67 8.68 20.34 7.36 20 6 C22.5 7.375 22.5 7.375 25 9 C25 9.66 25 10.32 25 11 C15.44878786 13.83084119 5.83109809 12.2155416 -3 8 C-3.99 7.34 -4.98 6.68 -6 6 C-6 5.34 -6 4.68 -6 4 C-5.34 4 -4.68 4 -4 4 C-3.67 3.34 -3.34 2.68 -3 2 C-2.01 1.34 -1.02 0.68 0 0 Z " fill="#292C41" transform="translate(226,276)"/>
<path d="M0 0 C0.33 0 0.66 0 1 0 C1.02699725 2.27076842 1.04639453 4.54162821 1.0625 6.8125 C1.07410156 8.07707031 1.08570312 9.34164062 1.09765625 10.64453125 C1 14 1 14 0 17 C-1.3921875 16.9071875 -1.3921875 16.9071875 -2.8125 16.8125 C-5.98395103 16.69105736 -5.98395103 16.69105736 -7.875 18.5 C-8.24625 18.995 -8.6175 19.49 -9 20 C-10.38461538 12 -10.38461538 12 -9 9 C-6 8 -6 8 -4 8 C-1.73603877 5.46436342 -0.59687434 3.34249629 0 0 Z " fill="#636DF2" transform="translate(116,183)"/>
<path d="M0 0 C0.33 2.31 0.66 4.62 1 7 C1.33 6.67 1.66 6.34 2 6 C2.99 5.67 3.98 5.34 5 5 C5.33 6.65 5.66 8.3 6 10 C4.2507786 10.08142927 2.50045458 10.13938541 0.75 10.1875 C-0.71179688 10.23970703 -0.71179688 10.23970703 -2.203125 10.29296875 C-5.41203548 9.95683986 -6.61393251 9.09572742 -9 7 C-9.66 6.67 -10.32 6.34 -11 6 C-8.60159776 0.46522561 -5.82500047 -0.25888891 0 0 Z " fill="#21243B" transform="translate(241,276)"/>
<path d="M0 0 C1.07386683 2.77942003 2 5.18670826 2 8.1875 C0.3797035 11.1242874 -1.95358915 11.84236388 -5 13 C-5.99 12.67 -6.98 12.34 -8 12 C-7.34 10.68 -6.68 9.36 -6 8 C-4.68 8 -3.36 8 -2 8 C-1.957279 6.33388095 -1.95936168 4.66617115 -2 3 C-2.33 2.67 -2.66 2.34 -3 2 C-5.52391899 2.25475806 -5.52391899 2.25475806 -8 3 C-8.33 3.66 -8.66 4.32 -9 5 C-11.31 4.67 -13.62 4.34 -16 4 C-16 3.34 -16 2.68 -16 2 C-10.20377279 -0.32637691 -6.13909603 -1.43680971 0 0 Z " fill="#3C3D4E" transform="translate(175,339)"/>
<path d="M0 0 C1.2065625 0.0309375 1.2065625 0.0309375 2.4375 0.0625 C3.4375 3.0625 3.4375 3.0625 2.4375 6.0625 C1.7775 6.0625 1.1175 6.0625 0.4375 6.0625 C0.4375 7.7125 0.4375 9.3625 0.4375 11.0625 C-1.8725 11.3925 -4.1825 11.7225 -6.5625 12.0625 C-6.2325 10.0825 -5.9025 8.1025 -5.5625 6.0625 C-6.5525 6.0625 -7.5425 6.0625 -8.5625 6.0625 C-8.2325 4.7425 -7.9025 3.4225 -7.5625 2.0625 C-6.923125 1.918125 -6.28375 1.77375 -5.625 1.625 C-2.92258807 0.88797856 -2.9576555 0.07213794 0 0 Z " fill="#6268E9" transform="translate(129.5625,143.9375)"/>
<path d="M0 0 C1.134375 0.020625 2.26875 0.04125 3.4375 0.0625 C5.03830151 4.06450378 3.73029692 7.10806236 2.4375 11.0625 C0.7875 11.3925 -0.8625 11.7225 -2.5625 12.0625 C-2.68625 11.258125 -2.81 10.45375 -2.9375 9.625 C-3.246875 8.3565625 -3.246875 8.3565625 -3.5625 7.0625 C-4.2225 6.7325 -4.8825 6.4025 -5.5625 6.0625 C-4.48849278 0.07874549 -4.48849278 0.07874549 0 0 Z " fill="#202338" transform="translate(341.5625,357.9375)"/>
<path d="M0 0 C0.66 0 1.32 0 2 0 C1.67 2.31 1.34 4.62 1 7 C1.5775 6.79375 2.155 6.5875 2.75 6.375 C5.51967567 5.91338739 6.64561267 6.57055055 9 8 C9 8.66 9 9.32 9 10 C6.8828125 11.69140625 6.8828125 11.69140625 4.125 13.5625 C3.22007812 14.18253906 2.31515625 14.80257813 1.3828125 15.44140625 C-1 17 -1 17 -3 18 C-3.66 17.34 -4.32 16.68 -5 16 C-3.35 15.34 -1.7 14.68 0 14 C-0.37125 13.360625 -0.7425 12.72125 -1.125 12.0625 C-2.37034446 7.70379439 -1.21226863 4.28024077 0 0 Z " fill="#2F3247" transform="translate(145,349)"/>
<path d="M0 0 C2.10546875 0.4140625 2.10546875 0.4140625 4 1 C2.56974806 2.65213589 1.13054455 4.29652589 -0.3125 5.9375 C-1.11300781 6.85402344 -1.91351563 7.77054687 -2.73828125 8.71484375 C-5 11 -5 11 -8 12 C-8 12.66 -8 13.32 -8 14 C-9.65 13.67 -11.3 13.34 -13 13 C-13 12.34 -13 11.68 -13 11 C-12.34 11 -11.68 11 -11 11 C-11 10.34 -11 9.68 -11 9 C-9.6875 7.375 -9.6875 7.375 -8 6 C-7.01 6 -6.02 6 -5 6 C-4.67 5.34 -4.34 4.68 -4 4 C-3.67 3.67 -3.34 3.34 -3 3 C-2.3503125 2.195625 -2.3503125 2.195625 -1.6875 1.375 C-1.130625 0.92125 -0.57375 0.4675 0 0 Z " fill="#313343" transform="translate(324,304)"/>
<path d="M0 0 C0 0.66 0 1.32 0 2 C-1.65 2.66 -3.3 3.32 -5 4 C-5 3.01 -5 2.02 -5 1 C-2 0 -2 0 0 0 Z M-16 3 C-15.34 3 -14.68 3 -14 3 C-14 3.66 -14 4.32 -14 5 C-12.741875 4.62875 -11.48375 4.2575 -10.1875 3.875 C-8.04296875 3.2421875 -8.04296875 3.2421875 -6 3 C-5.01 3.66 -4.02 4.32 -3 5 C-3 5.66 -3 6.32 -3 7 C-3.66 7 -4.32 7 -5 7 C-5.33 7.99 -5.66 8.98 -6 10 C-7.11375 9.979375 -8.2275 9.95875 -9.375 9.9375 C-12.83215921 9.73619282 -12.83215921 9.73619282 -15 11 C-15.33 8.36 -15.66 5.72 -16 3 Z " fill="#26283B" transform="translate(145,361)"/>
<path d="M0 0 C0.66 0 1.32 0 2 0 C1.67 1.32 1.34 2.64 1 4 C2.32 4.66 3.64 5.32 5 6 C5 6.66 5 7.32 5 8 C5.66 8 6.32 8 7 8 C7.33 7.34 7.66 6.68 8 6 C8.625 8.875 8.625 8.875 9 12 C8.34 12.66 7.68 13.32 7 14 C3.875 13.625 3.875 13.625 1 13 C1.061875 12.236875 1.12375 11.47375 1.1875 10.6875 C1.25898085 7.95474688 1.25898085 7.95474688 -0.5 6.1875 C-0.995 5.795625 -1.49 5.40375 -2 5 C-1.34 3.35 -0.68 1.7 0 0 Z " fill="#7459DE" transform="translate(311,99)"/>
<path d="M0 0 C1.74965358 -0.05429959 3.49979787 -0.09292823 5.25 -0.125 C6.22453125 -0.14820313 7.1990625 -0.17140625 8.203125 -0.1953125 C11.05402338 0.00377258 12.64621939 0.407257 15 2 C16.09809194 5.29427581 16.11196276 6.66411172 15 10 C11.99208089 12.04108797 9.57804656 12.19878036 6 12 C6 11.34 6 10.68 6 10 C7.32 9.67 8.64 9.34 10 9 C10 8.34 10 7.68 10 7 C10.66 7 11.32 7 12 7 C12 5.68 12 4.36 12 3 C10.82630859 2.92652344 10.82630859 2.92652344 9.62890625 2.8515625 C8.11103516 2.73941406 8.11103516 2.73941406 6.5625 2.625 C5.04849609 2.52058594 5.04849609 2.52058594 3.50390625 2.4140625 C2.67761719 2.27742188 1.85132812 2.14078125 1 2 C0.67 1.34 0.34 0.68 0 0 Z " fill="#747CDD" transform="translate(114,273)"/>
<path d="M0 0 C-0.20625 0.886875 -0.4125 1.77375 -0.625 2.6875 C-1.30731028 6.37596008 -1.30731028 6.37596008 1 11 C7.93 11 14.86 11 22 11 C22 11.33 22 11.66 22 12 C18.41673499 12.05814085 14.83359162 12.09364357 11.25 12.125 C10.23421875 12.14175781 9.2184375 12.15851563 8.171875 12.17578125 C7.1921875 12.18222656 6.2125 12.18867188 5.203125 12.1953125 C3.85202637 12.21102295 3.85202637 12.21102295 2.47363281 12.22705078 C-0.20864067 11.98084921 -1.78843452 11.53439036 -4 10 C-4.9375 6.5625 -4.9375 6.5625 -5 3 C-3.42599605 0.67647035 -2.82844233 0 0 0 Z " fill="#898997" transform="translate(259,319)"/>
<path d="M0 0 C0.99 0.33 1.98 0.66 3 1 C3 1.66 3 2.32 3 3 C3.61875 3.28875 4.2375 3.5775 4.875 3.875 C7 5 7 5 9 7 C8.8125 10.5 8.8125 10.5 8 14 C4.77208445 16.1519437 3.71599191 16.20086443 0 16 C-0.33 15.01 -0.66 14.02 -1 13 C-0.34 12.67 0.32 12.34 1 12 C1 12.66 1 13.32 1 14 C2.65 13.34 4.3 12.68 6 12 C5.67 10.68 5.34 9.36 5 8 C4.01 8.33 3.02 8.66 2 9 C1.87625 8.360625 1.7525 7.72125 1.625 7.0625 C1.315625 6.0415625 1.315625 6.0415625 1 5 C0.34 4.67 -0.32 4.34 -1 4 C-0.67 2.68 -0.34 1.36 0 0 Z " fill="#7D66DA" transform="translate(313,99)"/>
<path d="M0 0 C0 0.99 0 1.98 0 3 C-3.62370661 3.25413123 -7.24868737 3.47405533 -10.875 3.6875 C-12.42380859 3.79674805 -12.42380859 3.79674805 -14.00390625 3.90820312 C-15.48310547 3.99038086 -15.48310547 3.99038086 -16.9921875 4.07421875 C-17.90339355 4.13182373 -18.81459961 4.18942871 -19.75341797 4.2487793 C-20.49479004 4.16668213 -21.23616211 4.08458496 -22 4 C-22.66 3.01 -23.32 2.02 -24 1 C-16.02509872 -0.32915021 -8.05813281 -0.08801359 0 0 Z " fill="#141523" transform="translate(283,318)"/>
<path d="M0 0 C0.99198259 1.94514847 1.94930305 3.87827713 2.7890625 5.89453125 C5.32538912 11.71386009 9.03261334 15.1418356 14 19 C13.67 19.66 13.34 20.32 13 21 C11.68 20.67 10.36 20.34 9 20 C8.67 18.68 8.34 17.36 8 16 C7.236875 16 6.47375 16 5.6875 16 C3 15 3 15 2 13.3984375 C0.15847311 8.81232728 -0.30672063 4.90753009 0 0 Z " fill="#7F85E1" transform="translate(120,297)"/>
<path d="M0 0 C1.32 0.66 2.64 1.32 4 2 C4 3.98 4 5.96 4 8 C3.34 8 2.68 8 2 8 C2 8.66 2 9.32 2 10 C-1.66987221 11.22329074 -4.33967822 10.88021006 -8.1875 10.5625 C-9.45980469 10.46066406 -10.73210937 10.35882813 -12.04296875 10.25390625 C-13.01878906 10.17011719 -13.99460937 10.08632812 -15 10 C-15 9.67 -15 9.34 -15 9 C-10.38 9 -5.76 9 -1 9 C-1 7.68 -1 6.36 -1 5 C-0.01 5 0.98 5 2 5 C1.34 3.35 0.68 1.7 0 0 Z " fill="#6C75DC" transform="translate(127,201)"/>
<path d="M0 0 C0.33 0 0.66 0 1 0 C1.33 1.65 1.66 3.3 2 5 C2.7425 4.649375 3.485 4.29875 4.25 3.9375 C7.1322726 2.95490707 8.21176345 2.9673198 11 4 C11.33 3.01 11.66 2.02 12 1 C12 1.66 12 2.32 12 3 C14.64 3 17.28 3 20 3 C20 3.33 20 3.66 20 4 C19.29875 4.09796875 18.5975 4.1959375 17.875 4.296875 C11.4860522 5.30382873 6.66500515 6.90999719 1 10 C0.34 10 -0.32 10 -1 10 C-0.67 9.01 -0.34 8.02 0 7 C-0.99 6.34 -1.98 5.68 -3 5 C-2.01 5 -1.02 5 0 5 C0 3.35 0 1.7 0 0 Z " fill="#818EED" transform="translate(105,196)"/>
<path d="M0 0 C0.66 0.33 1.32 0.66 2 1 C0.25 4.875 0.25 4.875 -2 6 C-2.65213292 8.02463255 -2.65213292 8.02463255 -3 10 C-3.598125 10.103125 -4.19625 10.20625 -4.8125 10.3125 C-7.28243264 11.08876455 -8.32251235 12.07088921 -10 14 C-10.99 13.67 -11.98 13.34 -13 13 C-11.21427748 11.16052663 -9.42197551 9.32842259 -7.625 7.5 C-7.11710938 6.97535156 -6.60921875 6.45070313 -6.0859375 5.91015625 C-4.76167396 4.56846819 -3.38394135 3.28004185 -2 2 C-1.34 2 -0.68 2 0 2 C0 1.34 0 0.68 0 0 Z " fill="#7B74DA" transform="translate(151,108)"/>
<path d="M0 0 C0.99 0.33 1.98 0.66 3 1 C2.34 1 1.68 1 1 1 C1 3.97 1 6.94 1 10 C3.64 10.33 6.28 10.66 9 11 C6.36609075 12.72217143 5.07588583 13.00455315 1.875 12.8125 C-1 12 -1 12 -3 9 C-2.54716981 2.54716981 -2.54716981 2.54716981 0 0 Z " fill="#8673D5" transform="translate(350,272)"/>
<path d="M0 0 C0.33 0 0.66 0 1 0 C0.95875 1.11375 0.9175 2.2275 0.875 3.375 C0.58878141 7.04366025 0.58878141 7.04366025 3 9 C2.21625 9.45375 1.4325 9.9075 0.625 10.375 C-2.03698031 11.88428742 -2.03698031 11.88428742 -4 14 C-4.05422947 12.5629191 -4.09289723 11.12524538 -4.125 9.6875 C-4.14820313 8.88699219 -4.17140625 8.08648437 -4.1953125 7.26171875 C-4 5 -4 5 -2 2 C-1.34 2 -0.68 2 0 2 C0 1.34 0 0.68 0 0 Z " fill="#7358E1" transform="translate(371,215)"/>
<path d="M0 0 C0.99 0.33 1.98 0.66 3 1 C3.33 1.99 3.66 2.98 4 4 C1.8125 7.1875 1.8125 7.1875 -1 10 C-2.32 10 -3.64 10 -5 10 C-3.84826645 7.53199953 -2.95216435 5.95216435 -1 4 C-1.66 3.67 -2.32 3.34 -3 3 C-2.34 3 -1.68 3 -1 3 C-0.67 2.01 -0.34 1.02 0 0 Z " fill="#2D2F41" transform="translate(360,412)"/>
<path d="M0 0 C0.625 1.8125 0.625 1.8125 1 4 C0.01 5.485 0.01 5.485 -1 7 C-1 7.99 -1 8.98 -1 10 C-0.67 9.34 -0.34 8.68 0 8 C0.66 8 1.32 8 2 8 C2.042721 9.66611905 2.04063832 11.33382885 2 13 C1 14 1 14 -2.0625 14.0625 C-3.031875 14.041875 -4.00125 14.02125 -5 14 C-4.34 13.67 -3.68 13.34 -3 13 C-3.11859375 12.39671875 -3.2371875 11.7934375 -3.359375 11.171875 C-3.75255754 8.73414325 -4.0467792 6.47079212 -4 4 C-2.0625 1.4375 -2.0625 1.4375 0 0 Z " fill="#323447" transform="translate(356,397)"/>
<path d="M0 0 C3.83325416 1.45399296 5.28279605 3.3080115 7 7 C7.1875 9.8125 7.1875 9.8125 7 12 C6.34 12 5.68 12 5 12 C3.97971135 10.68212715 2.98028616 9.34789347 2 8 C1.34 7.67 0.68 7.34 0 7 C0.2784375 6.1028125 0.2784375 6.1028125 0.5625 5.1875 C1.22093687 2.83591238 1.22093687 2.83591238 0 0 Z " fill="#484957" transform="translate(283,221)"/>
<path d="M0 0 C0.33 0 0.66 0 1 0 C0.67 2.97 0.34 5.94 0 9 C-2.31 9 -4.62 9 -7 9 C-7.33 7.68 -7.66 6.36 -8 5 C-5.36 5 -2.72 5 0 5 C0 3.35 0 1.7 0 0 Z M-10 5 C-9.87625 5.639375 -9.7525 6.27875 -9.625 6.9375 C-9.41875 7.618125 -9.2125 8.29875 -9 9 C-8.34 9.33 -7.68 9.66 -7 10 C-7.66 10.66 -8.32 11.32 -9 12 C-9.33 9.69 -9.66 7.38 -10 5 Z " fill="#6069E6" transform="translate(116,191)"/>
<path d="M0 0 C0.66 0 1.32 0 2 0 C2.24900646 1.93505023 2.47356242 3.87325934 2.6875 5.8125 C2.87892578 7.43091797 2.87892578 7.43091797 3.07421875 9.08203125 C3 12 3 12 1.51953125 13.88671875 C1.01808594 14.25410156 0.51664062 14.62148437 0 15 C-1 14 -1 14 -1.1328125 11.6015625 C-1.13023437 10.61929688 -1.12765625 9.63703125 -1.125 8.625 C-1.12757813 7.64789063 -1.13015625 6.67078125 -1.1328125 5.6640625 C-1 3 -1 3 0 0 Z " fill="#242430" transform="translate(323,138)"/>
<path d="M0 0 C2.5 1.375 2.5 1.375 5 3 C5 3.66 5 4.32 5 5 C1.39006828 6.13480527 -1.9842327 6.10015767 -5.75 6.0625 C-6.92046875 6.05347656 -8.0909375 6.04445313 -9.296875 6.03515625 C-10.18890625 6.02355469 -11.0809375 6.01195312 -12 6 C-11.67 5.01 -11.34 4.02 -11 3 C-7.04 3.33 -3.08 3.66 1 4 C0.67 2.68 0.34 1.36 0 0 Z " fill="#555562" transform="translate(246,282)"/>
<path d="M0 0 C3.12492251 -0.05791844 6.24970766 -0.09356746 9.375 -0.125 C10.26445312 -0.14175781 11.15390625 -0.15851563 12.0703125 -0.17578125 C12.92109375 -0.18222656 13.771875 -0.18867188 14.6484375 -0.1953125 C15.82672119 -0.21102295 15.82672119 -0.21102295 17.02880859 -0.22705078 C19 0 19 0 21 2 C20.625 4.125 20.625 4.125 20 6 C20 5.01 20 4.02 20 3 C12.97360585 2.25194283 6.06608191 1.86205046 -1 2 C-0.67 1.34 -0.34 0.68 0 0 Z " fill="#BEBDC5" transform="translate(364,159)"/>
<path d="M0 0 C0.804375 0.5259375 0.804375 0.5259375 1.625 1.0625 C4.73274763 2.28924249 6.79431703 1.72856431 10 1 C10 1.99 10 2.98 10 4 C8 6 8 6 5.125 6.25 C2.14403168 6.01152253 0.5107442 5.54507335 -2 4 C-1.34 2.68 -0.68 1.36 0 0 Z " fill="#2C2C46" transform="translate(334,417)"/>
<path d="M0 0 C0.66 0.33 1.32 0.66 2 1 C2.625 4.0625 2.625 4.0625 3 7 C2.34 6.67 1.68 6.34 1 6 C-1.03144641 6.93446535 -3.03533587 7.93224776 -5 9 C-5.99 8.34 -6.98 7.68 -8 7 C-7 5 -7 5 -4 3 C-3.01 3.33 -2.02 3.66 -1 4 C-0.67 2.68 -0.34 1.36 0 0 Z " fill="#1E1F36" transform="translate(355,375)"/>
<path d="M0 0 C0.33 0.66 0.66 1.32 1 2 C0.67 2.99 0.34 3.98 0 5 C2.97 5 5.94 5 9 5 C9 5.66 9 6.32 9 7 C4.38 7 -0.24 7 -5 7 C-4.34 5.02 -3.68 3.04 -3 1 C-2.01 0.67 -1.02 0.34 0 0 Z " fill="#161625" transform="translate(371,146)"/>
<path d="M0 0 C2.31 0.66 4.62 1.32 7 2 C7 2.33 7 2.66 7 3 C0.33333333 4.33333333 -6.33333333 5.66666667 -13 7 C-13.33 6.01 -13.66 5.02 -14 4 C-12.73542969 3.81824219 -12.73542969 3.81824219 -11.4453125 3.6328125 C-10.34960938 3.46523437 -9.25390625 3.29765625 -8.125 3.125 C-7.03445312 2.96257812 -5.94390625 2.80015625 -4.8203125 2.6328125 C-1.88067286 2.23743487 -1.88067286 2.23743487 0 0 Z " fill="#998FDD" transform="translate(213,89)"/>
<path d="M0 0 C3.875 0.875 3.875 0.875 5 2 C5.23255814 6.53488372 5.23255814 6.53488372 4 9 C1.525 8.01 1.525 8.01 -1 7 C-0.67 4.69 -0.34 2.38 0 0 Z " fill="#7F6ADA" transform="translate(372,215)"/>
<path d="M0 0 C0 3.19610552 -0.54671542 4.41717626 -2 7.1875 C-2.37125 7.90292969 -2.7425 8.61835938 -3.125 9.35546875 C-3.558125 10.16951172 -3.558125 10.16951172 -4 11 C-4.99 10.67 -5.98 10.34 -7 10 C-7.25 7.75 -7.25 7.75 -7 5 C-4.7522146 2.20964571 -3.42269984 1.14089995 0 0 Z " fill="#3F4150" transform="translate(160,176)"/>
<path d="M0 0 C0.33 0.66 0.66 1.32 1 2 C2.98 1.67 4.96 1.34 7 1 C7 1.66 7 2.32 7 3 C7.99 3.33 8.98 3.66 10 4 C6.85069107 5.04976964 4.61185544 5.10131595 1.3125 5.0625 C0.31863281 5.05347656 -0.67523438 5.04445312 -1.69921875 5.03515625 C-2.83810547 5.01775391 -2.83810547 5.01775391 -4 5 C-2.25 1.125 -2.25 1.125 0 0 Z " fill="#1D1E31" transform="translate(381,201)"/>
<path d="M0 0 C0 0.66 0 1.32 0 2 C-1.051875 2.268125 -2.10375 2.53625 -3.1875 2.8125 C-6.9367467 3.79478189 -6.9367467 3.79478189 -9.625 5.6875 C-12 7 -12 7 -14.8125 6.6875 C-15.534375 6.460625 -16.25625 6.23375 -17 6 C-17 5.34 -17 4.68 -17 4 C-14.5424552 3.33030409 -12.08405076 2.6641232 -9.625 2 C-8.57699219 1.71382813 -8.57699219 1.71382813 -7.5078125 1.421875 C-2.2265625 0 -2.2265625 0 0 0 Z " fill="#5B5E68" transform="translate(379,83)"/>
<path d="M0 0 C1.32 0 2.64 0 4 0 C2.125 4.75 2.125 4.75 1 7 C-0.98 7 -2.96 7 -5 7 C-3.625 4.5 -3.625 4.5 -2 2 C-1.34 2 -0.68 2 0 2 C0 1.34 0 0.68 0 0 Z " fill="#2C2E3E" transform="translate(256,268)"/>
<path d="M0 0 C1.98 0 3.96 0 6 0 C6.33 0.66 6.66 1.32 7 2 C6.34 2.66 5.68 3.32 5 4 C5 3.34 5 2.68 5 2 C3.02 2.99 3.02 2.99 1 4 C0.67 2.68 0.34 1.36 0 0 Z M-4 2 C-1.525 2.99 -1.525 2.99 1 4 C0.67 4.66 0.34 5.32 0 6 C-2.0625 6.625 -2.0625 6.625 -4 7 C-4.5625 5.0625 -4.5625 5.0625 -5 3 C-4.67 2.67 -4.34 2.34 -4 2 Z " fill="#1D1F35" transform="translate(367,162)"/>
<path d="M0 0 C1.32 0.66 2.64 1.32 4 2 C3.67 4.64 3.34 7.28 3 10 C2.67 9.34 2.34 8.68 2 8 C0.68 8 -0.64 8 -2 8 C-1.125 2.25 -1.125 2.25 0 0 Z " fill="#7580EC" transform="translate(92,209)"/>
<path d="M0 0 C-3.4019487 2.09350689 -6.05272412 2.17942163 -10 2 C-10 2.99 -10 3.98 -10 5 C-12.97 4.505 -12.97 4.505 -16 4 C-15.67 2.68 -15.34 1.36 -15 0 C-4.44191344 -1.33257403 -4.44191344 -1.33257403 0 0 Z " fill="#323344" transform="translate(378,161)"/>
<path d="M0 0 C0.99 0.33 1.98 0.66 3 1 C1.68 3.97 0.36 6.94 -1 10 C-1.99 9.01 -2.98 8.02 -4 7 C-3.875 4.4375 -3.875 4.4375 -3 2 C-2.01 1.34 -1.02 0.68 0 0 Z " fill="#777AE4" transform="translate(127,155)"/>
<path d="M0 0 C2.64 0 5.28 0 8 0 C7.67 1.65 7.34 3.3 7 5 C0.25 4.25 0.25 4.25 -2 2 C-1.34 2 -0.68 2 0 2 C0 1.34 0 0.68 0 0 Z " fill="#373846" transform="translate(227,282)"/>
<path d="M0 0 C0.33 0 0.66 0 1 0 C1 2.64 1 5.28 1 8 C1.66 8 2.32 8 3 8 C3.125 14.75 3.125 14.75 2 17 C1.34 17 0.68 17 0 17 C0 11.39 0 5.78 0 0 Z " fill="#3E3F4D" transform="translate(150,254)"/>
<path d="M0 0 C0 0.66 0 1.32 0 2 C-0.66 2 -1.32 2 -2 2 C-2.66 5.96 -3.32 9.92 -4 14 C-6.41486943 11.58513057 -6.2961925 10.87292211 -6.3125 7.5625 C-6.32925781 6.78003906 -6.34601563 5.99757812 -6.36328125 5.19140625 C-5.69588004 1.1654699 -3.97499969 0 0 0 Z " fill="#9589D3" transform="translate(371,215)"/>
<path d="M0 0 C0.33 0.99 0.66 1.98 1 3 C2.65 3 4.3 3 6 3 C5.67 3.66 5.34 4.32 5 5 C-2.41176471 6.29411765 -2.41176471 6.29411765 -5 5 C-5 4.01 -5 3.02 -5 2 C-3.35 2 -1.7 2 0 2 C0 1.34 0 0.68 0 0 Z " fill="#4A4B5A" transform="translate(333,206)"/>
<path d="M0 0 C0.66 0.99 1.32 1.98 2 3 C-0.31 6.3 -2.62 9.6 -5 13 C-5.33 12.01 -5.66 11.02 -6 10 C-5.34 10 -4.68 10 -4 10 C-4.20625 9.401875 -4.4125 8.80375 -4.625 8.1875 C-5 6 -5 6 -3 3 C-2.01 3 -1.02 3 0 3 C0 2.01 0 1.02 0 0 Z " fill="#434453" transform="translate(434,174)"/>
<path d="M0 0 C-1.75 4.875 -1.75 4.875 -4 6 C-4 5.34 -4 4.68 -4 4 C-5.32 3.67 -6.64 3.34 -8 3 C-8 2.34 -8 1.68 -8 1 C-3.375 -1.125 -3.375 -1.125 0 0 Z M-8 4 C-6 5 -6 5 -6 5 Z " fill="#303143" transform="translate(363,89)"/>
<path d="M0 0 C1.5625 1.25 1.5625 1.25 3 3 C2.7181953 5.32488881 2.04553582 6.90892835 1 9 C-1.0625 9.625 -1.0625 9.625 -3 10 C-2.49287967 6.28111761 -1.88391785 3.26545761 0 0 Z " fill="#515361" transform="translate(329,197)"/>
<path d="M0 0 C0.33 0.99 0.66 1.98 1 3 C2.65 3 4.3 3 6 3 C2.87567603 5.52349243 -0.38060496 7.27256146 -4 9 C-3.35455571 5.51460083 -1.89865603 2.97180943 0 0 Z " fill="#7F76DC" transform="translate(181,97)"/>
<path d="M0 0 C0.5775 0.165 1.155 0.33 1.75 0.5 C4.26664369 1.14462031 4.26664369 1.14462031 8 1 C7.67 1.99 7.34 2.98 7 4 C3.9375 5.1875 3.9375 5.1875 1 6 C0 1.125 0 1.125 0 0 Z " fill="#7171DD" transform="translate(225,331)"/>
<path d="M0 0 C1.65 0 3.3 0 5 0 C5.33 1.32 5.66 2.64 6 4 C7.32 4 8.64 4 10 4 C10.33 5.32 10.66 6.64 11 8 C6.25 6.125 6.25 6.125 4 5 C4 4.34 4 3.68 4 3 C2.68 2.34 1.36 1.68 0 1 C0 0.67 0 0.34 0 0 Z " fill="#8288E1" transform="translate(121,321)"/>
<path d="M0 0 C0.33 0 0.66 0 1 0 C1.66 4.62 2.32 9.24 3 14 C2.01 14.495 2.01 14.495 1 15 C-1.35033491 10.44622611 -1.4457809 6.01762683 -1 1 C-0.67 0.67 -0.34 0.34 0 0 Z " fill="#7F86E6" transform="translate(91,256)"/>
<path d="M0 0 C1.32 1.65 2.64 3.3 4 5 C3.01 5.495 3.01 5.495 2 6 C1.67 6.66 1.34 7.32 1 8 C0.67 7.34 0.34 6.68 0 6 C-0.33 6.66 -0.66 7.32 -1 8 C-1.99 8 -2.98 8 -4 8 C-4 7.34 -4 6.68 -4 6 C-5.65 6 -7.3 6 -9 6 C-9 5.67 -9 5.34 -9 5 C-6.36 4.67 -3.72 4.34 -1 4 C-0.67 2.68 -0.34 1.36 0 0 Z " fill="#5E606E" transform="translate(361,165)"/>
<path d="M0 0 C1.5625 1.25 1.5625 1.25 3 3 C2.6875 5.1875 2.6875 5.1875 2 7 C1.34 6.67 0.68 6.34 0 6 C0 6.99 0 7.98 0 9 C-0.99 9 -1.98 9 -3 9 C-2.69181644 7.68647977 -2.37832335 6.37420428 -2.0625 5.0625 C-1.88847656 4.33160156 -1.71445312 3.60070312 -1.53515625 2.84765625 C-1 1 -1 1 0 0 Z " fill="#1B1E31" transform="translate(373,134)"/>
<path d="M0 0 C0.66 0 1.32 0 2 0 C1.6875 3.375 1.6875 3.375 1 7 C-2.22791555 9.1519437 -3.28400809 9.20086443 -7 9 C-7.33 8.01 -7.66 7.02 -8 6 C-7.34 5.67 -6.68 5.34 -6 5 C-6 5.66 -6 6.32 -6 7 C-3.47636012 6.37466625 -3.47636012 6.37466625 -1 5 C-0.10613836 2.45224694 -0.10613836 2.45224694 0 0 Z " fill="#8473CD" transform="translate(320,106)"/>
<path d="M0 0 C-0.99 0.495 -0.99 0.495 -2 1 C-2 2.65 -2 4.3 -2 6 C-2.99 6.33 -3.98 6.66 -5 7 C-5.33 5.35 -5.66 3.7 -6 2 C-6.99 1.67 -7.98 1.34 -9 1 C-9 0.67 -9 0.34 -9 0 C-5.62182575 -0.84454356 -3.32534757 -1.10844919 0 0 Z " fill="#1F2139" transform="translate(175,341)"/>
<path d="M0 0 C0.33 0.99 0.66 1.98 1 3 C-1.25 5.0625 -1.25 5.0625 -4 7 C-6.3125 6.75 -6.3125 6.75 -8 6 C-7.01 6 -6.02 6 -5 6 C-5.66 4.35 -6.32 2.7 -7 1 C-5.5459375 1.0309375 -5.5459375 1.0309375 -4.0625 1.0625 C-1.12534105 1.35618499 -1.12534105 1.35618499 0 0 Z " fill="#575967" transform="translate(171,309)"/>
<path d="M0 0 C1.32 0.33 2.64 0.66 4 1 C1.69 3.64 -0.62 6.28 -3 9 C-3.66 8.01 -4.32 7.02 -5 6 C-4.01 6 -3.02 6 -2 6 C-2.33 5.01 -2.66 4.02 -3 3 C-1.75 1.4375 -1.75 1.4375 0 0 Z " fill="#474756" transform="translate(324,304)"/>
<path d="M0 0 C0.33 1.98 0.66 3.96 1 6 C-0.65 5.67 -2.3 5.34 -4 5 C-4 4.34 -4 3.68 -4 3 C-4.66 2.67 -5.32 2.34 -6 2 C-3 0 -3 0 0 0 Z " fill="#636EF3" transform="translate(110,204)"/>
<path d="M0 0 C0 0.33 0 0.66 0 1 C-4.51815281 1.88277755 -8.77512694 2.10589503 -13.375 2.0625 C-15.24285156 2.04896484 -15.24285156 2.04896484 -17.1484375 2.03515625 C-18.55996094 2.01775391 -18.55996094 2.01775391 -20 2 C-20 1.67 -20 1.34 -20 1 C-6.3667426 -1.48063781 -6.3667426 -1.48063781 0 0 Z " fill="#71727C" transform="translate(398,205)"/>
<path d="M0 0 C3 0 3 0 6 1 C2.04 4.465 2.04 4.465 -2 8 C-2.66 6.68 -3.32 5.36 -4 4 C-3.01 4 -2.02 4 -1 4 C-0.67 2.68 -0.34 1.36 0 0 Z " fill="#837CDE" transform="translate(160,112)"/>
<path d="M0 0 C5.45769811 -0.11138159 10.61509359 0.08342019 16 1 C12.25577071 3.49615286 8.34882801 3.61489576 4 3 C1.5 1.5 1.5 1.5 0 0 Z " fill="#7B84E0" transform="translate(136,320)"/>
<path d="M0 0 C1.03789581 1.64333504 2.03567924 3.31243867 3 5 C3.66 5.66 4.32 6.32 5 7 C2.03 6.67 -0.94 6.34 -4 6 C-4 4.35 -4 2.7 -4 1 C-2 0 -2 0 0 0 Z " fill="#737DE5" transform="translate(103,264)"/>
<path d="M0 0 C0.66 0.99 1.32 1.98 2 3 C-4.625 4.125 -4.625 4.125 -8 3 C-8 2.34 -8 1.68 -8 1 C-5.01726077 0.00575359 -3.10494126 -0.31845551 0 0 Z " fill="#222332" transform="translate(204,219)"/>
<path d="M0 0 C1.32 0 2.64 0 4 0 C4 1.32 4 2.64 4 4 C3.01 4.33 2.02 4.66 1 5 C1 5.66 1 6.32 1 7 C0.01 6.67 -0.98 6.34 -2 6 C-1.125 1.125 -1.125 1.125 0 0 Z " fill="#303043" transform="translate(149,173)"/>
<path d="M0 0 C2.375 -0.1875 2.375 -0.1875 5 0 C5.66 0.99 6.32 1.98 7 3 C5 5 5 5 2.375 5.125 C1.59125 5.08375 0.8075 5.0425 0 5 C-0.33 4.34 -0.66 3.68 -1 3 C-0.67 2.01 -0.34 1.02 0 0 Z " fill="#25273C" transform="translate(165,306)"/>
<path d="M0 0 C2.31 0 4.62 0 7 0 C7.33 0.99 7.66 1.98 8 3 C6.35 3 4.7 3 3 3 C2.67 3.99 2.34 4.98 2 6 C1.34 5.34 0.68 4.68 0 4 C0 2.68 0 1.36 0 0 Z " fill="#5F6FF6" transform="translate(119,275)"/>
<path d="M0 0 C3.63 0 7.26 0 11 0 C10.67 0.99 10.34 1.98 10 3 C8.88625 2.979375 7.7725 2.95875 6.625 2.9375 C3.16784079 2.73619282 3.16784079 2.73619282 1 4 C0.67 2.68 0.34 1.36 0 0 Z " fill="#191929" transform="translate(379,84)"/>
<path d="M0 0 C1.32 0.66 2.64 1.32 4 2 C2.625 4.5 2.625 4.5 1 7 C0.34 7 -0.32 7 -1 7 C-1.33 7.66 -1.66 8.32 -2 9 C-2.20140476 5.37471432 -1.85776765 3.13498292 0 0 Z " fill="#525361" transform="translate(134,370)"/>
<path d="M0 0 C0.66 0 1.32 0 2 0 C2 0.66 2 1.32 2 2 C4.31 1.34 6.62 0.68 9 0 C8.67 1.32 8.34 2.64 8 4 C7.401875 4.103125 6.80375 4.20625 6.1875 4.3125 C3.71756736 5.08876455 2.67748765 6.07088921 1 8 C0.67 5.36 0.34 2.72 0 0 Z " fill="#1C2038" transform="translate(129,364)"/>
<path d="M0 0 C0.33 0.66 0.66 1.32 1 2 C3.02463255 2.65213292 3.02463255 2.65213292 5 3 C4.67 3.66 4.34 4.32 4 5 C5.2065625 5.185625 5.2065625 5.185625 6.4375 5.375 C7.7059375 5.684375 7.7059375 5.684375 9 6 C9.33 6.66 9.66 7.32 10 8 C6.46850054 7.67895459 4.44225392 7.34914783 1.625 5.125 C0 3 0 3 0 0 Z " fill="#383844" transform="translate(293,343)"/>
<path d="M0 0 C2 1.375 2 1.375 4 3 C4 3.66 4 4.32 4 5 C3.01 5.33 2.02 5.66 1 6 C0.34 6.99 -0.32 7.98 -1 9 C-1.625 6.1875 -1.625 6.1875 -2 3 C-1.34 2.01 -0.68 1.02 0 0 Z " fill="#4C4C60" transform="translate(216,269)"/>
<path d="M0 0 C-3 2 -3 2 -5.5625 3 C-8.12563162 3.86842753 -8.12563162 3.86842753 -10 6 C-10.66 4.35 -11.32 2.7 -12 1 C-10.68 1.33 -9.36 1.66 -8 2 C-8 1.34 -8 0.68 -8 0 C-4.71023192 -1.09658936 -3.28696233 -0.79953138 0 0 Z " fill="#7F86E6" transform="translate(112,211)"/>
<path d="M0 0 C1.23922223 3.71766668 0.57018942 5.43889537 -0.4375 9.1875 C-0.72496094 10.27417969 -1.01242188 11.36085937 -1.30859375 12.48046875 C-1.65083984 13.72763672 -1.65083984 13.72763672 -2 15 C-2.33 15 -2.66 15 -3 15 C-3.08142927 13.2507786 -3.13938541 11.50045458 -3.1875 9.75 C-3.22230469 8.77546875 -3.25710937 7.8009375 -3.29296875 6.796875 C-2.96075202 3.62531258 -2.11327721 2.32959693 0 0 Z " fill="#8286E1" transform="translate(122,172)"/>
<path d="M0 0 C0.99 0.33 1.98 0.66 3 1 C2.34 2.65 1.68 4.3 1 6 C0.01 6 -0.98 6 -2 6 C-2 5.34 -2 4.68 -2 4 C-2.66 3.67 -3.32 3.34 -4 3 C-2.1875 1.4375 -2.1875 1.4375 0 0 Z " fill="#1F223B" transform="translate(175,153)"/>
<path d="M0 0 C0.33 1.32 0.66 2.64 1 4 C1.66 4 2.32 4 3 4 C2.67 5.32 2.34 6.64 2 8 C1.01 7.67 0.02 7.34 -1 7 C-1.33 6.01 -1.66 5.02 -2 4 C-2.99 3.34 -3.98 2.68 -5 2 C-3.35 1.34 -1.7 0.68 0 0 Z " fill="#272A3C" transform="translate(300,154)"/>
<path d="M0 0 C0.66 0 1.32 0 2 0 C4.42857143 6.28571429 4.42857143 6.28571429 3 10 C2.01 8.68 1.02 7.36 0 6 C-0.66 6.66 -1.32 7.32 -2 8 C-1.47731534 5.23723823 -0.89130413 2.6739124 0 0 Z " fill="#4A4B58" transform="translate(373,129)"/>
<path d="M0 0 C0.33 0 0.66 0 1 0 C1 1.65 1 3.3 1 5 C1.66 5.33 2.32 5.66 3 6 C3 6.99 3 7.98 3 9 C3.66 9 4.32 9 5 9 C5.33 10.65 5.66 12.3 6 14 C3.26722779 11.82779645 1.27111085 10.14172035 0.4453125 6.6640625 C0.21349978 4.43725548 0.05362988 2.23782882 0 0 Z " fill="#75757F" transform="translate(112,407)"/>
<path d="M0 0 C0.66 0 1.32 0 2 0 C3.0257259 4.41062136 3.03684712 6.92630576 1 11 C0.67 11 0.34 11 0 11 C0 7.37 0 3.74 0 0 Z " fill="#918FDC" transform="translate(233,321)"/>
<path d="M0 0 C2.475 0.495 2.475 0.495 5 1 C5.33 1.99 5.66 2.98 6 4 C6.66 4.66 7.32 5.32 8 6 C8 6.66 8 7.32 8 8 C4.20645982 6.50968064 2.3521464 4.27620391 0 1 C0 0.67 0 0.34 0 0 Z " fill="#8C91E2" transform="translate(93,272)"/>
<path d="M0 0 C1.98 0.99 3.96 1.98 6 3 C6 5.64 6 8.28 6 11 C5.67 11 5.34 11 5 11 C5 8.69 5 6.38 5 4 C3.35 4.66 1.7 5.32 0 6 C0 4.02 0 2.04 0 0 Z " fill="#545563" transform="translate(308,153)"/>
<path d="M0 0 C0.66 0.99 1.32 1.98 2 3 C1.34 3 0.68 3 0 3 C0 3.66 0 4.32 0 5 C0.66 5 1.32 5 2 5 C1.67 6.32 1.34 7.64 1 9 C0.01 9 -0.98 9 -2 9 C-2.33 9.66 -2.66 10.32 -3 11 C-2.69078116 9.54096742 -2.37751201 8.08279278 -2.0625 6.625 C-1.88847656 5.81289062 -1.71445312 5.00078125 -1.53515625 4.1640625 C-1 2 -1 2 0 0 Z " fill="#4A4B5B" transform="translate(370,138)"/>
<path d="M0 0 C4.875 4.625 4.875 4.625 6 8 C5.01 8.495 5.01 8.495 4 9 C3.67 8.34 3.34 7.68 3 7 C2.01 7 1.02 7 0 7 C0.33 5.68 0.66 4.36 1 3 C0.34 3 -0.32 3 -1 3 C-0.67 2.01 -0.34 1.02 0 0 Z " fill="#41424F" transform="translate(428,102)"/>
<path d="M0 0 C1.32 0 2.64 0 4 0 C3.49396008 2.16874252 3.00016187 3.99967627 2 6 C0.68 5.34 -0.64 4.68 -2 4 C-1.34 2.68 -0.68 1.36 0 0 Z " fill="#3E3F4E" transform="translate(120,376)"/>
<path d="M0 0 C2.01920337 1.30406884 4.01924973 2.63823419 6 4 C6 4.33 6 4.66 6 5 C3.69 5.33 1.38 5.66 -1 6 C-1 5.34 -1 4.68 -1 4 C-1.66 3.67 -2.32 3.34 -3 3 C-2.01 2.01 -1.02 1.02 0 0 Z " fill="#464754" transform="translate(422,97)"/>
<path d="M0 0 C-0.33 1.32 -0.66 2.64 -1 4 C-3.97 3.67 -6.94 3.34 -10 3 C-6.84439813 -0.15560187 -4.30999015 -1.43666338 0 0 Z " fill="#847ADC" transform="translate(189,88)"/>
<path d="M0 0 C0.66 0.33 1.32 0.66 2 1 C2 1.66 2 2.32 2 3 C2.99 3 3.98 3 5 3 C4.67 3.99 4.34 4.98 4 6 C1.5625 5.1875 1.5625 5.1875 -1 4 C-1.33 3.01 -1.66 2.02 -2 1 C-1.34 0.67 -0.68 0.34 0 0 Z " fill="#1B1E37" transform="translate(120,393)"/>
<path d="M0 0 C-0.33 1.32 -0.66 2.64 -1 4 C-3.31 3.67 -5.62 3.34 -8 3 C-8 2.34 -8 1.68 -8 1 C-5.07175348 0.02391783 -3.04386724 -0.08226668 0 0 Z " fill="#3A3C49" transform="translate(167,340)"/>
<path d="M0 0 C0 0.99 0 1.98 0 3 C-0.53625 2.855625 -1.0725 2.71125 -1.625 2.5625 C-4.39915827 1.90546252 -7.18525388 1.44780052 -10 1 C-6.1496895 -1.56687367 -4.41430237 -0.83288724 0 0 Z " fill="#54565F" transform="translate(175,339)"/>
<path d="M0 0 C0.66 0.33 1.32 0.66 2 1 C2 1.66 2 2.32 2 3 C1.360625 3.28875 0.72125 3.5775 0.0625 3.875 C-2.15206079 4.82823451 -2.15206079 4.82823451 -3 7 C-4.32 6.67 -5.64 6.34 -7 6 C-4.69 4.02 -2.38 2.04 0 0 Z " fill="#8A8FE2" transform="translate(100,202)"/>
<path d="M0 0 C0.33 0.66 0.66 1.32 1 2 C1.99 2.33 2.98 2.66 4 3 C1.69 4.65 -0.62 6.3 -3 8 C-3.33 7.01 -3.66 6.02 -4 5 C-3.34 5 -2.68 5 -2 5 C-2 4.34 -2 3.68 -2 3 C-1.34 3 -0.68 3 0 3 C0 2.01 0 1.02 0 0 Z " fill="#7B75DA" transform="translate(153,118)"/>
<path d="M0 0 C0.95465783 2.16967689 1.14401212 3.56328793 0.3984375 5.82421875 C-0.35870385 7.5684743 -1.17609198 9.28627131 -2 11 C-3.0625 9.1875 -3.0625 9.1875 -4 7 C-3.02391783 4.07175348 -1.89213369 2.38573379 0 0 Z " fill="#515363" transform="translate(356,397)"/>
<path d="M0 0 C2.64 0 5.28 0 8 0 C8 0.66 8 1.32 8 2 C4.7 2.66 1.4 3.32 -2 4 C-1.34 2.68 -0.68 1.36 0 0 Z " fill="#3C3D47" transform="translate(297,338)"/>
<path d="M0 0 C-0.66 1.65 -1.32 3.3 -2 5 C-4.97 4.505 -4.97 4.505 -8 4 C-7.01 3.34 -6.02 2.68 -5 2 C-5.33 1.34 -5.66 0.68 -6 0 C-3.50907189 -1.24546405 -2.58919267 -0.7767578 0 0 Z " fill="#5E6AE2" transform="translate(142,326)"/>
<path d="M0 0 C0.66 0.66 1.32 1.32 2 2 C1.34 2 0.68 2 0 2 C0 1.34 0 0.68 0 0 Z M-3 2 C-1.02 2.495 -1.02 2.495 1 3 C0.625 4.9375 0.625 4.9375 0 7 C-0.99 7.495 -0.99 7.495 -2 8 C-2 7.01 -2 6.02 -2 5 C-2.66 4.67 -3.32 4.34 -4 4 C-3.67 3.34 -3.34 2.68 -3 2 Z " fill="#3A3C4F" transform="translate(319,308)"/>
<path d="M0 0 C2.475 0.495 2.475 0.495 5 1 C5 4 5 4 3 7 C2.34 6.67 1.68 6.34 1 6 C0.375 2.9375 0.375 2.9375 0 0 Z " fill="#1E2037" transform="translate(314,303)"/>
<path d="M0 0 C0 0.99 0 1.98 0 3 C-2.31 3 -4.62 3 -7 3 C-7.33 2.34 -7.66 1.68 -8 1 C-5.07175348 0.02391783 -3.04386724 -0.08226668 0 0 Z " fill="#454654" transform="translate(312,163)"/>
<path d="M0 0 C0.66 0 1.32 0 2 0 C2 0.66 2 1.32 2 2 C0.04072937 3.7143618 -1.95880212 5.38405168 -4 7 C-4.66 6.67 -5.32 6.34 -6 6 C-5.67 4.68 -5.34 3.36 -5 2 C-4.360625 1.855625 -3.72125 1.71125 -3.0625 1.5625 C-1.02454854 1.18992819 -1.02454854 1.18992819 0 0 Z " fill="#6064E1" transform="translate(127,144)"/>
<path d="M0 0 C1.32 0.66 2.64 1.32 4 2 C3.67 3.65 3.34 5.3 3 7 C2.67 6.34 2.34 5.68 2 5 C1.01 4.67 0.02 4.34 -1 4 C-0.67 2.68 -0.34 1.36 0 0 Z " fill="#343749" transform="translate(364,121)"/>
<path d="M0 0 C0.99 0.66 1.98 1.32 3 2 C1.75 3.5 1.75 3.5 0 5 C-1.32 5 -2.64 5 -4 5 C-2.25 1.125 -2.25 1.125 0 0 Z " fill="#4B4E59" transform="translate(359,417)"/>
<path d="M0 0 C-3.83542457 2.55694972 -5.65902533 2.04045639 -10.1875 1.625 C-12.09595703 1.45871094 -12.09595703 1.45871094 -14.04296875 1.2890625 C-15.01878906 1.19367188 -15.99460937 1.09828125 -17 1 C-17 0.67 -17 0.34 -17 0 C-14.72979256 -0.19493195 -12.45879711 -0.38070418 -10.1875 -0.5625 C-8.92292969 -0.66691406 -7.65835937 -0.77132813 -6.35546875 -0.87890625 C-3 -1 -3 -1 0 0 Z " fill="#0F1021" transform="translate(353,412)"/>
<path d="M0 0 C0.33 0.99 0.66 1.98 1 3 C-0.4375 5.6875 -0.4375 5.6875 -2 8 C-3.32 7.67 -4.64 7.34 -6 7 C-5.34 6.01 -4.68 5.02 -4 4 C-3.34 4 -2.68 4 -2 4 C-2 3.34 -2 2.68 -2 2 C-1.34 2 -0.68 2 0 2 C0 1.34 0 0.68 0 0 Z " fill="#464653" transform="translate(135,356)"/>
<path d="M0 0 C0.66 0 1.32 0 2 0 C1.67 1.98 1.34 3.96 1 6 C-0.32 6.33 -1.64 6.66 -3 7 C-2.25 2.25 -2.25 2.25 0 0 Z " fill="#4A4B5B" transform="translate(257,319)"/>
<path d="M0 0 C0.99 0 1.98 0 3 0 C3 0.99 3 1.98 3 3 C3.99 3.33 4.98 3.66 6 4 C6.33 4.99 6.66 5.98 7 7 C6.01 7 5.02 7 4 7 C2.02 3.535 2.02 3.535 0 0 Z " fill="#8793E1" transform="translate(112,310)"/>
<path d="M0 0 C0.66 0 1.32 0 2 0 C2 0.66 2 1.32 2 2 C2.99 2.33 3.98 2.66 5 3 C5 3.66 5 4.32 5 5 C2.03 4.505 2.03 4.505 -1 4 C-0.67 2.68 -0.34 1.36 0 0 Z " fill="#262837" transform="translate(161,310)"/>
<path d="M0 0 C0.6875 1.6875 0.6875 1.6875 1 4 C-0.3125 6.75 -0.3125 6.75 -2 9 C-2.66 9 -3.32 9 -4 9 C-2.25 2.25 -2.25 2.25 0 0 Z " fill="#434550" transform="translate(324,286)"/>
<path d="M0 0 C0.33 0.66 0.66 1.32 1 2 C-3.625 7.875 -3.625 7.875 -7 9 C-5.44499019 5.18315774 -2.96404505 2.80804268 0 0 Z " fill="#81818A" transform="translate(162,157)"/>
<path d="M0 0 C2.14809171 3.22213757 2.29386153 4.27775401 2 8 C1.67 8.33 1.34 8.66 1 9 C0.63239269 11.32817964 0.29758419 13.6618385 0 16 C-0.33 16 -0.66 16 -1 16 C-1.11138159 10.54230189 -0.91657981 5.38490641 0 0 Z " fill="#141525" transform="translate(413,127)"/>
<path d="M0 0 C2.31 0 4.62 0 7 0 C4.37801226 2.15377564 2.35595828 3.40072174 -1 4 C-0.67 2.68 -0.34 1.36 0 0 Z " fill="#4A4C58" transform="translate(344,203)"/>
<path d="M0 0 C0.66 0.33 1.32 0.66 2 1 C1.34 4.3 0.68 7.6 0 11 C-2 9 -2 9 -2.25 6.625 C-1.99345272 3.93125358 -1.36770587 2.30800365 0 0 Z " fill="#10112C" transform="translate(413,160)"/>
<path d="M0 0 C0.598125 0.20625 1.19625 0.4125 1.8125 0.625 C1.1525 1.945 0.4925 3.265 -0.1875 4.625 C-2.1875 3.625 -2.1875 3.625 -5.1875 1.625 C-2.1875 -0.375 -2.1875 -0.375 0 0 Z " fill="#424254" transform="translate(174.1875,150.375)"/>
<path d="M0 0 C0.99 1.32 1.98 2.64 3 4 C1.35 5.32 -0.3 6.64 -2 8 C-1.47731534 5.23723823 -0.89130413 2.6739124 0 0 Z " fill="#525462" transform="translate(117,382)"/>
<path d="M0 0 C0.33 0.66 0.66 1.32 1 2 C-1 5 -1 5 -4.125 5.6875 C-5.07375 5.790625 -6.0225 5.89375 -7 6 C-2.25 1.125 -2.25 1.125 0 0 Z " fill="#40414F" transform="translate(310,306)"/>
<path d="M0 0 C0.99 0 1.98 0 3 0 C3 0.66 3 1.32 3 2 C2.34 2 1.68 2 1 2 C0.67 3.32 0.34 4.64 0 6 C-0.99 5.34 -1.98 4.68 -3 4 C-1.6875 2 -1.6875 2 0 0 Z " fill="#3A3B4C" transform="translate(317,298)"/>
<path d="M0 0 C1.98 0.99 1.98 0.99 4 2 C4 3.98 4 5.96 4 8 C3.34 8 2.68 8 2 8 C1.34 5.36 0.68 2.72 0 0 Z " fill="#949BDE" transform="translate(127,201)"/>
<path d="M0 0 C0.33 0 0.66 0 1 0 C1.22174933 1.45635371 1.42698698 2.91522956 1.625 4.375 C1.74101562 5.18710938 1.85703125 5.99921875 1.9765625 6.8359375 C1.98429687 7.55007812 1.99203125 8.26421875 2 9 C1.34 9.66 0.68 10.32 0 11 C-1.7578125 5.04296875 -1.7578125 5.04296875 -2 3 C-1.34 2.01 -0.68 1.02 0 0 Z " fill="#434453" transform="translate(442,126)"/>
<path d="M0 0 C3.3 0.33 6.6 0.66 10 1 C6.23312136 2.88343932 4.97041037 3.22057835 1 3 C0.67 2.01 0.34 1.02 0 0 Z " fill="#8E7DDC" transform="translate(262,79)"/>
<path d="M0 0 C0.66 0.33 1.32 0.66 2 1 C1.67 1.66 1.34 2.32 1 3 C0.01 3.33 -0.98 3.66 -2 4 C-1.34 2.68 -0.68 1.36 0 0 Z M-5 4 C-4.01 4 -3.02 4 -2 4 C-2.33 4.99 -2.66 5.98 -3 7 C-3.99 6.67 -4.98 6.34 -6 6 C-5.67 5.34 -5.34 4.68 -5 4 Z " fill="#1D1F30" transform="translate(324,291)"/>
<path d="M0 0 C0.66 0.66 1.32 1.32 2 2 C1.34 3.65 0.68 5.3 0 7 C-0.66 7 -1.32 7 -2 7 C-2.33 5.35 -2.66 3.7 -3 2 C-2.01 1.34 -1.02 0.68 0 0 Z " fill="#414353" transform="translate(147,288)"/>
<path d="M0 0 C0.93423645 3.01031744 1.04449911 3.86650268 0 7 C-0.99 7 -1.98 7 -3 7 C-3 6.01 -3 5.02 -3 4 C-2.34 4 -1.68 4 -1 4 C-0.67 2.68 -0.34 1.36 0 0 Z " fill="#474958" transform="translate(333,190)"/>
<path d="M0 0 C-1.29299694 2.88437779 -2.65941363 4.87219421 -5 7 C-5.33 6.01 -5.66 5.02 -6 4 C-2.25 0 -2.25 0 0 0 Z " fill="#545663" transform="translate(168,167)"/>
<path d="M0 0 C0.33 0 0.66 0 1 0 C1 2.31 1 4.62 1 7 C-0.32 6.67 -1.64 6.34 -3 6 C-1.125 1.125 -1.125 1.125 0 0 Z " fill="#8C8DE6" transform="translate(126,137)"/>
<path d="M0 0 C1.33333333 0 2.66666667 0 4 0 C4 2.31 4 4.62 4 7 C3.34 7 2.68 7 2 7 C1.34 4.69 0.68 2.38 0 0 Z " fill="#484B58" transform="translate(384,138)"/>
<path d="M0 0 C1.65 0.33 3.3 0.66 5 1 C5.33 1.99 5.66 2.98 6 4 C3.03 3.67 0.06 3.34 -3 3 C-2.01 2.67 -1.02 2.34 0 2 C0 1.34 0 0.68 0 0 Z " fill="#9C8EE6" transform="translate(262,89)"/>
</svg>
