<?xml version="1.0" encoding="UTF-8"?>
<svg version="1.1" xmlns="http://www.w3.org/2000/svg" width="500" height="500">
<path d="M0 0 C1.57925579 -0.00271318 3.15851031 -0.00627595 4.73776245 -0.01062012 C9.00818121 -0.01970521 13.27850289 -0.01621652 17.54892325 -0.00986195 C22.02422067 -0.00478449 26.49950999 -0.009498 30.97480774 -0.01263428 C38.4856617 -0.01626771 45.99647625 -0.01149 53.50732422 -0.00195312 C62.18816868 0.00894212 70.86891927 0.00539559 79.54976147 -0.00560594 C87.0106692 -0.01468239 94.47154867 -0.01596269 101.93246013 -0.0107286 C106.38538039 -0.0076124 110.83825652 -0.00719019 115.29117393 -0.01380157 C119.47483468 -0.01958002 123.65837428 -0.01556901 127.84202194 -0.00401306 C129.37669359 -0.00136966 130.91137544 -0.00212612 132.44604301 -0.00653839 C134.54157396 -0.01200767 136.63671723 -0.00514339 138.73222351 0.00482178 C140.49062829 0.00595285 140.49062829 0.00595285 142.28455639 0.00710678 C145.38480435 0.25821873 147.59479369 0.93779406 150.3918457 2.25878906 C150.3918457 2.91878906 150.3918457 3.57878906 150.3918457 4.25878906 C151.0518457 4.25878906 151.7118457 4.25878906 152.3918457 4.25878906 C152.3918457 4.91878906 152.3918457 5.57878906 152.3918457 6.25878906 C152.9487207 6.48566406 153.5055957 6.71253906 154.0793457 6.94628906 C157.05344158 8.63428942 159.11193435 10.72555423 161.3918457 13.25878906 C161.3918457 13.91878906 161.3918457 14.57878906 161.3918457 15.25878906 C162.0518457 15.25878906 162.7118457 15.25878906 163.3918457 15.25878906 C163.3918457 15.91878906 163.3918457 16.57878906 163.3918457 17.25878906 C164.0518457 17.25878906 164.7118457 17.25878906 165.3918457 17.25878906 C165.3918457 17.91878906 165.3918457 18.57878906 165.3918457 19.25878906 C166.0518457 19.25878906 166.7118457 19.25878906 167.3918457 19.25878906 C167.3918457 19.91878906 167.3918457 20.57878906 167.3918457 21.25878906 C168.24794434 21.62810547 168.24794434 21.62810547 169.12133789 22.00488281 C171.7702738 23.46777903 173.57733116 25.18524226 175.7199707 27.32128906 C176.91879883 28.51625 176.91879883 28.51625 178.1418457 29.73535156 C178.9668457 30.56808594 179.7918457 31.40082031 180.6418457 32.25878906 C181.48231445 33.09152344 182.3227832 33.92425781 183.1887207 34.78222656 C183.9827832 35.57886719 184.7768457 36.37550781 185.5949707 37.19628906 C186.68793457 38.29263672 186.68793457 38.29263672 187.80297852 39.41113281 C189.3918457 41.25878906 189.3918457 41.25878906 189.3918457 43.25878906 C190.0518457 43.25878906 190.7118457 43.25878906 191.3918457 43.25878906 C191.3918457 43.91878906 191.3918457 44.57878906 191.3918457 45.25878906 C192.0518457 45.25878906 192.7118457 45.25878906 193.3918457 45.25878906 C193.3918457 45.91878906 193.3918457 46.57878906 193.3918457 47.25878906 C193.9487207 47.48566406 194.5055957 47.71253906 195.0793457 47.94628906 C198.05344158 49.63428942 200.11193435 51.72555423 202.3918457 54.25878906 C202.3918457 54.91878906 202.3918457 55.57878906 202.3918457 56.25878906 C203.0518457 56.25878906 203.7118457 56.25878906 204.3918457 56.25878906 C204.3918457 56.91878906 204.3918457 57.57878906 204.3918457 58.25878906 C205.0518457 58.25878906 205.7118457 58.25878906 206.3918457 58.25878906 C206.3918457 58.91878906 206.3918457 59.57878906 206.3918457 60.25878906 C207.0518457 60.25878906 207.7118457 60.25878906 208.3918457 60.25878906 C208.3918457 60.91878906 208.3918457 61.57878906 208.3918457 62.25878906 C208.95468765 62.52103775 209.5175296 62.78328644 210.09742737 63.05348206 C219.12951556 67.79823109 229.73627602 76.2156448 233.03171539 86.19681549 C235.43892576 96.65098733 234.57499873 107.74585649 234.05657959 118.37011719 C233.91885815 121.67214282 233.87728922 124.97243355 233.83874607 128.27688694 C233.78902662 132.2314736 233.68987087 136.18429217 233.58325195 140.13769531 C233.56627321 140.88557375 233.54929447 141.63345219 233.53180122 142.40399361 C233.47396383 144.51083796 233.38151557 146.61304224 233.27685547 148.71801758 C233.22763443 149.91233902 233.17841339 151.10666046 233.12770081 152.33717346 C232.3918457 155.25878906 232.3918457 155.25878906 230.03965759 157.21055603 C227.3918457 158.25878906 227.3918457 158.25878906 224.1418457 157.57128906 C221.3918457 156.25878906 221.3918457 156.25878906 220.3918457 154.25878906 C220.30064899 152.3489696 220.27432033 150.43591721 220.27832031 148.52392578 C220.27839584 147.32283173 220.27847137 146.12173767 220.27854919 144.88424683 C220.28371048 143.58214264 220.28887177 142.28003845 220.29418945 140.93847656 C220.29605432 139.59612073 220.2974779 138.25376422 220.29847717 136.91140747 C220.30229692 133.37683231 220.31212258 129.84229819 220.32318115 126.30773926 C220.33340693 122.70158442 220.3379773 119.09542296 220.34301758 115.48925781 C220.35374533 108.4124181 220.37081526 101.33560626 220.3918457 94.25878906 C219.63509048 94.26767151 218.87833527 94.27655396 218.09864807 94.28570557 C210.93472544 94.36616097 203.77102471 94.42690935 196.6067667 94.46603775 C192.92433312 94.48683107 189.24227573 94.51499494 185.56005859 94.56054688 C182.00034372 94.60430315 178.44098856 94.62798811 174.88102531 94.63829803 C172.87536111 94.64918548 170.86983976 94.6803633 168.86439514 94.7119751 C158.74416651 94.71443967 152.05827162 92.9587062 144.3918457 86.25878906 C138.5068611 77.91518371 137.51462683 69.93558024 137.5871582 59.96191406 C137.56659866 57.98973907 137.56659866 57.98973907 137.54562378 55.97772217 C137.50995903 52.52526244 137.50916374 49.07369477 137.51629639 45.62109375 C137.51721703 42.08089779 137.48424204 38.54102265 137.4543457 35.00097656 C137.4008364 28.08686321 137.38425854 21.17309872 137.3918457 14.25878906 C117.41638757 14.18870072 97.4409544 14.13580173 77.46539879 14.10335255 C68.19035099 14.08788521 58.91537961 14.06679821 49.64038086 14.0324707 C41.55607064 14.0025643 33.47181577 13.98321309 25.38745177 13.97652358 C21.10703087 13.97261342 16.8267683 13.96342678 12.54639816 13.94159889 C8.51631125 13.92121412 4.48644766 13.91495927 0.45631409 13.91946602 C-1.02150563 13.91864171 -2.49933292 13.91268781 -3.977108 13.90117264 C-5.99808069 13.88619917 -8.0191736 13.89163403 -10.04019165 13.89802551 C-11.73536895 13.89387744 -11.73536895 13.89387744 -13.46479225 13.88964558 C-17.10868113 14.31756887 -19.48263954 15.35990095 -22.6081543 17.25878906 C-26.55471536 22.27198825 -27.73175547 26.00383564 -27.73678875 32.26046467 C-27.7400132 33.27429669 -27.74323764 34.28812871 -27.7465598 35.33268291 C-27.7450112 36.44463171 -27.74346259 37.55658051 -27.74186707 38.70222473 C-27.74413262 39.88493365 -27.74639818 41.06764258 -27.74873239 42.28619117 C-27.7539735 45.57010636 -27.75471626 48.85398719 -27.75353801 52.13790524 C-27.75333412 55.67924653 -27.7588517 59.22057963 -27.76359558 62.76191711 C-27.77190534 69.70068222 -27.77465057 76.63943882 -27.77520796 83.57820848 C-27.77568299 89.21831034 -27.77773712 94.85840939 -27.78090858 100.49851036 C-27.78971628 116.48730279 -27.79432782 132.4760885 -27.79357811 148.46488336 C-27.79353815 149.32701141 -27.7934982 150.18913945 -27.79345703 151.07739258 C-27.79341615 151.94057268 -27.79337527 152.80375279 -27.79333315 153.69308987 C-27.79292671 167.68168143 -27.80249534 181.67024607 -27.8165954 195.65882985 C-27.83095716 210.0203198 -27.83786568 224.38179662 -27.83700162 238.74329394 C-27.83666957 246.80691488 -27.83942028 254.87050761 -27.85017967 262.93412209 C-27.85928207 269.79995114 -27.8614621 276.66573919 -27.85467025 283.53157166 C-27.85140363 287.03418125 -27.85135342 290.53671215 -27.8600235 294.03931427 C-27.86771668 297.83774769 -27.86311611 301.63597366 -27.85539246 305.43440247 C-27.86053602 306.5396591 -27.86567958 307.64491574 -27.87097901 308.783665 C-27.84591008 314.35290755 -27.4745462 319.00118192 -25.6081543 324.25878906 C-25.2369043 325.40347656 -25.2369043 325.40347656 -24.8581543 326.57128906 C-22.95875256 329.13548141 -20.61054428 329.44564178 -17.6081543 330.25878906 C-16.9481543 330.58878906 -16.2881543 330.91878906 -15.6081543 331.25878906 C-13.38301117 331.36105905 -11.1547276 331.39667538 -8.92724609 331.40354919 C-8.23274447 331.40707604 -7.53824286 331.41060289 -6.82269573 331.41423661 C-4.4842482 331.42495259 -2.14584135 331.42860955 0.19262695 331.43237305 C1.86453423 331.43867596 3.53643983 331.44544147 5.20834351 331.45263672 C8.81405284 331.46732291 12.41975561 331.4790409 16.02548218 331.48858452 C21.72226018 331.50400628 27.41898214 331.52795399 33.11572266 331.55348206 C49.31677719 331.62477047 65.51786365 331.6845355 81.71899414 331.7355957 C90.66250328 331.7638579 99.60595647 331.7992149 108.54940701 331.84224945 C114.21722245 331.86908921 119.88497458 331.88695269 125.55284119 331.8982867 C129.07325878 331.90738564 132.59359916 331.92473418 136.11397171 331.94446564 C137.75147925 331.95196531 139.38900656 331.95602364 141.02653122 331.95646095 C143.25482136 331.95753693 145.48271472 331.9707248 147.7109375 331.98704529 C149.58473335 331.9933932 149.58473335 331.9933932 151.49638367 331.99986935 C154.3918457 332.25878906 154.3918457 332.25878906 156.3918457 334.25878906 C156.7668457 337.69628906 156.7668457 337.69628906 156.3918457 341.25878906 C154.07693922 343.72693251 152.64290447 344.22845732 149.26704788 344.63631248 C148.02748714 344.63744356 146.78792641 344.63857464 145.51080322 344.63973999 C144.81882615 344.64441996 144.12684907 344.64909993 143.413903 344.65392172 C141.09548312 344.66588632 138.77765277 344.65640898 136.45922852 344.64697266 C134.79675959 344.65103787 133.13429337 344.65637947 131.47183228 344.66290283 C126.95507988 344.6765925 122.43853281 344.67126987 117.92177677 344.66176558 C113.19294238 344.65417247 108.46412561 344.66121409 103.73529053 344.66592407 C95.78939662 344.67138478 87.8435863 344.66418399 79.89770508 344.64990234 C70.72050292 344.63359768 61.54350094 344.63884717 52.36630368 344.65538156 C44.48334331 344.66901428 36.60044306 344.67090668 28.7174747 344.66306555 C24.01119379 344.65839596 19.30500681 344.65774407 14.59873199 344.66767502 C10.1696529 344.67636759 5.74083051 344.67028104 1.31177902 344.65299225 C-0.31031748 344.64903865 -1.93243573 344.65014209 -3.55452347 344.65678024 C-18.60442913 344.71267086 -18.60442913 344.71267086 -25.6081543 341.25878906 C-26.8044043 340.72253906 -28.0006543 340.18628906 -29.2331543 339.63378906 C-35.38257721 335.97509351 -38.85886037 328.97251701 -40.6081543 322.25878906 C-40.90674878 318.25730793 -40.88648604 314.26446299 -40.87557983 310.25335693 C-40.88011095 309.03430389 -40.88464206 307.81525084 -40.88931048 306.55925679 C-40.8997719 303.18297776 -40.90128184 299.80691194 -40.89892173 296.43063188 C-40.89851317 292.78632476 -40.90955646 289.14204929 -40.91903687 285.49775696 C-40.93563981 278.3604003 -40.9411461 271.22307668 -40.94226162 264.08570233 C-40.94321249 258.28262704 -40.94732475 252.47956263 -40.95366287 246.67649078 C-40.97127388 230.21666979 -40.98050204 213.75687485 -40.97900192 197.29704437 C-40.97892201 196.40995234 -40.9788421 195.52286032 -40.97875977 194.60888672 C-40.978678 193.72070902 -40.97859624 192.83253131 -40.978512 191.91743913 C-40.97769929 177.52681008 -40.99683355 163.13628575 -41.0250365 148.74568698 C-41.05377952 133.96261905 -41.06757599 119.17960217 -41.06584895 104.39650559 C-41.0651855 96.09971841 -41.0706577 87.80304098 -41.09220505 79.50627899 C-41.11043559 72.44145597 -41.11474891 65.37679246 -41.1011862 58.31195608 C-41.09466574 54.70963984 -41.0945055 51.10762944 -41.1118927 47.50534248 C-41.13057619 43.59413948 -41.1180446 39.68338065 -41.10263062 35.77215576 C-41.11291774 34.64198335 -41.12320487 33.51181095 -41.13380373 32.34739089 C-41.0616035 24.04418788 -39.43564089 16.69144194 -34.3581543 9.94628906 C-24.30147585 0.11817149 -13.3753876 -0.03862173 0 0 Z M150.3918457 21.25878906 C150.34110925 28.28797318 150.30609675 35.31711001 150.28198242 42.34643555 C150.27192884 44.73740402 150.25828407 47.12836021 150.2409668 49.51928711 C150.2166906 52.95722486 150.20535605 56.39499995 150.1965332 59.83300781 C150.18621063 60.90089035 150.17588806 61.96877289 150.16525269 63.0690155 C150.16510162 64.06967545 150.16495056 65.07033539 150.16479492 66.10131836 C150.1603537 66.97845993 150.15591248 67.8556015 150.15133667 68.75932312 C150.42056769 71.55727943 151.23744372 73.7087089 152.3918457 76.25878906 C153.0518457 76.25878906 153.7118457 76.25878906 154.3918457 76.25878906 C154.3918457 76.91878906 154.3918457 77.57878906 154.3918457 78.25878906 C155.0518457 78.25878906 155.7118457 78.25878906 156.3918457 78.25878906 C156.3918457 78.91878906 156.3918457 79.57878906 156.3918457 80.25878906 C159.59087245 82.14349016 161.92670435 82.50376548 165.61938477 82.48583984 C166.66016174 82.48568878 167.70093872 82.48553772 168.77325439 82.48538208 C169.89004578 82.47505951 171.00683716 82.46473694 172.1574707 82.45410156 C173.30600525 82.45127167 174.45453979 82.44844177 175.63787842 82.44552612 C179.30597352 82.43433169 182.97382441 82.4092281 186.6418457 82.38378906 C189.12882134 82.37375833 191.61580081 82.36463264 194.1027832 82.35644531 C200.19922068 82.33439474 206.29551575 82.30092431 212.3918457 82.25878906 C211.46223148 81.10654878 210.5228332 79.9621973 209.5793457 78.82128906 C208.79624023 77.86416016 208.79624023 77.86416016 207.99731445 76.88769531 C206.3835016 75.00396156 206.3835016 75.00396156 203.3918457 74.25878906 C203.3918457 73.59878906 203.3918457 72.93878906 203.3918457 72.25878906 C202.7318457 72.25878906 202.0718457 72.25878906 201.3918457 72.25878906 C201.3918457 71.59878906 201.3918457 70.93878906 201.3918457 70.25878906 C200.7318457 70.25878906 200.0718457 70.25878906 199.3918457 70.25878906 C199.3918457 69.59878906 199.3918457 68.93878906 199.3918457 68.25878906 C198.7318457 68.25878906 198.0718457 68.25878906 197.3918457 68.25878906 C197.3918457 67.59878906 197.3918457 66.93878906 197.3918457 66.25878906 C196.7318457 66.25878906 196.0718457 66.25878906 195.3918457 66.25878906 C195.3918457 65.59878906 195.3918457 64.93878906 195.3918457 64.25878906 C194.7318457 64.25878906 194.0718457 64.25878906 193.3918457 64.25878906 C193.3918457 63.59878906 193.3918457 62.93878906 193.3918457 62.25878906 C192.7318457 62.25878906 192.0718457 62.25878906 191.3918457 62.25878906 C191.3918457 61.59878906 191.3918457 60.93878906 191.3918457 60.25878906 C190.7318457 60.25878906 190.0718457 60.25878906 189.3918457 60.25878906 C189.3918457 59.59878906 189.3918457 58.93878906 189.3918457 58.25878906 C188.7318457 58.25878906 188.0718457 58.25878906 187.3918457 58.25878906 C187.3918457 57.59878906 187.3918457 56.93878906 187.3918457 56.25878906 C186.7318457 56.25878906 186.0718457 56.25878906 185.3918457 56.25878906 C185.3918457 55.59878906 185.3918457 54.93878906 185.3918457 54.25878906 C184.7318457 54.25878906 184.0718457 54.25878906 183.3918457 54.25878906 C183.3918457 53.59878906 183.3918457 52.93878906 183.3918457 52.25878906 C182.7318457 52.25878906 182.0718457 52.25878906 181.3918457 52.25878906 C181.3918457 51.59878906 181.3918457 50.93878906 181.3918457 50.25878906 C180.7318457 50.25878906 180.0718457 50.25878906 179.3918457 50.25878906 C179.3918457 49.59878906 179.3918457 48.93878906 179.3918457 48.25878906 C178.7318457 48.25878906 178.0718457 48.25878906 177.3918457 48.25878906 C177.3918457 47.59878906 177.3918457 46.93878906 177.3918457 46.25878906 C176.7318457 46.25878906 176.0718457 46.25878906 175.3918457 46.25878906 C175.13661133 45.67742187 174.88137695 45.09605469 174.6184082 44.49707031 C170.83274834 37.58884387 163.32261705 32.31770473 157.3918457 27.25878906 C156.18013072 26.22078292 154.96864022 25.18251468 153.75732422 24.14404297 C153.12705826 23.60373444 152.4967923 23.0634259 151.84742737 22.50674438 C151.36708542 22.09491913 150.88674347 21.68309387 150.3918457 21.25878906 Z " fill="#7668FB" transform="translate(144.608154296875,62.7412109375)"/>
<path d="M0 0 C4.00150036 0.25099501 8.0006544 0.52938022 12 0.8125 C13.68802734 0.91788086 13.68802734 0.91788086 15.41015625 1.02539062 C21.86476619 1.49721884 27.08166765 2.3711128 33 5 C33.80308594 5.31582031 34.60617187 5.63164062 35.43359375 5.95703125 C44.58878384 9.86538725 52.6115914 15.2712441 59 23 C59 23.66 59 24.32 59 25 C59.66 25 60.32 25 61 25 C71.87297139 43.07763447 77.59211442 61.00037922 73 82.3125 C70.43134456 90.89950272 65.95828393 99.5625741 61 107 C60.34 107 59.68 107 59 107 C59 107.66 59 108.32 59 109 C58.34 109 57.68 109 57 109 C56.73960937 109.59425781 56.47921875 110.18851562 56.2109375 110.80078125 C54.92230431 113.14110539 53.65189559 114.46596641 51.625 116.1875 C51.03976562 116.69667969 50.45453125 117.20585937 49.8515625 117.73046875 C47.88975091 119.07559273 46.323911 119.57514402 44 120 C44 120.66 44 121.32 44 122 C31.01371629 128.9926143 18.6339702 131.49077339 4 131 C3.113125 130.97164062 2.22625 130.94328125 1.3125 130.9140625 C-8.71691223 130.31571688 -17.20619692 126.64578276 -26 122 C-26 121.34 -26 120.68 -26 120 C-26.58523438 119.88140625 -27.17046875 119.7628125 -27.7734375 119.640625 C-37.88181706 116.73224913 -44.8093788 105.43141386 -49.86328125 96.828125 C-57.83366967 80.92690344 -59.19979116 62.71494301 -54 45.734375 C-51.27097626 38.1577433 -47.63132347 31.5738454 -43 25 C-42.47664063 24.23816406 -41.95328125 23.47632813 -41.4140625 22.69140625 C-40.94742187 22.13324219 -40.48078125 21.57507813 -40 21 C-39.34 21 -38.68 21 -38 21 C-38 20.34 -38 19.68 -38 19 C-33.52941176 15 -33.52941176 15 -31 15 C-31 14.34 -31 13.68 -31 13 C-22.43577509 6.27096614 -10.89261872 1.52941673 0 2 C0 1.34 0 0.68 0 0 Z M-34 48 C-34 59.88 -34 71.76 -34 84 C-32.02 84 -30.04 84 -28 84 C-28 79.38 -28 74.76 -28 70 C-26.30875 70.0825 -24.6175 70.165 -22.875 70.25 C-17.74771011 70.25659883 -14.92036181 69.51827342 -11 66 C-8.54082414 62.3112362 -8.18408063 59.2815571 -9 55 C-10.74450506 51.9779206 -12.83302164 49.58348918 -16 48 C-21.94 48 -27.88 48 -34 48 Z M-2 48 C-2 59.88 -2 71.76 -2 84 C14.99252046 85.74371458 14.99252046 85.74371458 23 79 C26.94552759 72.89079598 26.79632028 66.0953032 26 59 C24.24245771 53.27061073 21.09410311 51.39606874 16 48 C10.06 48 4.12 48 -2 48 Z M35 48 C35 59.88 35 71.76 35 84 C36.65 84 38.3 84 40 84 C40 79.05 40 74.1 40 69 C43.96 69 47.92 69 52 69 C52 67.35 52 65.7 52 64 C48.04 64 44.08 64 40 64 C40 60.04 40 56.08 40 52 C44.95 52 49.9 52 55 52 C55.33 50.68 55.66 49.36 56 48 C49.07 48 42.14 48 35 48 Z " fill="#252A4C" transform="translate(335,229)"/>
<path d="M0 0 C7.625 0.875 7.625 0.875 11 2 C10.99924056 2.62790092 10.99848112 3.25580183 10.99769866 3.90273005 C10.95294777 41.11276731 10.91862953 78.32280058 10.89786934 115.53285924 C10.89536791 120.00017769 10.89277927 124.46749608 10.89013672 128.93481445 C10.8896121 129.82418148 10.88908748 130.71354851 10.88854696 131.62986606 C10.87984307 146.03256652 10.86407318 160.43525102 10.84569441 174.83794201 C10.82699493 189.61514698 10.81588317 204.39234358 10.81182301 219.1695599 C10.80907806 228.28873496 10.80040657 237.40786493 10.78416707 246.52702611 C10.7735996 252.77938514 10.77039884 259.03172083 10.77299725 265.28408814 C10.7742789 268.89198601 10.7723066 272.49980503 10.76158905 276.1076889 C10.75005166 280.02015045 10.75402368 283.93250925 10.75949097 287.84498596 C10.75366528 288.98409866 10.7478396 290.12321137 10.74183738 291.29684263 C10.76320608 296.94201878 11.09499257 301.67395126 13 307 C13.37125 308.1446875 13.37125 308.1446875 13.75 309.3125 C15.64940174 311.87669235 17.99761002 312.18685271 21 313 C21.66 313.33 22.32 313.66 23 314 C25.22514313 314.10226999 27.4534267 314.13788632 29.6809082 314.14476013 C30.37540982 314.14828698 31.06991144 314.15181382 31.78545856 314.15544754 C34.1239061 314.16616353 36.46231295 314.16982049 38.80078125 314.17358398 C40.47268853 314.1798869 42.14459412 314.1866524 43.8164978 314.19384766 C47.42220714 314.20853385 51.02790991 314.22025184 54.63363647 314.22979546 C60.33041448 314.24521722 66.02713643 314.26916493 71.72387695 314.29469299 C87.92493149 314.36598141 104.12601795 314.42574644 120.32714844 314.47680664 C129.27065758 314.50506884 138.21411077 314.54042583 147.1575613 314.58346039 C152.82537675 314.61030015 158.49312888 314.62816363 164.16099548 314.63949764 C167.68141308 314.64859658 171.20175345 314.66594512 174.72212601 314.68567657 C176.35963355 314.69317624 177.99716086 314.69723458 179.63468552 314.69767189 C181.86297566 314.69874786 184.09086902 314.71193574 186.3190918 314.72825623 C188.19288765 314.73460413 188.19288765 314.73460413 190.10453796 314.74108028 C193 315 193 315 195 317 C195.375 320.4375 195.375 320.4375 195 324 C192.68509352 326.46814344 191.25105877 326.96966826 187.87520218 327.37752342 C186.63564144 327.3786545 185.3960807 327.37978558 184.11895752 327.38095093 C183.42698045 327.3856309 182.73500337 327.39031087 182.02205729 327.39513266 C179.70363742 327.40709726 177.38580707 327.39761991 175.06738281 327.38818359 C173.40491389 327.39224881 171.74244767 327.39759041 170.07998657 327.40411377 C165.56323417 327.41780344 161.04668711 327.41248081 156.52993107 327.40297651 C151.80109667 327.39538341 147.07227991 327.40242503 142.34344482 327.40713501 C134.39755091 327.41259572 126.4517406 327.40539493 118.50585938 327.39111328 C109.32865721 327.37480862 100.15165523 327.3800581 90.97445798 327.3965925 C83.0914976 327.41022522 75.20859736 327.41211762 67.325629 327.40427649 C62.61934809 327.3996069 57.91316111 327.39895501 53.20688629 327.40888596 C48.7778072 327.41757852 44.3489848 327.41149198 39.91993332 327.39420319 C38.29783682 327.39024958 36.67571857 327.39135303 35.05363083 327.39799118 C20.00372517 327.45388179 20.00372517 327.45388179 13 324 C11.80375 323.46375 10.6075 322.9275 9.375 322.375 C3.22675664 318.71700624 -0.25318068 311.71338494 -2 305 C-2.29495097 300.98931565 -2.26967457 296.98764107 -2.25396729 292.96765137 C-2.25864726 291.1348384 -2.25864726 291.1348384 -2.26342177 289.26499891 C-2.27001347 285.88098951 -2.26764827 282.49720246 -2.26144934 279.11320662 C-2.25692252 275.46080372 -2.26390975 271.80842018 -2.26940918 268.15602112 C-2.27830237 261.00395611 -2.2763815 253.85193307 -2.2705839 246.69986641 C-2.26606713 240.88722332 -2.26545457 235.07459198 -2.26763153 229.26194763 C-2.26809123 228.02101603 -2.26809123 228.02101603 -2.26856022 226.75501511 C-2.26919967 225.07439569 -2.26984809 223.39377628 -2.2705054 221.71315688 C-2.27620847 205.95401022 -2.26965115 190.19488683 -2.25890467 174.43574399 C-2.24996918 160.91369397 -2.25152122 147.3916783 -2.26074219 133.86962891 C-2.27144521 118.1668677 -2.27565915 102.46412689 -2.26951766 86.76136255 C-2.26888056 85.08692583 -2.26825182 83.4124891 -2.26763153 81.73805237 C-2.26732298 80.9141976 -2.26701443 80.09034283 -2.26669653 79.24152276 C-2.26496969 73.43586676 -2.26788446 67.6302237 -2.27259064 61.8245697 C-2.27819982 54.74941715 -2.27668223 47.67430897 -2.26602915 40.59916151 C-2.26077295 36.98932666 -2.25871482 33.37956582 -2.26532745 29.76973152 C-2.27238614 25.85722871 -2.2639576 21.94484708 -2.25396729 18.03234863 C-2.25842873 16.89052486 -2.26289017 15.74870109 -2.26748681 14.57227659 C-2.24143596 9.32872917 -2.14226517 4.89343876 0 0 Z " fill="#6458F5" transform="translate(106,80)"/>
<path d="M0 0 C0.33 0 0.66 0 1 0 C1.28875 1.0725 1.5775 2.145 1.875 3.25 C2.97947154 7.37027422 2.97947154 7.37027422 5 11 C7.96260526 12.23757877 7.96260526 12.23757877 11 13 C11.66 13.33 12.32 13.66 13 14 C15.22514313 14.10226999 17.4534267 14.13788632 19.6809082 14.14476013 C20.37540982 14.14828698 21.06991144 14.15181382 21.78545856 14.15544754 C24.1239061 14.16616353 26.46231295 14.16982049 28.80078125 14.17358398 C30.47268853 14.1798869 32.14459412 14.1866524 33.8164978 14.19384766 C37.42220714 14.20853385 41.02790991 14.22025184 44.63363647 14.22979546 C50.33041448 14.24521722 56.02713643 14.26916493 61.72387695 14.29469299 C77.92493149 14.36598141 94.12601795 14.42574644 110.32714844 14.47680664 C119.27065758 14.50506884 128.21411077 14.54042583 137.1575613 14.58346039 C142.82537675 14.61030015 148.49312888 14.62816363 154.16099548 14.63949764 C157.68141308 14.64859658 161.20175345 14.66594512 164.72212601 14.68567657 C166.35963355 14.69317624 167.99716086 14.69723458 169.63468552 14.69767189 C171.86297566 14.69874786 174.09086902 14.71193574 176.3190918 14.72825623 C178.19288765 14.73460413 178.19288765 14.73460413 180.10453796 14.74108028 C183 15 183 15 185 17 C185.375 20.4375 185.375 20.4375 185 24 C182.68509352 26.46814344 181.25105877 26.96966826 177.87520218 27.37752342 C176.63564144 27.3786545 175.3960807 27.37978558 174.11895752 27.38095093 C173.08099191 27.38797089 173.08099191 27.38797089 172.02205729 27.39513266 C169.70363742 27.40709726 167.38580707 27.39761991 165.06738281 27.38818359 C163.40491389 27.39224881 161.74244767 27.39759041 160.07998657 27.40411377 C155.56323417 27.41780344 151.04668711 27.41248081 146.52993107 27.40297651 C141.80109667 27.39538341 137.07227991 27.40242503 132.34344482 27.40713501 C124.39755091 27.41259572 116.4517406 27.40539493 108.50585938 27.39111328 C99.32865721 27.37480862 90.15165523 27.3800581 80.97445798 27.3965925 C73.0914976 27.41022522 65.20859736 27.41211762 57.325629 27.40427649 C52.61934809 27.3996069 47.91316111 27.39895501 43.20688629 27.40888596 C38.7778072 27.41757852 34.3489848 27.41149198 29.91993332 27.39420319 C28.29783682 27.39024958 26.67571857 27.39135303 25.05363083 27.39799118 C6.39119724 27.46729758 6.39119724 27.46729758 -1 21 C-0.01 20.67 0.98 20.34 2 20 C1.67 19.01 1.34 18.02 1 17 C0.34 17 -0.32 17 -1 17 C-0.4140625 15.01432292 0.171875 13.02864583 0.7578125 11.04296875 C1.26093748 8.68854587 1.26093748 8.68854587 -1 6 C-0.625 2.8125 -0.625 2.8125 0 0 Z " fill="#7464F9" transform="translate(116,380)"/>
<path d="M0 0 C4 0 4 0 6 1 C6 1.66 6 2.32 6 3 C6.66 3 7.32 3 8 3 C8 3.66 8 4.32 8 5 C8.66 5 9.32 5 10 5 C10 5.66 10 6.32 10 7 C10.66 7 11.32 7 12 7 C12 7.66 12 8.32 12 9 C12.57073242 9.24621094 13.14146484 9.49242188 13.72949219 9.74609375 C16.3784281 11.20898997 18.18548546 12.92645319 20.328125 15.0625 C21.12734375 15.85914062 21.9265625 16.65578125 22.75 17.4765625 C23.575 18.30929688 24.4 19.14203125 25.25 20 C26.09046875 20.83273438 26.9309375 21.66546875 27.796875 22.5234375 C28.5909375 23.32007812 29.385 24.11671875 30.203125 24.9375 C30.93176758 25.66839844 31.66041016 26.39929688 32.41113281 27.15234375 C34 29 34 29 34 31 C34.66 31 35.32 31 36 31 C36 31.66 36 32.32 36 33 C36.66 33 37.32 33 38 33 C38 33.66 38 34.32 38 35 C38.556875 35.226875 39.11375 35.45375 39.6875 35.6875 C42.66159588 37.37550036 44.72008865 39.46676517 47 42 C47 42.66 47 43.32 47 44 C47.66 44 48.32 44 49 44 C49 44.66 49 45.32 49 46 C49.66 46 50.32 46 51 46 C51 46.66 51 47.32 51 48 C51.66 48 52.32 48 53 48 C53 48.66 53 49.32 53 50 C53.56284195 50.26224869 54.1256839 50.52449738 54.70558167 50.79469299 C63.73766986 55.53944203 74.34443032 63.95685574 77.63986969 73.93802643 C80.04708005 84.39219827 79.18315303 95.48706743 78.66473389 106.11132812 C78.52701245 109.41335376 78.48544352 112.71364449 78.44690037 116.01809788 C78.39718092 119.97268454 78.29802517 123.92550311 78.19140625 127.87890625 C78.17442751 128.62678469 78.15744877 129.37466312 78.13995552 130.14520454 C78.08211813 132.25204889 77.98966987 134.35425318 77.88500977 136.45922852 C77.83578873 137.65354996 77.78656769 138.8478714 77.7358551 140.0783844 C77 143 77 143 74.64781189 144.95176697 C72 146 72 146 68.75 145.3125 C66 144 66 144 65 142 C64.90880329 140.09018054 64.88247463 138.17712814 64.88647461 136.26513672 C64.88658791 134.46349564 64.88658791 134.46349564 64.88670349 132.62545776 C64.89186478 131.32335358 64.89702606 130.02124939 64.90234375 128.6796875 C64.90420862 127.33733167 64.9056322 125.99497516 64.90663147 124.65261841 C64.91045122 121.11804325 64.92027688 117.58350913 64.93133545 114.0489502 C64.94156122 110.44279536 64.94613159 106.8366339 64.95117188 103.23046875 C64.96189962 96.15362904 64.97896955 89.0768172 65 82 C65.66 82 66.32 82 67 82 C67 81.67 67 81.34 67 81 C61.555 80.505 61.555 80.505 56 80 C55.67 79.01 55.34 78.02 55 77 C55.66 77 56.32 77 57 77 C57 76.34 57 75.68 57 75 C54.03 75.495 54.03 75.495 51 76 C51 73 51 73 52 72 C54.32817964 71.63239269 56.6618385 71.29758419 59 71 C57.75363348 71 56.51054371 71.13850452 55.26953125 71.25390625 C54.12871094 71.35574219 52.98789062 71.45757812 51.8125 71.5625 C50.12060547 71.71912109 50.12060547 71.71912109 48.39453125 71.87890625 C45.08973599 71.99679883 42.23062958 71.66181334 39 71 C39 70.67 39 70.34 39 70 C47.415 69.505 47.415 69.505 56 69 C54.68 67.88625 53.36 66.7725 52 65.625 C49.75 63.7265625 49.75 63.7265625 48 62 C48 61.34 48 60.68 48 60 C47.34 60 46.68 60 46 60 C46 59.34 46 58.68 46 58 C45.34 58 44.68 58 44 58 C44 57.34 44 56.68 44 56 C43.34 56 42.68 56 42 56 C42 55.34 42 54.68 42 54 C41.34 54 40.68 54 40 54 C40 53.34 40 52.68 40 52 C39.34 52 38.68 52 38 52 C38 51.34 38 50.68 38 50 C37.34 50 36.68 50 36 50 C36 49.34 36 48.68 36 48 C35.34 48 34.68 48 34 48 C34 47.34 34 46.68 34 46 C33.34 46 32.68 46 32 46 C32 45.34 32 44.68 32 44 C31.34 44 30.68 44 30 44 C30 43.34 30 42.68 30 42 C29.34 42 28.68 42 28 42 C28 41.34 28 40.68 28 40 C27.34 40 26.68 40 26 40 C26 39.34 26 38.68 26 38 C25.34 38 24.68 38 24 38 C24 37.34 24 36.68 24 36 C23.34 36 22.68 36 22 36 C22 35.34 22 34.68 22 34 C21.34 34 20.68 34 20 34 C18.73046875 32.671875 18.73046875 32.671875 17.1875 30.75 C13.27032356 26.09106037 8.85039209 22.11386519 4.26831055 18.12597656 C2.79116882 16.80922009 1.38876813 15.40965186 0 14 C0 13.01 0 12.02 0 11 C-0.94726954 9.30280873 -1.94228261 7.63064764 -3 6 C-2.34 5.34 -1.68 4.68 -1 4 C-0.3574765 1.93125966 -0.3574765 1.93125966 0 0 Z " fill="#8061F7" transform="translate(300,75)"/>
<path d="M0 0 C21.21801678 -0.02333366 42.43603146 -0.04098148 63.65405846 -0.05181217 C73.50537926 -0.05697413 83.35669211 -0.06401494 93.20800781 -0.07543945 C101.79182237 -0.08538933 110.37563116 -0.09185416 118.95945132 -0.09408849 C123.50684295 -0.09539508 128.0542181 -0.09847768 132.60160446 -0.10573006 C136.87785893 -0.11249505 141.15409004 -0.11461597 145.43034935 -0.11310768 C147.00336649 -0.11338379 148.57638437 -0.11538609 150.1493969 -0.11920547 C152.29008725 -0.12415019 154.43068838 -0.12299539 156.57138062 -0.12025452 C158.37164231 -0.12163721 158.37164231 -0.12163721 160.20827293 -0.12304783 C163 0 163 0 165 1 C165 1.66 165 2.32 165 3 C165.66 3 166.32 3 167 3 C167 3.66 167 4.32 167 5 C167.598125 5.268125 168.19625 5.53625 168.8125 5.8125 C170.97224808 6.98493467 172.35790256 8.19369282 174 10 C173.67 10.99 173.34 11.98 173 13 C172.01 12.34 171.02 11.68 170 11 C169.855625 11.78375 169.71125 12.5675 169.5625 13.375 C169 16 169 16 168 18 C169.98 20.97 169.98 20.97 172 24 C169.13275314 23.42655063 168.1385485 23.1385485 166 21 C165.97462909 27.88679212 165.95712429 34.77357217 165.94506836 41.66040039 C165.94004199 44.00285289 165.93321992 46.34530225 165.92456055 48.68774414 C165.91242082 52.05616022 165.90675469 55.42453478 165.90234375 58.79296875 C165.89718246 59.83897751 165.89202118 60.88498627 165.88670349 61.96269226 C165.88662796 62.94333145 165.88655243 63.92397064 165.88647461 64.93432617 C165.884254 65.79370285 165.88203339 66.65307953 165.87974548 67.53849792 C166.00542264 70.11099661 166.43351574 72.49067271 167 75 C167.66 75 168.32 75 169 75 C169 75.66 169 76.32 169 77 C169.66 77 170.32 77 171 77 C171 77.66 171 78.32 171 79 C174.76850976 80.18444016 178.52859214 80.20410567 182.44140625 80.28125 C183.16432358 80.29965942 183.88724091 80.31806885 184.63206482 80.33703613 C186.94212965 80.39558921 189.25227037 80.44838823 191.5625 80.5 C209.58533087 80.90921865 209.58533087 80.90921865 217.74902344 81.79272461 C221.17633376 82.10831967 224.56073635 82.06489177 228 82 C228.33 81.34 228.66 80.68 229 80 C229 80.99 229 81.98 229 83 C227.865625 83.12375 226.73125 83.2475 225.5625 83.375 C223.7990625 83.684375 223.7990625 83.684375 222 84 C221.67 84.66 221.34 85.32 221 86 C222.98 86 224.96 86 227 86 C227 86.66 227 87.32 227 88 C226.34 88 225.68 88 225 88 C225.33 88.66 225.66 89.32 226 90 C229.96 90.33 233.92 90.66 238 91 C237.67 110.47 237.34 129.94 237 150 C236.67 150 236.34 150 236 150 C236 131.19 236 112.38 236 93 C229.33490234 93.06960937 229.33490234 93.06960937 222.53515625 93.140625 C218.97204282 93.16638407 215.40895602 93.18806271 211.84580231 93.20700073 C208.09549496 93.22804457 204.34555457 93.25612271 200.59545898 93.30175781 C196.97739001 93.34550624 193.35967486 93.36919746 189.74136162 93.37950897 C188.36715571 93.38684881 186.9929672 93.40118084 185.61891365 93.42292023 C175.90274344 93.57040404 169.19186209 92.49886358 161.125 87.0625 C154.8158337 80.93889741 154.97644356 73.8966269 154.83886719 65.5715332 C154.81887178 63.06465655 154.80521603 60.55772377 154.796875 58.05078125 C154.79263393 57.0616678 154.79263393 57.0616678 154.78830719 56.05257225 C154.77341188 52.57142117 154.7641182 49.09031059 154.75976562 45.60913086 C154.75425617 42.02472171 154.73014936 38.44068765 154.70179367 34.85639668 C154.68315145 32.08624681 154.67796114 29.31618775 154.67642975 26.54598045 C154.67195199 24.58450799 154.65332978 22.6230842 154.63446045 20.66169739 C154.63746155 19.46663071 154.64046265 18.27156403 154.64355469 17.0402832 C154.63808624 15.46764458 154.63808624 15.46764458 154.63250732 13.86323547 C155.05656071 10.55932014 156.00153655 8.64656182 158 6 C158.66 6 159.32 6 160 6 C160 4.68 160 3.36 160 2 C107.2 2 54.4 2 0 2 C0 1.34 0 0.68 0 0 Z " fill="#725AF0" transform="translate(130,64)"/>
<path d="M0 0 C0.99403144 -0.00596161 0.99403144 -0.00596161 2.00814432 -0.01204365 C4.23313976 -0.02168362 6.45750205 -0.00983896 8.68247986 0.00190735 C10.27571856 -0.00052004 11.86895575 -0.00423885 13.46218872 -0.00915527 C17.79266684 -0.01857439 22.12291935 -0.00913074 26.45337987 0.00417686 C30.9794896 0.01547607 35.50558798 0.01138508 40.03170776 0.00942993 C47.63213294 0.00854656 55.23246898 0.01963708 62.83287048 0.03804016 C71.62898655 0.05921605 80.4249721 0.06271631 89.2211085 0.0564782 C97.67279798 0.05079052 106.12444135 0.05642266 114.57612419 0.06765175 C118.1777729 0.07230488 121.77939348 0.07316852 125.38104439 0.0710659 C129.61881063 0.06918708 133.85644336 0.0772554 138.09417915 0.0931263 C139.65267891 0.09738128 141.21119219 0.09821159 142.76969528 0.0954361 C144.89063844 0.09223106 147.0111784 0.10125301 149.13208008 0.11352539 C150.32098374 0.11557826 151.50988741 0.11763113 152.73481846 0.11974621 C155.50254822 0.3742218 155.50254822 0.3742218 157.50254822 2.3742218 C157.80332947 4.2492218 157.80332947 4.2492218 157.81504822 6.3742218 C157.83180603 7.0754718 157.84856384 7.7767218 157.86582947 8.4992218 C157.74594666 9.1179718 157.62606384 9.7367218 157.50254822 10.3742218 C153.91967623 12.76280313 152.35113453 12.62746186 148.09448242 12.63491821 C147.11481834 12.64065653 147.11481834 12.64065653 146.11536306 12.64651078 C143.92281015 12.65684501 141.7305189 12.65284793 139.53794861 12.64888 C137.96765907 12.65322626 136.39737165 12.65840911 134.8270874 12.66436768 C130.55851374 12.67777833 126.29002851 12.67833406 122.02143788 12.67580438 C118.46018172 12.67473606 114.89894356 12.67961445 111.33769125 12.6844098 C102.93730767 12.69551214 94.53696879 12.69593831 86.13658142 12.68989563 C77.46544678 12.68385418 68.79447433 12.69616951 60.12336737 12.7174657 C52.68295571 12.73506857 45.24259574 12.74108514 37.80216402 12.73782796 C33.35643795 12.73601285 28.91082757 12.73867388 24.46512032 12.7525425 C20.28477105 12.76509489 16.10467503 12.76320144 11.92432976 12.75013161 C10.3892394 12.7477606 8.85413137 12.75051922 7.31906128 12.75875473 C5.22494422 12.76918018 3.13168355 12.76115651 1.03759766 12.7484436 C-0.72086943 12.74869522 -0.72086943 12.74869522 -2.51486111 12.74895191 C-5.79925716 12.33630323 -7.20269662 11.73305815 -9.49745178 9.3742218 C-9.94667658 6.29382316 -10.15158358 4.34505353 -8.37619877 1.71011066 C-5.59551908 -0.26710024 -3.38898975 -0.000478 0 0 Z " fill="#2E3352" transform="translate(156.49745178222656,212.6257781982422)"/>
<path d="M0 0 C0.92534546 -0.00708481 1.85069092 -0.01416962 2.80407715 -0.02146912 C3.81715942 -0.0189917 4.8302417 -0.01651428 5.87402344 -0.01396179 C7.47679138 -0.02162819 7.47679138 -0.02162819 9.11193848 -0.02944946 C12.65248171 -0.04337737 16.19283102 -0.04238643 19.73339844 -0.04008484 C22.18815178 -0.04396967 24.64290446 -0.0483039 27.09765625 -0.05307007 C32.24579039 -0.06053893 37.39385595 -0.06023591 42.54199219 -0.05497742 C49.15003142 -0.04917839 55.75779076 -0.06612129 62.36578369 -0.08932209 C67.43572642 -0.10402872 72.50560124 -0.10493538 77.57556152 -0.10181236 C80.01249751 -0.102327 82.44943715 -0.10759135 84.88635254 -0.11762428 C88.28867987 -0.12991331 91.69045543 -0.12324236 95.09277344 -0.11161804 C96.10585571 -0.11926178 97.11893799 -0.12690552 98.16271973 -0.13478088 C99.08806519 -0.12776657 100.01341064 -0.12075226 100.96679688 -0.11352539 C102.17357086 -0.113777 102.17357086 -0.113777 103.40472412 -0.1140337 C106.03548707 0.36022342 106.90972944 1.12457345 108.48339844 3.26069641 C108.98339844 6.76069641 108.98339844 6.76069641 108.48339844 10.26069641 C104.03156597 14.24890401 98.89829449 13.67761879 93.26464844 13.63301086 C92.23807129 13.63666153 91.21149414 13.64031219 90.15380859 13.64407349 C86.76350312 13.65217337 83.37367643 13.63857312 79.98339844 13.62397766 C77.62597657 13.62345899 75.26855426 13.62397696 72.91113281 13.62548828 C67.97161396 13.62539858 63.03225841 13.61497373 58.09277344 13.59687805 C51.76079454 13.57419117 45.42905425 13.57364712 39.0970459 13.5803957 C34.22947061 13.58373697 29.36194973 13.57710256 24.49438477 13.56726646 C22.15958948 13.56341693 19.82478815 13.56226523 17.48999023 13.56385231 C14.22725897 13.56422311 10.96483374 13.55159827 7.70214844 13.53535461 C6.73680176 13.53783203 5.77145508 13.54030945 4.77685547 13.54286194 C-3.88084776 13.4740623 -3.88084776 13.4740623 -7.51660156 11.26069641 C-8.58702476 7.66713282 -8.70765533 5.83385771 -7.51660156 2.26069641 C-4.35645595 0.15393267 -3.608524 0.00920781 0 0 Z " fill="#353957" transform="translate(154.5166015625,249.7393035888672)"/>
<path d="M0 0 C0.9169313 -0.00708481 1.83386261 -0.01416962 2.77857971 -0.02146912 C3.78231125 -0.0189917 4.78604279 -0.01651428 5.82019043 -0.01396179 C7.40832802 -0.02162819 7.40832802 -0.02162819 9.02854919 -0.02944946 C12.53662734 -0.04337689 16.04450976 -0.04238647 19.5526123 -0.04008484 C21.98494541 -0.0439697 24.41727784 -0.04830393 26.84960938 -0.05307007 C31.95066527 -0.06053883 37.05165195 -0.06023599 42.15270996 -0.05497742 C48.70021604 -0.04917839 55.24743964 -0.06612133 61.79489899 -0.08932209 C66.81851873 -0.10402894 71.84206994 -0.10493535 76.8657074 -0.10181236 C79.28031474 -0.10232699 81.69492578 -0.10759112 84.10951233 -0.11762428 C87.48070836 -0.12991376 90.85134756 -0.1232421 94.22253418 -0.11161804 C95.22626572 -0.11926178 96.22999725 -0.12690552 97.2641449 -0.13478088 C98.1810762 -0.12776657 99.09800751 -0.12075226 100.04272461 -0.11352539 C101.23843708 -0.113777 101.23843708 -0.113777 102.45830536 -0.1140337 C105.06510264 0.35946047 105.94623021 1.15941843 107.5213623 3.26069641 C107.9588623 6.26069641 107.9588623 6.26069641 107.5213623 9.26069641 C104.74190244 11.91052547 102.8046653 12.63613885 99.00512695 12.64164734 C98.10509445 12.65010681 97.20506195 12.65856628 96.27775574 12.6672821 C95.297892 12.66120941 94.31802826 12.65513672 93.30847168 12.64888 C92.27068069 12.65413696 91.23288971 12.65939392 90.16365051 12.66481018 C86.73065168 12.678022 83.29811592 12.66926763 79.8651123 12.65913391 C77.48144441 12.6611543 75.09777711 12.66406544 72.71411133 12.66783142 C67.71734739 12.67225639 62.72074428 12.66581799 57.72399902 12.65180969 C51.31448311 12.63471792 44.90534406 12.64455815 38.49584198 12.66252708 C33.57339633 12.67336013 28.65104024 12.66992074 23.72859192 12.66214371 C21.3650559 12.66014038 19.0015118 12.66260559 16.63798523 12.66958237 C13.33652157 12.67718874 10.03567086 12.66560343 6.73425293 12.64888 C5.75438919 12.6549527 4.77452545 12.66102539 3.76496887 12.6672821 C2.86493637 12.65882263 1.96490387 12.65036316 1.03759766 12.64164734 C0.25742531 12.64051626 -0.52274704 12.63938519 -1.32656097 12.63821983 C-4.0977817 12.15208441 -5.47173647 11.21442898 -7.4786377 9.26069641 C-7.9161377 5.69819641 -7.9161377 5.69819641 -7.4786377 2.26069641 C-4.32758563 0.15999504 -3.59357998 0.00925451 0 0 Z " fill="#303655" transform="translate(154.4786376953125,175.7393035888672)"/>
<path d="M0 0 C3.5625 0.4375 3.5625 0.4375 5.2668457 2.4284668 C6.94642684 6.32913337 6.93781465 9.85261441 6.85546875 14.01953125 C6.85122391 14.83371017 6.84697906 15.6478891 6.84260559 16.48674011 C6.82587753 19.07483668 6.78823712 21.66214071 6.75 24.25 C6.73494553 26.00975434 6.72125846 27.76952095 6.70898438 29.52929688 C6.67599336 33.83233437 6.6242524 38.13478303 6.5625 42.4375 C7.37654297 41.60605469 7.37654297 41.60605469 8.20703125 40.7578125 C8.92246094 40.03335938 9.63789063 39.30890625 10.375 38.5625 C11.08269531 37.84320313 11.79039062 37.12390625 12.51953125 36.3828125 C14.95747369 34.06140651 16.64851751 32.52889825 20.0625 32.1875 C22.5625 32.4375 22.5625 32.4375 25.5625 34.4375 C25.96713325 37.52282853 26.18549884 39.4754237 25.5625 42.4375 C23.1875 45.4375 23.1875 45.4375 20.5625 47.4375 C19.9025 47.4375 19.2425 47.4375 18.5625 47.4375 C18.5625 48.0975 18.5625 48.7575 18.5625 49.4375 C17.9025 49.4375 17.2425 49.4375 16.5625 49.4375 C16.294375 50.035625 16.02625 50.63375 15.75 51.25 C14.56332594 53.43597854 13.46650887 54.85082594 11.5625 56.4375 C10.9025 56.4375 10.2425 56.4375 9.5625 56.4375 C9.5625 57.0975 9.5625 57.7575 9.5625 58.4375 C8.9025 58.4375 8.2425 58.4375 7.5625 58.4375 C7.5625 59.0975 7.5625 59.7575 7.5625 60.4375 C6.9025 60.4375 6.2425 60.4375 5.5625 60.4375 C5.5625 61.0975 5.5625 61.7575 5.5625 62.4375 C1.14797846 63.49698517 -0.78365829 63.7822529 -4.875 61.625 C-5.720625 60.903125 -6.56625 60.18125 -7.4375 59.4375 C-7.4375 58.7775 -7.4375 58.1175 -7.4375 57.4375 C-8.0975 57.4375 -8.7575 57.4375 -9.4375 57.4375 C-9.4375 56.7775 -9.4375 56.1175 -9.4375 55.4375 C-10.0975 55.4375 -10.7575 55.4375 -11.4375 55.4375 C-11.4375 54.7775 -11.4375 54.1175 -11.4375 53.4375 C-12.0975 53.4375 -12.7575 53.4375 -13.4375 53.4375 C-13.4375 52.7775 -13.4375 52.1175 -13.4375 51.4375 C-14.0975 51.4375 -14.7575 51.4375 -15.4375 51.4375 C-15.4375 50.7775 -15.4375 50.1175 -15.4375 49.4375 C-16.0975 49.4375 -16.7575 49.4375 -17.4375 49.4375 C-17.4375 48.7775 -17.4375 48.1175 -17.4375 47.4375 C-18.0975 47.4375 -18.7575 47.4375 -19.4375 47.4375 C-19.4375 46.7775 -19.4375 46.1175 -19.4375 45.4375 C-20.076875 45.14875 -20.71625 44.86 -21.375 44.5625 C-23.4375 43.4375 -23.4375 43.4375 -24.4375 41.4375 C-24.88764808 36.14826012 -24.88764808 36.14826012 -23.25 33.5625 C-20.75835196 32.01595984 -19.34251718 32.0907585 -16.4375 32.4375 C-14.015625 34.1875 -14.015625 34.1875 -11.6875 36.4375 C-9.39790735 39.08528673 -9.39790735 39.08528673 -6.4375 40.4375 C-6.41768066 39.29684082 -6.39786133 38.15618164 -6.37744141 36.98095703 C-6.30149433 32.75774677 -6.21276072 28.53488601 -6.12011719 24.31201172 C-6.08178223 22.48265471 -6.04693737 20.65322115 -6.015625 18.82373047 C-5.97007195 16.19731241 -5.91206269 13.57142341 -5.8515625 10.9453125 C-5.83423569 9.71399094 -5.83423569 9.71399094 -5.81655884 8.45779419 C-5.61428647 0.71454555 -5.61428647 0.71454555 0 0 Z " fill="#866AF5" transform="translate(343.4375,368.5625)"/>
<path d="M0 0 C4 0 4 0 6 1 C6 1.66 6 2.32 6 3 C6.66 3 7.32 3 8 3 C8 3.66 8 4.32 8 5 C8.66 5 9.32 5 10 5 C10 5.66 10 6.32 10 7 C10.66 7 11.32 7 12 7 C12 7.66 12 8.32 12 9 C12.66 9 13.32 9 14 9 C14.061875 9.556875 14.12375 10.11375 14.1875 10.6875 C15.9457071 15.6916279 20.92041056 18.85288815 25 22 C24.67 22.66 24.34 23.32 24 24 C24.90454347 26.6313992 25.62183952 27.7636497 28 29.25 C29.95610957 30.11704115 29.95610957 30.11704115 32 30 C32 30.66 32 31.32 32 32 C32.99 32 33.98 32 35 32 C35.99 34.31 36.98 36.62 38 39 C36.35 40.65 34.7 42.3 33 44 C31.35 43.34 29.7 42.68 28 42 C28 41.34 28 40.68 28 40 C27.34 40 26.68 40 26 40 C26 39.34 26 38.68 26 38 C25.34 38 24.68 38 24 38 C24 37.34 24 36.68 24 36 C23.34 36 22.68 36 22 36 C22 35.34 22 34.68 22 34 C21.34 34 20.68 34 20 34 C18.73046875 32.671875 18.73046875 32.671875 17.1875 30.75 C13.27032356 26.09106037 8.85039209 22.11386519 4.26831055 18.12597656 C2.79116882 16.80922009 1.38876813 15.40965186 0 14 C0 13.01 0 12.02 0 11 C-0.94726954 9.30280873 -1.94228261 7.63064764 -3 6 C-2.34 5.34 -1.68 4.68 -1 4 C-0.3574765 1.93125966 -0.3574765 1.93125966 0 0 Z " fill="#7B5DFA" transform="translate(300,75)"/>
<path d="M0 0 C4.41965888 0.33659654 6.57064018 0.61696546 10.109375 3.4921875 C13.26402286 7.53408007 13.27028634 9.81402984 13.296875 14.9296875 C13.31105469 16.16460937 13.32523437 17.39953125 13.33984375 18.671875 C13.12401757 21.83976441 12.90450564 23.49021516 11.109375 26.0546875 C7.68843258 28.33531578 6.42750278 28.27393757 2.421875 28.1796875 C0.93107422 28.15261719 0.93107422 28.15261719 -0.58984375 28.125 C-1.34910156 28.10179687 -2.10835938 28.07859375 -2.890625 28.0546875 C-2.91948838 23.57553422 -2.93737687 19.09640459 -2.953125 14.6171875 C-2.96150391 13.33779297 -2.96988281 12.05839844 -2.97851562 10.74023438 C-2.98173828 9.52529297 -2.98496094 8.31035156 -2.98828125 7.05859375 C-2.99351807 5.93267822 -2.99875488 4.8067627 -3.00415039 3.64672852 C-2.84804024 0.08238133 -2.84804024 0.08238133 0 0 Z " fill="#333856" transform="translate(341.890625,279.9453125)"/>
<path d="M0 0 C1.4540625 0.0309375 1.4540625 0.0309375 2.9375 0.0625 C5.19060106 4.54141543 5.19737948 8.74364535 5.1328125 13.64453125 C5.1299826 14.45871017 5.12715271 15.2728891 5.12423706 16.11174011 C5.11308584 18.699646 5.08799083 21.28719958 5.0625 23.875 C5.05246365 25.63476061 5.04333894 27.39452667 5.03515625 29.15429688 C5.0131631 33.45716598 4.97866836 37.75977336 4.9375 42.0625 C5.5975 42.3925 6.2575 42.7225 6.9375 43.0625 C5.6175 43.0625 4.2975 43.0625 2.9375 43.0625 C2.6075 43.7225 2.2775 44.3825 1.9375 45.0625 C-1.34348384 44.49681313 -3.07323046 43.77249365 -5.0625 41.0625 C-5.3112793 38.12670898 -5.3112793 38.12670898 -5.13671875 34.55859375 C-5.08193359 33.25986328 -5.02714844 31.96113281 -4.97070312 30.62304688 C-4.8977142 29.24866706 -4.82414276 27.87431806 -4.75 26.5 C-4.68667762 25.15306325 -4.62481376 23.8060571 -4.56445312 22.45898438 C-4.44766981 19.85510152 -4.32654556 17.25140904 -4.20068359 14.64794922 C-4.04828463 10.69365373 -4.04537157 6.76040932 -4.13598633 2.80493164 C-4.00422633 -0.31922492 -3.14383714 0.06415994 0 0 Z " fill="#7B5CF3" transform="translate(344.0625,370.9375)"/>
<path d="M0 0 C6.45863501 0.01046747 12.91727438 0.01484627 19.37591553 0.01983643 C31.91433781 0.03037177 44.4527417 0.04729978 56.9911499 0.06866455 C57.0066111 1.22045197 57.0066111 1.22045197 57.02238464 2.39550781 C57.12039489 9.63468029 57.22291432 16.87376825 57.33048916 24.11280441 C57.38563452 27.83438968 57.43904093 31.55598292 57.48846436 35.27764893 C57.53623186 38.86979126 57.58857881 42.46184044 57.64409065 46.05387115 C57.66445818 47.42375618 57.68318036 48.7936667 57.70022392 50.16359711 C57.72439201 52.08351025 57.75497215 54.00333943 57.78582764 55.92315674 C57.80137192 57.01569763 57.8169162 58.10823853 57.83293152 59.23388672 C57.88437584 62.00389655 57.88437584 62.00389655 58.62898254 64.32775879 C58.74849777 64.90225769 58.868013 65.47675659 58.9911499 66.06866455 C58.3311499 66.72866455 57.6711499 67.38866455 56.9911499 68.06866455 C48.93578592 47.93025459 54.35259523 24.75538403 53.9911499 3.06866455 C3.1711499 2.73866455 -47.6488501 2.40866455 -100.0088501 2.06866455 C-100.0088501 1.73866455 -100.0088501 1.40866455 -100.0088501 1.06866455 C-66.66901108 0.12187072 -33.35186662 -0.06005446 0 0 Z " fill="#9F93EF" transform="translate(228.00885009765625,73.93133544921875)"/>
<path d="M0 0 C0.33 0 0.66 0 1 0 C1.28875 1.0725 1.5775 2.145 1.875 3.25 C2.97947154 7.37027422 2.97947154 7.37027422 5 11 C7.96260526 12.23757877 7.96260526 12.23757877 11 13 C11.66 13.33 12.32 13.66 13 14 C14.97034488 14.12016672 16.94464936 14.17735333 18.91845703 14.20532227 C20.78016037 14.2352401 20.78016037 14.2352401 22.67947388 14.26576233 C24.0389188 14.2827466 25.39836505 14.29962541 26.7578125 14.31640625 C28.14501567 14.33697581 29.53221257 14.35797228 30.91940308 14.37937927 C34.57227505 14.43459981 38.22520359 14.48400911 41.87817383 14.53222656 C45.60503174 14.58244175 49.33180741 14.63812771 53.05859375 14.69335938 C60.37232621 14.80094071 67.68612701 14.90238568 75 15 C75 15.33 75 15.66 75 16 C54.87 16.33 34.74 16.66 14 17 C13.67 19.31 13.34 21.62 13 24 C13.66 24.33 14.32 24.66 15 25 C14.67 25.66 14.34 26.32 14 27 C3.44191344 25.44191344 3.44191344 25.44191344 -1 21 C-0.01 20.67 0.98 20.34 2 20 C1.67 19.01 1.34 18.02 1 17 C0.34 17 -0.32 17 -1 17 C-0.4140625 15.01432292 0.171875 13.02864583 0.7578125 11.04296875 C1.26093748 8.68854587 1.26093748 8.68854587 -1 6 C-0.625 2.8125 -0.625 2.8125 0 0 Z " fill="#766CEE" transform="translate(116,380)"/>
<path d="M0 0 C0.66 0.33 1.32 0.66 2 1 C2.11577218 10.20533203 2.20465277 19.4104141 2.25906086 28.61631489 C2.28517222 32.89087419 2.32059721 37.16493603 2.37719727 41.43920898 C2.4314639 45.5630044 2.46140894 49.68632092 2.47438622 53.81044579 C2.48363589 55.38500702 2.50169858 56.95954158 2.52865028 58.53389931 C2.56487284 60.7371273 2.56994869 62.9383686 2.56762695 65.1418457 C2.57873001 66.39649124 2.58983307 67.65113678 2.60127258 68.94380188 C2 72 2 72 -0.33235168 73.97160339 C-3 75 -3 75 -6.25 74.3125 C-9 73 -9 73 -10 71 C-10.09119671 69.09018054 -10.11752537 67.17712814 -10.11352539 65.26513672 C-10.11344986 64.06404266 -10.11337433 62.86294861 -10.11329651 61.62545776 C-10.10813522 60.32335358 -10.10297394 59.02124939 -10.09765625 57.6796875 C-10.09579138 56.33733167 -10.0943678 54.99497516 -10.09336853 53.65261841 C-10.08954878 50.11804325 -10.07972312 46.58350913 -10.06866455 43.0489502 C-10.05843878 39.44279536 -10.05386841 35.8366339 -10.04882812 32.23046875 C-10.03810038 25.15362904 -10.02103045 18.0768172 -10 11 C-9.67 11 -9.34 11 -9 11 C-8.67 29.81 -8.34 48.62 -8 68 C-6.68 68.33 -5.36 68.66 -4 69 C-4 69.66 -4 70.32 -4 71 C-3.01 71 -2.02 71 -1 71 C-0.67 47.57 -0.34 24.14 0 0 Z " fill="#BFAEF4" transform="translate(375,146)"/>
<path d="M0 0 C13.91650947 -0.04668124 27.83300684 -0.08183691 41.74957848 -0.10362434 C48.21100955 -0.11407912 54.67238818 -0.12826915 61.13378906 -0.15087891 C67.36478824 -0.17254697 73.59573685 -0.18455585 79.82677078 -0.18975449 C82.20871401 -0.19346112 84.59065434 -0.20069882 86.97257614 -0.21146011 C90.29867369 -0.22589478 93.62455997 -0.22798131 96.95068359 -0.22705078 C98.4406913 -0.23783661 98.4406913 -0.23783661 99.96080017 -0.24884033 C100.86386398 -0.246091 101.7669278 -0.24334167 102.69735718 -0.24050903 C103.87817399 -0.24327441 103.87817399 -0.24327441 105.08284569 -0.24609566 C107 0 107 0 109 2 C109.125 5.625 109.125 5.625 109 9 C108.34 9 107.68 9 107 9 C106.505 6.03 106.505 6.03 106 3 C105.01 2.67 104.02 2.34 103 2 C103 2.99 103 3.98 103 5 C102.34 5 101.68 5 101 5 C101 4.34 101 3.68 101 3 C97.23375329 1.74458443 95.62811066 2.62938042 92 4 C91.505 3.505 91.505 3.505 91 3 C88.67115177 2.88037849 86.37059615 2.82458887 84.0402832 2.81054688 C83.31160034 2.80225357 82.58291748 2.79396027 81.83215332 2.78541565 C80.24215725 2.767967 78.65213478 2.75281353 77.06209755 2.73963928 C74.53353363 2.71860653 72.00509709 2.69157208 69.47660828 2.66296387 C64.08862208 2.60314623 58.70057357 2.55123842 53.3125 2.5 C47.11073176 2.44047217 40.90902242 2.37761832 34.70735741 2.30812073 C32.23838061 2.28191444 29.76939702 2.26086206 27.30036926 2.2401123 C18.15979634 2.14847819 9.11219203 1.7853053 0 1 C0 0.67 0 0.34 0 0 Z " fill="#7C6EE6" transform="translate(192,395)"/>
<path d="M0 0 C1.60332791 -0.08121924 3.20784026 -0.13929134 4.8125 -0.1875 C6.15248047 -0.23970703 6.15248047 -0.23970703 7.51953125 -0.29296875 C10 0 10 0 11.796875 1.296875 C13.832577 4.17858302 13.41733457 6.60170418 13 10 C11.13291495 12.36497439 9.67938569 13.66030715 7 15 C3.9375 15.125 3.9375 15.125 1 15 C0 14 0 14 -0.09765625 10.83984375 C-0.08025391 8.90818359 -0.08025391 8.90818359 -0.0625 6.9375 C-0.05347656 5.64714844 -0.04445313 4.35679687 -0.03515625 3.02734375 C-0.02355469 2.02832031 -0.01195312 1.02929688 0 0 Z " fill="#393F5D" transform="translate(307,281)"/>
<path d="M0 0 C4 0 4 0 6 1 C6 1.66 6 2.32 6 3 C6.66 3 7.32 3 8 3 C8 3.66 8 4.32 8 5 C8.66 5 9.32 5 10 5 C10 5.66 10 6.32 10 7 C10.66 7.33 11.32 7.66 12 8 C11.01 8.33 10.02 8.66 9 9 C7.77554716 10.62948064 7.77554716 10.62948064 6.8125 12.5625 C6.214375 13.696875 5.61625 14.83125 5 16 C5.66 16 6.32 16 7 16 C7 16.66 7 17.32 7 18 C7.66 18 8.32 18 9 18 C10.5078125 19.53125 10.5078125 19.53125 12.125 21.5 C12.66382813 22.1496875 13.20265625 22.799375 13.7578125 23.46875 C14.16773438 23.9740625 14.57765625 24.479375 15 25 C14.67 25.66 14.34 26.32 14 27 C11.6545763 24.90899061 9.32593555 22.80014996 7 20.6875 C6.33226562 20.09259766 5.66453125 19.49769531 4.9765625 18.88476562 C4.02910156 18.01948242 4.02910156 18.01948242 3.0625 17.13671875 C2.47597656 16.60780029 1.88945312 16.07888184 1.28515625 15.53393555 C0 14 0 14 0 11 C-0.94726954 9.30280873 -1.94228261 7.63064764 -3 6 C-2.34 5.34 -1.68 4.68 -1 4 C-0.3574765 1.93125966 -0.3574765 1.93125966 0 0 Z " fill="#8166F7" transform="translate(300,75)"/>
<path d="M0 0 C1.588125 -0.061875 3.17625 -0.12375 4.8125 -0.1875 C6.15248047 -0.23970703 6.15248047 -0.23970703 7.51953125 -0.29296875 C10.41647515 0.04918998 11.22555028 0.75393573 13 3 C12.34 3 11.68 3 11 3 C11.495 3.78375 11.99 4.5675 12.5 5.375 C14 8 14 8 14 10 C9.05 10 4.1 10 -1 10 C-0.67 6.7 -0.34 3.4 0 0 Z " fill="#1F2547" transform="translate(377,283)"/>
<path d="M0 0 C2 1 2 1 2.875 3.3125 C4.12101376 6.28908843 5.62230316 7.86007284 8 10 C8.99 9.01 9.98 8.02 11 7 C11.99 7.99 12.98 8.98 14 10 C14.61875 9.505 15.2375 9.01 15.875 8.5 C18 7 18 7 20 7 C20 7.66 20 8.32 20 9 C19.34 9 18.68 9 18 9 C18 9.66 18 10.32 18 11 C17.34 11 16.68 11 16 11 C16 11.66 16 12.32 16 13 C11.58547846 14.05948517 9.65384171 14.3447529 5.5625 12.1875 C4.716875 11.465625 3.87125 10.74375 3 10 C3 9.34 3 8.68 3 8 C2.34 8 1.68 8 1 8 C1 7.34 1 6.68 1 6 C0.34 6 -0.32 6 -1 6 C-1 5.34 -1 4.68 -1 4 C-1.66 3.67 -2.32 3.34 -3 3 C-2.01 2.01 -1.02 1.02 0 0 Z " fill="#846EE6" transform="translate(333,418)"/>
<path d="M0 0 C0.99 0 1.98 0 3 0 C7.06878901 10.34150539 6.29610399 21.09578091 6 32 C5.67 32 5.34 32 5 32 C3.80428219 26.79220425 3.6458508 21.59919571 3.37890625 16.27734375 C3.02372957 13.20524853 2.42888695 11.65205866 1 9 C0.5859375 6.640625 0.5859375 6.640625 0.375 4.25 C0.30023438 3.45078125 0.22546875 2.6515625 0.1484375 1.828125 C0.09945313 1.22484375 0.05046875 0.6215625 0 0 Z " fill="#3E4157" transform="translate(403,273)"/>
<path d="M0 0 C1.19625 0.12375 2.3925 0.2475 3.625 0.375 C5.5625 2.875 5.5625 2.875 6.625 5.375 C5.965 6.035 5.305 6.695 4.625 7.375 C4.00625 6.385 4.00625 6.385 3.375 5.375 C2.7975 4.715 2.22 4.055 1.625 3.375 C0.305 3.375 -1.015 3.375 -2.375 3.375 C-2.36919922 4.15319092 -2.36339844 4.93138184 -2.35742188 5.7331543 C-2.32337461 13.89781028 -2.53106827 22.03074077 -2.875 30.1875 C-2.92269531 31.36892578 -2.97039062 32.55035156 -3.01953125 33.76757812 C-3.13569498 36.6368223 -3.25421131 39.50594746 -3.375 42.375 C-3.705 42.375 -4.035 42.375 -4.375 42.375 C-4.39964638 36.55428378 -4.4178343 30.73359766 -4.42993164 24.9128418 C-4.43497267 22.93106559 -4.44180538 20.94929311 -4.45043945 18.9675293 C-4.46251515 16.12547891 -4.46823045 13.28347753 -4.47265625 10.44140625 C-4.47781754 9.54974258 -4.48297882 8.65807892 -4.48829651 7.73939514 C-4.48849177 5.61759399 -4.4371003 3.4958922 -4.375 1.375 C-3.375 0.375 -3.375 0.375 0 0 Z " fill="#7A62E3" transform="translate(343.375,368.625)"/>
<path d="M0 0 C0.66 0.33 1.32 0.66 2 1 C4.71262116 1.2322646 7.40773126 1.41936235 10.125 1.5625 C11.25615234 1.62727539 11.25615234 1.62727539 12.41015625 1.69335938 C14.27321888 1.7994832 16.13658524 1.90025001 18 2 C18 2.33 18 2.66 18 3 C9.585 3.495 9.585 3.495 1 4 C0.67 15.88 0.34 27.76 0 40 C-0.33 40 -0.66 40 -1 40 C-1.16744386 34.90985861 -1.32802081 29.81956506 -1.48217773 24.72900391 C-1.5356173 22.99652241 -1.59094818 21.2640982 -1.64819336 19.53173828 C-1.73004993 17.04472202 -1.80514988 14.5575805 -1.87890625 12.0703125 C-1.90594131 11.29317902 -1.93297638 10.51604553 -1.96083069 9.71536255 C-2.11387171 4.22774341 -2.11387171 4.22774341 -1 2 C-1.66 1.67 -2.32 1.34 -3 1 C-2.01 0.67 -1.02 0.34 0 0 Z " fill="#141833" transform="translate(332,273)"/>
<path d="M0 0 C4.66307014 -0.04937279 9.32598873 -0.08570627 13.98925781 -0.10986328 C15.57619883 -0.11993188 17.16312125 -0.13358767 18.75 -0.15087891 C21.02869247 -0.17509001 23.30714006 -0.18647422 25.5859375 -0.1953125 C26.29744965 -0.20563507 27.00896179 -0.21595764 27.74203491 -0.22659302 C29.49631665 -0.22699422 31.24996709 -0.12202209 33 0 C35 2 35 2 35.125 5.625 C35.08375 6.73875 35.0425 7.8525 35 9 C34.34 9 33.68 9 33 9 C32.505 6.03 32.505 6.03 32 3 C31.01 2.67 30.02 2.34 29 2 C29 2.99 29 3.98 29 5 C28.34 5 27.68 5 27 5 C27 4.34 27 3.68 27 3 C24.37276604 1.68638302 22.27389439 1.78746091 19.3359375 1.68359375 C18.21445312 1.64169922 17.09296875 1.59980469 15.9375 1.55664062 C14.761875 1.51732422 13.58625 1.47800781 12.375 1.4375 C10.59996094 1.37272461 10.59996094 1.37272461 8.7890625 1.30664062 C5.85949672 1.20032574 2.92984412 1.09829358 0 1 C0 0.67 0 0.34 0 0 Z " fill="#8372DF" transform="translate(266,395)"/>
<path d="M0 0 C3.96 0 7.92 0 12 0 C12 0.33 12 0.66 12 1 C11.030625 1.12375 10.06125 1.2475 9.0625 1.375 C7.5465625 1.684375 7.5465625 1.684375 6 2 C5.67 2.66 5.34 3.32 5 4 C4.34 4 3.68 4 3 4 C3.020625 5.0725 3.04125 6.145 3.0625 7.25 C3.0142016 10.14790424 2.86844115 12.28612141 2 15 C1.34 15 0.68 15 0 15 C0 10.05 0 5.1 0 0 Z " fill="#4F5266" transform="translate(375,298)"/>
<path d="M0 0 C0.99 0.66 1.98 1.32 3 2 C2.67 3.98 2.34 5.96 2 8 C1.01 7.67 0.02 7.34 -1 7 C-3.09291157 7.08571661 -3.09291157 7.08571661 -5 8 C-5.69937532 9.31647119 -6.36729133 10.65022151 -7 12 C-7.99 12.33 -8.98 12.66 -10 13 C-8.63312778 9.01328937 -6.84804907 6.11505367 -4 3 C-3.34 3 -2.68 3 -2 3 C-2 2.34 -2 1.68 -2 1 C-1.34 0.67 -0.68 0.34 0 0 Z " fill="#303550" transform="translate(299,247)"/>
<path d="M0 0 C1.12588014 0.95729916 2.2506715 1.91587895 3.375 2.875 C4.00148438 3.40867188 4.62796875 3.94234375 5.2734375 4.4921875 C6.55836651 5.61432007 7.79371975 6.79371975 9 8 C9 8.99 9 9.98 9 11 C7.02 11.33 5.04 11.66 3 12 C3.185625 11.236875 3.37125 10.47375 3.5625 9.6875 C4.22819173 6.91032625 4.22819173 6.91032625 3 4 C2.01 3.67 1.02 3.34 0 3 C0 2.01 0 1.02 0 0 Z " fill="#262E4B" transform="translate(384,243)"/>
<path d="M0 0 C4.91935902 4.11619836 9.52647956 8.40410362 14 13 C13.34 13.66 12.68 14.32 12 15 C11.67 14.01 11.34 13.02 11 12 C9.67592331 11.31513275 8.34090759 10.65129797 7 10 C4.75 8 4.75 8 3 6 C3 5.34 3 4.68 3 4 C2.01 3.67 1.02 3.34 0 3 C0 2.01 0 1.02 0 0 Z " fill="#937FE5" transform="translate(314,85)"/>
<path d="M0 0 C1.32 0.33 2.64 0.66 4 1 C4.33 3.31 4.66 5.62 5 8 C2.3333581 9.33332095 0.83319697 8.67102033 -2 8 C-1.34 5.36 -0.68 2.72 0 0 Z " fill="#785FF8" transform="translate(295,397)"/>
<path d="M0 0 C2.31 0.66 4.62 1.32 7 2 C6.34 3.32 5.68 4.64 5 6 C4.01 5.34 3.02 4.68 2 4 C-0.02542148 3.63648496 -0.02542148 3.63648496 -2.23046875 3.5859375 C-3.03291016 3.54726563 -3.83535156 3.50859375 -4.66210938 3.46875 C-5.91217773 3.42234375 -5.91217773 3.42234375 -7.1875 3.375 C-8.03248047 3.33632813 -8.87746094 3.29765625 -9.74804688 3.2578125 C-11.83167524 3.16363721 -13.91580753 3.08073325 -16 3 C-16 2.67 -16 2.34 -16 2 C-8.08 1.505 -8.08 1.505 0 1 C0 0.67 0 0.34 0 0 Z " fill="#9091A0" transform="translate(317,274)"/>
<path d="M0 0 C2.375 -0.125 2.375 -0.125 5 0 C5.66 0.66 6.32 1.32 7 2 C6.625 4.125 6.625 4.125 6 6 C3.69 5.67 1.38 5.34 -1 5 C-0.67 3.35 -0.34 1.7 0 0 Z " fill="#785FEA" transform="translate(322,401)"/>
<path d="M0 0 C3 0 3 0 5 1 C5 1.66 5 2.32 5 3 C6.65 3.33 8.3 3.66 10 4 C8.375 5.625 8.375 5.625 6 7 C2.75 6.1875 2.75 6.1875 0 5 C0 3.35 0 1.7 0 0 Z " fill="#8974EA" transform="translate(366,214)"/>
<path d="M0 0 C0.86625 0.556875 0.86625 0.556875 1.75 1.125 C1.09 1.125 0.43 1.125 -0.25 1.125 C0.08 3.435 0.41 5.745 0.75 8.125 C0.09 8.125 -0.57 8.125 -1.25 8.125 C-1.25 7.465 -1.25 6.805 -1.25 6.125 C-1.91 6.125 -2.57 6.125 -3.25 6.125 C-3.25 5.465 -3.25 4.805 -3.25 4.125 C-3.91 4.125 -4.57 4.125 -5.25 4.125 C-5.58 3.135 -5.91 2.145 -6.25 1.125 C-2.80384615 -1.09038462 -2.80384615 -1.09038462 0 0 Z " fill="#8A72ED" transform="translate(347.25,126.875)"/>
<path d="M0 0 C0.66 0.66 1.32 1.32 2 2 C1.875 4 1.875 4 1 6 C-1.58152302 7.72101535 -2.84918025 8 -6 8 C-6.33 7.34 -6.66 6.68 -7 6 C-8.32 5.34 -9.64 4.68 -11 4 C-7.7 3.67 -4.4 3.34 -1 3 C-0.67 2.01 -0.34 1.02 0 0 Z " fill="#1B1F3A" transform="translate(388,295)"/>
<path d="M0 0 C1.98 0.66 3.96 1.32 6 2 C5.67 2.99 5.34 3.98 5 5 C1.4375 6.6875 1.4375 6.6875 -2 8 C-1.125 1.125 -1.125 1.125 0 0 Z " fill="#8363FC" transform="translate(342,121)"/>
<path d="M0 0 C3.33537489 1.11179163 4.63707344 2.47411298 7 5 C7.33 4.34 7.66 3.68 8 3 C9 6 9 6 9 10 C8.34 10 7.68 10 7 10 C7 9.34 7 8.68 7 8 C6.34 8 5.68 8 5 8 C5 7.34 5 6.68 5 6 C4.34 6 3.68 6 3 6 C3 5.34 3 4.68 3 4 C2.34 4 1.68 4 1 4 C1 3.34 1 2.68 1 2 C0.34 1.67 -0.32 1.34 -1 1 C-0.67 0.67 -0.34 0.34 0 0 Z " fill="#9480E9" transform="translate(321,107)"/>
<path d="M0 0 C0.66 1.32 1.32 2.64 2 4 C0.35 5.32 -1.3 6.64 -3 8 C-4.32 7.01 -5.64 6.02 -7 5 C-6.67 4.34 -6.34 3.68 -6 3 C-5.34 3.33 -4.68 3.66 -4 4 C-3.67 3.34 -3.34 2.68 -3 2 C-2.01 2 -1.02 2 0 2 C0 1.34 0 0.68 0 0 Z " fill="#785AF3" transform="translate(336,111)"/>
<path d="M0 0 C0.33 0.99 0.66 1.98 1 3 C0.01 4.485 0.01 4.485 -1 6 C-1 6.66 -1 7.32 -1 8 C-1.66 8 -2.32 8 -3 8 C-3.33 8.66 -3.66 9.32 -4 10 C-4.99 9.01 -5.98 8.02 -7 7 C-4.69 4.69 -2.38 2.38 0 0 Z " fill="#9A86EC" transform="translate(358,403)"/>
<path d="M0 0 C0.99 0.33 1.98 0.66 3 1 C3 1.66 3 2.32 3 3 C3.66 3 4.32 3 5 3 C6.5078125 4.53125 6.5078125 4.53125 8.125 6.5 C8.66382813 7.1496875 9.20265625 7.799375 9.7578125 8.46875 C10.37269531 9.22671875 10.37269531 9.22671875 11 10 C10.67 10.66 10.34 11.32 10 12 C8.32448647 10.57282151 6.65980691 9.13291518 5 7.6875 C3.6078125 6.48673828 3.6078125 6.48673828 2.1875 5.26171875 C0 3 0 3 0 0 Z " fill="#8A71E0" transform="translate(304,90)"/>
<path d="M0 0 C0.66 0 1.32 0 2 0 C2 0.66 2 1.32 2 2 C2.928125 1.773125 3.85625 1.54625 4.8125 1.3125 C5.864375 1.209375 6.91625 1.10625 8 1 C8.99 1.99 9.98 2.98 11 4 C7.04 4 3.08 4 -1 4 C-0.67 2.68 -0.34 1.36 0 0 Z " fill="#1E2238" transform="translate(377,289)"/>
<path d="M0 0 C2.82059747 1.41029874 2.98101714 3.07891581 4 6 C4.35858516 7.32676508 4.7018576 8.65835921 5 10 C4.34 10 3.68 10 3 10 C3 9.34 3 8.68 3 8 C2.34 8 1.68 8 1 8 C1 7.34 1 6.68 1 6 C0.34 6 -0.32 6 -1 6 C-1 5.34 -1 4.68 -1 4 C-1.66 3.67 -2.32 3.34 -3 3 C-2.01 2.01 -1.02 1.02 0 0 Z " fill="#907CED" transform="translate(333,418)"/>
<path d="M0 0 C0.33 0 0.66 0 1 0 C1.17835515 4.54805635 0.99785435 7.8794254 -1 12 C-1.33 12 -1.66 12 -2 12 C-3.25 4.375 -3.25 4.375 -1 1 C-0.67 0.67 -0.34 0.34 0 0 Z " fill="#2F384D" transform="translate(405,310)"/>
<path d="M0 0 C0.99 0.33 1.98 0.66 3 1 C2.88637738 2.4800841 2.75877092 3.95910074 2.625 5.4375 C2.52058594 6.67306641 2.52058594 6.67306641 2.4140625 7.93359375 C2.27742188 8.61550781 2.14078125 9.29742187 2 10 C1.01 10.495 1.01 10.495 0 11 C-0.19406478 9.35492782 -0.38007935 7.70890406 -0.5625 6.0625 C-0.66691406 5.14597656 -0.77132813 4.22945313 -0.87890625 3.28515625 C-0.91886719 2.53105469 -0.95882813 1.77695312 -1 1 C-0.67 0.67 -0.34 0.34 0 0 Z " fill="#1E2341" transform="translate(284,310)"/>
<path d="M0 0 C0.66 0 1.32 0 2 0 C2.08153933 1.58246707 2.13943557 3.16616273 2.1875 4.75 C2.23970703 6.07257813 2.23970703 6.07257813 2.29296875 7.421875 C2 10 2 10 -1 14 C-0.67 9.38 -0.34 4.76 0 0 Z " fill="#414557" transform="translate(353,292)"/>
<path d="M0 0 C0.66 0.33 1.32 0.66 2 1 C2 1.99 2 2.98 2 4 C-2.455 5.485 -2.455 5.485 -7 7 C-6.34 6.01 -5.68 5.02 -5 4 C-4.34 4 -3.68 4 -3 4 C-3 3.34 -3 2.68 -3 2 C-2.01 1.34 -1.02 0.68 0 0 Z " fill="#4F5467" transform="translate(307,240)"/>
<path d="M0 0 C0.66 0 1.32 0 2 0 C2.33 0.99 2.66 1.98 3 3 C2.01 4.485 2.01 4.485 1 6 C0.67 6.66 0.34 7.32 0 8 C-1.65 6.02 -3.3 4.04 -5 2 C-4.360625 1.855625 -3.72125 1.71125 -3.0625 1.5625 C-1.02454854 1.18992819 -1.02454854 1.18992819 0 0 Z " fill="#7A5EE9" transform="translate(320,100)"/>
<path d="M0 0 C3.3125 -0.3125 3.3125 -0.3125 7 0 C8.9375 2.5 8.9375 2.5 10 5 C9.34 5.66 8.68 6.32 8 7 C7.443125 6.0409375 7.443125 6.0409375 6.875 5.0625 C4.41947207 2.36141928 2.55421195 2.31592995 -1 2 C-0.67 1.34 -0.34 0.68 0 0 Z " fill="#8E73E1" transform="translate(340,369)"/>
<path d="M0 0 C4.95 0 9.9 0 15 0 C13.515 1.485 13.515 1.485 12 3 C11.67 2.67 11.34 2.34 11 2 C5.82264323 1.62947661 5.82264323 1.62947661 1 3 C0.67 3.99 0.34 4.98 0 6 C0 4.02 0 2.04 0 0 Z " fill="#2A2E46" transform="translate(376,282)"/>
<path d="M0 0 C0.99 0.66 1.98 1.32 3 2 C3.1875 5.625 3.1875 5.625 3 9 C-1.875 4.375 -1.875 4.375 -3 1 C-2.01 0.67 -1.02 0.34 0 0 Z " fill="#434760" transform="translate(317,282)"/>
<path d="M0 0 C0.66 0.33 1.32 0.66 2 1 C2.33 1.99 2.66 2.98 3 4 C2.071875 4.12375 2.071875 4.12375 1.125 4.25 C-1.17972859 4.79394438 -1.17972859 4.79394438 -2.0625 7 C-2.5265625 7.99 -2.5265625 7.99 -3 9 C-3.99 9.33 -4.98 9.66 -6 10 C-4.6302836 6.00499382 -2.74277578 3.19990508 0 0 Z " fill="#595D77" transform="translate(295,250)"/>
<path d="M0 0 C2.21399303 3.79541663 3.00980198 7.75629421 4 12 C3.34 12 2.68 12 2 12 C2 11.34 2 10.68 2 10 C0.68 9.34 -0.64 8.68 -2 8 C-1.34 8 -0.68 8 0 8 C0 5.36 0 2.72 0 0 Z " fill="#816CE8" transform="translate(293,126)"/>
<path d="M0 0 C1.9375 0.75 1.9375 0.75 4 2 C4.75 4.125 4.75 4.125 5 6 C3.35 5.67 1.7 5.34 0 5 C-0.33 4.01 -0.66 3.02 -1 2 C-0.67 1.34 -0.34 0.68 0 0 Z " fill="#4A4D65" transform="translate(349,282)"/>
<path d="M0 0 C2.88575819 0.39803561 3.82189513 0.79009069 5.75 3.0625 C6.1625 3.701875 6.575 4.34125 7 5 C5.68 5.33 4.36 5.66 3 6 C0 2.25 0 2.25 0 0 Z " fill="#896FEB" transform="translate(356,129)"/>
<path d="M0 0 C3 0 3 0 4.6875 1.1875 C6.40364695 3.55741722 6.23187108 5.14025666 6 8 C1.125 3.375 1.125 3.375 0 0 Z " fill="#55596D" transform="translate(289,330)"/>
<path d="M0 0 C0.99 0 1.98 0 3 0 C3.33 0.99 3.66 1.98 4 3 C3 4 3 4 0.93359375 4.09765625 C0.10988281 4.08605469 -0.71382813 4.07445312 -1.5625 4.0625 C-2.38878906 4.05347656 -3.21507812 4.04445313 -4.06640625 4.03515625 C-4.70449219 4.02355469 -5.34257812 4.01195312 -6 4 C-6 3.67 -6 3.34 -6 3 C-4.35 3 -2.7 3 -1 3 C-0.67 2.01 -0.34 1.02 0 0 Z " fill="#1D2445" transform="translate(348,354)"/>
<path d="M0 0 C1.98 0 3.96 0 6 0 C6 3 6 3 4.5 4.6875 C4.005 5.120625 3.51 5.55375 3 6 C2.87625 5.195625 2.7525 4.39125 2.625 3.5625 C2.315625 2.2940625 2.315625 2.2940625 2 1 C1.34 0.67 0.68 0.34 0 0 Z " fill="#232843" transform="translate(339,282)"/>
<path d="M0 0 C0.598125 0.763125 1.19625 1.52625 1.8125 2.3125 C3.46959332 4.3483575 5.10297674 6.1978279 7 8 C6.67 8.66 6.34 9.32 6 10 C2.26115668 7.34345343 0.35021826 5.41889613 -1 1 C-0.67 0.67 -0.34 0.34 0 0 Z " fill="#8974DE" transform="translate(288,143)"/>
<path d="M0 0 C1.17539996 0.92652701 2.34010577 1.86663387 3.5 2.8125 C4.1496875 3.33457031 4.799375 3.85664063 5.46875 4.39453125 C7 6 7 6 7 9 C0.70535714 4.17857143 0.70535714 4.17857143 0 0 Z " fill="#937FE6" transform="translate(363,134)"/>
<path d="M0 0 C1.32 0.66 2.64 1.32 4 2 C4 2.99 4 3.98 4 5 C2.35 5 0.7 5 -1 5 C-1 2 -1 2 0 0 Z " fill="#1F233E" transform="translate(357,353)"/>
<path d="M0 0 C0.598125 0.226875 1.19625 0.45375 1.8125 0.6875 C1.1525 0.6875 0.4925 0.6875 -0.1875 0.6875 C-0.5175 1.6775 -0.8475 2.6675 -1.1875 3.6875 C-2.1775 3.6875 -3.1675 3.6875 -4.1875 3.6875 C-4.1875 5.3375 -4.1875 6.9875 -4.1875 8.6875 C-4.5175 8.6875 -4.8475 8.6875 -5.1875 8.6875 C-5.55003776 3.24943353 -5.55003776 3.24943353 -3.9375 0.75 C-2.1875 -0.3125 -2.1875 -0.3125 0 0 Z " fill="#595B6D" transform="translate(152.1875,213.3125)"/>
<path d="M0 0 C2.64 0 5.28 0 8 0 C7.34 1.32 6.68 2.64 6 4 C4.02 3.34 2.04 2.68 0 2 C0 1.34 0 0.68 0 0 Z " fill="#695EE3" transform="translate(121,65)"/>
<path d="M0 0 C0.33 1.32 0.66 2.64 1 4 C-1.9719385 2.87548273 -4.33440687 1.77706209 -7 0 C-3.86650268 -1.04449911 -3.01031744 -0.93423645 0 0 Z " fill="#4A4F65" transform="translate(316,350)"/>
<path d="M0 0 C2.31 0 4.62 0 7 0 C7 0.66 7 1.32 7 2 C4.69 2.66 2.38 3.32 0 4 C0 2.68 0 1.36 0 0 Z " fill="#7467EB" transform="translate(121,75)"/>
<path d="M0 0 C0.66 0 1.32 0 2 0 C2.66 2.31 3.32 4.62 4 7 C3.34 7.66 2.68 8.32 2 9 C0.50178941 5.62902617 0 3.79557881 0 0 Z " fill="#747688" transform="translate(281,312)"/>
<path d="M0 0 C2.31 1.98 4.62 3.96 7 6 C6.34 6.66 5.68 7.32 5 8 C4.731875 7.360625 4.46375 6.72125 4.1875 6.0625 C3.11332248 3.66868314 3.11332248 3.66868314 0 3 C0 2.01 0 1.02 0 0 Z " fill="#525666" transform="translate(384,243)"/>
<path d="M0 0 C0.99 0.33 1.98 0.66 3 1 C3 3.31 3 5.62 3 8 C2.34 8 1.68 8 1 8 C0.67 5.36 0.34 2.72 0 0 Z " fill="#8575D9" transform="translate(298,396)"/>
<path d="M0 0 C2.475 0.495 2.475 0.495 5 1 C5 1.99 5 2.98 5 4 C3.35 3.67 1.7 3.34 0 3 C0 2.01 0 1.02 0 0 Z " fill="#373C57" transform="translate(257,251)"/>
<path d="M0 0 C0.66 0.66 1.32 1.32 2 2 C1.34 2 0.68 2 0 2 C0 2.99 0 3.98 0 5 C-0.99 5.33 -1.98 5.66 -3 6 C-3 5.34 -3 4.68 -3 4 C-3.66 3.67 -4.32 3.34 -5 3 C-3.35 2.01 -1.7 1.02 0 0 Z " fill="#8667F7" transform="translate(356,127)"/>
<path d="M0 0 C1.98 1.65 3.96 3.3 6 5 C4.68 5.33 3.36 5.66 2 6 C0 3 0 3 0 0 Z " fill="#907CE7" transform="translate(339,110)"/>
</svg>
