<?xml version="1.0" encoding="UTF-8"?>
<svg version="1.1" xmlns="http://www.w3.org/2000/svg" width="500" height="500">
<path d="M0 0 C0 0.66 0 1.32 0 2 C0.721875 2.25007813 1.44375 2.50015625 2.1875 2.7578125 C5.25219604 4.11138659 7.42381931 5.74160037 10 7.875 C10.825 8.55304688 11.65 9.23109375 12.5 9.9296875 C13.325 10.61289063 14.15 11.29609375 15 12 C15.928125 12.70382813 16.85625 13.40765625 17.8125 14.1328125 C18.534375 14.74898437 19.25625 15.36515625 20 16 C20 16.66 20 17.32 20 18 C20.66 18 21.32 18 22 18 C22 18.66 22 19.32 22 20 C22.66 20 23.32 20 24 20 C24 20.66 24 21.32 24 22 C24.66 22 25.32 22 26 22 C26 22.66 26 23.32 26 24 C26.66 24 27.32 24 28 24 C29.5859375 25.9765625 29.5859375 25.9765625 31.375 28.625 C31.99246094 29.53636719 32.60992187 30.44773438 33.24609375 31.38671875 C34.11427734 32.68029297 34.11427734 32.68029297 35 34 C35.44472656 34.62519531 35.88945312 35.25039062 36.34765625 35.89453125 C38.20784486 38.52813161 39 39.68898478 39 43 C39.66 43 40.32 43 41 43 C46.16358933 53.04326996 49.29134297 63.08618736 52 74 C52.35578125 75.35544922 52.35578125 75.35544922 52.71875 76.73828125 C61.61645161 114.61893735 44.54559814 150.1015712 26 182 C25.34 182 24.68 182 24 182 C23.90976562 182.54398438 23.81953125 183.08796875 23.7265625 183.6484375 C22.77538266 186.7269873 21.19231601 188.96568429 19.375 191.625 C18.72273437 192.58664062 18.07046875 193.54828125 17.3984375 194.5390625 C14.29044737 199.04327461 11.14292499 203.52013421 8 208 C9.21059082 208.0093457 10.42118164 208.01869141 11.66845703 208.02832031 C16.1751741 208.06829948 20.68121422 208.1340804 25.1875 208.20751953 C27.13500245 208.23568321 29.08261822 208.2569206 31.03027344 208.27099609 C33.83587468 208.29248946 36.64012 208.33917198 39.4453125 208.390625 C40.74409836 208.39246796 40.74409836 208.39246796 42.06912231 208.39434814 C47.52379769 208.52545373 50.65821167 209.39928917 55 213 C58.4086229 216.58234885 59.91255167 219.94989891 61.4375 224.625 C62.93731625 229.03730346 64.50636904 233.28775152 66.5 237.5 C68.9752749 242.76868857 70.90168649 248.16652105 72.81640625 253.66015625 C73.81362431 256.4740884 74.87049781 259.2374826 76 262 C77.61020679 265.93821661 79.03721673 269.91986483 80.4375 273.9375 C81.93673251 278.18380185 83.52498589 282.2986478 85.4375 286.375 C87.76968897 291.35178955 89.73293957 296.43265948 91.61547852 301.59179688 C92.98013534 305.32212206 94.40353833 309.01140146 95.9375 312.67578125 C102.70826219 328.97251487 102.70826219 328.97251487 101 336 C98.87036668 340.79167498 96.16038339 342.91966025 91.45976758 345.1679678 C86.59058299 346.8150008 81.58924926 346.5471089 76.49935913 346.50793457 C75.25127366 346.51417453 74.00318818 346.5204145 72.71728194 346.52684355 C69.26931251 346.54348297 65.8217881 346.53531553 62.37381744 346.52289867 C58.64917036 346.51382842 54.92459846 346.52782754 51.19996643 346.53881836 C43.91043966 346.55658612 36.62107781 346.55277172 29.33154462 346.5411678 C23.40738303 346.53212825 17.48326761 346.53091172 11.5591011 346.53526306 C10.29359772 346.53618246 10.29359772 346.53618246 9.00252862 346.53712043 C7.28857026 346.53839935 5.57461192 346.5396962 3.86065359 346.5410108 C-12.20278606 346.55241113 -28.26613434 346.53931076 -44.32955901 346.51780933 C-58.11200433 346.49993234 -71.89431491 346.50304845 -85.67675781 346.52148438 C-101.68645457 346.54288956 -117.69607132 346.55131938 -133.70578039 346.53903532 C-135.41276446 346.53776113 -137.11974854 346.53650365 -138.82673264 346.53526306 C-140.08650682 346.53433741 -140.08650682 346.53433741 -141.37173099 346.53339306 C-147.2896353 346.52993958 -153.20748884 346.5357683 -159.12538528 346.54518127 C-166.33594945 346.55639844 -173.54633943 346.55336695 -180.75688364 346.5320583 C-184.43566412 346.52154498 -188.11415417 346.51743068 -191.79293251 346.53065491 C-195.77989478 346.54477032 -199.7663813 346.52791777 -203.75332642 346.50793457 C-205.49903425 346.5213189 -205.49903425 346.5213189 -207.28000891 346.53497362 C-213.49283399 346.47437611 -217.29661822 346.20980334 -222 342 C-225.04759785 338.44446917 -225.4004699 335.30722204 -225.33886719 330.68188477 C-224.66107763 325.31767847 -222.3178259 320.48980455 -220.1875 315.5625 C-217.32768279 308.80256118 -214.63675397 302.1627262 -212.62866211 295.09790039 C-211.87405329 292.57970482 -210.8606512 290.28783385 -209.6875 287.9375 C-207.51125985 283.31136077 -205.7346207 278.63642687 -204.0625 273.8125 C-203.81209961 273.0911084 -203.56169922 272.3697168 -203.30371094 271.62646484 C-202.79254573 270.15270308 -202.28147855 268.67890732 -201.77050781 267.20507812 C-198.71894708 258.47196768 -195.60047502 249.89189947 -191.28515625 241.69140625 C-189.61021592 238.18370446 -188.27651363 234.58429127 -186.9375 230.9375 C-180.67782934 213.91127511 -180.67782934 213.91127511 -177 211 C-171.81426851 208.79372154 -167.19128906 208.73708524 -161.6640625 208.8046875 C-160.34503433 208.80893234 -160.34503433 208.80893234 -158.99935913 208.81326294 C-156.20776406 208.82440288 -153.4164971 208.84949589 -150.625 208.875 C-148.72526507 208.8850378 -146.82552508 208.89416225 -144.92578125 208.90234375 C-140.28372893 208.92432194 -135.64191998 208.9588089 -131 209 C-131.56195068 208.19062988 -132.12390137 207.38125977 -132.70288086 206.54736328 C-137.69586005 199.35003071 -142.66785472 192.13974011 -147.5625 184.875 C-148.18962891 183.9571875 -148.81675781 183.039375 -149.46289062 182.09375 C-150.05392578 181.21460938 -150.64496094 180.33546875 -151.25390625 179.4296875 C-151.78314697 178.64835449 -152.3123877 177.86702148 -152.85766602 177.06201172 C-154 175 -154 175 -154 172 C-154.66 172 -155.32 172 -156 172 C-157.41016766 169.17966469 -158.8190958 166.35878963 -160.22265625 163.53515625 C-161.37623544 161.24067456 -162.54965641 158.95602172 -163.74609375 156.68359375 C-179.75549102 125.91274777 -182.70539388 95.2676098 -173.125 61.9375 C-170.95809698 55.38478527 -168.03737087 49.186112 -165 43 C-164.34 43 -163.68 43 -163 43 C-162.9175 42.484375 -162.835 41.96875 -162.75 41.4375 C-161.67859775 37.95544268 -159.86476395 35.12799115 -158 32 C-157.34 32 -156.68 32 -156 32 C-155.7525 31.278125 -155.505 30.55625 -155.25 29.8125 C-153.87730408 26.72393418 -152.27646704 24.48988582 -150 22 C-149.34 22 -148.68 22 -148 22 C-148 21.34 -148 20.68 -148 20 C-147.34 20 -146.68 20 -146 20 C-145.76667969 19.43152344 -145.53335938 18.86304688 -145.29296875 18.27734375 C-141.47483783 11.55235788 -133.4748082 6.09630723 -127 2 C-126.01 2 -125.02 2 -124 2 C-124 1.34 -124 0.68 -124 0 C-113.52289807 -5.16801968 -103.2095946 -9.66300039 -92 -13 C-90.91912109 -13.33451172 -90.91912109 -13.33451172 -89.81640625 -13.67578125 C-59.74304524 -22.14806145 -26.92723928 -14.62874057 0 0 Z M-120.5 13.125 C-121.3559375 13.62257813 -122.211875 14.12015625 -123.09375 14.6328125 C-123.7228125 15.08398438 -124.351875 15.53515625 -125 16 C-125 16.66 -125 17.32 -125 18 C-126.32 18.33 -127.64 18.66 -129 19 C-129 19.66 -129 20.32 -129 21 C-129.55429688 21.22171875 -130.10859375 21.4434375 -130.6796875 21.671875 C-146.18713161 30.54818981 -158.50468333 53.81148326 -163.34765625 70.34375 C-171.85807308 102.87591337 -163.62826532 130.29903476 -148 159 C-147.3619105 160.17704611 -146.7238843 161.35412654 -146.0859375 162.53125 C-144.73016883 165.02432224 -143.36906296 167.51421117 -142 170 C-141.34 170 -140.68 170 -140 170 C-139.89872803 170.55268555 -139.79745605 171.10537109 -139.69311523 171.67480469 C-138.21266292 176.64128155 -134.8367099 180.9168436 -132.0625 185.25 C-131.41603516 186.28125 -130.76957031 187.3125 -130.10351562 188.375 C-129.48283203 189.34953125 -128.86214844 190.3240625 -128.22265625 191.328125 C-127.65297119 192.2243457 -127.08328613 193.12056641 -126.49633789 194.04394531 C-126.00254639 194.68944336 -125.50875488 195.33494141 -125 196 C-124.34 196 -123.68 196 -123 196 C-122.7321167 196.74024414 -122.4642334 197.48048828 -122.18823242 198.24316406 C-121.0333923 200.92252601 -119.79232238 202.83306178 -117.98828125 205.109375 C-117.39466797 205.86476563 -116.80105469 206.62015625 -116.18945312 207.3984375 C-115.57005859 208.17445313 -114.95066406 208.95046875 -114.3125 209.75 C-113.10026042 211.28645833 -111.88802083 212.82291667 -110.67578125 214.359375 C-110.0722583 215.12064697 -109.46873535 215.88191895 -108.84692383 216.66625977 C-106.96327469 219.04640545 -105.08761817 221.43244975 -103.21875 223.82421875 C-102.66767578 224.52893311 -102.11660156 225.23364746 -101.54882812 225.9597168 C-100.03310862 227.95638576 -98.60641365 229.99634899 -97.1875 232.0625 C-96.465625 233.031875 -95.74375 234.00125 -95 235 C-94.34 235 -93.68 235 -93 235 C-92.731875 235.556875 -92.46375 236.11375 -92.1875 236.6875 C-90.89100504 239.21225334 -89.57523677 241.63714484 -88 244 C-87.34 244 -86.68 244 -86 244 C-86 244.66 -86 245.32 -86 246 C-85.34 246 -84.68 246 -84 246 C-83.77828125 246.52980469 -83.5565625 247.05960938 -83.328125 247.60546875 C-81.530791 250.84595623 -79.16564928 253.52579992 -76.75 256.3125 C-75.75382191 257.4699795 -74.75772748 258.62753101 -73.76171875 259.78515625 C-73.04508057 260.61490967 -73.04508057 260.61490967 -72.31396484 261.46142578 C-70.69207374 263.36056323 -69.13287807 265.30822146 -67.5625 267.25 C-64.77825426 270.3380142 -64.77825426 270.3380142 -61 271 C-55.22840576 267.48944268 -49.98372801 261.41538027 -46 256 C-46 255.34 -46 254.68 -46 254 C-45.34 254 -44.68 254 -44 254 C-44 253.34 -44 252.68 -44 252 C-43.34 252 -42.68 252 -42 252 C-40.41173778 250.28502228 -40.41173778 250.28502228 -38.875 248.125 C-38.33617187 247.40570313 -37.79734375 246.68640625 -37.2421875 245.9453125 C-35.82060368 244.10373994 -35.82060368 244.10373994 -36 242 C-35.01 241.67 -34.02 241.34 -33 241 C-31.33126118 239.21355334 -31.33126118 239.21355334 -29.8125 237.0625 C-29.28269531 236.35222656 -28.75289062 235.64195312 -28.20703125 234.91015625 C-26.8219373 233.09480515 -26.8219373 233.09480515 -27 231 C-26.34 231 -25.68 231 -25 231 C-25 230.34 -25 229.68 -25 229 C-24.34 229 -23.68 229 -23 229 C-21.71664477 227.66719516 -21.71664477 227.66719516 -20.4609375 225.88671875 C-19.96625977 225.22043457 -19.47158203 224.55415039 -18.96191406 223.86767578 C-18.43823242 223.14821777 -17.91455078 222.42875977 -17.375 221.6875 C-16.84100586 220.96288574 -16.30701172 220.23827148 -15.75683594 219.49169922 C-14.67660338 218.023999 -13.59911307 216.55427642 -12.52441406 215.08251953 C-11.17037087 213.23274559 -9.80397166 211.39334524 -8.4296875 209.55859375 C-7.71039063 208.59050781 -6.99109375 207.62242187 -6.25 206.625 C-5.29867187 205.34496094 -5.29867187 205.34496094 -4.328125 204.0390625 C-2.81807399 202.12626551 -2.81807399 202.12626551 -3 200 C-2.34 200 -1.68 200 -1 200 C0.73171927 197.73643076 0.73171927 197.73643076 2.51953125 194.8125 C3.21240234 193.72066406 3.90527344 192.62882813 4.61914062 191.50390625 C5.35041008 190.3360312 6.08152883 189.16806177 6.8125 188 C7.53125601 186.86287328 8.25064996 185.72614952 8.97070312 184.58984375 C10.98838892 181.39812987 12.99574568 178.20016009 15 175 C15.5055542 174.19715576 16.0111084 173.39431152 16.53198242 172.56713867 C22.02899856 163.82286231 26.69239037 154.73174027 31.1875 145.4375 C31.61571045 144.56327393 32.0439209 143.68904785 32.48510742 142.78833008 C34.91766624 137.70051005 36.85197923 132.69186182 38.35424805 127.25390625 C39.00714509 124.97506106 39.79094126 122.7806355 40.625 120.5625 C42.34672334 115.433387 42.76080093 110.38197909 43 105 C43.04125 104.113125 43.0825 103.22625 43.125 102.3125 C43.74754881 75.54290115 33.44438392 52.50317589 17 32 C16.236875 30.989375 15.47375 29.97875 14.6875 28.9375 C14.130625 28.298125 13.57375 27.65875 13 27 C12.34 27 11.68 27 11 27 C11 26.34 11 25.68 11 25 C10.34 25 9.68 25 9 25 C9 24.34 9 23.68 9 23 C8.34 23 7.68 23 7 23 C7 22.34 7 21.68 7 21 C4.36315253 18.60179695 4.36315253 18.60179695 1 18 C1 17.34 1 16.68 1 16 C-7.78350489 8.60450576 -18.86165749 4.93477082 -29.5625 1.3125 C-30.43680664 1.01480713 -31.31111328 0.71711426 -32.21191406 0.41040039 C-62.27278889 -9.5112663 -93.6857927 -2.68214072 -120.5 13.125 Z M-9.8125 229.625 C-10.41707031 230.40101563 -11.02164063 231.17703125 -11.64453125 231.9765625 C-13.18551649 233.87102373 -13.18551649 233.87102373 -13 236 C-13.66 236 -14.32 236 -15 236 C-15 236.66 -15 237.32 -15 238 C-15.66 238 -16.32 238 -17 238 C-18.37659768 239.72147778 -19.67772763 241.50377655 -20.9375 243.3125 C-25.24054766 249.465456 -25.24054766 249.465456 -28 252 C-26.63795125 255.21284021 -25.30358623 256.79760918 -22.41015625 258.7265625 C-21.70826172 259.2009375 -21.00636719 259.6753125 -20.28320312 260.1640625 C-19.55037109 260.64617187 -18.81753906 261.12828125 -18.0625 261.625 C-16.96905273 262.35976563 -16.96905273 262.35976563 -15.85351562 263.109375 C-13.90784839 264.41480893 -11.9554358 265.70926734 -10 267 C-9.01 267.66 -8.02 268.32 -7 269 C-3.48133778 268.62939479 -0.67332559 266.84154223 2.3671875 265.12109375 C3.41100586 264.53336182 4.45482422 263.94562988 5.53027344 263.34008789 C6.6340332 262.71223389 7.73779297 262.08437988 8.875 261.4375 C10.00454102 260.79997803 11.13408203 260.16245605 12.29785156 259.50561523 C19.18494591 255.61417927 26.0519098 251.68810191 32.91015625 247.74609375 C37.35175672 245.2361122 41.84827009 242.83507258 46.35546875 240.4453125 C49.10938429 238.99042719 49.10938429 238.99042719 52 237 C50.46819108 230.58632851 49.18155204 226.22705561 44 222 C43.505 221.505 43.505 221.505 43 221 C41.64571383 220.8865626 40.28567384 220.8404997 38.92675781 220.82299805 C38.06205872 220.81016281 37.19735962 220.79732758 36.30645752 220.78410339 C35.36485779 220.77671646 34.42325806 220.76932953 33.453125 220.76171875 C32.48977234 220.753647 31.52641968 220.74557526 30.53387451 220.73725891 C28.4893983 220.72339851 26.44489875 220.71268515 24.40039062 220.70483398 C21.2768947 220.68764798 18.15446427 220.64378252 15.03125 220.59960938 C13.0468828 220.58948055 11.06250658 220.58096504 9.078125 220.57421875 C8.14462219 220.55671066 7.21111938 220.53920258 6.24932861 220.52116394 C-1.71484184 220.54772215 -5.01101285 223.36946772 -9.8125 229.625 Z M-172 225 C-173.13015585 227.49443605 -174.06684703 229.85707559 -174.9375 232.4375 C-175.45913544 233.90558946 -175.98258485 235.37303561 -176.5078125 236.83984375 C-176.76208008 237.55769043 -177.01634766 238.27553711 -177.27832031 239.01513672 C-178.20029218 241.55087127 -179.24220737 244.02356429 -180.3125 246.5 C-182.81100542 252.39104473 -185.02539098 258.37682997 -187.25 264.375 C-190.62080912 273.45869692 -194.18522109 282.4402563 -197.89648438 291.38964844 C-200.41909722 297.49972929 -202.71661468 303.63926733 -204.87890625 309.88671875 C-206.40106219 314.1137511 -208.17043869 318.22289372 -209.9296875 322.35546875 C-211.21623445 325.53427272 -212.16907363 328.67629451 -213 332 C-210.7193293 333.21297649 -210.7193293 333.21297649 -208 334 C-205.7142289 333.23396041 -205.7142289 333.23396041 -204 332 C-204 331.34 -204 330.68 -204 330 C-202.83984375 329.69449219 -202.83984375 329.69449219 -201.65625 329.3828125 C-196.573031 327.46031301 -192.13844162 324.68473769 -187.5 321.875 C-185.52000533 320.68931214 -183.53953719 319.50441456 -181.55859375 318.3203125 C-180.60194824 317.74700195 -179.64530273 317.17369141 -178.65966797 316.58300781 C-175.31781615 314.59397099 -171.94716588 312.6652634 -168.5625 310.75 C-158.99636133 305.31625059 -149.59415784 299.61804185 -140.25 293.8125 C-133.07944713 289.3883042 -125.8897641 285.01501699 -118 282 C-118 281.34 -118 280.68 -118 280 C-117.01 280 -116.02 280 -115 280 C-115 279.34 -115 278.68 -115 278 C-114.44183594 277.88785156 -113.88367188 277.77570313 -113.30859375 277.66015625 C-104.00613959 275.00006361 -95.16312147 268.11330661 -87 263 C-87.66 262.67 -88.32 262.34 -89 262 C-90.0625 260.0625 -90.0625 260.0625 -91 258 C-91.33 257.34 -91.66 256.68 -92 256 C-92.66 256 -93.32 256 -94 256 C-94.27779297 255.4112207 -94.55558594 254.82244141 -94.84179688 254.21582031 C-96.65418365 250.74844629 -99.08753127 247.81701451 -101.5 244.75 C-102.24830078 243.77546875 -102.24830078 243.77546875 -103.01171875 242.78125 C-104.29184193 241.14763436 -105.64105599 239.56865759 -107 238 C-107.66 238 -108.32 238 -109 238 C-109.37125 237.195625 -109.37125 237.195625 -109.75 236.375 C-111.30652537 233.4176018 -113.03435673 230.70275949 -115 228 C-115.66 228 -116.32 228 -117 228 C-118 226 -119 224 -120 222 C-126.76262208 221.9239593 -133.52513398 221.87140415 -140.28808594 221.83520508 C-142.5889091 221.82011505 -144.88970349 221.79964073 -147.19042969 221.77368164 C-150.49681702 221.73730853 -153.80282416 221.72027568 -157.109375 221.70703125 C-158.13867126 221.69154739 -159.16796753 221.67606354 -160.22845459 221.66011047 C-161.18914856 221.65988388 -162.14984253 221.65965729 -163.13964844 221.65942383 C-163.98348083 221.65276199 -164.82731323 221.64610016 -165.69671631 221.63923645 C-168.5707803 222.08940137 -169.89550557 223.01564206 -172 225 Z M56 248 C54.94941406 248.59167969 53.89882813 249.18335938 52.81640625 249.79296875 C40.03604257 256.98782887 40.03604257 256.98782887 35.375 259.5625 C31.60333803 261.64987018 27.86401578 263.79241724 24.125 265.9375 C18.12885728 269.37675097 12.08564623 272.72120285 6 276 C7.49330744 279.82396383 9.57526677 281.39862907 12.9375 283.671875 C13.91460937 284.33574219 14.89171875 284.99960937 15.8984375 285.68359375 C16.92195312 286.36550781 17.94546875 287.04742187 19 287.75 C20.02351562 288.44738281 21.04703125 289.14476562 22.1015625 289.86328125 C26.68462927 293.45757461 26.68462927 293.45757461 32 295 C32 295.66 32 296.32 32 297 C34.17526559 298.5808738 34.17526559 298.5808738 36.9375 300.1875 C41.54745133 303.02348035 45.76920379 306.06300771 49.9296875 309.51953125 C52.18993746 311.1358232 54.39118822 312.06828151 57 313 C57 313.66 57 314.32 57 315 C60.63323689 317.96235695 60.63323689 317.96235695 65 319 C65 319.66 65 320.32 65 321 C66.69810754 322.37898043 68.46035459 323.67959478 70.25 324.9375 C71.22453125 325.62714844 72.1990625 326.31679688 73.203125 327.02734375 C74.12609375 327.67832031 75.0490625 328.32929688 76 329 C76.73734375 329.57878906 77.4746875 330.15757812 78.234375 330.75390625 C79.91216261 332.19220408 79.91216261 332.19220408 82 332 C82 332.66 82 333.32 82 334 C84.44480079 333.81171228 84.44480079 333.81171228 87 333 C88.41887382 331.28302343 88.41887382 331.28302343 89 329 C88.31703634 326.62519524 88.31703634 326.62519524 86.9375 324.1875 C84.19693199 318.61723981 82.258005 312.98540885 80.40625 307.06640625 C78.96825815 302.70427365 77.15526706 298.50982558 75.36914062 294.28100586 C72.4888645 287.37871789 69.82124972 280.39009732 67.10546875 273.421875 C62.42871959 260.27329378 62.42871959 260.27329378 56 248 Z M-37 263 C-38.37562854 264.28965176 -39.70766393 265.62689293 -41 267 C-41 267.66 -41 268.32 -41 269 C-41.66 269 -42.32 269 -43 269 C-43 269.66 -43 270.32 -43 271 C-43.66 271 -44.32 271 -45 271 C-45 271.66 -45 272.32 -45 273 C-45.66 273 -46.32 273 -47 273 C-47.556875 273.9075 -48.11375 274.815 -48.6875 275.75 C-51.72520101 280.01920142 -54.78143541 282.37909581 -59.984375 283.3828125 C-65.10374355 283.68045021 -69.07163763 282.29701842 -73 279 C-74.38617389 277.03625365 -75.73012031 275.04087808 -77 273 C-79.93355424 271.66271667 -79.93355424 271.66271667 -82.48046875 272.99609375 C-83.37378906 273.47175781 -84.26710938 273.94742187 -85.1875 274.4375 C-86.08855469 274.91058594 -86.98960937 275.38367188 -87.91796875 275.87109375 C-88.60503906 276.24363281 -89.29210937 276.61617188 -90 277 C-90 277.66 -90 278.32 -90 279 C-90.55091309 279.10417236 -91.10182617 279.20834473 -91.66943359 279.31567383 C-94.50924556 280.1495302 -96.73893366 281.44524512 -99.2890625 282.94921875 C-100.31386719 283.55056641 -101.33867187 284.15191406 -102.39453125 284.77148438 C-103.99361328 285.71991211 -103.99361328 285.71991211 -105.625 286.6875 C-106.66785156 287.30044922 -107.71070313 287.91339844 -108.78515625 288.54492188 C-114.53794044 291.93123616 -120.26374596 295.35745462 -125.95458984 298.84692383 C-128 300 -128 300 -131 301 C-131 301.66 -131 302.32 -131 303 C-131.80244141 303.13921875 -131.80244141 303.13921875 -132.62109375 303.28125 C-135.75839449 304.22913725 -138.26068476 305.80571767 -141.0625 307.5 C-146.69770992 310.89923664 -146.69770992 310.89923664 -150 312 C-150 312.66 -150 313.32 -150 314 C-150.56444824 314.1131958 -151.12889648 314.2263916 -151.71044922 314.34301758 C-154.29328341 315.08415714 -156.30635315 316.16793509 -158.6328125 317.51171875 C-159.52226562 318.02283203 -160.41171875 318.53394531 -161.328125 319.06054688 C-162.71257812 319.86588867 -162.71257812 319.86588867 -164.125 320.6875 C-165.02476562 321.20505859 -165.92453125 321.72261719 -166.8515625 322.25585938 C-169.57416529 323.8264413 -172.2884497 325.41042033 -175 327 C-175.9600293 327.56025879 -176.92005859 328.12051758 -177.90917969 328.69775391 C-178.82344727 329.23706543 -179.73771484 329.77637695 -180.6796875 330.33203125 C-181.50968262 330.82034424 -182.33967773 331.30865723 -183.19482422 331.81176758 C-184.08838623 332.39994263 -184.08838623 332.39994263 -185 333 C-185 333.33 -185 333.66 -185 334 C-103.16 334 -21.32 334 63 334 C59.85092269 330.85092269 56.94404244 328.34741633 53.375 325.75 C52.41335938 325.04359375 51.45171875 324.3371875 50.4609375 323.609375 C48.21110229 321.81755968 48.21110229 321.81755968 46 322 C46 321.34 46 320.68 46 320 C45.34 320 44.68 320 44 320 C44 319.34 44 318.68 44 318 C41.89344691 316.45187749 41.89344691 316.45187749 39.1875 314.875 C33.98212353 311.67221007 29.08825796 308.18868285 24.21484375 304.50390625 C22.17042711 302.81274961 22.17042711 302.81274961 20 303 C20 302.34 20 301.68 20 301 C17.79189451 299.38413685 17.79189451 299.38413685 15 297.75 C11.66900205 295.68976299 8.41158276 293.64569544 5.3125 291.25 C0.59339579 287.61235717 -4.34761582 284.29987304 -9.27807617 280.95800781 C-12.22979626 278.94799123 -15.05436451 276.95465833 -17.80078125 274.6640625 C-19.93908205 272.69830301 -19.93908205 272.69830301 -23 273 C-23 272.34 -23 271.68 -23 271 C-25.11180772 269.472053 -25.11180772 269.472053 -27.75 268 C-28.63171875 267.484375 -29.5134375 266.96875 -30.421875 266.4375 C-32.5901988 265.22849521 -34.76767294 264.08486923 -37 263 Z " fill="#6E68F6" transform="translate(312,78)"/>
<path d="M0 0 C0 0.66 0 1.32 0 2 C0.721875 2.25007813 1.44375 2.50015625 2.1875 2.7578125 C5.25219604 4.11138659 7.42381931 5.74160037 10 7.875 C10.825 8.55304688 11.65 9.23109375 12.5 9.9296875 C13.325 10.61289063 14.15 11.29609375 15 12 C15.928125 12.70382813 16.85625 13.40765625 17.8125 14.1328125 C18.534375 14.74898437 19.25625 15.36515625 20 16 C20 16.66 20 17.32 20 18 C20.66 18 21.32 18 22 18 C22 18.66 22 19.32 22 20 C22.66 20 23.32 20 24 20 C24 20.66 24 21.32 24 22 C24.66 22 25.32 22 26 22 C26 22.66 26 23.32 26 24 C26.66 24 27.32 24 28 24 C29.5859375 25.9765625 29.5859375 25.9765625 31.375 28.625 C31.99246094 29.53636719 32.60992187 30.44773438 33.24609375 31.38671875 C34.11427734 32.68029297 34.11427734 32.68029297 35 34 C35.66708984 34.93779297 35.66708984 34.93779297 36.34765625 35.89453125 C38.20784486 38.52813161 39 39.68898478 39 43 C39.66 43 40.32 43 41 43 C46.16358933 53.04326996 49.29134297 63.08618736 52 74 C52.35578125 75.35544922 52.35578125 75.35544922 52.71875 76.73828125 C61.61645161 114.61893735 44.54559814 150.1015712 26 182 C25.34 182 24.68 182 24 182 C23.90976562 182.54398438 23.81953125 183.08796875 23.7265625 183.6484375 C22.77538266 186.7269873 21.19231601 188.96568429 19.375 191.625 C18.72273437 192.58664062 18.07046875 193.54828125 17.3984375 194.5390625 C14.29044737 199.04327461 11.14292499 203.52013421 8 208 C9.21059082 208.0093457 10.42118164 208.01869141 11.66845703 208.02832031 C16.1751741 208.06829948 20.68121422 208.1340804 25.1875 208.20751953 C27.13500245 208.23568321 29.08261822 208.2569206 31.03027344 208.27099609 C33.83587468 208.29248946 36.64012 208.33917198 39.4453125 208.390625 C40.74409836 208.39246796 40.74409836 208.39246796 42.06912231 208.39434814 C47.52379769 208.52545373 50.65821167 209.39928917 55 213 C58.4086229 216.58234885 59.91255167 219.94989891 61.4375 224.625 C62.93731625 229.03730346 64.50636904 233.28775152 66.5 237.5 C68.9752749 242.76868857 70.90168649 248.16652105 72.81640625 253.66015625 C73.81362431 256.4740884 74.87049781 259.2374826 76 262 C77.61020679 265.93821661 79.03721673 269.91986483 80.4375 273.9375 C81.93673251 278.18380185 83.52498589 282.2986478 85.4375 286.375 C87.76968897 291.35178955 89.73293957 296.43265948 91.61547852 301.59179688 C92.98013534 305.32212206 94.40353833 309.01140146 95.9375 312.67578125 C102.74713172 329.066071 102.74713172 329.066071 101 336 C99.00342873 339.85544798 97.60292362 341.59805092 94 344 C90.8125 343.625 90.8125 343.625 88 343 C88.66 341.35 89.32 339.7 90 338 C89.34 338 88.68 338 88 338 C88 337.01 88 336.02 88 335 C86.02 335 84.04 335 82 335 C82.61875 334.7525 83.2375 334.505 83.875 334.25 C86.4519207 332.73416429 87.06332972 331.81992268 88 329 C87.31703634 326.62519524 87.31703634 326.62519524 85.9375 324.1875 C83.19693199 318.61723981 81.258005 312.98540885 79.40625 307.06640625 C77.96825815 302.70427365 76.15526706 298.50982558 74.36914062 294.28100586 C71.4888645 287.37871789 68.82124972 280.39009732 66.10546875 273.421875 C61.41906994 261.05251191 61.41906994 261.05251191 56 249 C54.94941406 249.59167969 53.89882813 250.18335938 52.81640625 250.79296875 C40.03604257 257.98782887 40.03604257 257.98782887 35.375 260.5625 C32.16265186 262.33823179 28.97860276 264.16025477 25.79785156 265.99194336 C20.27677254 269.16909973 14.74539464 272.24221057 9 275 C8 269.125 8 269.125 8 268 C6.21858253 267.13641377 6.21858253 267.13641377 4 267 C1.72855926 268.85432087 1.72855926 268.85432087 0 271 C-0.33 269.35 -0.66 267.7 -1 266 C-0.41621582 265.66790527 0.16756836 265.33581055 0.76904297 264.99365234 C3.47170915 263.45529368 6.17335707 261.91515493 8.875 260.375 C9.7928125 259.85292969 10.710625 259.33085937 11.65625 258.79296875 C17.08315494 255.69733987 22.46218517 252.53493458 27.81201172 249.30810547 C43.86136108 239.71287964 43.86136108 239.71287964 52 237 C51.26489756 235.05679887 50.51130951 233.12058409 49.75 231.1875 C49.12351562 229.56908203 49.12351562 229.56908203 48.484375 227.91796875 C46.82767858 224.66125236 46.19444949 223.7059121 43 222 C39.72280303 221.52900385 36.46686429 221.53196916 33.16015625 221.53125 C32.20104843 221.52363647 31.24194061 221.51602295 30.25376892 221.50817871 C28.22722983 221.49738297 26.20063512 221.49452247 24.17407227 221.49902344 C21.07669109 221.49999555 17.98178903 221.45837251 14.88476562 221.4140625 C12.91406766 221.40885519 10.94336109 221.40616731 8.97265625 221.40625 C7.58651878 221.3816571 7.58651878 221.3816571 6.17237854 221.35656738 C1.63005841 221.40528453 -0.343492 221.47864913 -4.00146484 224.38354492 C-4.99073975 225.67869019 -4.99073975 225.67869019 -6 227 C-6.64324219 227.81082031 -7.28648437 228.62164062 -7.94921875 229.45703125 C-9.11704886 231.03950665 -10.28369839 232.62285391 -11.44921875 234.20703125 C-11.96097656 234.79871094 -12.47273437 235.39039063 -13 236 C-13.66 236 -14.32 236 -15 236 C-15 236.66 -15 237.32 -15 238 C-15.66 238 -16.32 238 -17 238 C-17.66 239.65 -18.32 241.3 -19 243 C-19.99 243 -20.98 243 -22 243 C-22 242.34 -22 241.68 -22 241 C-23.32 241 -24.64 241 -26 241 C-26.33 239.68 -26.66 238.36 -27 237 C-27.66 237 -28.32 237 -29 237 C-29.33 238.32 -29.66 239.64 -30 241 C-30.99 241 -31.98 241 -33 241 C-31.34643078 237.41726669 -29.32019297 234.19026533 -27 231 C-26.34 231 -25.68 231 -25 231 C-25 230.34 -25 229.68 -25 229 C-24.34 229 -23.68 229 -23 229 C-22.75378906 228.45214844 -22.50757813 227.90429688 -22.25390625 227.33984375 C-20.73648769 224.50827454 -18.89677025 222.10920577 -16.9375 219.5625 C-12.68657059 213.98401496 -8.73282552 208.25990713 -4.84765625 202.421875 C-4.23792969 201.62265625 -3.62820313 200.8234375 -3 200 C-2.34 200 -1.68 200 -1 200 C-0.74186523 199.28465088 -0.48373047 198.56930176 -0.21777344 197.83227539 C1.07394506 194.82801992 2.63084951 192.37572182 4.484375 189.68359375 C5.17273438 188.67103516 5.86109375 187.65847656 6.5703125 186.61523438 C8.00568419 184.52262709 9.44313243 182.4314424 10.8828125 180.34179688 C14.96381216 174.33028715 18.51734039 168.31366482 21.66845703 161.76586914 C22.84760832 159.31654663 24.08370565 156.92059613 25.37890625 154.53125 C33.8253428 138.94724499 41.38533647 123.03903835 42 105 C42.03996094 104.11957031 42.07992187 103.23914063 42.12109375 102.33203125 C42.768041 75.95941677 32.73196339 51.95127786 16 32 C15.43925781 31.46503906 14.87851562 30.93007812 14.30078125 30.37890625 C13 29 13 29 13 27 C12.34 27 11.68 27 11 27 C11 26.34 11 25.68 11 25 C10.34 25 9.68 25 9 25 C9 24.34 9 23.68 9 23 C8.34 23 7.68 23 7 23 C7 22.34 7 21.68 7 21 C6.071875 20.5359375 6.071875 20.5359375 5.125 20.0625 C3.75 19.375 2.375 18.6875 1 18 C1 17.34 1 16.68 1 16 C0.01 15.6596875 0.01 15.6596875 -1 15.3125 C-3.47820029 14.22828737 -5.41433993 13.11859285 -7.6484375 11.640625 C-11.80600626 9.01676457 -16.03148935 7.15931264 -20.625 5.4375 C-21.40262695 5.14085449 -22.18025391 4.84420898 -22.98144531 4.53857422 C-52.03977111 -6.35086388 -78.41264157 -4.56281015 -107 7 C-112.04751747 9.30620287 -116.70971288 11.98730015 -121.3359375 15.046875 C-123 16 -123 16 -125 16 C-125 16.66 -125 17.32 -125 18 C-126.98 18.495 -126.98 18.495 -129 19 C-129 19.66 -129 20.32 -129 21 C-130.04335729 21.94209025 -131.13854727 22.82680185 -132.25 23.6875 C-138.29794727 28.78335539 -142.8921928 35.14977713 -147.68481445 41.39355469 C-149.03248201 43.03967545 -150.47200201 44.5214545 -152 46 C-152.66 44.02 -153.32 42.04 -154 40 C-154.66 40 -155.32 40 -156 40 C-156.66 39.34 -157.32 38.68 -158 38 C-158.99 37.67 -159.98 37.34 -161 37 C-159.625 34.5 -159.625 34.5 -158 32 C-157.34 32 -156.68 32 -156 32 C-155.62875 30.9171875 -155.62875 30.9171875 -155.25 29.8125 C-153.87730408 26.72393418 -152.27646704 24.48988582 -150 22 C-149.34 22 -148.68 22 -148 22 C-148 21.34 -148 20.68 -148 20 C-147.34 20 -146.68 20 -146 20 C-145.76667969 19.43152344 -145.53335938 18.86304688 -145.29296875 18.27734375 C-141.47483783 11.55235788 -133.4748082 6.09630723 -127 2 C-126.01 2 -125.02 2 -124 2 C-124 1.34 -124 0.68 -124 0 C-113.52289807 -5.16801968 -103.2095946 -9.66300039 -92 -13 C-91.27941406 -13.22300781 -90.55882812 -13.44601563 -89.81640625 -13.67578125 C-59.74304524 -22.14806145 -26.92723928 -14.62874057 0 0 Z " fill="#7F64F6" transform="translate(312,78)"/>
<path d="M0 0 C0.67417969 0.37769531 1.34835937 0.75539063 2.04296875 1.14453125 C3.70327796 2.08239054 5.3528738 3.03917638 7 4 C7 4.66 7 5.32 7 6 C7.72703125 6.23976563 8.4540625 6.47953125 9.203125 6.7265625 C12.39858166 8.18147712 14.28586295 9.8860562 16.75 12.375 C17.91789062 13.53128906 17.91789062 13.53128906 19.109375 14.7109375 C20.94259986 16.93050313 21.61537643 18.19224793 22 21 C22.66 21 23.32 21 24 21 C31.85226577 31.54447118 36.04936577 44.27718528 36.6875 57.3125 C36.72439941 58.05741699 36.76129883 58.80233398 36.79931641 59.56982422 C37.50573942 76.29574752 33.14222934 90.02515057 24 104 C23.50886719 104.75796875 23.01773438 105.5159375 22.51171875 106.296875 C21.41376659 107.91627347 20.2179766 109.46882941 19 111 C18.34 111 17.68 111 17 111 C17 111.66 17 112.32 17 113 C16.34 113 15.68 113 15 113 C15 113.66 15 114.32 15 115 C-2.1930371 130.94438078 -22.2310495 133.93514273 -44.65869141 133.22216797 C-58.3437081 132.31223335 -73.08733992 124.41702708 -83 115 C-83 114.34 -83 113.68 -83 113 C-83.66 113 -84.32 113 -85 113 C-96.71886316 99.57018282 -106.26575468 81.83126529 -105.23046875 63.50390625 C-105.15441406 62.67761719 -105.07835937 61.85132813 -105 61 C-104.95488281 60.10152344 -104.90976563 59.20304687 -104.86328125 58.27734375 C-104.06346736 45.64028428 -99.51362212 35.1934082 -94 24 C-93.34 24 -92.68 24 -92 24 C-91.814375 23.34 -91.62875 22.68 -91.4375 22 C-88.30851014 15.4699342 -82.75680709 10.28413551 -77 6 C-76.34 6 -75.68 6 -75 6 C-75 5.34 -75 4.68 -75 4 C-51.75723241 -8.27754725 -24.21005682 -13.94540746 0 0 Z M-73 18 C-73 18.66 -73 19.32 -73 20 C-73.99 20.33 -74.98 20.66 -76 21 C-87.79350978 34.5744818 -93.51037314 49.24951397 -93.34375 67.328125 C-91.75413893 84.30806145 -82.83239429 98.44366781 -70.140625 109.48828125 C-58.50667119 118.69598304 -44.87706859 122.94457578 -30 122 C-20.05312192 120.7624413 -8.87023851 118.55853209 -1 112 C-1 111.34 -1 110.68 -1 110 C-0.319375 109.814375 0.36125 109.62875 1.0625 109.4375 C12.88121593 103.65387305 18.71128653 90.27513836 22.8359375 78.5390625 C27.37024833 64.7535403 25.46353758 49.62382249 19.3984375 36.546875 C18.00627863 33.97369036 16.56896059 31.468498 15 29 C14.34 29 13.68 29 13 29 C12.62875 28.1646875 12.62875 28.1646875 12.25 27.3125 C10.77075182 24.57589087 9.06532561 22.32349131 7 20 C6.34 20 5.68 20 5 20 C5 19.34 5 18.68 5 18 C-17.99150332 -1.39506704 -49.57567146 0.79484931 -73 18 Z " fill="#282A4B" transform="translate(284,117)"/>
<path d="M0 0 C2.14576637 -0.02685938 4.29162645 -0.04633088 6.4375 -0.0625 C7.63246094 -0.07410156 8.82742187 -0.08570313 10.05859375 -0.09765625 C13 0 13 0 14 1 C14.08713831 2.70772358 14.10700007 4.41898649 14.09765625 6.12890625 C14.09515869 7.06033447 14.09266113 7.9917627 14.09008789 8.95141602 C14.07643188 10.73890259 14.07643188 10.73890259 14.0625 12.5625 C14.0315625 18.2240625 14.0315625 18.2240625 14 24 C22.58 24 31.16 24 40 24 C39.96041166 16.47567226 39.96041166 16.47567226 39.90991211 8.95141602 C39.90741455 8.01998779 39.90491699 7.08855957 39.90234375 6.12890625 C39.89710693 5.17056885 39.89187012 4.21223145 39.88647461 3.22485352 C40 1 40 1 41 0 C43.18639453 -0.07258946 45.37500389 -0.08373783 47.5625 -0.0625 C49.35880859 -0.04896484 49.35880859 -0.04896484 51.19140625 -0.03515625 C52.11824219 -0.02355469 53.04507813 -0.01195312 54 0 C55.35633784 2.71267568 55.1346526 4.8497933 55.14526367 7.88671875 C55.15164352 9.12139893 55.15802338 10.3560791 55.16459656 11.62817383 C55.166125 12.98128216 55.16723909 14.33439101 55.16796875 15.6875 C55.17118071 17.06990596 55.17454474 18.45231157 55.17805481 19.8347168 C55.18404618 22.7332437 55.18589465 25.63174078 55.18530273 28.53027344 C55.185201 32.24958516 55.19886494 35.96870648 55.21607494 39.68797302 C55.22717621 42.54293705 55.22922254 45.39785473 55.22869301 48.25283813 C55.22987551 49.62440651 55.23431234 50.99597599 55.24202538 52.36752319 C55.25178895 54.28275102 55.24769242 56.19803449 55.24291992 58.11328125 C55.24434494 59.20423096 55.24576996 60.29518066 55.24723816 61.41918945 C55 64 55 64 53 66 C50.1796875 66.1953125 50.1796875 66.1953125 46.875 66.125 C45.77929688 66.10695313 44.68359375 66.08890625 43.5546875 66.0703125 C42.71164062 66.04710937 41.86859375 66.02390625 41 66 C39.6691089 63.33821779 39.88731007 61.31260604 39.90234375 58.3359375 C39.90484131 57.3257959 39.90733887 56.3156543 39.90991211 55.27490234 C39.91901611 53.98793457 39.92812012 52.7009668 39.9375 51.375 C39.958125 47.29125 39.97875 43.2075 40 39 C27.625 39.495 27.625 39.495 15 40 C14.71091471 47.80816924 14.71091471 47.80816924 14.43188477 55.61669922 C14.39377686 56.58623535 14.35566895 57.55577148 14.31640625 58.5546875 C14.26141968 60.04718018 14.26141968 60.04718018 14.20532227 61.56982422 C14 64 14 64 13 66 C11.04233719 66.08082094 9.08373272 66.13910778 7.125 66.1875 C5.48917969 66.23970703 5.48917969 66.23970703 3.8203125 66.29296875 C2.88960937 66.19628906 1.95890625 66.09960938 1 66 C-1.31720358 62.52419463 -1.24837561 61.19174074 -1.24291992 57.09155273 C-1.24599655 55.87696884 -1.24907318 54.66238495 -1.25224304 53.41099548 C-1.24505753 52.09845291 -1.23787201 50.78591034 -1.23046875 49.43359375 C-1.22927651 48.07503808 -1.22882388 46.71648158 -1.2290802 45.35792542 C-1.22751666 42.51240876 -1.2192363 39.66701815 -1.20581055 36.8215332 C-1.18880471 33.17067549 -1.18499675 29.51995606 -1.18575573 25.86906338 C-1.18548409 23.06470922 -1.18000412 20.26038541 -1.17275429 17.45604134 C-1.16801716 15.45405064 -1.16629131 13.45205356 -1.16459656 11.45005798 C-1.15821671 10.23862625 -1.15183685 9.02719452 -1.14526367 7.77905273 C-1.14145187 6.70888412 -1.13764008 5.63871552 -1.13371277 4.53611755 C-1 2 -1 2 0 0 Z " fill="#26294B" transform="translate(223,149)"/>
<path d="M0 0 C0 0.66 0 1.32 0 2 C-1.65 2 -3.3 2 -5 2 C-5.33 3.32 -5.66 4.64 -6 6 C-6.66 6 -7.32 6 -8 6 C-8.33 7.32 -8.66 8.64 -9 10 C-7.68 10.33 -6.36 10.66 -5 11 C-5.55555628 20.44445671 -9.59777269 28.70186686 -13.25 37.3125 C-15.76112065 43.2685643 -18.00210595 49.31535546 -20.25 55.375 C-23.62088022 64.45867238 -27.18521987 73.44025337 -30.89648438 82.38964844 C-33.4170323 88.49472778 -35.71191866 94.62970279 -37.875 100.87109375 C-39.42191475 105.1734504 -41.18720194 109.37133619 -42.984375 113.57421875 C-44.06494039 116.0703464 -44.06494039 116.0703464 -45 119 C-45.99 119 -46.98 119 -48 119 C-48 119.66 -48 120.32 -48 121 C-49.32 120.34 -50.64 119.68 -52 119 C-52.45375 119.804375 -52.9075 120.60875 -53.375 121.4375 C-55 124 -55 124 -57 125 C-57.495 125.99 -57.495 125.99 -58 127 C-58.63226993 118.58704283 -57.16242408 112.56078305 -53.6875 104.9375 C-50.95187223 98.73761632 -48.50293101 92.67754735 -46.64624023 86.1550293 C-45.88493825 83.61630146 -44.87035917 81.30728315 -43.6875 78.9375 C-41.51125985 74.31136077 -39.7346207 69.63642687 -38.0625 64.8125 C-37.81209961 64.0911084 -37.56169922 63.3697168 -37.30371094 62.62646484 C-36.79254573 61.15270308 -36.28147855 59.67890732 -35.77050781 58.20507812 C-32.71894708 49.47196768 -29.60047502 40.89189947 -25.28515625 32.69140625 C-23.61021592 29.18370446 -22.27651363 25.58429127 -20.9375 21.9375 C-14.8087387 5.26734691 -14.8087387 5.26734691 -11 2 C-7.20719656 0.43340728 -4.09648206 -0.24096953 0 0 Z " fill="#616EF6" transform="translate(146,287)"/>
<path d="M0 0 C2.0625 0.4375 2.0625 0.4375 4 1 C4 1.66 4 2.32 4 3 C3.43410156 3.18175781 2.86820312 3.36351562 2.28515625 3.55078125 C1.18494141 3.92783203 1.18494141 3.92783203 0.0625 4.3125 C-0.66839844 4.55613281 -1.39929688 4.79976563 -2.15234375 5.05078125 C-4.35932024 5.91240441 -4.35932024 5.91240441 -5 9 C-4.34 9 -3.68 9 -3 9 C-3 9.66 -3 10.32 -3 11 C0.3 10.67 3.6 10.34 7 10 C4.35250867 12.64749133 2.27309273 14.28162632 -1 16 C-1.99 16 -2.98 16 -4 16 C-4 16.66 -4 17.32 -4 18 C-4.73605469 18.39832031 -5.47210938 18.79664063 -6.23046875 19.20703125 C-7.20628906 19.73683594 -8.18210938 20.26664062 -9.1875 20.8125 C-10.15042969 21.33457031 -11.11335938 21.85664063 -12.10546875 22.39453125 C-13.99344574 23.44170877 -15.85326887 24.54185688 -17.67578125 25.69921875 C-20 27 -20 27 -23 27 C-23 27.66 -23 28.32 -23 29 C-23.63164062 29.3403125 -24.26328125 29.680625 -24.9140625 30.03125 C-30.41073126 33.00927227 -35.87759709 36.03596233 -41.3125 39.125 C-42.44300781 39.76695312 -43.57351562 40.40890625 -44.73828125 41.0703125 C-46.96730795 42.38904207 -49.15220553 43.78453852 -51.29296875 45.2421875 C-54 47 -54 47 -56 47 C-56 46.34 -56 45.68 -56 45 C-55.01 45 -54.02 45 -53 45 C-52.67 44.01 -52.34 43.02 -52 42 C-51.34 42 -50.68 42 -50 42 C-49.34 40.02 -48.68 38.04 -48 36 C-48.60328125 36.30035156 -49.2065625 36.60070312 -49.828125 36.91015625 C-50.62734375 37.29042969 -51.4265625 37.67070312 -52.25 38.0625 C-53.03890625 38.44535156 -53.8278125 38.82820313 -54.640625 39.22265625 C-57.31922729 40.10517588 -58.39093222 39.94336129 -61 39 C-61.99 38.67 -62.98 38.34 -64 38 C-61.56508861 36.4541215 -59.12719069 34.91330542 -56.6875 33.375 C-55.68106445 32.73498047 -55.68106445 32.73498047 -54.65429688 32.08203125 C-49.80919049 29.03393616 -44.85547126 26.26125897 -39.81811523 23.54443359 C-35.20757164 21.01768156 -30.7017226 18.31892599 -26.1875 15.625 C-18.63050913 11.13356273 -11.04600525 6.70520533 -3.38671875 2.390625 C-1.12188433 1.20687948 -1.12188433 1.20687948 0 0 Z " fill="#5E6DF5" transform="translate(185,363)"/>
<path d="M0 0 C0.33 0.66 0.66 1.32 1 2 C1.61875 1.79375 2.2375 1.5875 2.875 1.375 C3.926875 1.189375 3.926875 1.189375 5 1 C5.66 1.66 6.32 2.32 7 3 C6.34 3 5.68 3 5 3 C5 3.66 5 4.32 5 5 C5.66 5 6.32 5 7 5 C6.01 8.96 5.02 12.92 4 17 C3.34 17 2.68 17 2 17 C2 18.65 2 20.3 2 22 C1.34 22 0.68 22 0 22 C0 23.65 0 25.3 0 27 C-0.66 27 -1.32 27 -2 27 C-2.12375 27.804375 -2.2475 28.60875 -2.375 29.4375 C-2.58125 30.283125 -2.7875 31.12875 -3 32 C-3.99 32.495 -3.99 32.495 -5 33 C-5 34.32 -5 35.64 -5 37 C-5.99 37 -6.98 37 -8 37 C-8 37.66 -8 38.32 -8 39 C-7.34 39 -6.68 39 -6 39 C-6 40.32 -6 41.64 -6 43 C-6.66 43 -7.32 43 -8 43 C-8 43.66 -8 44.32 -8 45 C-9.32 44.34 -10.64 43.68 -12 43 C-12.680625 44.2065625 -12.680625 44.2065625 -13.375 45.4375 C-15 48 -15 48 -17 49 C-17.33 49.66 -17.66 50.32 -18 51 C-18.63226993 42.58704283 -17.16242408 36.56078305 -13.6875 28.9375 C-12.87428796 27.09447878 -12.06565269 25.24943099 -11.26171875 23.40234375 C-10.87282471 22.51095703 -10.48393066 21.61957031 -10.08325195 20.70117188 C-8.68358871 17.21100416 -7.65417936 13.66737271 -6.69287109 10.03491211 C-5.75751454 7.2878378 -4.19589318 5.84171686 -2 4 C-0.76487921 1.86690808 -0.76487921 1.86690808 0 0 Z " fill="#586DF7" transform="translate(106,363)"/>
<path d="M0 0 C3.57294032 1.32002058 6.63953492 2.89521388 9.8125 5 C10.60269531 5.515625 11.39289063 6.03125 12.20703125 6.5625 C12.79871094 7.036875 13.39039063 7.51125 14 8 C14 8.66 14 9.32 14 10 C15.051875 10.35964844 15.051875 10.35964844 16.125 10.7265625 C19.49001485 12.21704462 22.08227724 14.13460574 25 16.375 C26.010625 17.14585937 27.02125 17.91671875 28.0625 18.7109375 C30.72582807 20.78635007 33.37005452 22.88250713 36 25 C32.95783513 24.56540502 31.01540438 24.00953604 28.375 22.375 C27.59125 21.92125 26.8075 21.4675 26 21 C22.99390037 22.00203321 21.93823179 22.60028446 20 25 C20 25.99 20 26.98 20 28 C14.06 24.04 8.12 20.08 2 16 C2.99 14.68 3.98 13.36 5 12 C5.72481084 8.34725531 5.72481084 8.34725531 6 5 C5.195625 4.731875 4.39125 4.46375 3.5625 4.1875 C2.716875 3.795625 1.87125 3.40375 1 3 C0.67 2.01 0.34 1.02 0 0 Z " fill="#7F69F4" transform="translate(330,365)"/>
<path d="M0 0 C0.2475 0.639375 0.495 1.27875 0.75 1.9375 C1.36875 2.9584375 1.36875 2.9584375 2 4 C2.66 4.12375 3.32 4.2475 4 4.375 C6 5 6 5 7.375 7.3125 C8.2878323 12.69821059 7.41619978 17.74432526 6 23 C5.34 23.66 4.68 24.32 4 25 C3.875 19.25 3.875 19.25 5 17 C4.34 17 3.68 17 3 17 C2.67 17.66 2.34 18.32 2 19 C1.67 18.67 1.34 18.34 1 18 C0.67 18.66 0.34 19.32 0 20 C-0.99 20 -1.98 20 -3 20 C-3.66 26.6 -4.32 33.2 -5 40 C-9.34204676 33.48692986 -7.12963987 22.51685597 -6 15 C-4.90486154 10.25236064 -3.54019296 5.62057887 -2 1 C-1.34 0.67 -0.68 0.34 0 0 Z " fill="#343755" transform="translate(186,152)"/>
<path d="M0 0 C3.10009769 1.38238352 5.28263873 2.98578859 7.6875 5.375 C8.28949219 5.96023437 8.89148438 6.54546875 9.51171875 7.1484375 C11.1289485 9.16042412 11.72859534 10.44253298 12 13 C10.5625 15.25 10.5625 15.25 9 17 C8.34 16.67 7.68 16.34 7 16 C7.226875 16.598125 7.45375 17.19625 7.6875 17.8125 C7.790625 18.534375 7.89375 19.25625 8 20 C6.5625 21.75 6.5625 21.75 5 23 C5 22.34 5 21.68 5 21 C4.34 21 3.68 21 3 21 C1.5625 19.3203125 1.5625 19.3203125 0 17.125 C-1.59356457 14.90197743 -3.06234725 12.93765275 -5 11 C-4.34 11 -3.68 11 -3 11 C-3.0309375 9.8553125 -3.0309375 9.8553125 -3.0625 8.6875 C-3 6 -3 6 -2 3 C-1.01 3 -0.02 3 1 3 C0.67 2.01 0.34 1.02 0 0 Z " fill="#323250" transform="translate(294,125)"/>
<path d="M0 0 C1.37562854 1.28965176 2.70766393 2.62689293 4 4 C4 4.66 4 5.32 4 6 C4.66 6 5.32 6 6 6 C6 6.66 6 7.32 6 8 C6.66 8 7.32 8 8 8 C9.6875 10.3125 9.6875 10.3125 11 13 C10.67 13.99 10.34 14.98 10 16 C9.01 16 8.02 16 7 16 C7.33 16.99 7.66 17.98 8 19 C7.34 19.33 6.68 19.66 6 20 C5.67 20.99 5.34 21.98 5 23 C4.34 23.33 3.68 23.66 3 24 C0 20.25 0 20.25 0 18 C-0.66 18 -1.32 18 -2 18 C-7 12.64285714 -7 12.64285714 -7 9 C-6.236875 9.226875 -5.47375 9.45375 -4.6875 9.6875 C-2.04608711 10.25311107 -2.04608711 10.25311107 -0.125 9 C1.62020832 5.89740743 0.69997967 3.3726293 0 0 Z " fill="#756BF3" transform="translate(220,316)"/>
<path d="M0 0 C1.32 0 2.64 0 4 0 C4.05791844 3.12492251 4.09356746 6.24970766 4.125 9.375 C4.14175781 10.26445312 4.15851563 11.15390625 4.17578125 12.0703125 C4.18222656 12.92109375 4.18867188 13.771875 4.1953125 14.6484375 C4.20578613 15.43395996 4.21625977 16.21948242 4.22705078 17.02880859 C4 19 4 19 2 21 C1.01 19.68 0.02 18.36 -1 17 C-1.45375 17.78375 -1.9075 18.5675 -2.375 19.375 C-4 22 -4 22 -6 24 C-6.3690205 9.21867882 -6.3690205 9.21867882 -4 3 C-3.01 3 -2.02 3 -1 3 C-0.67 2.01 -0.34 1.02 0 0 Z " fill="#1C2044" transform="translate(187,169)"/>
<path d="M0 0 C0.8971875 0.309375 0.8971875 0.309375 1.8125 0.625 C1.8125 1.285 1.8125 1.945 1.8125 2.625 C1.24660156 2.80675781 0.68070313 2.98851562 0.09765625 3.17578125 C-0.63582031 3.42714844 -1.36929688 3.67851562 -2.125 3.9375 C-3.22134766 4.30294922 -3.22134766 4.30294922 -4.33984375 4.67578125 C-6.54682024 5.53740441 -6.54682024 5.53740441 -7.1875 8.625 C-6.5275 8.625 -5.8675 8.625 -5.1875 8.625 C-5.1875 9.285 -5.1875 9.945 -5.1875 10.625 C-1.8875 10.295 1.4125 9.965 4.8125 9.625 C2.16500867 12.27249133 0.08559273 13.90662632 -3.1875 15.625 C-4.1775 15.625 -5.1675 15.625 -6.1875 15.625 C-6.1875 16.285 -6.1875 16.945 -6.1875 17.625 C-8.4975 18.615 -10.8075 19.605 -13.1875 20.625 C-13.1875 19.635 -13.1875 18.645 -13.1875 17.625 C-12.5275 17.625 -11.8675 17.625 -11.1875 17.625 C-11.496875 17.00625 -11.80625 16.3875 -12.125 15.75 C-12.8125 14.375 -13.5 13 -14.1875 11.625 C-14.8475 11.295 -15.5075 10.965 -16.1875 10.625 C-16.1875 9.635 -16.1875 8.645 -16.1875 7.625 C-15.42824219 7.21507812 -14.66898438 6.80515625 -13.88671875 6.3828125 C-12.89285156 5.84398437 -11.89898437 5.30515625 -10.875 4.75 C-9.39580078 3.94949219 -9.39580078 3.94949219 -7.88671875 3.1328125 C-1.74345831 -0.29887857 -1.74345831 -0.29887857 0 0 Z " fill="#656DF6" transform="translate(187.1875,363.375)"/>
<path d="M0 0 C0.66 0.33 1.32 0.66 2 1 C2 1.66 2 2.32 2 3 C2.66 3 3.32 3 4 3 C4.103125 3.639375 4.20625 4.27875 4.3125 4.9375 C4.539375 5.618125 4.76625 6.29875 5 7 C5.99 7.33 6.98 7.66 8 8 C8.765625 9.99609375 8.765625 9.99609375 9.25 12.4375 C9.50523437 13.64212891 9.50523437 13.64212891 9.765625 14.87109375 C10 17 10 17 9 19 C5.9375 19.625 5.9375 19.625 3 20 C1.96387729 18.59447701 0.94655075 17.17508306 -0.0625 15.75 C-0.63097656 14.96109375 -1.19945312 14.1721875 -1.78515625 13.359375 C-3 11 -3 11 -2.65625 8.875 C-2.4396875 8.25625 -2.223125 7.6375 -2 7 C-2.38567131 4.31850007 -2.38567131 4.31850007 -3 2 C-2.01 1.34 -1.02 0.68 0 0 Z " fill="#1A1E45" transform="translate(192,205)"/>
<path d="M0 0 C-0.165 1.093125 -0.33 2.18625 -0.5 3.3125 C-1.06718184 6.87525873 -1.06718184 6.87525873 -1 10 C-3 12.1875 -3 12.1875 -5 14 C-7.475 13.01 -7.475 13.01 -10 12 C-10.99 12.99 -11.98 13.98 -13 15 C-13.66 14.34 -14.32 13.68 -15 13 C-15 12.01 -15 11.02 -15 10 C-13.68 9.67 -12.36 9.34 -11 9 C-11.99 8.67 -12.98 8.34 -14 8 C-13.34 8 -12.68 8 -12 8 C-12 6.68 -12 5.36 -12 4 C-11.2575 3.71125 -10.515 3.4225 -9.75 3.125 C-7.06675308 2.079967 -7.06675308 2.079967 -4.875 0.875 C-3 0 -3 0 0 0 Z " fill="#282B4E" transform="translate(205,134)"/>
<path d="M0 0 C4.56454251 0.54339792 7.9728176 1.79463821 12 4 C10 5.33333333 8 6.66666667 6 8 C5.34 8.66 4.68 9.32 4 10 C4.66 11.65 5.32 13.3 6 15 C2.04 13.68 -1.92 12.36 -6 11 C-4.68 9.02 -3.36 7.04 -2 5 C-2.33 4.34 -2.66 3.68 -3 3 C-2.01 3 -1.02 3 0 3 C0 2.01 0 1.02 0 0 Z " fill="#2B2C4D" transform="translate(272,113)"/>
<path d="M0 0 C3.34097385 0.59660247 5.54300129 1.63075125 8 4 C8 5.32 8 6.64 8 8 C7.34 8 6.68 8 6 8 C6 8.99 6 9.98 6 11 C3.69 11.33 1.38 11.66 -1 12 C-1 11.34 -1 10.68 -1 10 C-1.66 10 -2.32 10 -3 10 C-3.33 10.66 -3.66 11.32 -4 12 C-4.99 11.01 -5.98 10.02 -7 9 C-6.67 8.01 -6.34 7.02 -6 6 C-5.175 5.690625 -4.35 5.38125 -3.5 5.0625 C-2.675 4.711875 -1.85 4.36125 -1 4 C-0.11306697 1.95894361 -0.11306697 1.95894361 0 0 Z " fill="#5C65F8" transform="translate(168,373)"/>
<path d="M0 0 C0 0.66 0 1.32 0 2 C-2.64 2.33 -5.28 2.66 -8 3 C-8.33 4.65 -8.66 6.3 -9 8 C-9.66 8 -10.32 8 -11 8 C-11 8.66 -11 9.32 -11 10 C5.5 10 22 10 39 10 C39 10.33 39 10.66 39 11 C31.81008919 11.05068173 24.6202244 11.08572588 17.43017578 11.10986328 C14.98386921 11.11992504 12.53757467 11.13357581 10.09130859 11.15087891 C6.57646718 11.17511919 3.0617847 11.18648138 -0.453125 11.1953125 C-1.5480426 11.20563507 -2.64296021 11.21595764 -3.77105713 11.22659302 C-5.30219147 11.22681961 -5.30219147 11.22681961 -6.86425781 11.22705078 C-7.76138489 11.231492 -8.65851196 11.23593323 -9.58282471 11.24050903 C-12.15582894 10.98449501 -13.78549571 10.30021324 -16 9 C-15.625 7.0625 -15.625 7.0625 -15 5 C-14.34 4.67 -13.68 4.34 -13 4 C-12.67 3.01 -12.34 2.02 -12 1 C-7.9472484 0.01751476 -4.16138263 -0.08159574 0 0 Z " fill="#4C4DE2" transform="translate(153,288)"/>
<path d="M0 0 C0.99 0 1.98 0 3 0 C4.39453125 1.90625 4.39453125 1.90625 5.8125 4.5 C8.54296196 9.30397068 11.58413339 13.66354522 15 18 C14.34 18 13.68 18 13 18 C12.67 18.99 12.34 19.98 12 21 C12 20.34 12 19.68 12 19 C10.68 19.33 9.36 19.66 8 20 C6.19769832 16.17010894 5.80377759 13.21878192 6 9 C5.01 9.33 4.02 9.66 3 10 C1.9375 8.125 1.9375 8.125 1 6 C1.33 5.34 1.66 4.68 2 4 C1.34 4 0.68 4 0 4 C0 2.68 0 1.36 0 0 Z M5 19 C5.99 19.33 6.98 19.66 8 20 C7.67 20.66 7.34 21.32 7 22 C7 22.99 7 23.98 7 25 C6.01 25.495 6.01 25.495 5 26 C4.01 24.35 3.02 22.7 2 21 C2.99 20.34 3.98 19.68 5 19 Z " fill="#33354E" transform="translate(194,204)"/>
<path d="M0 0 C0.33 0 0.66 0 1 0 C1.02714735 2.22909871 1.04646254 4.45829367 1.0625 6.6875 C1.07410156 7.92886719 1.08570313 9.17023438 1.09765625 10.44921875 C1.01478673 13.46235454 0.70839449 16.08275339 0 19 C-0.66 17.68 -1.32 16.36 -2 15 C-2.99 15.495 -2.99 15.495 -4 16 C-4.65555119 18.52733235 -4.65555119 18.52733235 -5 21 C-6.65 20.67 -8.3 20.34 -10 20 C-10.66 20.99 -11.32 21.98 -12 23 C-12.66 23 -13.32 23 -14 23 C-13.34 19.7 -12.68 16.4 -12 13 C-10.35 13.33 -8.7 13.66 -7 14 C-4.83029606 13.19044123 -4.83029606 13.19044123 -4.21875 11.07421875 C-3.9815625 10.28660156 -3.744375 9.49898437 -3.5 8.6875 C-2.56596057 5.61633773 -1.50666395 2.83798339 0 0 Z M-9 17 C-8 19 -8 19 -8 19 Z " fill="#2F3050" transform="translate(320,175)"/>
<path d="M0 0 C0.7425 0.763125 1.485 1.52625 2.25 2.3125 C4.4263323 4.4393702 6.52167796 6.2559956 9 8 C6.69 8.66 4.38 9.32 2 10 C2.7763932 13.0745356 2.7763932 13.0745356 5 15 C4.34 15.66 3.68 16.32 3 17 C5.475 17.99 5.475 17.99 8 19 C8 19.66 8 20.32 8 21 C2.05181562 20.44668052 -0.98027736 18.36795069 -4.8125 13.875 C-6 12 -6 12 -6 10 C-4.88625 9.814375 -4.88625 9.814375 -3.75 9.625 C-1.19858515 9.04513299 0.7267573 8.26291261 3 7 C2.505 6.21625 2.01 5.4325 1.5 4.625 C0 2 0 2 0 0 Z " fill="#786DF1" transform="translate(241,341)"/>
<path d="M0 0 C0.33 0.66 0.66 1.32 1 2 C3.3140622 2.73075648 5.64828869 3.40138258 8 4 C6.82080925 10.87861272 6.82080925 10.87861272 5 14 C3.02 14.33 1.04 14.66 -1 15 C-0.67 10.05 -0.34 5.1 0 0 Z M9 1 C9.33 1 9.66 1 10 1 C10 2.98 10 4.96 10 7 C9.34 6.01 8.68 5.02 8 4 C8.33 3.01 8.66 2.02 9 1 Z " fill="#1B1D3F" transform="translate(310,175)"/>
<path d="M0 0 C0.66 0.33 1.32 0.66 2 1 C2 1.66 2 2.32 2 3 C2.66 3 3.32 3 4 3 C6 6 6 6 5.625 9.1875 C5.41875 10.115625 5.2125 11.04375 5 12 C3.68 11.67 2.36 11.34 1 11 C0.67 11.66 0.34 12.32 0 13 C-0.433125 12.525625 -0.86625 12.05125 -1.3125 11.5625 C-3.02309613 9.76313043 -3.02309613 9.76313043 -6 9 C-6 8.34 -6 7.68 -6 7 C-5.34 7 -4.68 7 -4 7 C-3.67 5.02 -3.34 3.04 -3 1 C-2.01 0.67 -1.02 0.34 0 0 Z " fill="#675AF6" transform="translate(154,115)"/>
<path d="M0 0 C-0.57537156 3.88375805 -2.33036271 6.17781201 -5 9 C-7.125 9.9375 -7.125 9.9375 -9 10 C-9.66 9.34 -10.32 8.68 -11 8 C-14.08347826 7.83318891 -14.08347826 7.83318891 -17 8 C-16.67 6.35 -16.34 4.7 -16 3 C-10.25 1.875 -10.25 1.875 -8 3 C-2.91304348 0 -2.91304348 0 0 0 Z " fill="#5568FB" transform="translate(137,399)"/>
<path d="M0 0 C4.29 0.33 8.58 0.66 13 1 C13 1.33 13 1.66 13 2 C11.35 2 9.7 2 8 2 C7.67 3.65 7.34 5.3 7 7 C7.66 7.33 8.32 7.66 9 8 C6 10 6 10 4.125 9.75 C1.71930124 8.90092985 -0.64515214 7.98118661 -3 7 C-2.01 4.69 -1.02 2.38 0 0 Z " fill="#795AFA" transform="translate(279,69)"/>
<path d="M0 0 C2.31 0.66 4.62 1.32 7 2 C6.67 3.98 6.34 5.96 6 8 C4.02 8.33 2.04 8.66 0 9 C-0.33 9.99 -0.66 10.98 -1 12 C-3.58949269 10.70525365 -3.96035764 9.67336607 -5 7 C-5.125 4.25 -5.125 4.25 -5 2 C-4.01 2 -3.02 2 -2 2 C-1.34 1.34 -0.68 0.68 0 0 Z " fill="#705BFA" transform="translate(315,344)"/>
<path d="M0 0 C0 0.66 0 1.32 0 2 C-1.65 2 -3.3 2 -5 2 C-5.33 3.32 -5.66 4.64 -6 6 C-6.66 6 -7.32 6 -8 6 C-8.33 6.99 -8.66 7.98 -9 9 C-9.66 9 -10.32 9 -11 9 C-11.28875 9.639375 -11.5775 10.27875 -11.875 10.9375 C-13 13 -13 13 -15 14 C-15.8125 11.375 -15.8125 11.375 -16 8 C-13.56950573 4.17013023 -12.10596053 2.50689857 -8 0.625 C-5.22054759 0.04594741 -2.82681192 -0.16628305 0 0 Z " fill="#6569F1" transform="translate(146,287)"/>
<path d="M0 0 C0 1.65 0 3.3 0 5 C0.99 5 1.98 5 3 5 C2.6875 7.375 2.6875 7.375 2 10 C-1.23325272 12.15550181 -2.31199218 12 -6 12 C-6 11.34 -6 10.68 -6 10 C-6.66 10 -7.32 10 -8 10 C-8.33 9.01 -8.66 8.02 -9 7 C-8.67 6.34 -8.34 5.68 -8 5 C-7.34 4.855625 -6.68 4.71125 -6 4.5625 C-5.01 4.2840625 -5.01 4.2840625 -4 4 C-3.67 3.01 -3.34 2.02 -3 1 C-1 0 -1 0 0 0 Z " fill="#735BFD" transform="translate(286,314)"/>
<path d="M0 0 C2.8992226 0.46761655 3.86675182 0.86675182 6 3 C5.8125 5.5 5.8125 5.5 5 8 C4.01 8.66 3.02 9.32 2 10 C1.34 9.34 0.68 8.68 0 8 C-2.67642489 5.81509993 -2.67642489 5.81509993 -5 6 C-5.33 6.66 -5.66 7.32 -6 8 C-6.66 6.35 -7.32 4.7 -8 3 C-6.865625 2.690625 -5.73125 2.38125 -4.5625 2.0625 C-1.21224901 1.37075469 -1.21224901 1.37075469 0 0 Z " fill="#26294B" transform="translate(207,222)"/>
<path d="M0 0 C-0.33 1.65 -0.66 3.3 -1 5 C-1.66 5 -2.32 5 -3 5 C-3 5.66 -3 6.32 -3 7 C-4.32 7.33 -5.64 7.66 -7 8 C-8.5625 6.3125 -8.5625 6.3125 -10 4 C-9.8125 1.3125 -9.8125 1.3125 -9 -1 C-5.79937313 -2.60031344 -3.27728194 -1.03173691 0 0 Z " fill="#6F5CFA" transform="translate(298,343)"/>
<path d="M0 0 C2.625 1.3125 2.625 1.3125 5 3 C5 3.66 5 4.32 5 5 C5.66 5 6.32 5 7 5 C7.66 6.98 8.32 8.96 9 11 C8.01 11.495 8.01 11.495 7 12 C3.7 9.69 0.4 7.38 -3 5 C-2.67 3.68 -2.34 2.36 -2 1 C-1.34 0.67 -0.68 0.34 0 0 Z " fill="#313350" transform="translate(204,227)"/>
<path d="M0 0 C0.99 0.495 0.99 0.495 2 1 C1.01 1.495 1.01 1.495 0 2 C0 1.34 0 0.68 0 0 Z M-4 1 C-2.68 1.33 -1.36 1.66 0 2 C-0.57344937 4.86724686 -0.8614515 5.8614515 -3 8 C-3.99 8 -4.98 8 -6 8 C-6.33 9.65 -6.66 11.3 -7 13 C-7.99 13 -8.98 13 -10 13 C-10 12.34 -10 11.68 -10 11 C-10.99 11.33 -11.98 11.66 -13 12 C-12.375 9.625 -12.375 9.625 -11 7 C-8.23085693 5.78849991 -6.03028259 5 -3 5 C-3.33 3.68 -3.66 2.36 -4 1 Z " fill="#5E61F8" transform="translate(192,361)"/>
<path d="M0 0 C0.99 0.33 1.98 0.66 3 1 C2.4713037 4.80661338 1.69273619 7.21109466 -1 10 C-1.86625 10.33 -2.7325 10.66 -3.625 11 C-4.40875 11.33 -5.1925 11.66 -6 12 C-6.88693303 14.04105639 -6.88693303 14.04105639 -7 16 C-7.66 16 -8.32 16 -9 16 C-9.33 15.01 -9.66 14.02 -10 13 C-8.42699586 10.63902369 -6.84789758 8.50097539 -5.0625 6.3125 C-4.58103516 5.70599609 -4.09957031 5.09949219 -3.60351562 4.47460938 C-2.41150342 2.97574254 -1.20691049 1.48689675 0 0 Z " fill="#8772ED" transform="translate(299,292)"/>
<path d="M0 0 C0.94950884 2.54374591 1.10372452 3.70858348 0.1796875 6.3046875 C-0.25085938 7.15289062 -0.68140625 8.00109375 -1.125 8.875 C-4.28786901 15.42222746 -6.6428706 22.12921856 -9 29 C-9.33 27.68 -9.66 26.36 -10 25 C-10.66 25 -11.32 25 -12 25 C-12 24.34 -12 23.68 -12 23 C-11.01 23 -10.02 23 -9 23 C-9.33 21.68 -9.66 20.36 -10 19 C-9.01 18.67 -8.02 18.34 -7 18 C-6.67 16.35 -6.34 14.7 -6 13 C-5.34 13 -4.68 13 -4 13 C-4 11.35 -4 9.7 -4 8 C-3.34 8 -2.68 8 -2 8 C-2 6.35 -2 4.7 -2 3 C-1.34 3 -0.68 3 0 3 C0 2.01 0 1.02 0 0 Z " fill="#7B88EB" transform="translate(110,377)"/>
<path d="M0 0 C2.0625 1.6875 2.0625 1.6875 4 4 C3.875 6.6875 3.875 6.6875 3 9 C2.01 9.495 2.01 9.495 1 10 C0.78918149 13.89459074 0.78918149 13.89459074 2 17 C0.68 17.33 -0.64 17.66 -2 18 C-7 12.375 -7 12.375 -7 9 C-6.236875 9.226875 -5.47375 9.45375 -4.6875 9.6875 C-2.04608711 10.25311107 -2.04608711 10.25311107 -0.125 9 C1.62020832 5.89740743 0.69997967 3.3726293 0 0 Z " fill="#7B70F4" transform="translate(220,316)"/>
<path d="M0 0 C-0.99 0.33 -1.98 0.66 -3 1 C-3.33 1.99 -3.66 2.98 -4 4 C-5.175625 4.12375 -5.175625 4.12375 -6.375 4.25 C-9.14044802 4.71525923 -9.14044802 4.71525923 -10.1875 7 C-10.455625 7.66 -10.72375 8.32 -11 9 C-14.21451269 10.60725635 -17.43612536 10.05748185 -21 10 C-17.51527237 7.24016559 -13.77261233 4.98017955 -9.9375 2.75 C-9.31294922 2.37359375 -8.68839844 1.9971875 -8.04492188 1.609375 C-3.34969224 -1.11656408 -3.34969224 -1.11656408 0 0 Z " fill="#6976ED" transform="translate(148,388)"/>
<path d="M0 0 C1.32 0 2.64 0 4 0 C4.36256858 1.4562672 4.71479793 2.91511185 5.0625 4.375 C5.35833984 5.59316406 5.35833984 5.59316406 5.66015625 6.8359375 C6 9 6 9 5 11 C2.4375 11.625 2.4375 11.625 0 12 C-1.1671568 8.49852959 -1.13357453 5.67329964 -1 2 C-0.67 1.34 -0.34 0.68 0 0 Z " fill="#1A1E45" transform="translate(196,213)"/>
<path d="M0 0 C2.92602095 1.46301048 3.09705209 3.41022764 4.1875 6.4375 C4.55230469 7.42621094 4.91710937 8.41492188 5.29296875 9.43359375 C6 12 6 12 5 14 C3 12 3 12 2.875 9.375 C2.91625 8.59125 2.9575 7.8075 3 7 C2.01 7.66 1.02 8.32 0 9 C-0.99 8.67 -1.98 8.34 -3 8 C-2.34 7.67 -1.68 7.34 -1 7 C-0.59270772 4.67843403 -0.25561323 2.3431213 0 0 Z M-8 10 C-6.68 10.33 -5.36 10.66 -4 11 C-4 12.98 -4 14.96 -4 17 C-4.99 17.495 -4.99 17.495 -6 18 C-7.25664978 15.09399739 -8 13.20395416 -8 10 Z " fill="#9982EC" transform="translate(369,295)"/>
<path d="M0 0 C5.75 1.75 5.75 1.75 8 4 C6.02 4.33 4.04 4.66 2 5 C1.34 3.35 0.68 1.7 0 0 Z M0 5 C0.66 5.33 1.32 5.66 2 6 C2 6.66 2 7.32 2 8 C1.01 8.495 1.01 8.495 0 9 C0.66 10.65 1.32 12.3 2 14 C-0.97 13.01 -3.94 12.02 -7 11 C-6.34 10.67 -5.68 10.34 -5 10 C-5 9.34 -5 8.68 -5 8 C-4.01 8 -3.02 8 -2 8 C-1.34 7.01 -0.68 6.02 0 5 Z " fill="#353752" transform="translate(276,114)"/>
<path d="M0 0 C0.66 0 1.32 0 2 0 C2.33 1.32 2.66 2.64 3 4 C2.34 4 1.68 4 1 4 C1 5.65 1 7.3 1 9 C0.37351562 9.06058594 -0.25296875 9.12117187 -0.8984375 9.18359375 C-1.71570313 9.26738281 -2.53296875 9.35117188 -3.375 9.4375 C-4.18710937 9.51871094 -4.99921875 9.59992188 -5.8359375 9.68359375 C-8.04272805 9.89090114 -8.04272805 9.89090114 -10 11 C-10 10.01 -10 9.02 -10 8 C-6.7309841 4.8217901 -5.67834007 4 -1 4 C-0.67 2.68 -0.34 1.36 0 0 Z " fill="#1B1C3E" transform="translate(316,190)"/>
<path d="M0 0 C1.5625 1.25 1.5625 1.25 3 3 C3.00390625 4.984375 3.00390625 4.984375 2 7 C-0.28515625 8.703125 -0.28515625 8.703125 -3.0625 10.25 C-3.98160156 10.77078125 -4.90070313 11.2915625 -5.84765625 11.828125 C-6.55792969 12.21484375 -7.26820313 12.6015625 -8 13 C-8.33 12.01 -8.66 11.02 -9 10 C-8.01 9.67 -7.02 9.34 -6 9 C-4.3258231 6.91302442 -4.3258231 6.91302442 -2.8125 4.4375 C-2.28269531 3.61121094 -1.75289062 2.78492187 -1.20703125 1.93359375 C-0.80871094 1.29550781 -0.41039062 0.65742187 0 0 Z " fill="#7866EE" transform="translate(198,80)"/>
<path d="M0 0 C5.875 1.875 5.875 1.875 7 3 C7.25 5.4375 7.25 5.4375 7 8 C6.01 8.66 5.02 9.32 4 10 C1 8 1 8 0 7 C-0.99 6.67 -1.98 6.34 -3 6 C-2.505 5.566875 -2.01 5.13375 -1.5 4.6875 C0.33218192 3.00259517 0.33218192 3.00259517 0 0 Z " fill="#5A62F8" transform="translate(134,295)"/>
<path d="M0 0 C0.33 0 0.66 0 1 0 C1.12375 1.093125 1.2475 2.18625 1.375 3.3125 C1.75464801 7.07381802 1.75464801 7.07381802 4 10 C5.32 9.67 6.64 9.34 8 9 C7.01 9.495 7.01 9.495 6 10 C6 10.66 6 11.32 6 12 C6.66 12 7.32 12 8 12 C8 12.99 8 13.98 8 15 C9.32 15.33 10.64 15.66 12 16 C9.8125 16.75 9.8125 16.75 7 17 C3.50865611 14.80776081 1.52546221 12.80330171 0 9 C-0.1953125 6.640625 -0.1953125 6.640625 -0.125 4.25 C-0.10695313 3.45078125 -0.08890625 2.6515625 -0.0703125 1.828125 C-0.04710938 1.22484375 -0.02390625 0.6215625 0 0 Z " fill="#7A88EC" transform="translate(87,406)"/>
<path d="M0 0 C0.33 0 0.66 0 1 0 C1.02714735 2.22909871 1.04646254 4.45829367 1.0625 6.6875 C1.07410156 7.92886719 1.08570313 9.17023438 1.09765625 10.44921875 C1.01478673 13.46235454 0.70839449 16.08275339 0 19 C-0.66 17.68 -1.32 16.36 -2 15 C-2.66 15 -3.32 15 -4 15 C-4.27625249 9.06057157 -2.68666139 5.1814184 0 0 Z " fill="#52526A" transform="translate(320,175)"/>
<path d="M0 0 C1.2065625 0.0309375 1.2065625 0.0309375 2.4375 0.0625 C1.86405063 2.92974686 1.5760485 3.9239515 -0.5625 6.0625 C-0.80503813 8.27322977 -0.80503813 8.27322977 -0.6875 10.6875 C-0.66945313 11.50476563 -0.65140625 12.32203125 -0.6328125 13.1640625 C-0.60960937 13.79054687 -0.58640625 14.41703125 -0.5625 15.0625 C-0.8925 14.4025 -1.2225 13.7425 -1.5625 13.0625 C-2.2225 13.0625 -2.8825 13.0625 -3.5625 13.0625 C-3.58936553 11.08340602 -3.60883375 9.10421029 -3.625 7.125 C-3.63660156 6.02285156 -3.64820313 4.92070312 -3.66015625 3.78515625 C-3.52747618 0.086036 -3.52747618 0.086036 0 0 Z " fill="#3C3D54" transform="translate(266.5625,148.9375)"/>
<path d="M0 0 C1.65 0 3.3 0 5 0 C5 0.66 5 1.32 5 2 C5.66 2.33 6.32 2.66 7 3 C4.33333333 5.66666667 1.66666667 8.33333333 -1 11 C-1.66 10.34 -2.32 9.68 -3 9 C-3 8.01 -3 7.02 -3 6 C-1.68 5.67 -0.36 5.34 1 5 C0.01 4.67 -0.98 4.34 -2 4 C-1.34 4 -0.68 4 0 4 C0 2.68 0 1.36 0 0 Z " fill="#1A1E42" transform="translate(193,138)"/>
<path d="M0 0 C0.66 0 1.32 0 2 0 C2.33 2.64 2.66 5.28 3 8 C4.093125 7.814375 5.18625 7.62875 6.3125 7.4375 C10 7 10 7 13 8 C13 8.66 13 9.32 13 10 C9.04 10 5.08 10 1 10 C-0.60725635 6.78548731 -0.05748185 3.56387464 0 0 Z " fill="#2D2F44" transform="translate(263,205)"/>
<path d="M0 0 C4.24404412 3.88026891 7.10917547 8.04254346 10 13 C7.03 12.505 7.03 12.505 4 12 C3.67 11.01 3.34 10.02 3 9 C2.34 8.67 1.68 8.34 1 8 C1 7.34 1 6.68 1 6 C0.34 5.67 -0.32 5.34 -1 5 C-0.67 3.35 -0.34 1.7 0 0 Z " fill="#7F76EC" transform="translate(198,288)"/>
<path d="M0 0 C0.66 0.66 1.32 1.32 2 2 C0.02 6.95 -1.96 11.9 -4 17 C-4.66 17 -5.32 17 -6 17 C-5.5020163 13.26512223 -5.12508244 11.18762365 -3 8 C-3.66 8 -4.32 8 -5 8 C-5 7.34 -5 6.68 -5 6 C-3.68 5.67 -2.36 5.34 -1 5 C-0.67 3.35 -0.34 1.7 0 0 Z " fill="#6978E6" transform="translate(116,360)"/>
<path d="M0 0 C1.65 1.65 3.3 3.3 5 5 C4.34 5 3.68 5 3 5 C2.67 5.99 2.34 6.98 2 8 C2 7.34 2 6.68 2 6 C0.68 6.33 -0.64 6.66 -2 7 C-1.67 6.01 -1.34 5.02 -1 4 C-0.34 4 0.32 4 1 4 C0.67 2.68 0.34 1.36 0 0 Z M-5 6 C-4.01 6.33 -3.02 6.66 -2 7 C-2.33 7.66 -2.66 8.32 -3 9 C-3 9.99 -3 10.98 -3 12 C-3.99 12.495 -3.99 12.495 -5 13 C-5.99 11.35 -6.98 9.7 -8 8 C-7.01 7.34 -6.02 6.68 -5 6 Z " fill="#3C405C" transform="translate(204,217)"/>
<path d="M0 0 C4.81033104 2.54664585 8.32442148 4.99027798 12 9 C10.68 9.33 9.36 9.66 8 10 C7.34 9.01 6.68 8.02 6 7 C4.66923011 6.65657551 3.33568021 6.32380126 2 6 C0.25 4.4375 0.25 4.4375 -1 3 C-0.67 2.01 -0.34 1.02 0 0 Z " fill="#8E7AEA" transform="translate(379,400)"/>
<path d="M0 0 C1.95542188 2.98459129 2 4.26414791 2 8 C1.34 8 0.68 8 0 8 C0 7.34 0 6.68 0 6 C-0.66 6 -1.32 6 -2 6 C-2 5.34 -2 4.68 -2 4 C-2.61875 3.71125 -3.2375 3.4225 -3.875 3.125 C-6 2 -6 2 -8 0 C-4.71303767 -0.79953138 -3.28976808 -1.09658936 0 0 Z " fill="#8A70EF" transform="translate(321,95)"/>
<path d="M0 0 C0.515625 0.2475 1.03125 0.495 1.5625 0.75 C1.5625 1.41 1.5625 2.07 1.5625 2.75 C0.73105469 3.02263672 0.73105469 3.02263672 -0.1171875 3.30078125 C-0.84164062 3.55214844 -1.56609375 3.80351562 -2.3125 4.0625 C-3.39144531 4.42794922 -3.39144531 4.42794922 -4.4921875 4.80078125 C-6.77744905 5.71335547 -6.77744905 5.71335547 -8.4375 8.75 C-9.7575 8.09 -11.0775 7.43 -12.4375 6.75 C-9.43459764 3.21717369 -4.76147692 -0.48835661 0 0 Z " fill="#7B7DEB" transform="translate(187.4375,363.25)"/>
<path d="M0 0 C0.99 0.33 1.98 0.66 3 1 C4.125 7.625 4.125 7.625 3 11 C1.02 8.03 -0.96 5.06 -3 2 C-2.01 1.34 -1.02 0.68 0 0 Z " fill="#3E4159" transform="translate(192,214)"/>
<path d="M0 0 C0 0.99 0 1.98 0 3 C-6.75 7 -6.75 7 -9 7 C-9 7.66 -9 8.32 -9 9 C-11.31 9.33 -13.62 9.66 -16 10 C-13.32401709 6.86030886 -9.91405704 5.18156373 -6.3125 3.3125 C-5.70599609 2.99216797 -5.09949219 2.67183594 -4.47460938 2.34179688 C-2.98565434 1.55628516 -1.49316953 0.77747058 0 0 Z " fill="#8D7CE4" transform="translate(334,331)"/>
<path d="M0 0 C0.66 0 1.32 0 2 0 C2 0.66 2 1.32 2 2 C4.31 2.66 6.62 3.32 9 4 C8.67 6.64 8.34 9.28 8 12 C4.78119883 8.2064129 2.3836813 4.34170523 0 0 Z " fill="#7771ED" transform="translate(163,259)"/>
<path d="M0 0 C0.99 0.33 1.98 0.66 3 1 C3 1.66 3 2.32 3 3 C2.34 3 1.68 3 1 3 C1 3.99 1 4.98 1 6 C1.61875 6.04125 2.2375 6.0825 2.875 6.125 C3.57625 6.41375 4.2775 6.7025 5 7 C6.25 10.0625 6.25 10.0625 7 13 C6.34 13 5.68 13 5 13 C4.67 13.66 4.34 14.32 4 15 C1.49035811 10.40093532 -0.61033325 6.3254456 -1 1 C-0.67 0.67 -0.34 0.34 0 0 Z " fill="#494B61" transform="translate(184,200)"/>
<path d="M0 0 C1.32 0.33 2.64 0.66 4 1 C4.1875 3.375 4.1875 3.375 4 6 C1 8 1 8 -1.625 7.75 C-2.40875 7.5025 -3.1925 7.255 -4 7 C-4.33 6.34 -4.66 5.68 -5 5 C-4.360625 4.731875 -3.72125 4.46375 -3.0625 4.1875 C-0.66868314 3.11332248 -0.66868314 3.11332248 0 0 Z " fill="#252747" transform="translate(311,203)"/>
<path d="M0 0 C0 0.66 0 1.32 0 2 C-1.65 2.66 -3.3 3.32 -5 4 C-5 5.32 -5 6.64 -5 8 C-8 8 -11 8 -14 8 C-4.57142857 0 -4.57142857 0 0 0 Z " fill="#777FE7" transform="translate(167,375)"/>
<path d="M0 0 C0.66 0 1.32 0 2 0 C2.33 1.32 2.66 2.64 3 4 C1.73299277 4.9841125 0.4612381 5.96211497 -0.8125 6.9375 C-1.87404297 7.75541016 -1.87404297 7.75541016 -2.95703125 8.58984375 C-5 10 -5 10 -8 11 C-8 10.01 -8 9.02 -8 8 C-7.01 8 -6.02 8 -5 8 C-4.67 6.68 -4.34 5.36 -4 4 C-2.35 3.67 -0.7 3.34 1 3 C0.67 2.01 0.34 1.02 0 0 Z " fill="#47475D" transform="translate(296,228)"/>
<path d="M0 0 C0.6875 1.75 0.6875 1.75 1 4 C-0.3125 6.25 -0.3125 6.25 -2 8 C-2.66 8 -3.32 8 -4 8 C-4.33 9.32 -4.66 10.64 -5 12 C-5.99 12 -6.98 12 -8 12 C-6.34643078 8.41726669 -4.32019297 5.19026533 -2 2 C-1.34 2 -0.68 2 0 2 C0 1.34 0 0.68 0 0 Z " fill="#8F7CEB" transform="translate(287,307)"/>
<path d="M0 0 C0 1.65 0 3.3 0 5 C1.32 5.66 2.64 6.32 4 7 C3.67 8.32 3.34 9.64 3 11 C2.13375 10.1028125 2.13375 10.1028125 1.25 9.1875 C-0.74107607 7.2517316 -2.74472997 5.61090717 -5 4 C-4.67 3.01 -4.34 2.02 -4 1 C-2 0 -2 0 0 0 Z " fill="#1D1E42" transform="translate(313,151)"/>
<path d="M0 0 C0.99 0 1.98 0 3 0 C2.49701212 4.40114397 0.91227269 6.71195019 -2 10 C-2.66 9.67 -3.32 9.34 -4 9 C-3.67 7.02 -3.34 5.04 -3 3 C-2.34 3 -1.68 3 -1 3 C-0.67 2.01 -0.34 1.02 0 0 Z " fill="#1D1D40" transform="translate(269,113)"/>
<path d="M0 0 C7.36259293 -0.22424141 13.87049629 0.09879901 21 2 C21 2.33 21 2.66 21 3 C19.52168779 3.19412181 18.04230684 3.38012131 16.5625 3.5625 C15.73878906 3.66691406 14.91507812 3.77132812 14.06640625 3.87890625 C13.38449219 3.91886719 12.70257813 3.95882812 12 4 C11.67 3.67 11.34 3.34 11 3 C9.15400312 2.60545777 7.29774178 2.25823134 5.4375 1.9375 C3.91962891 1.67259766 3.91962891 1.67259766 2.37109375 1.40234375 C1.58863281 1.26957031 0.80617188 1.13679688 0 1 C0 0.67 0 0.34 0 0 Z " fill="#826DE2" transform="translate(259,63)"/>
<path d="M0 0 C2.4375 1.3125 2.4375 1.3125 3.25 3.4375 C3.311875 4.05625 3.37375 4.675 3.4375 5.3125 C2.4475 5.9725 1.4575 6.6325 0.4375 7.3125 C-0.2225 6.3225 -0.8825 5.3325 -1.5625 4.3125 C-2.5525 3.9825 -3.5425 3.6525 -4.5625 3.3125 C-4.5625 2.3225 -4.5625 1.3325 -4.5625 0.3125 C-2.5625 -0.6875 -2.5625 -0.6875 0 0 Z " fill="#796CF5" transform="translate(260.5625,349.6875)"/>
<path d="M0 0 C0.99 0.33 1.98 0.66 3 1 C3 1.66 3 2.32 3 3 C3.763125 3.28875 4.52625 3.5775 5.3125 3.875 C8 5 8 5 11 7 C10.67 7.66 10.34 8.32 10 9 C9.34 9 8.68 9 8 9 C8 8.34 8 7.68 8 7 C6.68 7.33 5.36 7.66 4 8 C4 7.34 4 6.68 4 6 C2.68 5.67 1.36 5.34 0 5 C0 3.35 0 1.7 0 0 Z " fill="#8F7EEA" transform="translate(366,390)"/>
<path d="M0 0 C2.97 0.495 2.97 0.495 6 1 C6 4 6 4 5.4375 6.875 C5.00675853 9.95172478 5.21234837 12.02442718 6 15 C3.36177976 11.89621148 2.29634269 9.18537076 1.3125 5.25 C1.06113281 4.26515625 0.80976563 3.2803125 0.55078125 2.265625 C0.36902344 1.51796875 0.18726563 0.7703125 0 0 Z " fill="#9279EF" transform="translate(392,385)"/>
<path d="M0 0 C-1.26538369 0.84158536 -2.53753779 1.67299748 -3.8125 2.5 C-4.87404297 3.19609375 -4.87404297 3.19609375 -5.95703125 3.90625 C-8 5 -8 5 -11 5 C-11 5.66 -11 6.32 -11 7 C-11.66 6.67 -12.32 6.34 -13 6 C-12.525625 5.38125 -12.05125 4.7625 -11.5625 4.125 C-9.97582559 2.09294454 -9.97582559 2.09294454 -9 0 C-5.44307323 -0.85056945 -3.50729422 -1.16909807 0 0 Z " fill="#737CE7" transform="translate(192,374)"/>
<path d="M0 0 C0.99 0.33 1.98 0.66 3 1 C3 1.66 3 2.32 3 3 C2.01 3.495 2.01 3.495 1 4 C0.61781233 5.65614657 0.28604898 7.32457024 0 9 C-0.33 9.66 -0.66 10.32 -1 11 C-1.66 11 -2.32 11 -3 11 C-3 8.36 -3 5.72 -3 3 C-2.34 3 -1.68 3 -1 3 C-0.67 2.01 -0.34 1.02 0 0 Z " fill="#1D1E3E" transform="translate(292,125)"/>
<path d="M0 0 C0.99 0 1.98 0 3 0 C0.90824468 5.95345745 0.90824468 5.95345745 -2 8 C-4.6875 8.1875 -4.6875 8.1875 -7 8 C-6.02133662 6.85373678 -5.04205413 5.70800212 -4.0625 4.5625 C-3.51722656 3.92441406 -2.97195312 3.28632813 -2.41015625 2.62890625 C-1.63204305 1.73008851 -0.84063472 0.84063472 0 0 Z " fill="#4B4D62" transform="translate(203,126)"/>
<path d="M0 0 C2.125 0.9375 2.125 0.9375 4 2 C3.42655063 4.86724686 3.1385485 5.8614515 1 8 C-0.32 7.01 -1.64 6.02 -3 5 C-2.625 3.0625 -2.625 3.0625 -2 1 C-1.34 0.67 -0.68 0.34 0 0 Z " fill="#373B57" transform="translate(204,227)"/>
<path d="M0 0 C1.65 0 3.3 0 5 0 C4 2 3 4 2 6 C1.34 6 0.68 6 0 6 C0 6.66 0 7.32 0 8 C-0.66 7.67 -1.32 7.34 -2 7 C-2 5.35 -2 3.7 -2 2 C-1.34 2 -0.68 2 0 2 C0 1.34 0 0.68 0 0 Z " fill="#4B4B63" transform="translate(301,222)"/>
<path d="M0 0 C1.0625 1.875 1.0625 1.875 2 4 C1.67 4.66 1.34 5.32 1 6 C0.01 5.67 -0.98 5.34 -2 5 C-1.7215625 6.175625 -1.7215625 6.175625 -1.4375 7.375 C-1 10 -1 10 -2 12 C-2.99 12 -3.98 12 -5 12 C-4.49287967 8.28111761 -3.88391785 5.26545761 -2 2 C-1.34 2 -0.68 2 0 2 C0 1.34 0 0.68 0 0 Z " fill="#3A3B53" transform="translate(192,139)"/>
<path d="M0 0 C3.36338044 3.36338044 4 6.28835716 4 11 C4.66 11.33 5.32 11.66 6 12 C5.34 12 4.68 12 4 12 C3.67 12.66 3.34 13.32 3 14 C2.3012307 12.23358317 1.61633417 10.46167336 0.9375 8.6875 C0.55464844 7.70136719 0.17179687 6.71523438 -0.22265625 5.69921875 C-1 3 -1 3 0 0 Z " fill="#917CE9" transform="translate(373,333)"/>
<path d="M0 0 C0.33 0.99 0.66 1.98 1 3 C1.99 3.33 2.98 3.66 4 4 C3.071875 4.86625 3.071875 4.86625 2.125 5.75 C0.18652947 7.80249821 -0.90014249 9.43366582 -2 12 C-2.66 12 -3.32 12 -4 12 C-2.87204037 7.89100419 -1.66489182 3.92438786 0 0 Z " fill="#7883EE" transform="translate(106,356)"/>
<path d="M0 0 C0.99 0.33 1.98 0.66 3 1 C2.50168276 4.68754757 1.89932357 6.60490662 -1 9 C-2.1875 6.75 -2.1875 6.75 -3 4 C-1.625 1.6875 -1.625 1.6875 0 0 Z " fill="#816BF2" transform="translate(299,292)"/>
<path d="M0 0 C1.4540625 0.0309375 1.4540625 0.0309375 2.9375 0.0625 C2.625 1.9375 2.625 1.9375 1.9375 4.0625 C0.9475 4.7225 -0.0425 5.3825 -1.0625 6.0625 C-3.0625 4.0625 -3.0625 4.0625 -4.0625 1.0625 C-3.0625 0.0625 -3.0625 0.0625 0 0 Z " fill="#181E40" transform="translate(210.0625,225.9375)"/>
<path d="M0 0 C0.66 0 1.32 0 2 0 C1.67 1.32 1.34 2.64 1 4 C3.97 4.495 3.97 4.495 7 5 C6.34 6.32 5.68 7.64 5 9 C4.01 9 3.02 9 2 9 C2 8.01 2 7.02 2 6 C1.34 6 0.68 6 0 6 C-1.125 2.25 -1.125 2.25 0 0 Z " fill="#6977E9" transform="translate(98,406)"/>
<path d="M0 0 C2.18975773 3.28463659 2.99806563 6.20696275 4 10 C2.02 9.34 0.04 8.68 -2 8 C-2 7.34 -2 6.68 -2 6 C-1.34 6 -0.68 6 0 6 C0 5.01 0 4.02 0 3 C-0.66 3 -1.32 3 -2 3 C-1 1 -1 1 0 0 Z " fill="#9279F2" transform="translate(407,391)"/>
<path d="M0 0 C3.43950364 0.61198376 5.51564485 1.92058847 8.25 4.0625 C8.95640625 4.61035156 9.6628125 5.15820312 10.390625 5.72265625 C11.18726563 6.35494141 11.18726563 6.35494141 12 7 C10.68 7.33 9.36 7.66 8 8 C8 7.34 8 6.68 8 6 C6.68 5.67 5.36 5.34 4 5 C4 4.34 4 3.68 4 3 C3.01 3 2.02 3 1 3 C0.67 2.01 0.34 1.02 0 0 Z " fill="#947EE4" transform="translate(313,81)"/>
<path d="M0 0 C4.75 0.75 4.75 0.75 7 3 C7 3.99 7 4.98 7 6 C4.03824877 5.38722388 2.61941217 4.74627478 0 3 C0 2.01 0 1.02 0 0 Z " fill="#8875ED" transform="translate(369,405)"/>
<path d="M0 0 C2.74554724 2.37115444 3.95117186 4.53079925 5 8 C5.125 11.3125 5.125 11.3125 5 14 C2.96470413 11.96470413 2.3615728 10.76582618 1.375 8.125 C1.11460937 7.44695312 0.85421875 6.76890625 0.5859375 6.0703125 C0 4 0 4 0 0 Z " fill="#8973E4" transform="translate(382,357)"/>
<path d="M0 0 C0.66 0.33 1.32 0.66 2 1 C2 2.32 2 3.64 2 5 C1.34 5 0.68 5 0 5 C-0.33 6.98 -0.66 8.96 -1 11 C-3 10 -3 10 -4 8 C-3.0625 5.875 -3.0625 5.875 -2 4 C-1.34 4 -0.68 4 0 4 C0 2.68 0 1.36 0 0 Z " fill="#695CF8" transform="translate(223,321)"/>
<path d="M0 0 C0.33 1.65 0.66 3.3 1 5 C0.01 5.33 -0.98 5.66 -2 6 C-2 5.34 -2 4.68 -2 4 C-4.31 3.67 -6.62 3.34 -9 3 C-3 0 -3 0 0 0 Z " fill="#53556B" transform="translate(274,234)"/>
<path d="M0 0 C0.99 0.33 1.98 0.66 3 1 C3.33 2.98 3.66 4.96 4 7 C3.34 7 2.68 7 2 7 C1.67 7.66 1.34 8.32 1 9 C-0.61949011 6.42786866 -1.04408751 5.32330841 -0.625 2.25 C-0.41875 1.5075 -0.2125 0.765 0 0 Z " fill="#2A2C49" transform="translate(201,214)"/>
<path d="M0 0 C2 1 2 1 2.8515625 3.28515625 C3.10679687 4.20167969 3.36203125 5.11820313 3.625 6.0625 C3.88539063 6.98160156 4.14578125 7.90070313 4.4140625 8.84765625 C4.60742188 9.55792969 4.80078125 10.26820313 5 11 C3.68 10.34 2.36 9.68 1 9 C1 7.35 1 5.7 1 4 C0.01 4.33 -0.98 4.66 -2 5 C-2 4.34 -2 3.68 -2 3 C-1.34 3 -0.68 3 0 3 C0 2.01 0 1.02 0 0 Z " fill="#444359" transform="translate(312,147)"/>
<path d="M0 0 C0.66 0.33 1.32 0.66 2 1 C2.33 1.99 2.66 2.98 3 4 C1.02 5.32 -0.96 6.64 -3 8 C-3.66 7.34 -4.32 6.68 -5 6 C-3.35 4.02 -1.7 2.04 0 0 Z " fill="#8273EE" transform="translate(266,332)"/>
<path d="M0 0 C0 0.66 0 1.32 0 2 C-0.99 2 -1.98 2 -3 2 C-3 2.66 -3 3.32 -3 4 C-6.465 5.485 -6.465 5.485 -10 7 C-10.33 6.34 -10.66 5.68 -11 5 C-10.34 5 -9.68 5 -9 5 C-9 4.34 -9 3.68 -9 3 C-7.68 3 -6.36 3 -5 3 C-5 2.34 -5 1.68 -5 1 C-3 0 -3 0 0 0 Z " fill="#707AE5" transform="translate(165,388)"/>
<path d="M0 0 C-0.99 0.33 -1.98 0.66 -3 1 C-3.33 1.99 -3.66 2.98 -4 4 C-6.64 4.33 -9.28 4.66 -12 5 C-10.7410501 2.4821002 -9.60942883 2.07291536 -7.125 0.8125 C-6.42632812 0.44769531 -5.72765625 0.08289063 -5.0078125 -0.29296875 C-3 -1 -3 -1 0 0 Z " fill="#737FE8" transform="translate(148,388)"/>
<path d="M0 0 C0.33 0 0.66 0 1 0 C1.33 2.31 1.66 4.62 2 7 C-2.75 8.125 -2.75 8.125 -5 7 C-4.67 6.34 -4.34 5.68 -4 5 C-4 4.34 -4 3.68 -4 3 C-3.01 2.34 -2.02 1.68 -1 1 C-0.67 0.67 -0.34 0.34 0 0 Z " fill="#665FF9" transform="translate(174,255)"/>
<path d="M0 0 C0.33 0.66 0.66 1.32 1 2 C1.66 2.33 2.32 2.66 3 3 C1.02 5.31 -0.96 7.62 -3 10 C-3.66 9.34 -4.32 8.68 -5 8 C-2.25 4.125 -2.25 4.125 0 3 C0 2.01 0 1.02 0 0 Z " fill="#927EEC" transform="translate(289,319)"/>
<path d="M0 0 C0.99 0.66 1.98 1.32 3 2 C3.99 2.33 4.98 2.66 6 3 C5.67 3.66 5.34 4.32 5 5 C3.02 5 1.04 5 -1 5 C-1 2 -1 2 0 0 Z " fill="#191A3E" transform="translate(274,239)"/>
<path d="M0 0 C-0.33 2.64 -0.66 5.28 -1 8 C-1.99 8 -2.98 8 -4 8 C-4.36780384 3.46375267 -4.36780384 3.46375267 -2.5625 1.1875 C-1 0 -1 0 0 0 Z " fill="#886BEF" transform="translate(358,216)"/>
<path d="M0 0 C0.66 0 1.32 0 2 0 C2 0.66 2 1.32 2 2 C5.465 1.505 5.465 1.505 9 1 C6.37801226 3.15377564 4.35595828 4.40072174 1 5 C1 4.34 1 3.68 1 3 C0.34 2.67 -0.32 2.34 -1 2 C-0.67 1.34 -0.34 0.68 0 0 Z " fill="#737EEB" transform="translate(165,383)"/>
<path d="M0 0 C-0.33 1.98 -0.66 3.96 -1 6 C-2.32 6 -3.64 6 -5 6 C-5 5.34 -5 4.68 -5 4 C-5.66 3.67 -6.32 3.34 -7 3 C-2.25 0 -2.25 0 0 0 Z " fill="#817DEF" transform="translate(222,343)"/>
<path d="M0 0 C0.99 0.33 1.98 0.66 3 1 C4.1875 3.5625 4.1875 3.5625 5 6 C4.01 6.33 3.02 6.66 2 7 C2 6.34 2 5.68 2 5 C1.34 5 0.68 5 0 5 C-0.33 4.01 -0.66 3.02 -1 2 C-0.67 1.34 -0.34 0.68 0 0 Z " fill="#6E58F4" transform="translate(278,319)"/>
<path d="M0 0 C-0.33 0.99 -0.66 1.98 -1 3 C-4.3 3.33 -7.6 3.66 -11 4 C-6.63257174 0.72442881 -5.35208648 0 0 0 Z " fill="#41415C" transform="translate(227,114)"/>
<path d="M0 0 C0.66 0.33 1.32 0.66 2 1 C2 2.65 2 4.3 2 6 C0.35 6.33 -1.3 6.66 -3 7 C-1.125 1.125 -1.125 1.125 0 0 Z " fill="#7E5DF8" transform="translate(332,103)"/>
<path d="M0 0 C0.66 0.33 1.32 0.66 2 1 C1.34 2.65 0.68 4.3 0 6 C-0.66 6 -1.32 6 -2 6 C-2.33 6.66 -2.66 7.32 -3 8 C-3 5.69 -3 3.38 -3 1 C-2.01 0.67 -1.02 0.34 0 0 Z " fill="#4D63F1" transform="translate(91,406)"/>
<path d="M0 0 C1.32 0 2.64 0 4 0 C4.33 2.31 4.66 4.62 5 7 C2.5 5.1875 2.5 5.1875 0 3 C0 2.01 0 1.02 0 0 Z " fill="#7F76E8" transform="translate(213,325)"/>
<path d="M0 0 C0.99 0.33 1.98 0.66 3 1 C2.34 3.31 1.68 5.62 1 8 C0.01 8 -0.98 8 -2 8 C-1.33333333 5.33333333 -0.66666667 2.66666667 0 0 Z " fill="#6B77E9" transform="translate(123,313)"/>
<path d="M0 0 C0.99 0.66 1.98 1.32 3 2 C3 2.99 3 3.98 3 5 C-1.75 4.25 -1.75 4.25 -4 2 C-2.68 1.34 -1.36 0.68 0 0 Z " fill="#414364" transform="translate(223,241)"/>
<path d="M0 0 C0.66 0.33 1.32 0.66 2 1 C0.35 2.98 -1.3 4.96 -3 7 C-4.32 6.67 -5.64 6.34 -7 6 C-4.69 4.02 -2.38 2.04 0 0 Z " fill="#897DE7" transform="translate(182,82)"/>
<path d="M0 0 C6.52307692 0.61538462 6.52307692 0.61538462 8.9375 2.5625 C9.288125 3.036875 9.63875 3.51125 10 4 C6.53058454 3.54177532 3.32604951 3.10868317 0 2 C0 1.34 0 0.68 0 0 Z " fill="#907CE4" transform="translate(272,75)"/>
<path d="M0 0 C3.93673644 1.31224548 6.22719294 2.91910327 9 6 C5.21213403 5.4739075 2.82847776 4.61896089 0 2 C0 1.34 0 0.68 0 0 Z " fill="#9789E7" transform="translate(330,365)"/>
<path d="M0 0 C0.66 1.32 1.32 2.64 2 4 C1.38125 4.28875 0.7625 4.5775 0.125 4.875 C-2.13325765 5.93720042 -2.13325765 5.93720042 -4 8 C-4.33 6.35 -4.66 4.7 -5 3 C-3.35 2.01 -1.7 1.02 0 0 Z " fill="#8472F2" transform="translate(316,341)"/>
<path d="M0 0 C-1.62366466 3.24732932 -4.75387839 3.70155136 -8 5 C-8.66 4.34 -9.32 3.68 -10 3 C-9.01 3 -8.02 3 -7 3 C-7 2.34 -7 1.68 -7 1 C-4.53721199 -0.231394 -2.7204945 -0.07159196 0 0 Z " fill="#998AE8" transform="translate(343,340)"/>
<path d="M0 0 C0.66 0.33 1.32 0.66 2 1 C1.39009109 4.55780196 0.4216319 7.6828589 -1 11 C-1.33 11 -1.66 11 -2 11 C-2.19622241 6.78121808 -1.80230168 3.82989106 0 0 Z " fill="#7E83E5" transform="translate(129,325)"/>
<path d="M0 0 C0.66 0.33 1.32 0.66 2 1 C0.71480435 3.86697492 -0.57129254 5.97607712 -3 8 C-3.66 8 -4.32 8 -5 8 C-3.8141763 4.62496331 -2.72426311 2.35277269 0 0 Z " fill="#989BE7" transform="translate(135,289)"/>
<path d="M0 0 C0.66 0 1.32 0 2 0 C2.33 2.97 2.66 5.94 3 9 C2.01 9.495 2.01 9.495 1 10 C-0.60725635 6.78548731 -0.05748185 3.56387464 0 0 Z " fill="#515265" transform="translate(263,205)"/>
<path d="M0 0 C2.29576678 2.29576678 3.0638375 3.90346249 4 7 C3.625 9.8125 3.625 9.8125 3 12 C0.60926555 8.17482487 0.44033448 4.40334476 0 0 Z " fill="#7F7BE6" transform="translate(135,195)"/>
<path d="M0 0 C0 0.33 0 0.66 0 1 C-3.63 1 -7.26 1 -11 1 C-10 -1 -10 -1 -8.3125 -1.75 C-5.17326781 -2.08937645 -2.91097894 -1.12469641 0 0 Z " fill="#576AFA" transform="translate(155,421)"/>
<path d="M0 0 C3.99455527 0.61454696 6.74466336 2.70646737 10 5 C8.375 5.75 8.375 5.75 6 6 C2.75 4.1875 2.75 4.1875 0 2 C0 1.34 0 0.68 0 0 Z " fill="#907FE4" transform="translate(356,384)"/>
<path d="M0 0 C0.99 0.33 1.98 0.66 3 1 C3 1.66 3 2.32 3 3 C3.66 3 4.32 3 5 3 C5.33 3.99 5.66 4.98 6 6 C3.97954558 5.39816251 1.97888961 4.72693904 0 4 C-0.33 3.34 -0.66 2.68 -1 2 C-0.67 1.34 -0.34 0.68 0 0 Z " fill="#6B73FC" transform="translate(161,383)"/>
<path d="M0 0 C2.64 0.33 5.28 0.66 8 1 C8.33 1.99 8.66 2.98 9 4 C3.46153846 3.38461538 3.46153846 3.38461538 1.125 1.4375 C0.75375 0.963125 0.3825 0.48875 0 0 Z " fill="#8079E6" transform="translate(240,358)"/>
<path d="M0 0 C0.66 0.66 1.32 1.32 2 2 C1.01 3.485 1.01 3.485 0 5 C-0.66 5 -1.32 5 -2 5 C-2.33 5.66 -2.66 6.32 -3 7 C-3.33 5.68 -3.66 4.36 -4 3 C-2.68 2.01 -1.36 1.02 0 0 Z " fill="#8678EC" transform="translate(271,342)"/>
<path d="M0 0 C0.98120464 3.05263664 0.98120464 4.94736336 0 8 C-0.33 7.34 -0.66 6.68 -1 6 C-1.99 5.67 -2.98 5.34 -4 5 C-2.68 3.35 -1.36 1.7 0 0 Z " fill="#877BED" transform="translate(260,339)"/>
<path d="M0 0 C2.31 0.33 4.62 0.66 7 1 C4.23776722 3.76223278 1.79293383 3.57856291 -2 4 C-1.34 2.68 -0.68 1.36 0 0 Z " fill="#3F4256" transform="translate(272,243)"/>
<path d="M0 0 C1.98 0.99 3.96 1.98 6 3 C5.01 3.33 4.02 3.66 3 4 C3 4.66 3 5.32 3 6 C2.01 6 1.02 6 0 6 C0 4.02 0 2.04 0 0 Z " fill="#383955" transform="translate(216,228)"/>
<path d="M0 0 C0.99 0.33 1.98 0.66 3 1 C4.1875 4.0625 4.1875 4.0625 5 7 C2.5 5.75 2.5 5.75 0 4 C0 2.68 0 1.36 0 0 Z " fill="#39384E" transform="translate(307,140)"/>
<path d="M0 0 C0 1.32 0 2.64 0 4 C-4.875 2.25 -4.875 2.25 -6 0 C-3.50907189 -1.24546405 -2.58919267 -0.7767578 0 0 Z " fill="#424258" transform="translate(289,131)"/>
<path d="M0 0 C0 0.99 0 1.98 0 3 C-0.66 3 -1.32 3 -2 3 C-2 4.65 -2 6.3 -2 8 C-2.33 7.34 -2.66 6.68 -3 6 C-3.66 6 -4.32 6 -5 6 C-4.75 4.125 -4.75 4.125 -4 2 C-1.9375 0.75 -1.9375 0.75 0 0 Z " fill="#6B7AE6" transform="translate(114,405)"/>
<path d="M0 0 C0.66 0 1.32 0 2 0 C2.66 1.98 3.32 3.96 4 6 C3.01 6.495 3.01 6.495 2 7 C2 6.34 2 5.68 2 5 C1.01 5.33 0.02 5.66 -1 6 C-0.67 4.02 -0.34 2.04 0 0 Z " fill="#8A71E7" transform="translate(403,384)"/>
<path d="M0 0 C1 3 1 3 1 5 C0.34 5 -0.32 5 -1 5 C-1.33 5.99 -1.66 6.98 -2 8 C-2 7.01 -2 6.02 -2 5 C-2.66 5 -3.32 5 -4 5 C-4 4.34 -4 3.68 -4 3 C-2 1.375 -2 1.375 0 0 Z " fill="#5E60F5" transform="translate(209,356)"/>
<path d="M0 0 C0 0.66 0 1.32 0 2 C-0.66 2 -1.32 2 -2 2 C-2 2.66 -2 3.32 -2 4 C-4.31 4.33 -6.62 4.66 -9 5 C-6.45523312 2.20075644 -3.92372883 0 0 0 Z " fill="#9785E7" transform="translate(327,336)"/>
<path d="M0 0 C0.66 0.33 1.32 0.66 2 1 C2 1.99 2 2.98 2 4 C0.35 4.33 -1.3 4.66 -3 5 C-3 4.01 -3 3.02 -3 2 C-2.01 1.34 -1.02 0.68 0 0 Z " fill="#8E79F2" transform="translate(342,326)"/>
<path d="M0 0 C2 1 2 1 2.703125 2.77734375 C2.88359375 3.49019531 3.0640625 4.20304687 3.25 4.9375 C3.44078125 5.64777344 3.6315625 6.35804688 3.828125 7.08984375 C3.88484375 7.72019531 3.9415625 8.35054688 4 9 C3.34 9.66 2.68 10.32 2 11 C0.80712589 7.12315913 0 4.08378077 0 0 Z " fill="#9882EB" transform="translate(375,310)"/>
<path d="M0 0 C1.32 0.99 2.64 1.98 4 3 C3.67 4.32 3.34 5.64 3 7 C2.34 6.67 1.68 6.34 1 6 C0.375 2.9375 0.375 2.9375 0 0 Z M4 3 C7 4 7 4 7 4 Z " fill="#615AF3" transform="translate(170,265)"/>
<path d="M0 0 C5.75 1.75 5.75 1.75 8 4 C6.35 4.33 4.7 4.66 3 5 C3 4.34 3 3.68 3 3 C2.34 3 1.68 3 1 3 C0.67 2.01 0.34 1.02 0 0 Z " fill="#605F6F" transform="translate(276,114)"/>
<path d="M0 0 C1.42944945 2.35438733 2.08661261 3.48032433 1.625 6.25 C1.41875 6.8275 1.2125 7.405 1 8 C-2 4.375 -2 4.375 -2 1 C-1.34 0.67 -0.68 0.34 0 0 Z " fill="#9781EB" transform="translate(334,111)"/>
<path d="M0 0 C1.98 1.65 3.96 3.3 6 5 C4.02 5.99 4.02 5.99 2 7 C1.87625 6.360625 1.7525 5.72125 1.625 5.0625 C1.315625 4.0415625 1.315625 4.0415625 1 3 C0.34 2.67 -0.32 2.34 -1 2 C-0.67 1.34 -0.34 0.68 0 0 Z " fill="#8677EA" transform="translate(317,354)"/>
<path d="M0 0 C2.1519437 3.22791555 2.20086443 4.28400809 2 8 C1.54625 7.525625 1.0925 7.05125 0.625 6.5625 C-0.93258204 4.90972192 -0.93258204 4.90972192 -3 4 C-2.01 2.68 -1.02 1.36 0 0 Z " fill="#5162F4" transform="translate(116,353)"/>
<path d="M0 0 C0.93065133 2.60582371 1.14917407 3.64198224 0.0625 6.25 C-0.4634375 7.11625 -0.4634375 7.11625 -1 8 C-1.99 6.68 -2.98 5.36 -4 4 C-2.68 2.68 -1.36 1.36 0 0 Z " fill="#4A4C63" transform="translate(293,219)"/>
<path d="M0 0 C0.99 0 1.98 0 3 0 C1.90931332 3.77545388 1.0916909 6.47043472 -2 9 C-1.41196203 5.97580475 -0.77321882 2.98241547 0 0 Z " fill="#4D4A60" transform="translate(311,209)"/>
<path d="M0 0 C0.66 0.66 1.32 1.32 2 2 C1.625 5.625 1.625 5.625 1 9 C0.34 9 -0.32 9 -1 9 C-0.67 6.03 -0.34 3.06 0 0 Z " fill="#8B82E7" transform="translate(135,157)"/>
<path d="M0 0 C0.66 0.66 1.32 1.32 2 2 C0.6875 3.5 0.6875 3.5 -1 5 C-1.99 5 -2.98 5 -4 5 C-3.6875 3.0625 -3.6875 3.0625 -3 1 C-2.01 0.67 -1.02 0.34 0 0 Z " fill="#31334B" transform="translate(198,133)"/>
<path d="M0 0 C1.32 0.66 2.64 1.32 4 2 C3.67 2.99 3.34 3.98 3 5 C2.34 4.67 1.68 4.34 1 4 C0.67 4.66 0.34 5.32 0 6 C-0.66 5.01 -1.32 4.02 -2 3 C-1.01 3 -0.02 3 1 3 C0.67 2.01 0.34 1.02 0 0 Z " fill="#414262" transform="translate(294,125)"/>
</svg>
