<?xml version="1.0" encoding="UTF-8"?>
<svg version="1.1" xmlns="http://www.w3.org/2000/svg" width="500" height="500">
<path d="M0 0 C0.98456587 -0.00679667 0.98456587 -0.00679667 1.98902196 -0.01373065 C4.16895811 -0.02630108 6.34864206 -0.02475911 8.52861023 -0.02310181 C10.09960752 -0.02909167 11.67060188 -0.03589827 13.24159241 -0.04345703 C17.49586173 -0.06107765 21.75005052 -0.06581075 26.00435281 -0.0670886 C28.66603885 -0.068513 31.32770461 -0.07278805 33.9893856 -0.07808304 C43.28583952 -0.0965703 52.58223619 -0.10475529 61.87870789 -0.10317993 C70.52712612 -0.10197889 79.17529464 -0.12307717 87.8236497 -0.15466726 C95.26338789 -0.18086852 102.7030447 -0.19154562 110.14282864 -0.19026911 C114.57978842 -0.18976061 119.01652614 -0.19538174 123.45343971 -0.21662521 C127.62898918 -0.23607269 131.80410624 -0.23608797 135.97967148 -0.22159195 C137.50580036 -0.21951079 139.03195677 -0.22416318 140.55803871 -0.23631287 C149.14047489 -0.30017621 156.37780914 0.22200833 164.11332703 4.26742554 C165.10332703 4.76242554 165.10332703 4.76242554 166.11332703 5.26742554 C166.11332703 5.92742554 166.11332703 6.58742554 166.11332703 7.26742554 C167.00664734 7.64640991 167.00664734 7.64640991 167.91801453 8.03305054 C170.38305807 9.41908926 171.56314031 10.75460788 173.23832703 13.01742554 C173.73590515 13.67226929 174.23348328 14.32711304 174.74613953 15.00180054 C177.66221752 19.83415836 178.36563572 24.38061494 178.38798523 29.95956421 C178.39751724 31.27079758 178.40704926 32.58203094 178.41687012 33.93299866 C178.41660877 35.35046414 178.41567214 36.76792964 178.41410828 38.18539429 C178.41799843 39.64936952 178.42233376 41.11334362 178.42709351 42.57731628 C178.43453338 45.63608473 178.43427918 48.69473766 178.42900085 51.75350952 C178.42318655 55.67449208 178.44019466 59.59500527 178.46334553 63.51591015 C178.47806279 66.53477239 178.47895773 69.55352074 178.4758358 72.57241249 C178.47634929 74.01851652 178.48159221 75.46462687 178.49164772 76.91069603 C178.50396448 78.9282509 178.49529522 80.94590108 178.48564148 82.96347046 C178.4862709 84.11119431 178.48690033 85.25891815 178.48754883 86.44142151 C178.11332703 89.26742554 178.11332703 89.26742554 176.74630737 91.13798523 C174.40301778 92.75870634 172.89713756 92.68499712 170.11332703 92.26742554 C168.48112488 91.12077332 168.48112488 91.12077332 167.11332703 89.26742554 C166.73478699 86.55531311 166.73478699 86.55531311 166.7285614 83.23886108 C166.71845032 81.99714645 166.70833923 80.75543182 166.69792175 79.47608948 C166.69947769 78.8128536 166.70103363 78.14961773 166.70263672 77.4662838 C166.70711873 75.38477737 166.69310374 73.3041195 166.67424011 71.22270203 C166.63745421 66.80012378 166.62375625 62.37763422 166.61332703 57.95492554 C166.60123133 52.83886446 166.57956489 47.72321607 166.5333252 42.60733986 C166.51980272 40.56325993 166.52391781 38.51970795 166.5287323 36.4756012 C166.51862122 35.22443008 166.50851013 33.97325897 166.49809265 32.68417358 C166.49603821 31.58735764 166.49398376 30.49054169 166.49186707 29.36048889 C166.05702828 25.80740656 164.80740301 23.39393867 163.11332703 20.26742554 C163.11332703 19.60742554 163.11332703 18.94742554 163.11332703 18.26742554 C162.45332703 18.26742554 161.79332703 18.26742554 161.11332703 18.26742554 C161.11332703 17.60742554 161.11332703 16.94742554 161.11332703 16.26742554 C156.06642015 14.22138221 152.23308846 13.14100342 146.75668335 13.12698364 C146.10906864 13.12401252 145.46145394 13.1210414 144.79421455 13.11798024 C142.62021752 13.10929609 140.44627558 13.10778524 138.27226257 13.10629272 C136.71507143 13.10166434 135.15788143 13.09663966 133.60069275 13.09124756 C129.36713191 13.07812338 125.13358692 13.07167855 120.90000892 13.0672369 C118.25513289 13.06430617 115.61026119 13.06020136 112.96538734 13.05573273 C104.69044569 13.04205768 96.41551394 13.03239109 88.14056176 13.02853084 C78.58787391 13.02405007 69.03532914 13.00650136 59.48268479 12.97753024 C52.09914916 12.95591476 44.71565379 12.94582663 37.33208686 12.94448972 C32.92205641 12.94344158 28.51216046 12.93753201 24.10216331 12.9196701 C19.95301151 12.90319174 15.80409535 12.90103272 11.65492249 12.90980911 C10.13356711 12.91057962 8.61219908 12.90623495 7.09087563 12.89635086 C5.01061103 12.88362987 2.93118086 12.88950807 0.85092163 12.89993286 C-0.31217183 12.8984663 -1.47526529 12.89699974 -2.67360401 12.89548874 C-6.31698263 13.3172371 -8.70121722 14.49468496 -11.88667297 16.26742554 C-12.87667297 16.59742554 -13.86667297 16.92742554 -14.88667297 17.26742554 C-16.0221286 19.56276812 -16.0221286 19.56276812 -16.88667297 22.26742554 C-17.40258013 23.43375158 -17.40258013 23.43375158 -17.92890966 24.62363976 C-18.92949394 27.38562747 -19.14064716 29.39400376 -19.148386 32.31799793 C-19.15958424 33.81685731 -19.15958424 33.81685731 -19.17100871 35.34599668 C-19.16907397 36.43646179 -19.16713924 37.5269269 -19.16514587 38.6504364 C-19.17093828 39.8144374 -19.17673068 40.97843839 -19.18269861 42.17771214 C-19.19676062 45.40449594 -19.20192882 48.63115309 -19.20334721 51.85796273 C-19.20704271 55.33918683 -19.22219894 58.82036323 -19.23596191 62.30155945 C-19.25823385 68.33160718 -19.27324753 74.36163795 -19.28332901 80.39171791 C-19.29791562 89.11019071 -19.32345239 97.8286044 -19.3516603 106.54704251 C-19.39712861 120.69218383 -19.43374326 134.83733366 -19.46479797 148.98251343 C-19.49498335 162.72308855 -19.5293563 176.46364273 -19.56929016 190.20419312 C-19.57177167 191.05982399 -19.57425318 191.91545486 -19.57680988 192.79701394 C-19.59624966 199.48862751 -19.61593228 206.18024036 -19.63569164 212.87185299 C-19.73247866 245.67035176 -19.80808383 278.46886837 -19.88667297 311.26742554 C72.18332703 310.77242554 72.18332703 310.77242554 166.11332703 310.26742554 C166.44332703 301.35742554 166.77332703 292.44742554 167.11332703 283.26742554 C171.26740485 281.19038663 171.94874373 280.95229397 176.11332703 282.26742554 C178.92280097 285.07689948 178.39154055 286.88393196 178.43559265 290.82162476 C178.45048737 291.83190483 178.45048737 291.83190483 178.46568298 292.8625946 C178.4949706 295.09914216 178.50854561 297.33540488 178.51957703 299.57211304 C178.53108743 301.1323446 178.54260281 302.69257613 178.55412292 304.25280762 C178.57516301 307.53308426 178.5868314 310.81326275 178.59379578 314.09359741 C178.6046941 318.26755293 178.65258069 322.44017976 178.70973969 326.61372185 C178.74729284 329.84313511 178.75741983 333.07224018 178.76046753 336.30185318 C178.76646728 337.83826996 178.7823417 339.37468485 178.80883789 340.91088486 C178.9838309 351.84890541 177.63123458 361.08464631 170.0377655 369.59307861 C168.11332703 371.26742554 168.11332703 371.26742554 166.11332703 371.26742554 C166.11332703 371.92742554 166.11332703 372.58742554 166.11332703 373.26742554 C164.91064022 373.92371402 163.70080148 374.56690059 162.48832703 375.20492554 C161.8154364 375.56457397 161.14254578 375.92422241 160.44926453 376.29476929 C155.62574853 378.30322327 150.6506495 378.39355736 145.48530579 378.40113831 C144.16759689 378.40540329 142.849888 378.40966827 141.49224854 378.4140625 C140.04383847 378.41371303 138.59542843 378.41325153 137.14701843 378.41268921 C135.61233438 378.41568339 134.07765107 378.41908652 132.54296875 378.42286682 C128.38382459 378.43168422 124.22470102 378.43404397 120.06554842 378.43468261 C117.46469567 378.43539434 114.86384813 378.43753099 112.26299667 378.44017982 C103.18282998 378.44942544 94.10267795 378.45351565 85.02250671 378.45272827 C76.56898396 378.45212754 68.11552503 378.46268052 59.66201842 378.47847193 C52.39473821 378.49156193 45.12747883 378.49691156 37.86018693 378.49627286 C33.52394704 378.49601832 29.18776391 378.49884516 24.8515358 378.50945091 C20.77213988 378.51915659 16.69285471 378.51919419 12.61345482 378.51193428 C11.12035523 378.51089154 9.62724865 378.51323282 8.134161 378.51929474 C-1.14313871 378.55450697 -9.52309845 378.51295703 -17.82417297 373.82992554 C-18.57569641 373.4187146 -19.32721985 373.00750366 -20.10151672 372.58383179 C-21.88667297 371.26742554 -21.88667297 371.26742554 -22.88667297 368.26742554 C-23.54667297 368.26742554 -24.20667297 368.26742554 -24.88667297 368.26742554 C-24.88667297 367.60742554 -24.88667297 366.94742554 -24.88667297 366.26742554 C-25.54667297 366.26742554 -26.20667297 366.26742554 -26.88667297 366.26742554 C-27.51976489 365.08421977 -28.14264015 363.89554706 -28.76167297 362.70492554 C-29.10971985 362.04363647 -29.45776672 361.38234741 -29.81636047 360.70101929 C-33.14029688 353.14330986 -33.17451994 346.30305497 -33.15409851 338.1234436 C-33.15783805 336.78055432 -33.16244079 335.43766722 -33.16782916 334.09478354 C-33.18003709 330.41489757 -33.1798013 326.73510265 -33.1774404 323.05520105 C-33.17703168 319.08232892 -33.18807674 315.10948577 -33.19755554 311.1366272 C-33.21415454 303.35671155 -33.2196646 295.57682622 -33.2207803 287.79689434 C-33.22173132 281.47134997 -33.22584433 275.14581557 -33.23218155 268.82027435 C-33.24979118 250.87731436 -33.25902089 232.93437827 -33.2575206 214.99140957 C-33.25744069 214.02449679 -33.25736078 213.05758401 -33.25727844 212.06137085 C-33.25719668 211.09327436 -33.25711492 210.12517787 -33.25703068 209.12774512 C-33.25621792 193.44132038 -33.27535374 177.75499169 -33.30355518 162.06859472 C-33.33229872 145.95320631 -33.34609465 129.83786471 -33.34436762 113.72245002 C-33.34370422 104.67838213 -33.34917486 95.63441494 -33.37072372 86.59037018 C-33.3889549 78.88953422 -33.393267 71.18884459 -33.37970488 63.48799637 C-33.37318489 59.56151586 -33.37302268 55.63531594 -33.39041138 51.7088623 C-33.40619056 48.10870535 -33.40322977 44.50905031 -33.38584311 40.90890524 C-33.38134342 39.0016286 -33.39639252 37.09433609 -33.4123224 35.18712068 C-33.35083123 27.47750746 -32.02567731 21.31797378 -28.88667297 14.26742554 C-28.22667297 14.26742554 -27.56667297 14.26742554 -26.88667297 14.26742554 C-26.22667297 12.61742554 -25.56667297 10.96742554 -24.88667297 9.26742554 C-24.22667297 9.26742554 -23.56667297 9.26742554 -22.88667297 9.26742554 C-22.88667297 8.60742554 -22.88667297 7.94742554 -22.88667297 7.26742554 C-21.5381153 6.46624161 -20.18245554 5.67700946 -18.82417297 4.89242554 C-18.07007141 4.45156616 -17.31596985 4.01070679 -16.53901672 3.55648804 C-11.11791728 0.9217858 -5.99040622 0.01719257 0 0 Z M-19.88667297 323.26742554 C-21.97307036 342.89763656 -21.97307036 342.89763656 -15.23823547 360.19320679 C-14.66846985 360.65082397 -14.09870422 361.10844116 -13.51167297 361.57992554 C-12.9470636 362.05043335 -12.38245422 362.52094116 -11.80073547 363.00570679 C-7.40285797 365.90471584 -3.59997574 366.51953797 1.62109375 366.53485107 C3.59559509 366.54764603 3.59559509 366.54764603 5.60998535 366.56069946 C7.0620271 366.56000049 8.51406875 366.55907745 9.96611023 366.55795288 C11.50064928 366.56393957 13.03518532 366.57074545 14.56971741 366.57830811 C18.73306498 366.59596194 22.89633031 366.60066325 27.05971169 366.60193968 C29.66274318 366.60336229 32.26575383 366.607634 34.86878014 366.61293411 C43.9554362 366.631433 53.04203362 366.63960498 62.12870789 366.63803101 C70.5896742 366.63682994 79.05038529 366.65792572 87.51128703 366.68951833 C94.78280245 366.71569917 102.05423461 366.72639753 109.32579678 366.72512019 C113.66547349 366.72461104 118.00492337 366.73026762 122.34455299 366.75147629 C126.42814613 366.77088902 130.5112968 366.77096266 134.59490585 366.75644302 C136.0896221 366.7543575 137.58436627 366.75904053 139.07903481 366.77116394 C151.27811673 366.89887908 151.27811673 366.89887908 161.61970997 360.89090538 C171.0585973 350.55639849 167.11332703 336.46038288 167.11332703 323.26742554 C105.40332703 323.26742554 43.69332703 323.26742554 -19.88667297 323.26742554 Z " fill="#726AF6" transform="translate(104.88667297363281,59.732574462890625)"/>
<path d="M0 0 C1.09054687 0.02320313 2.18109375 0.04640625 3.3046875 0.0703125 C4.40039062 0.08835938 5.49609375 0.10640625 6.625 0.125 C7.88957031 0.15980469 7.88957031 0.15980469 9.1796875 0.1953125 C9.22867188 1.45988281 9.27765625 2.72445312 9.328125 4.02734375 C9.4031613 5.68752197 9.47870877 7.34767714 9.5546875 9.0078125 C9.585625 9.84119141 9.6165625 10.67457031 9.6484375 11.53320312 C9.68710937 12.33564453 9.72578125 13.13808594 9.765625 13.96484375 C9.7970459 14.70323486 9.8284668 15.44162598 9.86083984 16.20239258 C10.08803364 18.50880838 10.08803364 18.50880838 12.1796875 21.1953125 C14.74251492 21.92496616 14.74251492 21.92496616 17.1796875 22.1953125 C17.20656901 23.84105816 17.22602873 25.48692663 17.2421875 27.1328125 C17.25378906 28.04933594 17.26539063 28.96585938 17.27734375 29.91015625 C17.1796875 32.1953125 17.1796875 32.1953125 16.1796875 33.1953125 C14.66040712 33.26711214 13.13801268 33.27923257 11.6171875 33.2578125 C10.79089844 33.24878906 9.96460938 33.23976562 9.11328125 33.23046875 C8.47519531 33.21886719 7.83710938 33.20726562 7.1796875 33.1953125 C7.1796875 35.8353125 7.1796875 38.4753125 7.1796875 41.1953125 C8.4584375 41.1540625 9.7371875 41.1128125 11.0546875 41.0703125 C13.234375 41 13.234375 41 15.1796875 41.1953125 C17.1796875 43.1953125 17.1796875 43.1953125 17.41015625 45.32421875 C17.39597656 46.12730469 17.38179688 46.93039063 17.3671875 47.7578125 C17.36074219 48.56347656 17.35429687 49.36914062 17.34765625 50.19921875 C17.1796875 52.1953125 17.1796875 52.1953125 16.1796875 53.1953125 C13.50909899 53.33646411 10.85536512 53.23778357 8.1796875 53.1953125 C8.1796875 55.8353125 8.1796875 58.4753125 8.1796875 61.1953125 C9.2934375 61.3190625 10.4071875 61.4428125 11.5546875 61.5703125 C15.1796875 62.1953125 15.1796875 62.1953125 17.1796875 64.1953125 C17.74488753 66.85068622 17.91756948 69.48675963 18.1796875 72.1953125 C20.59614532 72.36218698 20.59614532 72.36218698 23.1796875 72.1953125 C25.86248723 69.51251277 26.19426696 66.80852116 27.1796875 63.1953125 C28.1796875 62.1953125 28.1796875 62.1953125 31.6171875 62.0703125 C35.1796875 62.1953125 35.1796875 62.1953125 37.1796875 63.1953125 C37.1796875 65.8353125 37.1796875 68.4753125 37.1796875 71.1953125 C37.8396875 71.1953125 38.4996875 71.1953125 39.1796875 71.1953125 C39.1796875 71.8553125 39.1796875 72.5153125 39.1796875 73.1953125 C41.1596875 73.1953125 43.1396875 73.1953125 45.1796875 73.1953125 C45.30085937 72.48503906 45.42203125 71.77476562 45.546875 71.04296875 C45.79824219 69.66431641 45.79824219 69.66431641 46.0546875 68.2578125 C46.29832031 66.88302734 46.29832031 66.88302734 46.546875 65.48046875 C46.86011719 64.34931641 46.86011719 64.34931641 47.1796875 63.1953125 C49.45041829 62.0599471 50.72252029 62.06638838 53.2421875 62.0625 C54.03882813 62.06121094 54.83546875 62.05992187 55.65625 62.05859375 C56.90535156 62.06439453 56.90535156 62.06439453 58.1796875 62.0703125 C59.01242187 62.06644531 59.84515625 62.06257813 60.703125 62.05859375 C61.49976563 62.05988281 62.29640625 62.06117188 63.1171875 62.0625 C63.84808594 62.06362793 64.57898438 62.06475586 65.33203125 62.06591797 C67.1796875 62.1953125 67.1796875 62.1953125 69.1796875 63.1953125 C69.1796875 65.8353125 69.1796875 68.4753125 69.1796875 71.1953125 C72.8096875 71.8553125 76.4396875 72.5153125 80.1796875 73.1953125 C80.1796875 80.1253125 80.1796875 87.0553125 80.1796875 94.1953125 C75.2296875 94.6903125 75.2296875 94.6903125 70.1796875 95.1953125 C69.8496875 97.8353125 69.5196875 100.4753125 69.1796875 103.1953125 C70.7575 102.793125 70.7575 102.793125 72.3671875 102.3828125 C76.1796875 102.1953125 76.1796875 102.1953125 78.91796875 104.171875 C81.79580734 108.01893384 81.66700567 110.81936688 81.1796875 115.3828125 C81.13457031 116.10662109 81.08945312 116.83042969 81.04296875 117.57617188 C80.8671875 119.67578125 80.8671875 119.67578125 80.1796875 123.1953125 C76.73518013 125.49165074 74.24156467 125.73547735 70.1796875 126.1953125 C70.1796875 128.1753125 70.1796875 130.1553125 70.1796875 132.1953125 C71.2728125 132.3190625 72.3659375 132.4428125 73.4921875 132.5703125 C77.1796875 133.1953125 77.1796875 133.1953125 80.1796875 135.1953125 C80.47265625 137.359375 80.47265625 137.359375 80.3671875 139.8203125 C80.32658203 141.04621094 80.32658203 141.04621094 80.28515625 142.296875 C80.25035156 142.92335938 80.21554687 143.54984375 80.1796875 144.1953125 C78.1796875 145.1953125 78.1796875 145.1953125 75.1796875 145.1328125 C72.06201536 144.85150119 72.06201536 144.85150119 70.1796875 147.1953125 C69.78204487 149.18352563 69.44193401 151.18475589 69.1796875 153.1953125 C69.80617188 153.25589844 70.43265625 153.31648437 71.078125 153.37890625 C71.89539063 153.46269531 72.71265625 153.54648437 73.5546875 153.6328125 C74.77285156 153.75462891 74.77285156 153.75462891 76.015625 153.87890625 C78.1796875 154.1953125 78.1796875 154.1953125 80.1796875 155.1953125 C80.375 161.25 80.375 161.25 80.1796875 163.1953125 C77.4163141 165.9586859 75.52421307 165.48381502 71.75195312 165.51757812 C70.92373047 165.51435547 70.09550781 165.51113281 69.2421875 165.5078125 C68.41783203 165.52392578 67.59347656 165.54003906 66.74414062 165.55664062 C65.55401367 165.55760742 65.55401367 165.55760742 64.33984375 165.55859375 C63.25135132 165.56306519 63.25135132 165.56306519 62.14086914 165.56762695 C59.59271113 165.08387979 58.71831657 164.25790072 57.1796875 162.1953125 C56.80324372 158.9484849 56.69529084 155.81755212 56.65234375 152.55664062 C56.592517 150.76359759 56.39433409 148.97646646 56.1796875 147.1953125 C53.46419596 144.88859335 53.46419596 144.88859335 50.9921875 145.5703125 C50.3940625 145.7765625 49.7959375 145.9828125 49.1796875 146.1953125 C49.10621094 148.00128906 49.10621094 148.00128906 49.03125 149.84375 C48.95622407 151.41929448 48.88067617 152.99481416 48.8046875 154.5703125 C48.77375 155.364375 48.7428125 156.1584375 48.7109375 156.9765625 C48.40625 162.96875 48.40625 162.96875 46.1796875 165.1953125 C43.796875 165.390625 43.796875 165.390625 41.0546875 165.3203125 C40.14460938 165.30226563 39.23453125 165.28421875 38.296875 165.265625 C37.59820312 165.24242187 36.89953125 165.21921875 36.1796875 165.1953125 C36.1796875 162.2253125 36.1796875 159.2553125 36.1796875 156.1953125 C33.5396875 156.1953125 30.8996875 156.1953125 28.1796875 156.1953125 C28.1796875 159.1653125 28.1796875 162.1353125 28.1796875 165.1953125 C17.2896875 165.1953125 6.3996875 165.1953125 -4.8203125 165.1953125 C-5.1503125 158.9253125 -5.4803125 152.6553125 -5.8203125 146.1953125 C-8.7903125 145.2053125 -11.7603125 144.2153125 -14.8203125 143.1953125 C-16.04350116 139.52574653 -16.05147374 136.07210247 -16.13671875 132.24609375 C-16.1678904 131.08716866 -16.1678904 131.08716866 -16.19969177 129.90483093 C-16.26502288 127.4392477 -16.32399565 124.97355889 -16.3828125 122.5078125 C-16.42601337 120.83527559 -16.46962816 119.16274931 -16.51367188 117.49023438 C-16.6206874 113.392035 -16.72200107 109.29372954 -16.8203125 105.1953125 C-19.4603125 104.8653125 -22.1003125 104.5353125 -24.8203125 104.1953125 C-25.04817708 102.14453125 -25.27604167 100.09375 -25.50390625 98.04296875 C-25.63917864 96.18391021 -25.63917864 96.18391021 -26.8203125 95.1953125 C-28.16778334 94.96456168 -29.52408815 94.78378187 -30.8828125 94.6328125 C-32.1821875 94.4884375 -33.4815625 94.3440625 -34.8203125 94.1953125 C-35.8103125 89.2453125 -35.8103125 89.2453125 -36.8203125 84.1953125 C-44.7403125 84.6903125 -44.7403125 84.6903125 -52.8203125 85.1953125 C-53.1503125 88.1653125 -53.4803125 91.1353125 -53.8203125 94.1953125 C-64.3803125 94.1953125 -74.9403125 94.1953125 -85.8203125 94.1953125 C-85.8203125 90.2353125 -85.8203125 86.2753125 -85.8203125 82.1953125 C-79.5503125 81.8653125 -73.2803125 81.5353125 -66.8203125 81.1953125 C-66.4903125 78.5553125 -66.1603125 75.9153125 -65.8203125 73.1953125 C-42.44343014 71.70706828 -42.44343014 71.70706828 -34.8203125 73.1953125 C-32.85208364 75.16354136 -33.15782869 78.54339959 -32.8203125 81.1953125 C-30.5103125 81.1953125 -28.2003125 81.1953125 -25.8203125 81.1953125 C-25.4903125 78.5553125 -25.1603125 75.9153125 -24.8203125 73.1953125 C-23.7065625 73.0921875 -22.5928125 72.9890625 -21.4453125 72.8828125 C-20.2490625 72.6559375 -19.0528125 72.4290625 -17.8203125 72.1953125 C-15.63055477 68.91067591 -14.82224687 65.98834975 -13.8203125 62.1953125 C-9.3653125 61.7003125 -9.3653125 61.7003125 -4.8203125 61.1953125 C-4.93400461 58.73597259 -5.06073901 56.2785216 -5.1953125 53.8203125 C-5.22625 53.12164062 -5.2571875 52.42296875 -5.2890625 51.703125 C-5.41530748 47.49345423 -5.41530748 47.49345423 -7.8203125 44.1953125 C-10.13796979 43.47603955 -12.47127124 42.8043232 -14.8203125 42.1953125 C-15.9453125 35.5703125 -15.9453125 35.5703125 -14.8203125 32.1953125 C-13.0078125 31.53515625 -13.0078125 31.53515625 -10.8203125 31.1328125 C-8.67975953 30.76830377 -8.67975953 30.76830377 -6.8203125 30.1953125 C-5.48321423 27.52111596 -5.64135176 25.37373515 -5.57421875 22.3828125 C-5.52491211 20.64644531 -5.52491211 20.64644531 -5.47460938 18.875 C-5.41341381 16.42196928 -5.35612171 13.96883808 -5.30273438 11.515625 C-5.26857422 10.35804688 -5.23441406 9.20046875 -5.19921875 8.0078125 C-5.16163452 6.40873047 -5.16163452 6.40873047 -5.12329102 4.77734375 C-4.68312894 1.02621233 -3.7470636 0.25949194 0 0 Z M-13.8203125 75.1953125 C-13.97380386 77.66888487 -14.05191135 80.09535769 -14.0703125 82.5703125 C-14.0909375 83.25609375 -14.1115625 83.941875 -14.1328125 84.6484375 C-14.15476166 87.46890434 -14.12220901 89.66380457 -12.7109375 92.1484375 C-9.89167605 93.70951615 -7.51971795 93.5919301 -4.3203125 93.5703125 C-3.175625 93.57804687 -2.0309375 93.58578125 -0.8515625 93.59375 C2.15076212 93.44219899 2.15076212 93.44219899 4.0703125 91.8359375 C5.61463322 89.55208291 5.46318699 87.88855766 5.1796875 85.1953125 C3.59696149 83.61258649 1.79934747 83.84795503 -0.3828125 83.6328125 C-1.20910156 83.54902344 -2.03539062 83.46523437 -2.88671875 83.37890625 C-3.52480469 83.31832031 -4.16289062 83.25773437 -4.8203125 83.1953125 C-4.77148438 80.11914062 -4.77148438 80.11914062 -4.72265625 77.04296875 C-4.61470066 75.17799109 -4.61470066 75.17799109 -5.8203125 74.1953125 C-10.136565 73.65265137 -10.136565 73.65265137 -13.8203125 75.1953125 Z M7.1796875 74.1953125 C7.13727027 76.52826025 7.13875813 78.86233817 7.1796875 81.1953125 C8.35687735 82.59964186 8.35687735 82.59964186 11.6796875 82.3203125 C15.00249765 82.59964186 15.00249765 82.59964186 16.1796875 81.1953125 C16.22061687 78.86233817 16.22210473 76.52826025 16.1796875 74.1953125 C13.2096875 74.1953125 10.2396875 74.1953125 7.1796875 74.1953125 Z M28.1796875 84.1953125 C28.0353125 85.4946875 27.8909375 86.7940625 27.7421875 88.1328125 C27.3046875 92.0703125 27.3046875 92.0703125 26.1796875 93.1953125 C23.52505629 93.64991108 20.85779612 93.89774488 18.1796875 94.1953125 C17.8496875 96.5053125 17.5196875 98.8153125 17.1796875 101.1953125 C20.46432409 103.38507023 23.38665025 104.19337813 27.1796875 105.1953125 C27.3034375 106.3090625 27.4271875 107.4228125 27.5546875 108.5703125 C27.8262688 112.22634927 27.8262688 112.22634927 30.1796875 114.1953125 C33.27895569 113.87332284 33.27895569 113.87332284 36.1796875 113.1953125 C36.2828125 111.9165625 36.3859375 110.6378125 36.4921875 109.3203125 C36.66796875 107.140625 36.66796875 107.140625 37.1796875 105.1953125 C40.1796875 103.1953125 40.1796875 103.1953125 43.3046875 103.5078125 C46.1796875 104.1953125 46.1796875 104.1953125 47.1796875 105.1953125 C47.26620361 106.61101373 47.28673654 108.0309075 47.27734375 109.44921875 C47.27412109 110.30322266 47.27089844 111.15722656 47.26757812 112.03710938 C47.25919922 112.93494141 47.25082031 113.83277344 47.2421875 114.7578125 C47.23767578 115.65951172 47.23316406 116.56121094 47.22851562 117.49023438 C47.21668975 119.72532564 47.2002097 121.96028687 47.1796875 124.1953125 C45.9009375 124.3190625 44.6221875 124.4428125 43.3046875 124.5703125 C39.83177814 124.88573649 39.83177814 124.88573649 37.1796875 127.1953125 C37.01281302 129.77885468 37.01281302 129.77885468 37.1796875 132.1953125 C40.33818435 133.77456092 43.7162003 133.33847764 47.1796875 133.3203125 C47.91703125 133.32417969 48.654375 133.32804687 49.4140625 133.33203125 C53.42690391 133.40948662 53.42690391 133.40948662 57.1796875 132.1953125 C57.5096875 126.5853125 57.8396875 120.9753125 58.1796875 115.1953125 C62.1396875 114.7003125 62.1396875 114.7003125 66.1796875 114.1953125 C68.57731935 111.79768065 68.52249336 110.86257752 68.8046875 107.5703125 C68.9284375 106.1265625 69.0521875 104.6828125 69.1796875 103.1953125 C65.5496875 102.8653125 61.9196875 102.5353125 58.1796875 102.1953125 C58.0353125 101.0609375 57.8909375 99.9265625 57.7421875 98.7578125 C57.56797272 95.38754049 57.56797272 95.38754049 56.1796875 94.1953125 C54.85082677 94.05145146 53.51520163 93.96854962 52.1796875 93.9140625 C50.973125 93.85798828 50.973125 93.85798828 49.7421875 93.80078125 C48.47375 93.74857422 48.47375 93.74857422 47.1796875 93.6953125 C45.51283779 93.62670741 43.84614976 93.55401027 42.1796875 93.4765625 C41.4371875 93.44626953 40.6946875 93.41597656 39.9296875 93.38476562 C38.1796875 93.1953125 38.1796875 93.1953125 37.1796875 92.1953125 C36.72508892 89.54068129 36.47725512 86.87342112 36.1796875 84.1953125 C33.5396875 84.1953125 30.8996875 84.1953125 28.1796875 84.1953125 Z M7.1796875 115.1953125 C6.7517257 117.05840342 6.7517257 117.05840342 6.6171875 119.1953125 C6.27557791 123.09942209 6.27557791 123.09942209 5.1796875 124.1953125 C3.1223958 124.51454742 1.06355229 124.70692602 -1.0078125 124.9140625 C-2.8370658 125.01529293 -2.8370658 125.01529293 -3.8203125 126.1953125 C-3.98697917 129.1953125 -3.98697917 129.1953125 -3.8203125 132.1953125 C-1.58979822 134.42582678 3.28526856 134.58381554 6.1796875 135.1953125 C6.5096875 141.1353125 6.8396875 147.0753125 7.1796875 153.1953125 C10.1496875 153.1953125 13.1196875 153.1953125 16.1796875 153.1953125 C16.1796875 150.5553125 16.1796875 147.9153125 16.1796875 145.1953125 C19.4796875 144.5353125 22.7796875 143.8753125 26.1796875 143.1953125 C26.34649859 140.27879076 26.34649859 140.27879076 26.1796875 137.1953125 C23.41745472 134.43307972 20.97262133 134.61674959 17.1796875 134.1953125 C17.15463135 133.62498291 17.1295752 133.05465332 17.10375977 132.46704102 C16.98812201 129.89705093 16.86525126 127.32745723 16.7421875 124.7578125 C16.70287109 123.85998047 16.66355469 122.96214844 16.62304688 122.03710938 C16.58115234 121.18310547 16.53925781 120.32910156 16.49609375 119.44921875 C16.45943604 118.65845947 16.42277832 117.8677002 16.38500977 117.05297852 C16.37405493 115.18129809 16.37405493 115.18129809 15.1796875 114.1953125 C11.03691875 113.94798113 11.03691875 113.94798113 7.1796875 115.1953125 Z " fill="#252546" transform="translate(315.8203125,161.8046875)"/>
<path d="M0 0 C1.11125244 -0.00938095 2.22250488 -0.0187619 3.36743164 -0.02842712 C5.16748657 -0.01157616 5.16748657 -0.01157616 7.00390625 0.00561523 C8.2355249 0.00416 9.46714355 0.00270477 10.73608398 0.00120544 C14.01002789 0.00329249 17.28320483 0.02435644 20.55700684 0.05218506 C22.56453405 0.06419778 24.57155555 0.06257567 26.57910156 0.05566406 C30.4292715 0.04309576 34.27876103 0.05172876 38.12890625 0.06811523 C39.92896118 0.06371178 39.92896118 0.06371178 41.76538086 0.05921936 C42.8766333 0.07190353 43.98788574 0.08458771 45.1328125 0.09765625 C46.11193604 0.10305923 47.09105957 0.10846222 48.09985352 0.11402893 C50.56640625 0.50170898 50.56640625 0.50170898 52.38174438 1.66915894 C54.05090816 4.2511836 53.94752645 6.16231777 53.95458984 9.2265625 C53.96404633 10.40110489 53.97350281 11.57564728 53.98324585 12.78578186 C53.97717316 14.05457687 53.97110046 15.32337189 53.96484375 16.63061523 C53.96771393 17.9311937 53.97058411 19.23177216 53.97354126 20.57176208 C53.9779625 23.32317805 53.97153943 26.07430163 53.95751953 28.82568359 C53.94041035 32.35567467 53.95028018 35.88498235 53.96823692 39.41494846 C53.98166934 42.77855924 53.97227223 46.14198503 53.96484375 49.50561523 C53.97395279 51.4118441 53.97395279 51.4118441 53.98324585 53.35658264 C53.97378937 54.52797287 53.96433289 55.6993631 53.95458984 56.90625 C53.95220306 57.94088882 53.94981628 58.97552765 53.94735718 60.04151917 C53.82164337 60.85338181 53.69592957 61.66524445 53.56640625 62.50170898 C50.22750508 64.7276431 49.13810939 64.75762868 45.24047852 64.77636719 C44.15247452 64.7858992 43.06447052 64.79543121 41.9434967 64.80525208 C40.76847092 64.80434067 39.59344513 64.80342926 38.3828125 64.80249023 C37.17576157 64.80677536 35.96871063 64.81106049 34.7250824 64.81547546 C32.17048775 64.82122266 29.61587673 64.82171617 27.0612793 64.81738281 C23.14799127 64.81422439 19.23546004 64.83767313 15.32226562 64.86303711 C12.84244887 64.86531016 10.36263008 64.86601357 7.8828125 64.86499023 C6.70981094 64.87419998 5.53680939 64.88340973 4.32826233 64.89289856 C2.69152809 64.88355537 2.69152809 64.88355537 1.02172852 64.87402344 C-0.41697853 64.87496758 -0.41697853 64.87496758 -1.88475037 64.87593079 C-4.96973989 64.42299188 -6.31066364 63.78875216 -8.43359375 61.50170898 C-8.93479919 59.00392151 -8.93479919 59.00392151 -8.93530273 55.9921875 C-8.94468369 54.864142 -8.95406464 53.7360965 -8.96372986 52.5738678 C-8.95249588 51.35509445 -8.9412619 50.13632111 -8.9296875 48.88061523 C-8.93187035 47.0034507 -8.93187035 47.0034507 -8.93409729 45.08836365 C-8.93243558 42.43905015 -8.92292289 39.79116631 -8.90014648 37.14208984 C-8.87178961 33.75125811 -8.87449026 30.36132753 -8.8872366 26.97042942 C-8.8958771 23.7321002 -8.88074123 20.49391628 -8.8671875 17.25561523 C-8.87012314 16.03886612 -8.87305878 14.822117 -8.87608337 13.5684967 C-8.8633992 12.43729904 -8.85071503 11.30610138 -8.83764648 10.140625 C-8.8322435 9.14595718 -8.82684052 8.15128937 -8.8212738 7.1264801 C-7.97789911 1.41644804 -5.54068444 0.00094032 0 0 Z M3.56640625 14.50170898 C3.47781979 17.24064983 3.45117146 19.95424169 3.46875 22.69311523 C3.47016495 23.51295395 3.4715799 24.33279266 3.47303772 25.17747498 C3.47865336 27.80642281 3.49120846 30.43528672 3.50390625 33.06420898 C3.50891924 34.84220255 3.51348249 36.62019744 3.51757812 38.39819336 C3.52862786 42.76606444 3.54590294 47.13387246 3.56640625 51.50170898 C8.81746067 51.52635826 14.0684817 51.54454466 19.31958008 51.55664062 C21.10734646 51.56168117 22.8951087 51.56851353 24.68286133 51.57714844 C27.24691793 51.58922629 29.81092022 51.59493993 32.375 51.59936523 C33.58125282 51.60710716 33.58125282 51.60710716 34.81187439 51.61500549 C36.7304234 51.61520113 38.64885993 51.56372881 40.56640625 51.50170898 C42.35471073 49.7134045 41.69489336 47.30589747 41.70535278 44.92529297 C41.70332855 44.14613525 41.70130432 43.36697754 41.69921875 42.56420898 C41.70017548 41.76893799 41.7011322 40.97366699 41.70211792 40.15429688 C41.70279968 38.46964438 41.70094568 36.78498927 41.69677734 35.1003418 C41.691429 32.51271702 41.69672244 29.92526583 41.703125 27.33764648 C41.70246422 25.7048336 41.70118305 24.07202082 41.69921875 22.43920898 C41.70124298 21.66005127 41.70326721 20.88089355 41.70535278 20.078125 C42.02480205 16.49376698 42.02480205 16.49376698 40.56640625 13.50170898 C37.91184432 13.40075334 35.28385449 13.361999 32.62890625 13.36889648 C31.83363525 13.36793976 31.03836426 13.36698303 30.21899414 13.36599731 C28.53434165 13.36531555 26.84968654 13.36716956 25.16503906 13.37133789 C22.57741428 13.37668623 19.98996309 13.37139279 17.40234375 13.36499023 C15.76953086 13.36565102 14.13671809 13.36693218 12.50390625 13.36889648 C11.72474854 13.36687225 10.94559082 13.36484802 10.14282227 13.36276245 C6.55846425 13.04331319 6.55846425 13.04331319 3.56640625 14.50170898 Z " fill="#262645" transform="translate(238.43359375,161.498291015625)"/>
<path d="M0 0 C1.11125244 -0.00945648 2.22250488 -0.01891296 3.36743164 -0.02865601 C5.16748657 -0.01954697 5.16748657 -0.01954697 7.00390625 -0.01025391 C8.2355249 -0.01312408 9.46714355 -0.01599426 10.73608398 -0.01895142 C14.00988582 -0.02151799 17.28326162 -0.00943251 20.55700684 0.00732422 C22.5645101 0.01317806 24.57161994 0.00734564 26.57910156 -0.00292969 C30.4292232 -0.02142621 34.27876059 -0.01922633 38.12890625 -0.01025391 C39.32894287 -0.0163266 40.52897949 -0.02239929 41.76538086 -0.02865601 C43.43225952 -0.01447128 43.43225952 -0.01447128 45.1328125 0 C46.6014978 0.00358017 46.6014978 0.00358017 48.09985352 0.00723267 C50.56640625 0.38818359 50.56640625 0.38818359 52.38273621 1.56037903 C54.03979565 4.11918402 53.94060007 5.9826364 53.9387207 9.02124023 C53.94806389 10.75302269 53.94806389 10.75302269 53.95759583 12.51979065 C53.94838608 13.76671188 53.93917633 15.01363312 53.9296875 16.29833984 C53.93043526 18.21591347 53.93043526 18.21591347 53.93119812 20.17222595 C53.92885567 22.87676006 53.92069007 25.58051357 53.90258789 28.28491211 C53.8798778 31.75426 53.87936115 35.2231727 53.88610554 38.6925745 C53.89024615 41.99869588 53.87827782 45.30473963 53.8671875 48.61083984 C53.86855461 50.48425804 53.86855461 50.48425804 53.86994934 52.39552307 C53.86041733 53.54689255 53.85088531 54.69826202 53.84106445 55.88452148 C53.83645706 56.90139542 53.83184967 57.91826935 53.82710266 58.96595764 C53.56640625 61.38818359 53.56640625 61.38818359 51.56640625 63.38818359 C49.13745117 63.64215088 49.13745117 63.64215088 46.046875 63.64697266 C44.31497925 63.65642914 44.31497925 63.65642914 42.5480957 63.66607666 C41.29601318 63.6620282 40.04393066 63.65797974 38.75390625 63.65380859 C37.47410889 63.65572205 36.19431152 63.6576355 34.87573242 63.65960693 C32.16547832 63.66255741 29.45535598 63.65826315 26.74511719 63.64892578 C23.26791394 63.63753112 19.79101943 63.64409102 16.31382751 63.65607071 C13.00216221 63.66502784 9.69058034 63.65875995 6.37890625 63.65380859 C4.50078247 63.65988129 4.50078247 63.65988129 2.5847168 63.66607666 C1.43011963 63.65977234 0.27552246 63.65346802 -0.9140625 63.64697266 C-1.93395264 63.64538147 -2.95384277 63.64379028 -4.00463867 63.64215088 C-6.43359375 63.38818359 -6.43359375 63.38818359 -8.43359375 61.38818359 C-8.69429016 58.96595764 -8.69429016 58.96595764 -8.70825195 55.88452148 C-8.71778397 54.73315201 -8.72731598 53.58178253 -8.73713684 52.39552307 C-8.73622543 51.14657761 -8.73531403 49.89763214 -8.734375 48.61083984 C-8.73866013 47.33341415 -8.74294525 46.05598846 -8.74736023 44.73985291 C-8.75311287 42.03370481 -8.75452816 39.32793697 -8.74926758 36.62182617 C-8.74347414 33.15358866 -8.76039783 29.68588541 -8.78361225 26.21773624 C-8.80188618 22.91127458 -8.79816437 19.60484294 -8.796875 16.29833984 C-8.80608475 15.05141861 -8.81529449 13.80449738 -8.82478333 12.51979065 C-8.81855453 11.36526901 -8.81232574 10.21074738 -8.8059082 9.02124023 C-8.80653763 8.00357071 -8.80716705 6.98590118 -8.80781555 5.93739319 C-8.43359375 3.38818359 -8.43359375 3.38818359 -7.24992371 1.56037903 C-4.74856513 -0.05390977 -2.96905162 0.00723757 0 0 Z M3.56640625 13.38818359 C3.56640625 25.92818359 3.56640625 38.46818359 3.56640625 51.38818359 C16.10640625 51.38818359 28.64640625 51.38818359 41.56640625 51.38818359 C41.56640625 38.84818359 41.56640625 26.30818359 41.56640625 13.38818359 C29.02640625 13.38818359 16.48640625 13.38818359 3.56640625 13.38818359 Z " fill="#2D2D4D" transform="translate(238.43359375,263.61181640625)"/>
<path d="M0 0 C0.92783798 -0.0127597 1.85567596 -0.02551941 2.81163025 -0.03866577 C4.31168358 -0.04200424 4.31168358 -0.04200424 5.84204102 -0.04541016 C6.87152359 -0.05206696 7.90100616 -0.05872375 8.96168518 -0.06558228 C11.13964042 -0.07571052 13.3176267 -0.08039924 15.49560547 -0.08007812 C18.82970219 -0.08445135 22.16247545 -0.12077023 25.49633789 -0.15869141 C27.61156773 -0.16455945 29.72680387 -0.16852893 31.84204102 -0.17041016 C32.84005234 -0.18478119 33.83806366 -0.19915222 34.86631775 -0.21395874 C38.74025408 -0.18835446 41.5731703 -0.14311306 45.04003906 1.65673828 C47.26107879 5.93159583 46.93747267 10.14879184 46.86938477 14.89208984 C46.8680101 16.4413063 46.8680101 16.4413063 46.86660767 18.02182007 C46.86057087 20.2022563 46.84482262 22.38268421 46.82006836 24.56298828 C46.7835079 27.9099767 46.77904936 31.25585991 46.77954102 34.60302734 C46.76971202 36.72022446 46.75805597 38.83741405 46.74438477 40.95458984 C46.74215912 41.95978668 46.73993347 42.96498352 46.73764038 44.00064087 C46.72488068 44.92855438 46.71212097 45.8564679 46.69897461 46.8125 C46.68753922 48.04016586 46.68753922 48.04016586 46.6758728 49.29263306 C46.40844727 51.29052734 46.40844727 51.29052734 44.40844727 53.29052734 C42.23178101 53.53103638 42.23178101 53.53103638 39.49975586 53.51757812 C38.47884857 53.51742706 37.45794128 53.517276 36.40609741 53.51712036 C34.74823715 53.50163651 34.74823715 53.50163651 33.05688477 53.48583984 C31.92771637 53.48300995 30.79854797 53.48018005 29.63516235 53.4772644 C26.01781756 53.46604197 22.40071761 53.44093356 18.78344727 53.41552734 C16.33553417 53.40550022 13.8876172 53.3963739 11.43969727 53.38818359 C5.42919663 53.36609591 -0.58116057 53.33259809 -6.59155273 53.29052734 C-11.87448832 42.72465618 -8.79782525 22.88798072 -8.34155273 11.16552734 C-8.31528809 10.29049561 -8.28902344 9.41546387 -8.26196289 8.51391602 C-8.13842773 6.09521484 -8.13842773 6.09521484 -7.59155273 2.29052734 C-4.42707705 0.18087689 -3.62390662 0.0338476 0 0 Z M3.40844727 14.29052734 C3.32086724 16.29017716 3.3014815 18.29288844 3.31079102 20.29443359 C3.31328857 21.38828369 3.31578613 22.48213379 3.31835938 23.60913086 C3.32746338 25.0096167 3.33656738 26.41010254 3.34594727 27.85302734 C3.36657227 32.28740234 3.38719727 36.72177734 3.40844727 41.29052734 C13.63844727 41.29052734 23.86844727 41.29052734 34.40844727 41.29052734 C34.42907227 36.85615234 34.44969727 32.42177734 34.47094727 27.85302734 C34.48005127 26.4525415 34.48915527 25.05205566 34.49853516 23.60913086 C34.50103271 22.51528076 34.50353027 21.42143066 34.50610352 20.29443359 C34.51134033 19.16851807 34.51657715 18.04260254 34.52197266 16.88256836 C34.70390175 14.36081863 34.70390175 14.36081863 33.40844727 13.29052734 C31.27491553 13.19049445 29.13807185 13.15971687 27.00219727 13.15771484 C25.05120117 13.15578125 25.05120117 13.15578125 23.06079102 13.15380859 C22.03961182 13.15695068 22.03961182 13.15695068 20.99780273 13.16015625 C18.91716212 13.16550494 16.83673738 13.16021054 14.75610352 13.15380859 C13.45543945 13.15509766 12.15477539 13.15638672 10.81469727 13.15771484 C9.61135742 13.15884277 8.40801758 13.1599707 7.16821289 13.16113281 C4.49860244 12.97596758 4.49860244 12.97596758 3.40844727 14.29052734 Z " fill="#2A2A49" transform="translate(349.591552734375,161.70947265625)"/>
<path d="M0 0 C2.64 0 5.28 0 8 0 C8 0.33 8 0.66 8 1 C36.84912921 2.08852775 65.68844479 2.15648426 94.55517578 2.13037109 C101.03948976 2.12458881 107.52376311 2.12802334 114.00807571 2.13394356 C119.05412098 2.13755403 124.10015654 2.1364098 129.14620209 2.13381577 C131.53992467 2.13315225 133.93364816 2.13395464 136.32736969 2.13629532 C139.64828352 2.13883921 142.96913024 2.1349606 146.29003906 2.12939453 C147.74700951 2.13243088 147.74700951 2.13243088 149.2334137 2.13552856 C154.58125232 2.118953 159.70805648 1.78158696 165 1 C165 1.99 165 2.98 165 4 C164.34 4 163.68 4 163 4 C163.33 5.32 163.66 6.64 164 8 C163.34 8 162.68 8 162 8 C162 8.99 162 9.98 162 11 C108.54 11 55.08 11 0 11 C0 10.34 0 9.68 0 9 C-0.99 8.67 -1.98 8.34 -3 8 C-1.125 2.25 -1.125 2.25 0 0 Z " fill="#6B60F8" transform="translate(94,426)"/>
<path d="M0 0 C3.4375 0.8125 3.4375 0.8125 5.4375 2.8125 C5.61303419 5.89774939 5.66872797 8.89214202 5.6328125 11.9765625 C5.6299826 12.88377045 5.62715271 13.79097839 5.62423706 14.72567749 C5.61302153 17.62975123 5.58791463 20.53351912 5.5625 23.4375 C5.55247197 25.40364139 5.54334581 27.3697876 5.53515625 29.3359375 C5.51307772 34.16157659 5.47853865 38.9869864 5.4375 43.8125 C6.44651367 43.8218457 7.45552734 43.83119141 8.49511719 43.84082031 C12.24523776 43.8807477 15.99454029 43.94651281 19.74414062 44.02001953 C21.36577837 44.04821347 22.98755313 44.06943594 24.609375 44.08349609 C26.94342105 44.10494872 29.27582261 44.15160575 31.609375 44.203125 C32.33243835 44.20435364 33.05550171 44.20558228 33.80047607 44.20684814 C37.22540969 44.30610542 39.14202849 44.59376531 41.92675781 46.65527344 C43.4375 48.8125 43.4375 48.8125 43.4375 51.9375 C42.4375 54.8125 42.4375 54.8125 40.85327148 55.97558594 C37.50663297 57.13498734 34.28422155 57.09815083 30.78515625 57.078125 C30.04800888 57.08003845 29.31086151 57.0819519 28.55137634 57.08392334 C26.99559182 57.0852815 25.43979582 57.08161083 23.8840332 57.07324219 C21.51162034 57.06255236 19.13996729 57.07314171 16.76757812 57.0859375 C15.25260251 57.08461554 13.73762736 57.08205239 12.22265625 57.078125 C11.5173024 57.08217346 10.81194855 57.08622192 10.08522034 57.09039307 C6.09792937 57.05272972 3.02973191 56.56701802 -0.5625 54.8125 C-0.5625 54.1525 -0.5625 53.4925 -0.5625 52.8125 C-1.2225 52.8125 -1.8825 52.8125 -2.5625 52.8125 C-2.5625 52.1525 -2.5625 51.4925 -2.5625 50.8125 C-3.2225 50.8125 -3.8825 50.8125 -4.5625 50.8125 C-6.24202533 47.86958238 -6.81677515 45.74565102 -6.8371582 42.36694336 C-6.84669022 41.49601547 -6.85622223 40.62508759 -6.86604309 39.72776794 C-6.86513168 38.79537796 -6.86422028 37.86298798 -6.86328125 36.90234375 C-6.86756638 35.93849258 -6.8718515 34.97464142 -6.87626648 33.98158264 C-6.88200332 31.94663274 -6.8825148 29.91166234 -6.87817383 27.87670898 C-6.87500807 24.75794737 -6.89850128 21.64012913 -6.92382812 18.52148438 C-6.92610054 16.54427203 -6.92680488 14.56705713 -6.92578125 12.58984375 C-6.934991 11.65542953 -6.94420074 10.72101532 -6.95368958 9.75828552 C-6.94746078 8.8905098 -6.94123199 8.02273407 -6.93481445 7.12866211 C-6.93544388 6.36573349 -6.9360733 5.60280487 -6.9367218 4.8167572 C-6.12866266 0.48895391 -4.18440352 -0.22023176 0 0 Z " fill="#7361F7" transform="translate(205.5625,302.1875)"/>
<path d="M0 0 C5.841744 -0.35050464 9.8531808 -0.16727335 15 3 C15 3.66 15 4.32 15 5 C15.59554688 5.25265625 16.19109375 5.5053125 16.8046875 5.765625 C19.26973104 7.15166372 20.44981328 8.48718234 22.125 10.75 C22.62257813 11.40484375 23.12015625 12.0596875 23.6328125 12.734375 C26.5488905 17.56673282 27.2523087 22.1131894 27.2746582 27.69213867 C27.28895622 29.65898872 27.28895622 29.65898872 27.30354309 31.66557312 C27.30328175 33.0830386 27.30234511 34.5005041 27.30078125 35.91796875 C27.3046714 37.38194398 27.30900673 38.84591809 27.31376648 40.30989075 C27.32120635 43.36865919 27.32095216 46.42731212 27.31567383 49.48608398 C27.30985952 53.40706654 27.32686764 57.32757973 27.3500185 61.24848461 C27.36473576 64.26734685 27.3656307 67.2860952 27.36250877 70.30498695 C27.36302226 71.75109098 27.36826518 73.19720134 27.37832069 74.64327049 C27.39063745 76.66082537 27.38196819 78.67847555 27.37231445 80.69604492 C27.37294388 81.84376877 27.3735733 82.99149261 27.3742218 84.17399597 C27 87 27 87 25.63298035 88.87055969 C23.28969076 90.4912808 21.78381054 90.41757158 19 90 C17.36779785 88.85334778 17.36779785 88.85334778 16 87 C15.62145996 84.28788757 15.62145996 84.28788757 15.61523438 80.97143555 C15.60512329 79.72972092 15.59501221 78.48800629 15.58459473 77.20866394 C15.58615067 76.54542807 15.5877066 75.88219219 15.58930969 75.19885826 C15.5937917 73.11735183 15.57977672 71.03669397 15.56091309 68.95527649 C15.52412718 64.53269824 15.51042922 60.11020868 15.5 55.6875 C15.48790431 50.57143892 15.46623786 45.45579053 15.41999817 40.33991432 C15.40647569 38.29583439 15.41059079 36.25228241 15.41540527 34.20817566 C15.40529419 32.95700455 15.39518311 31.70583344 15.38476562 30.41674805 C15.38271118 29.3199321 15.38065674 28.22311615 15.37854004 27.09306335 C14.94370125 23.53998103 13.69407598 21.12651313 12 18 C12 17.34 12 16.68 12 16 C11.34 16 10.68 16 10 16 C10 15.34 10 14.68 10 14 C9.236875 13.731875 8.47375 13.46375 7.6875 13.1875 C5.00390337 12.00172475 3.73889105 11.3185214 2 9 C0.8125 5.8125 0.8125 5.8125 0 3 C0.66 3 1.32 3 2 3 C2 2.34 2 1.68 2 1 C1.34 0.67 0.68 0.34 0 0 Z " fill="#7157F9" transform="translate(256,62)"/>
<path d="M0 0 C2.96612116 2.96612116 2.37568352 6.24255122 2.44921875 10.2265625 C2.47095657 11.04820892 2.4926944 11.86985535 2.51509094 12.71640015 C2.55906232 14.45974814 2.5982497 16.2032223 2.63305664 17.94677734 C2.68686695 20.59385834 2.75720599 23.24010154 2.83007812 25.88671875 C2.87078532 27.58330978 2.91052878 29.27992427 2.94921875 30.9765625 C2.96997971 31.76020172 2.99074066 32.54384094 3.01213074 33.35122681 C3.26901234 47.54523928 3.26901234 47.54523928 -0.75 51.875 C-1.23984375 52.42929687 -1.7296875 52.98359375 -2.234375 53.5546875 C-6.61587066 57.14131005 -11.32887647 57.31872096 -16.78515625 57.3359375 C-17.52326035 57.3425943 -18.26136444 57.3492511 -19.02183533 57.35610962 C-20.57581095 57.36619737 -22.12982956 57.37092784 -23.68383789 57.37060547 C-26.05882721 57.37499321 -28.43197786 57.41138922 -30.80664062 57.44921875 C-32.32030617 57.45508493 -33.8339805 57.45905565 -35.34765625 57.4609375 C-36.40872337 57.48249405 -36.40872337 57.48249405 -37.4912262 57.50448608 C-40.9072121 57.47284292 -42.69815565 57.23050151 -45.44702148 55.13134766 C-47 53 -47 53 -47.5 50.4375 C-47 48 -47 48 -45.4284668 46.37744141 C-42.09022012 44.48396722 -39.4703958 44.581174 -35.64453125 44.5234375 C-34.94228928 44.50785797 -34.2400473 44.49227844 -33.51652527 44.47622681 C-31.28186074 44.42883053 -29.04750741 44.40097448 -26.8125 44.375 C-24.56699831 44.33853069 -22.32167396 44.29797421 -20.07633972 44.25234985 C-18.04688505 44.21269329 -16.01720849 44.18492844 -13.98754883 44.15771484 C-11.11720176 44.34015068 -11.11720176 44.34015068 -10 43 C-9.87677918 40.07970481 -9.81385571 37.1794098 -9.7890625 34.2578125 C-9.76099405 32.45181385 -9.73232959 30.64582438 -9.703125 28.83984375 C-9.66183207 25.98030856 -9.62496266 23.12094482 -9.59863281 20.26123047 C-9.57107501 17.50972667 -9.52520206 14.75901342 -9.4765625 12.0078125 C-9.47330963 11.15148224 -9.47005676 10.29515198 -9.46670532 9.41287231 C-9.45013885 8.61549652 -9.43357239 7.81812073 -9.41650391 6.99658203 C-9.40841705 6.29566437 -9.4003302 5.5947467 -9.39199829 4.87258911 C-8.31605969 -0.26720602 -4.60421771 -0.4898104 0 0 Z " fill="#7960F6" transform="translate(424,302)"/>
<path d="M0 0 C1.32180511 5.28722045 1.32180511 5.28722045 0.01635742 8.17871094 C-3.00709821 10.90966856 -6.08379592 10.49701397 -9.94921875 10.390625 C-10.72183548 10.38496521 -11.49445221 10.37930542 -12.29048157 10.37347412 C-14.75678629 10.35109327 -17.22163492 10.30089703 -19.6875 10.25 C-21.36000505 10.22993706 -23.03253289 10.21168592 -24.70507812 10.1953125 C-28.80394596 10.15122331 -32.90172617 10.08218675 -37 10 C-36.97643433 11.56681519 -36.97643433 11.56681519 -36.95239258 13.1652832 C-36.89810303 17.03971652 -36.8636537 20.91411619 -36.83520508 24.78881836 C-36.82011616 26.4659592 -36.79964252 28.14306057 -36.77368164 29.82006836 C-36.73730189 32.23040504 -36.72027514 34.64022019 -36.70703125 37.05078125 C-36.69154739 37.80087967 -36.67606354 38.55097809 -36.66011047 39.32380676 C-36.65843821 44.49351606 -36.65843821 44.49351606 -38.33081055 46.97338867 C-40.96089967 48.59098773 -42.99332528 48.37583434 -46 48 C-47.66479492 46.99194336 -47.66479492 46.99194336 -49 45 C-49.28623564 42.17574577 -49.39655674 39.5767923 -49.36328125 36.75390625 C-49.36377975 35.94638412 -49.36427826 35.138862 -49.36479187 34.30686951 C-49.36245233 32.59965555 -49.35273081 30.89243808 -49.33618164 29.18530273 C-49.31261913 26.57569417 -49.31561768 23.96710958 -49.32226562 21.35742188 C-49.31668762 19.69791059 -49.30957697 18.0384036 -49.30078125 16.37890625 C-49.30169266 15.59963272 -49.30260406 14.82035919 -49.30354309 14.01747131 C-49.25386753 10.20903822 -49.14597495 7.22884064 -47 4 C-46.34 4 -45.68 4 -45 4 C-44.67 3.01 -44.34 2.02 -44 1 C-40.50766867 -1.54749931 -36.54298959 -1.37907515 -32.3828125 -1.484375 C-31.6480368 -1.5084845 -30.91326111 -1.53259399 -30.15621948 -1.55743408 C-28.60477284 -1.60562933 -27.05317123 -1.64904274 -25.50146484 -1.68798828 C-23.13957213 -1.74961975 -20.77911531 -1.83278035 -18.41796875 -1.91796875 C-16.90628768 -1.96224317 -15.39456893 -2.00525318 -13.8828125 -2.046875 C-13.18261993 -2.07279724 -12.48242737 -2.09871948 -11.76101685 -2.12542725 C-7.43246683 -2.21439556 -4.01930897 -1.59833085 0 0 Z " fill="#7764F4" transform="translate(248,134)"/>
<path d="M0 0 C0.82497482 -0.00524185 1.64994965 -0.0104837 2.49992371 -0.0158844 C4.24578731 -0.02230707 5.99169417 -0.0209644 7.73754883 -0.01245117 C10.39809206 -0.00396961 13.0564674 -0.03265047 15.71679688 -0.06445312 C17.41536394 -0.06606607 19.11393479 -0.06548583 20.8125 -0.0625 C21.60332474 -0.07373398 22.39414948 -0.08496796 23.2089386 -0.09654236 C28.45290192 -0.03100821 31.45267103 0.95632934 35.60546875 4.43359375 C37.65061002 7.50130566 37.85374149 8.08927423 37.83251953 11.5378418 C37.83236847 12.35846603 37.83221741 13.17909027 37.83206177 14.02458191 C37.8217392 14.905923 37.81141663 15.7872641 37.80078125 16.6953125 C37.79795135 17.6011055 37.79512146 18.5068985 37.79220581 19.44013977 C37.78100839 22.33392533 37.75590464 25.22740169 37.73046875 28.12109375 C37.72043838 30.08267782 37.71131263 32.04426675 37.703125 34.00585938 C37.68107048 38.81522335 37.64654364 43.62435612 37.60546875 48.43359375 C34.80676848 49.83294388 32.70048083 49.6862478 29.60546875 49.43359375 C27.94604492 48.41479492 27.94604492 48.41479492 26.60546875 46.43359375 C26.27447962 43.71335279 26.11696049 41.2090008 26.09375 38.484375 C26.0757988 37.71175827 26.0578476 36.93914154 26.03935242 36.14311218 C25.98520771 33.67749475 25.95134144 31.21207132 25.91796875 28.74609375 C25.88479923 27.07354069 25.8503099 25.40101324 25.81445312 23.72851562 C25.72947926 19.63034825 25.66268855 15.53223881 25.60546875 11.43359375 C24.55568848 11.4493042 23.5059082 11.46501465 22.42431641 11.48120117 C18.53686163 11.53541994 14.64944038 11.56991415 10.76171875 11.59838867 C9.07774235 11.61349378 7.3938054 11.63397921 5.70996094 11.65991211 C3.29221882 11.69622096 0.87499583 11.71330222 -1.54296875 11.7265625 C-2.29822845 11.74204636 -3.05348816 11.75753021 -3.83163452 11.77348328 C-5.95458984 11.77416992 -5.95458984 11.77416992 -9.39453125 11.43359375 C-11.54955656 8.20105579 -11.8630926 7.18208452 -11.39453125 3.43359375 C-8.82960768 -0.76658661 -4.3868352 -0.01616038 0 0 Z " fill="#7359F3" transform="translate(388.39453125,132.56640625)"/>
<path d="M0 0 C0.93423645 3.01031744 1.04449911 3.86650268 0 7 C1.98 7.495 1.98 7.495 4 8 C3.67 9.32 3.34 10.64 3 12 C3.99 12.495 3.99 12.495 5 13 C4.1875 14.9375 4.1875 14.9375 3 17 C2.01 17.33 1.02 17.66 0 18 C0 18.66 0 19.32 0 20 C-1.20268681 20.65628849 -2.41252554 21.29947505 -3.625 21.9375 C-4.29789063 22.29714844 -4.97078125 22.65679687 -5.6640625 23.02734375 C-10.50827341 25.04441485 -15.49508188 25.12440393 -20.68185425 25.12025452 C-21.32809852 25.12110894 -21.97434279 25.12196337 -22.64017022 25.12284368 C-24.79122952 25.12448208 -26.94220968 25.11900417 -29.09326172 25.11352539 C-30.64092507 25.11324314 -32.18858856 25.113402 -33.73625183 25.1139679 C-37.92792339 25.11425438 -42.11956624 25.1083816 -46.31123114 25.10139394 C-50.69545184 25.09513573 -55.07967323 25.09455465 -59.46389771 25.09336853 C-67.76166536 25.09026249 -76.05941982 25.0820589 -84.35718167 25.07201904 C-93.80574866 25.06083532 -103.25431629 25.05534176 -112.70288825 25.05032361 C-132.13526631 25.03987569 -151.56763209 25.02229032 -171 25 C-171 24.67 -171 24.34 -171 24 C-119.52 24 -68.04 24 -15 24 C-14.67 21.69 -14.34 19.38 -14 17 C-13.34 16.34 -12.68 15.68 -12 15 C-13.23955948 15.16233124 -14.47911896 15.32466248 -15.75624084 15.49191284 C-21.47589977 16.12326882 -27.15099105 16.14020076 -32.90014648 16.12939453 C-34.05938629 16.13114685 -35.2186261 16.13289917 -36.41299438 16.13470459 C-40.23237626 16.13909162 -44.05171143 16.13619288 -47.87109375 16.1328125 C-50.55363522 16.13348722 -53.23617531 16.13445767 -55.91871643 16.13571167 C-61.54648332 16.13752804 -67.17423707 16.13514551 -72.80200195 16.13037109 C-79.23584105 16.12497455 -85.66964821 16.12665936 -92.10348648 16.1321975 C-97.67855324 16.13679835 -103.25361061 16.13734445 -108.82867867 16.13475883 C-112.13479673 16.13322788 -115.44088849 16.13332451 -118.74700737 16.13629532 C-135.85503143 16.1482792 -152.90985959 15.79648086 -170 15 C-169.67 14.34 -169.34 13.68 -169 13 C-168.20854584 12.99853344 -167.41709167 12.99706688 -166.60165405 12.99555588 C-147.32966997 12.95847855 -128.05786702 12.89945152 -108.786026 12.81609726 C-99.46623451 12.77631486 -90.14652736 12.74391831 -80.82666016 12.72900391 C-72.70194871 12.71598325 -64.5774229 12.68900802 -56.45281601 12.64538693 C-52.15222544 12.6227814 -47.85186375 12.60708877 -43.5512085 12.60811615 C-39.49962183 12.6088633 -35.44854095 12.59089067 -31.39708519 12.55883217 C-29.91369116 12.55034424 -28.43024032 12.54857573 -26.94683266 12.55419731 C-18.91316368 12.58057645 -12.81145848 12.49062827 -6 8 C-3.88763157 5.97255548 -3.88763157 5.97255548 -2.5 3.75 C-1.77296875 2.69039063 -1.77296875 2.69039063 -1.03125 1.609375 C-0.6909375 1.07828125 -0.350625 0.5471875 0 0 Z " fill="#9082F5" transform="translate(271,413)"/>
<path d="M0 0 C0.33 0 0.66 0 1 0 C1 93.72 1 187.44 1 284 C93.07 283.505 93.07 283.505 187 283 C187.33 274.09 187.66 265.18 188 256 C188.66 256.33 189.32 256.66 190 257 C189.67 266.57 189.34 276.14 189 286 C164.80042568 286.02312738 140.60085401 286.04098355 116.40127087 286.05181217 C105.16554069 286.05697324 93.92981749 286.06401235 82.6940918 286.07543945 C72.9035262 286.08539205 63.11296566 286.09185481 53.32239515 286.09408849 C48.13613434 286.09539462 42.949888 286.0984743 37.76363182 286.10573006 C32.88574632 286.11249934 28.00788129 286.11461509 23.12999153 286.11310768 C21.33647424 286.1133836 19.54295629 286.11538335 17.74944305 286.11920547 C15.30695087 286.12415686 12.86453672 286.12299289 10.42204285 286.12025452 C9.70706499 286.12316736 8.99208713 286.1260802 8.25544327 286.12908131 C5.21909827 286.11983578 2.90632115 285.96877372 0 285 C0 190.95 0 96.9 0 0 Z " fill="#9696E7" transform="translate(84,87)"/>
<path d="M0 0 C1.16163666 -0.00287018 1.16163666 -0.00287018 2.34674072 -0.00579834 C3.98409348 -0.00715734 5.62145711 -0.00348077 7.25878906 0.00488281 C9.74309054 0.01552844 12.2266593 0.00500831 14.7109375 -0.0078125 C16.30729324 -0.00648972 17.90364853 -0.00392488 19.5 0 C20.23361755 -0.00404846 20.96723511 -0.00809692 21.7230835 -0.01226807 C26.77683223 0.03278144 31.15084901 0.88606166 36.015625 2.265625 C36.765625 5.015625 36.765625 5.015625 37.015625 8.265625 C35.62329102 10.43994141 35.62329102 10.43994141 33.015625 12.265625 C29.85671082 12.84111288 26.74580552 12.77835844 23.54296875 12.7265625 C22.62350967 12.72564606 21.7040506 12.72472961 20.75672913 12.7237854 C18.81587552 12.7177509 16.87503117 12.70200942 14.93432617 12.67724609 C11.96042661 12.64071469 8.98777249 12.63622696 6.01367188 12.63671875 C4.12759338 12.62688828 2.24152333 12.61523159 0.35546875 12.6015625 C-0.53519791 12.59933685 -1.42586456 12.59711121 -2.34352112 12.59481812 C-3.58512245 12.57567856 -3.58512245 12.57567856 -4.85180664 12.55615234 C-5.94290489 12.54471695 -5.94290489 12.54471695 -7.05604553 12.53305054 C-8.984375 12.265625 -8.984375 12.265625 -11.984375 10.265625 C-12.99995088 6.9650034 -13.0936654 5.59349619 -11.984375 2.265625 C-8.41038488 -0.41096098 -4.26959215 -0.02330449 0 0 Z " fill="#6E59FD" transform="translate(165.984375,81.734375)"/>
<path d="M0 0 C6.6 0 13.2 0 20 0 C21.63510979 3.27021959 21.22628299 6.84733751 21.25 10.4375 C21.270625 11.21416016 21.29125 11.99082031 21.3125 12.79101562 C21.35204258 18.52963274 21.35204258 18.52963274 19.70996094 20.72363281 C16.82234732 22.87903601 13.4552936 22.38935262 10 22.3125 C9.27554687 22.31572266 8.55109375 22.31894531 7.8046875 22.32226562 C4.0192971 22.28385299 2.21704106 22.14469404 -1 20 C-1.35644531 18.15234375 -1.35644531 18.15234375 -1.328125 15.9375 C-1.32296875 15.14085937 -1.3178125 14.34421875 -1.3125 13.5234375 C-1.291875 12.69070313 -1.27125 11.85796875 -1.25 11 C-1.24484375 10.16726563 -1.2396875 9.33453125 -1.234375 8.4765625 C-1.15453696 2.30907392 -1.15453696 2.30907392 0 0 Z " fill="#2D2D4C" transform="translate(251,285)"/>
<path d="M0 0 C0.83265381 0.00523682 1.66530762 0.01047363 2.52319336 0.01586914 C3.42231445 0.0190918 4.32143555 0.02231445 5.24780273 0.02563477 C6.66609375 0.03820312 6.66609375 0.03820312 8.11303711 0.05102539 C9.06243164 0.05553711 10.01182617 0.06004883 10.98999023 0.06469727 C13.34356776 0.07652429 15.69702188 0.09300514 18.05053711 0.11352539 C19.6912597 3.39497058 19.19328144 7.01142535 19.17553711 10.61352539 C19.18133789 11.79108398 19.18133789 11.79108398 19.18725586 12.99243164 C19.17719105 18.86021752 19.17719105 18.86021752 18.05053711 21.11352539 C14.73805524 21.14240686 11.42560544 21.16028338 8.11303711 21.17602539 C7.16750977 21.1844043 6.22198242 21.1927832 5.24780273 21.20141602 C3.89912109 21.20625 3.89912109 21.20625 2.52319336 21.21118164 C1.27421265 21.21903687 1.27421265 21.21903687 0 21.22705078 C-1.94946289 21.11352539 -1.94946289 21.11352539 -2.94946289 20.11352539 C-3.0480642 18.71003804 -3.08025226 17.30172062 -3.08227539 15.89477539 C-3.08356445 15.0452832 -3.08485352 14.19579102 -3.08618164 13.32055664 C-3.08231445 12.42723633 -3.07844727 11.53391602 -3.07446289 10.61352539 C-3.07833008 9.72020508 -3.08219727 8.82688477 -3.08618164 7.90649414 C-3.08489258 7.05700195 -3.08360352 6.20750977 -3.08227539 5.33227539 C-3.08114746 4.54788086 -3.08001953 3.76348633 -3.07885742 2.95532227 C-2.89785528 0.37894455 -2.57608446 0.15001619 0 0 Z " fill="#2E2F4E" transform="translate(252.949462890625,183.886474609375)"/>
<path d="M0 0 C0.66 0.33 1.32 0.66 2 1 C1.67 2.32 1.34 3.64 1 5 C-0.98 5.33 -2.96 5.66 -5 6 C-5 6.66 -5 7.32 -5 8 C-5.78375 8.66 -6.5675 9.32 -7.375 10 C-10.90185177 14.03068774 -11.32362633 17.80100833 -12 23 C-13.32 23 -14.64 23 -16 23 C-16 129.26 -16 235.52 -16 345 C-16.33 345 -16.66 345 -17 345 C-17.19620022 303.7331628 -17.37647371 262.4662833 -17.53537826 221.19928479 C-17.55415073 216.3276803 -17.57305511 211.45607632 -17.59204102 206.58447266 C-17.59581856 205.61462134 -17.59959611 204.64477002 -17.60348812 203.64552927 C-17.66497354 187.94046402 -17.73714508 172.23546513 -17.8132638 156.53046477 C-17.89112695 140.41648588 -17.95751105 124.30248921 -18.01323253 108.18841839 C-18.0479795 98.24464537 -18.09168667 88.30099454 -18.14684484 78.35731345 C-18.18380786 71.53917326 -18.20962374 64.72104771 -18.22667392 57.90282887 C-18.23684116 53.96868157 -18.25192283 50.03471477 -18.28024101 46.10065269 C-18.30607372 42.49679617 -18.31786349 38.89317268 -18.31862888 35.28922617 C-18.32264846 33.37240705 -18.34156861 31.4556369 -18.36107081 29.53891277 C-18.34680307 22.96000796 -17.79458741 17.98401673 -15 12 C-14.34 12 -13.68 12 -13 12 C-12.34 10.35 -11.68 8.7 -11 7 C-10.34 7 -9.68 7 -9 7 C-9 6.34 -9 5.68 -9 5 C-7.54735962 4.1361871 -6.0876837 3.28419546 -4.625 2.4375 C-3.81289062 1.96183594 -3.00078125 1.48617187 -2.1640625 0.99609375 C-1.44992188 0.66738281 -0.73578125 0.33867188 0 0 Z " fill="#696EEF" transform="translate(91,62)"/>
<path d="M0 0 C1.24007812 -0.00064453 2.48015625 -0.00128906 3.7578125 -0.00195312 C5.05460938 0.01802734 6.35140625 0.03800781 7.6875 0.05859375 C8.98429687 0.05150391 10.28109375 0.04441406 11.6171875 0.03710938 C21.12414225 0.10134556 21.12414225 0.10134556 23.5546875 1.80444336 C25.48879105 4.69267687 25.10584006 7.14937324 24.6875 10.49609375 C22.45666146 12.7835676 21.07523369 13.44441174 17.89428711 13.8684082 C16.32046265 13.86393677 16.32046265 13.86393677 14.71484375 13.859375 C13.56822266 13.85873047 12.42160156 13.85808594 11.24023438 13.85742188 C10.04720703 13.84130859 8.85417969 13.82519531 7.625 13.80859375 C6.42810547 13.81181641 5.23121094 13.81503906 3.99804688 13.81835938 C-4.91183258 13.76320537 -4.91183258 13.76320537 -8.3125 11.49609375 C-9.84906499 5.56934307 -9.84906499 5.56934307 -8.21484375 2.30053711 C-5.51317762 -0.26209307 -3.68076935 -0.00599219 0 0 Z " fill="#7163F5" transform="translate(170.3125,396.50390625)"/>
<path d="M0 0 C1.12350861 0.00636726 1.12350861 0.00636726 2.26971436 0.01286316 C4.65413875 0.02961129 7.03770753 0.06725478 9.421875 0.10546875 C11.04165443 0.12052066 12.66144715 0.13420818 14.28125 0.14648438 C18.24511966 0.17950195 22.20835243 0.23125629 26.171875 0.29296875 C26.296875 7.91796875 26.296875 7.91796875 25.171875 11.29296875 C20.38471877 11.36712043 15.59789673 11.42157079 10.81030273 11.45776367 C9.18166277 11.47285118 7.55306344 11.49332381 5.92456055 11.51928711 C3.58371965 11.55567324 1.24341581 11.57269495 -1.09765625 11.5859375 C-2.18999321 11.60916328 -2.18999321 11.60916328 -3.30439758 11.63285828 C-8.33766404 11.63453431 -8.33766404 11.63453431 -10.78393555 9.9309082 C-12.30691047 7.54193491 -12.31285129 6.06283324 -11.828125 3.29296875 C-8.40826192 -0.34891402 -4.68377531 -0.10029951 0 0 Z " fill="#694DEF" transform="translate(388.828125,346.70703125)"/>
<path d="M0 0 C0 0.99 0 1.98 0 3 C0.9075 2.62875 1.815 2.2575 2.75 1.875 C6 1 6 1 8.1875 1.8125 C9.0846875 2.4003125 9.0846875 2.4003125 10 3 C10.99 3.33 11.98 3.66 13 4 C14 7 14 7 13 13 C2.44 13 -8.12 13 -19 13 C-19 9.04 -19 5.08 -19 1 C-12.73 0.67 -6.46 0.34 0 0 Z " fill="#393958" transform="translate(249,243)"/>
<path d="M0 0 C4.66308199 -0.02468646 9.32612608 -0.04285349 13.98925781 -0.05493164 C15.57617861 -0.05996588 17.16309477 -0.06679369 18.75 -0.07543945 C21.02865749 -0.08754482 23.30725376 -0.09323733 25.5859375 -0.09765625 C26.65320572 -0.10539818 26.65320572 -0.10539818 27.74203491 -0.11329651 C32.77225659 -0.11387171 32.77225659 -0.11387171 35 1 C34 4 34 4 32 7 C32 7.99 32 8.98 32 10 C20.45 10 8.9 10 -3 10 C-3.33 9.34 -3.66 8.68 -4 8 C-3.34 7.4225 -2.68 6.845 -2 6.25 C0.44290923 4.00346023 0.44290923 4.00346023 0 0 Z " fill="#6F59FD" transform="translate(212,347)"/>
<path d="M0 0 C3.3 0 6.6 0 10 0 C10 6.6 10 13.2 10 20 C8.68 19.67 7.36 19.34 6 19 C5.01 19.66 4.02 20.32 3 21 C3 20.34 3 19.68 3 19 C-0.96 19.495 -0.96 19.495 -5 20 C-5.33 19.34 -5.66 18.68 -6 18 C-6.99 18.66 -7.98 19.32 -9 20 C-9 17.36 -9 14.72 -9 12 C-6.09399739 10.74335022 -4.20395416 10 -1 10 C-0.67 6.7 -0.34 3.4 0 0 Z " fill="#1C1C3E" transform="translate(291,235)"/>
<path d="M0 0 C0.27457031 0.58652344 0.54914063 1.17304688 0.83203125 1.77734375 C4.16863181 8.1269281 8.25548724 11.70686566 15 14 C12 16 12 16 9 17 C7.83333333 18.91666667 7.83333333 18.91666667 7 21 C6.67 21.66 6.34 22.32 6 23 C7.32 23.33 8.64 23.66 10 24 C7 25 7 25 4.7734375 24.109375 C3.58621094 23.43648438 3.58621094 23.43648438 2.375 22.75 C1.57835938 22.31171875 0.78171875 21.8734375 -0.0390625 21.421875 C-2 20 -2 20 -3 17 C-3.66 17 -4.32 17 -5 17 C-5 16.34 -5 15.68 -5 15 C-5.66 15 -6.32 15 -7 15 C-10 9.375 -10 9.375 -10 6 C-9.236875 5.731875 -8.47375 5.46375 -7.6875 5.1875 C-5.09118877 4.04029271 -3.8749652 3.05353332 -2 1 C-1.34 0.67 -0.68 0.34 0 0 Z " fill="#7376F5" transform="translate(85,411)"/>
<path d="M0 0 C0.66 0 1.32 0 2 0 C2.06947395 8.5534877 2.12279776 17.10685775 2.15543652 25.66055775 C2.17110056 29.63228627 2.19235199 33.60382193 2.22631836 37.57543945 C2.25888596 41.40743089 2.27684745 45.23923668 2.28463173 49.07135582 C2.29017996 50.53422659 2.30101425 51.99708707 2.31719017 53.45987892 C2.33893079 55.50708696 2.34196847 57.5535254 2.34057617 59.60083008 C2.34723801 60.76665115 2.35389984 61.93247223 2.36076355 63.13362122 C2 66 2 66 0.63496399 67.87651062 C-1.71075402 69.48840501 -3.21855542 69.41721669 -6 69 C-7.63496399 67.82487488 -7.63496399 67.82487488 -9 66 C-9.36076355 63.47529602 -9.36076355 63.47529602 -9.34057617 60.42700195 C-9.34034958 59.28604568 -9.34012299 58.14508942 -9.33988953 56.96955872 C-9.32440567 55.73823715 -9.30892181 54.50691559 -9.29296875 53.23828125 C-9.28872391 51.97735153 -9.28447906 50.71642181 -9.28010559 49.4172821 C-9.26614627 46.06825057 -9.23920104 42.71983242 -9.20599365 39.37097168 C-9.17528105 35.95244647 -9.16159776 32.53385785 -9.14648438 29.11523438 C-9.11337223 22.40998651 -9.06314018 15.70502867 -9 9 C-8.67 9 -8.34 9 -8 9 C-8 27.15 -8 45.3 -8 64 C-5.3685612 65.3157194 -2.94885691 66 0 66 C0 44.22 0 22.44 0 0 Z " fill="#8876E6" transform="translate(281,83)"/>
<path d="M0 0 C4.58984375 0.09765625 4.58984375 0.09765625 9.1796875 0.1953125 C9.1796875 5.8053125 9.1796875 11.4153125 9.1796875 17.1953125 C8.8496875 17.1953125 8.5196875 17.1953125 8.1796875 17.1953125 C8.1796875 11.9153125 8.1796875 6.6353125 8.1796875 1.1953125 C3.7246875 1.6903125 3.7246875 1.6903125 -0.8203125 2.1953125 C-1.63893902 5.4698186 -1.94190349 7.75081896 -1.9609375 11.046875 C-2.30542894 30.82856767 -2.30542894 30.82856767 -7.8203125 38.1953125 C-7.1603125 38.1953125 -6.5003125 38.1953125 -5.8203125 38.1953125 C-5.8203125 39.8453125 -5.8203125 41.4953125 -5.8203125 43.1953125 C-7.0990625 43.2571875 -8.3778125 43.3190625 -9.6953125 43.3828125 C-10.77425781 43.43501953 -10.77425781 43.43501953 -11.875 43.48828125 C-12.51695312 43.39160156 -13.15890625 43.29492188 -13.8203125 43.1953125 C-16.60668883 39.015748 -15.61593762 37.04862573 -14.8203125 32.1953125 C-14.25441406 32.07414062 -13.68851562 31.95296875 -13.10546875 31.828125 C-12.37199219 31.66054687 -11.63851563 31.49296875 -10.8828125 31.3203125 C-10.15191406 31.15789062 -9.42101562 30.99546875 -8.66796875 30.828125 C-6.61330956 30.36569727 -6.61330956 30.36569727 -5.8203125 28.1953125 C-5.69023578 26.26044418 -5.61773507 24.32155996 -5.57421875 22.3828125 C-5.54134766 21.22523438 -5.50847656 20.06765625 -5.47460938 18.875 C-5.41341381 16.42196928 -5.35612171 13.96883808 -5.30273438 11.515625 C-5.26857422 10.35804688 -5.23441406 9.20046875 -5.19921875 8.0078125 C-5.1741626 6.94175781 -5.14910645 5.87570313 -5.12329102 4.77734375 C-4.68312894 1.02621233 -3.7470636 0.25949194 0 0 Z " fill="#1F1F3F" transform="translate(315.8203125,161.8046875)"/>
<path d="M0 0 C0.66 0.99 1.32 1.98 2 3 C1.34 3 0.68 3 0 3 C0.33 4.65 0.66 6.3 1 8 C21.295 8.495 21.295 8.495 42 9 C42.33 7.68 42.66 6.36 43 5 C43.495 7.475 43.495 7.475 44 10 C40.93269559 12.04486961 40.30807783 12.25125915 36.8515625 12.25878906 C36.02060059 12.26509338 35.18963867 12.27139771 34.33349609 12.27789307 C33.43969238 12.2738446 32.54588867 12.26979614 31.625 12.265625 C30.70412598 12.26753845 29.78325195 12.2694519 28.83447266 12.27142334 C26.88769253 12.27278421 24.94090331 12.26909463 22.99414062 12.26074219 C20.01151172 12.2500413 17.02948514 12.26064082 14.046875 12.2734375 C12.15624867 12.27211589 10.26562271 12.26955346 8.375 12.265625 C7.48119629 12.26967346 6.58739258 12.27372192 5.66650391 12.27789307 C4.42006104 12.26843658 4.42006104 12.26843658 3.1484375 12.25878906 C2.41802246 12.25719788 1.68760742 12.25560669 0.93505859 12.25396729 C-1 12 -1 12 -4 10 C-5.01557588 6.6993784 -5.1092904 5.32787119 -4 2 C-1.9375 0.8125 -1.9375 0.8125 0 0 Z " fill="#8B7EE2" transform="translate(158,82)"/>
<path d="M0 0 C7.28421548 -0.02312916 14.5684231 -0.04091801 21.85266781 -0.05181217 C25.23471813 -0.05703975 28.6167434 -0.06413511 31.9987793 -0.07543945 C35.88329777 -0.08834267 39.76780597 -0.09322924 43.65234375 -0.09765625 C44.87211411 -0.10281754 46.09188446 -0.10797882 47.34861755 -0.11329651 C49.03024742 -0.11340981 49.03024742 -0.11340981 50.74584961 -0.11352539 C51.73846298 -0.115746 52.73107635 -0.11796661 53.75376892 -0.12025452 C56 0 56 0 57 1 C57.09376053 2.81055025 57.1174411 4.62477201 57.11352539 6.43774414 C57.11344986 7.59887222 57.11337433 8.76000031 57.11329651 9.95631409 C57.10813522 11.219832 57.10297394 12.48334991 57.09765625 13.78515625 C57.0962413 15.07111191 57.09482635 16.35706757 57.09336853 17.68199158 C57.08954418 21.10643443 57.07971462 24.53083509 57.06866455 27.95526123 C57.05844864 31.44738189 57.05387053 34.93950934 57.04882812 38.43164062 C57.03809227 45.28777778 57.02101684 52.14388687 57 59 C56.67 59 56.34 59 56 59 C55.67 40.52 55.34 22.04 55 3 C38.77022714 2.71098769 38.77022714 2.71098769 22.5402832 2.43188477 C20.50210915 2.39375042 18.46394133 2.35528032 16.42578125 2.31640625 C14.84476624 2.2916925 14.84476624 2.2916925 13.23181152 2.26647949 C12.21727905 2.24629761 11.20274658 2.22611572 10.1574707 2.20532227 C9.28032913 2.18977798 8.40318756 2.1742337 7.49946594 2.15821838 C4.92412348 1.99519695 2.5157444 1.56280119 0 1 C0 0.67 0 0.34 0 0 Z " fill="#121229" transform="translate(234,265)"/>
<path d="M0 0 C3.29714793 0.32971479 4.6226839 0.6226839 7 3 C7.24050903 5.9359436 7.24050903 5.9359436 7.22705078 9.74462891 C7.22734283 10.43742447 7.22763489 11.13022003 7.22793579 11.8440094 C7.22654031 14.13832034 7.21096919 16.43230816 7.1953125 18.7265625 C7.19158314 20.31553978 7.1887358 21.90451936 7.18673706 23.49349976 C7.17909453 27.67914154 7.15944081 31.8646449 7.1373291 36.05023193 C7.11688396 40.31992724 7.1077382 44.58964487 7.09765625 48.859375 C7.07619543 57.23964691 7.04205211 65.61980625 7 74 C6.34 74 5.68 74 5 74 C4.67 50.24 4.34 26.48 4 2 C2.02 2 0.04 2 -2 2 C-1.34 1.34 -0.68 0.68 0 0 Z " fill="#8674E5" transform="translate(276,341)"/>
<path d="M0 0 C0.99 0.495 0.99 0.495 2 1 C1.67 10.57 1.34 20.14 1 30 C-20.78 30 -42.56 30 -65 30 C-65 29.67 -65 29.34 -65 29 C-57.68266455 28.04850937 -50.46408338 27.79014853 -43.08984375 27.68359375 C-41.88179581 27.66281265 -40.67374786 27.64203156 -39.42909241 27.62062073 C-35.59861527 27.55562961 -31.76807399 27.49647635 -27.9375 27.4375 C-25.32876961 27.39426674 -22.72004552 27.35065097 -20.11132812 27.30664062 C-13.74094999 27.19928608 -7.37051804 27.09983806 -1 27 C-0.67 18.09 -0.34 9.18 0 0 Z " fill="#9A8BED" transform="translate(272,343)"/>
<path d="M0 0 C1.65 0 3.3 0 5 0 C5 0.99 5 1.98 5 3 C4.01 3.33 3.02 3.66 2 4 C3.32 4.66 4.64 5.32 6 6 C6.33 5.01 6.66 4.02 7 3 C8.85131483 6.92857754 9.22004943 9.98775112 9.125 14.3125 C9.10695313 15.38113281 9.08890625 16.44976562 9.0703125 17.55078125 C9.03550781 18.76314453 9.03550781 18.76314453 9 20 C6.36 20 3.72 20 1 20 C1.33 18.68 1.66 17.36 2 16 C0.68 15.34 -0.64 14.68 -2 14 C-1.67 12.35 -1.34 10.7 -1 9 C-0.34 9 0.32 9 1 9 C1 8.34 1 7.68 1 7 C0.34 7 -0.32 7 -1 7 C-0.67 4.69 -0.34 2.38 0 0 Z " fill="#1C1C3F" transform="translate(355,266)"/>
<path d="M0 0 C3.96 0 7.92 0 12 0 C12 3.63 12 7.26 12 11 C3.6015625 11.1953125 3.6015625 11.1953125 1 11 C-1 9 -1 9 -1.1875 5.5 C-1 2 -1 2 0 0 Z " fill="#252440" transform="translate(363,184)"/>
<path d="M0 0 C1.12093552 0.00030212 2.24187103 0.00060425 3.39677429 0.00091553 C4.60622208 0.02156067 5.81566986 0.04220581 7.06176758 0.06347656 C8.30050125 0.06913635 9.53923492 0.07479614 10.81550598 0.08062744 C14.10544161 0.09923933 17.39459364 0.13516488 20.68426514 0.17944336 C24.04242362 0.22039528 27.40069688 0.23863817 30.7590332 0.25878906 C37.34592896 0.30293768 43.93229979 0.36991197 50.51879883 0.45410156 C50.18879883 1.44410156 49.85879883 2.43410156 49.51879883 3.45410156 C22.29379883 3.94910156 22.29379883 3.94910156 -5.48120117 4.45410156 C-5.81120117 6.76410156 -6.14120117 9.07410156 -6.48120117 11.45410156 C-7.14120117 11.45410156 -7.80120117 11.45410156 -8.48120117 11.45410156 C-8.84540173 5.14129181 -8.84540173 5.14129181 -7.3120575 2.24810791 C-4.83044064 -0.183561 -3.43808777 -0.03090416 0 0 Z " fill="#777688" transform="translate(238.481201171875,161.5458984375)"/>
<path d="M0 0 C0.66 0.33 1.32 0.66 2 1 C1.67 2.32 1.34 3.64 1 5 C-0.98 5.33 -2.96 5.66 -5 6 C-5 6.66 -5 7.32 -5 8 C-5.78375 8.66 -6.5675 9.32 -7.375 10 C-10.90185177 14.03068774 -11.32362633 17.80100833 -12 23 C-13.98 22.67 -15.96 22.34 -18 22 C-17.05066101 18.64566891 -16.10251165 15.30753495 -15 12 C-14.34 12 -13.68 12 -13 12 C-12.34 10.35 -11.68 8.7 -11 7 C-10.34 7 -9.68 7 -9 7 C-9 6.34 -9 5.68 -9 5 C-7.54735962 4.1361871 -6.0876837 3.28419546 -4.625 2.4375 C-3.81289062 1.96183594 -3.00078125 1.48617187 -2.1640625 0.99609375 C-1.44992188 0.66738281 -0.73578125 0.33867188 0 0 Z " fill="#7871E9" transform="translate(91,62)"/>
<path d="M0 0 C0.66 0.66 1.32 1.32 2 2 C1.875 5 1.875 5 1 8 C-2.54392561 10.66070772 -6.59591966 10.25573216 -10.828125 10.1953125 C-11.95163361 10.19106766 -11.95163361 10.19106766 -13.09783936 10.18673706 C-15.48205776 10.1755726 -17.86589579 10.15047531 -20.25 10.125 C-21.86978623 10.11496535 -23.48957836 10.10584035 -25.109375 10.09765625 C-29.07306246 10.07564555 -33.03646681 10.04114175 -37 10 C-37 9.34 -37 8.68 -37 8 C-26.11 7.67 -15.22 7.34 -4 7 C-3.67 5.02 -3.34 3.04 -3 1 C-2.01 0.67 -1.02 0.34 0 0 Z " fill="#9D91E5" transform="translate(247,349)"/>
<path d="M0 0 C2.12046792 3.53411321 2.53199289 6.94393835 3 11 C1.35 11 -0.3 11 -2 11 C-2 11.66 -2 12.32 -2 13 C-3.32 13.33 -4.64 13.66 -6 14 C-10 9.375 -10 9.375 -10 6 C-9.236875 5.731875 -8.47375 5.46375 -7.6875 5.1875 C-5.09118877 4.04029271 -3.8749652 3.05353332 -2 1 C-1.34 0.67 -0.68 0.34 0 0 Z " fill="#6F73F5" transform="translate(85,411)"/>
<path d="M0 0 C0.33 0 0.66 0 1 0 C1.33 16.17 1.66 32.34 2 49 C-1.37528033 44.49962622 -1.37528033 44.49962622 -1.35644531 40.52270508 C-1.35944641 39.64532181 -1.36244751 38.76793854 -1.36553955 37.8639679 C-1.35319275 36.9253038 -1.34084595 35.98663971 -1.328125 35.01953125 C-1.32625183 34.05093674 -1.32437866 33.08234222 -1.32244873 32.08439636 C-1.31573449 30.04101103 -1.30183247 27.99763841 -1.28125 25.9543457 C-1.25001337 22.81384445 -1.24027061 19.67384453 -1.234375 16.53320312 C-1.22520835 14.549473 -1.21483365 12.565748 -1.203125 10.58203125 C-1.19887512 9.63729446 -1.19462524 8.69255768 -1.19024658 7.7191925 C-1.18063904 6.85126572 -1.17103149 5.98333893 -1.16113281 5.08911133 C-1.15089081 3.93805656 -1.15089081 3.93805656 -1.14044189 2.76374817 C-1 1 -1 1 0 0 Z " fill="#A59CE9" transform="translate(200,304)"/>
<path d="M0 0 C4.58984375 0.09765625 4.58984375 0.09765625 9.1796875 0.1953125 C9.1796875 5.8053125 9.1796875 11.4153125 9.1796875 17.1953125 C8.8496875 17.1953125 8.5196875 17.1953125 8.1796875 17.1953125 C8.1796875 11.9153125 8.1796875 6.6353125 8.1796875 1.1953125 C3.7246875 1.6903125 3.7246875 1.6903125 -0.8203125 2.1953125 C-1.64263157 5.48458877 -1.97599164 7.96163181 -2.06640625 11.29296875 C-2.09927734 12.25912109 -2.13214844 13.22527344 -2.16601562 14.22070312 C-2.22732806 16.24923142 -2.28460494 18.27788562 -2.33789062 20.30664062 C-2.37205078 21.27150391 -2.40621094 22.23636719 -2.44140625 23.23046875 C-2.4664624 24.110979 -2.49151855 24.99148926 -2.51733398 25.89868164 C-2.8203125 28.1953125 -2.8203125 28.1953125 -4.8203125 31.1953125 C-5.4803125 30.8653125 -6.1403125 30.5353125 -6.8203125 30.1953125 C-6.4903125 29.5353125 -6.1603125 28.8753125 -5.8203125 28.1953125 C-5.69023578 26.26044418 -5.61773507 24.32155996 -5.57421875 22.3828125 C-5.54134766 21.22523438 -5.50847656 20.06765625 -5.47460938 18.875 C-5.41341381 16.42196928 -5.35612171 13.96883808 -5.30273438 11.515625 C-5.26857422 10.35804688 -5.23441406 9.20046875 -5.19921875 8.0078125 C-5.1741626 6.94175781 -5.14910645 5.87570313 -5.12329102 4.77734375 C-4.68312894 1.02621233 -3.7470636 0.25949194 0 0 Z " fill="#49495D" transform="translate(315.8203125,161.8046875)"/>
<path d="M0 0 C4.66308199 -0.02468646 9.32612608 -0.04285349 13.98925781 -0.05493164 C15.57617861 -0.05996588 17.16309477 -0.06679369 18.75 -0.07543945 C21.02865749 -0.08754482 23.30725376 -0.09323733 25.5859375 -0.09765625 C26.65320572 -0.10539818 26.65320572 -0.10539818 27.74203491 -0.11329651 C32.77225659 -0.11387171 32.77225659 -0.11387171 35 1 C34 4 34 4 32 7 C32 7.99 32 8.98 32 10 C30.35 10 28.7 10 27 10 C27.99 9.67 28.98 9.34 30 9 C29.67 7.02 29.34 5.04 29 3 C15.14 2.505 15.14 2.505 1 2 C0.67 1.34 0.34 0.68 0 0 Z " fill="#604DD7" transform="translate(212,347)"/>
<path d="M0 0 C0 0.66 0 1.32 0 2 C-13.86 1.67 -27.72 1.34 -42 1 C-42.33 0.34 -42.66 -0.32 -43 -1 C-8.71938583 -2.73549359 -8.71938583 -2.73549359 0 0 Z " fill="#6654DA" transform="translate(202,84)"/>
<path d="M0 0 C3.375 -0.125 3.375 -0.125 7 0 C9 2 9 2 9.23046875 4.12890625 C9.20919922 5.33353516 9.20919922 5.33353516 9.1875 6.5625 C9.17783203 7.77099609 9.17783203 7.77099609 9.16796875 9.00390625 C9 11 9 11 8 12 C6.31391034 12.07205511 4.62499341 12.08386068 2.9375 12.0625 C2.01839844 12.05347656 1.09929687 12.04445312 0.15234375 12.03515625 C-0.55792969 12.02355469 -1.26820313 12.01195312 -2 12 C-2.33 11.34 -2.66 10.68 -3 10 C-2.34 9.34 -1.68 8.68 -1 8 C0.32 8 1.64 8 3 8 C2.67 6.68 2.34 5.36 2 4 C2.66 4 3.32 4 4 4 C2.68 2.68 1.36 1.36 0 0 Z " fill="#2E2E47" transform="translate(324,203)"/>
<path d="M0 0 C0.99 0.495 0.99 0.495 2 1 C1.34 1.66 0.68 2.32 0 3 C0 2.01 0 1.02 0 0 Z M0 4 C0.25 6.3125 0.25 6.3125 0 9 C-3.20811227 12.74279765 -7.36680021 12.61390002 -12 13 C-11.25 6.25 -11.25 6.25 -9 4 C-5.64103108 3.02766689 -3.32221382 2.89259539 0 4 Z " fill="#1F2041" transform="translate(333,241)"/>
<path d="M0 0 C2.97 0.33 5.94 0.66 9 1 C6.38058783 2.74627478 4.96175123 3.38722388 2 4 C2 6.31 2 8.62 2 11 C2.66 10.34 3.32 9.68 4 9 C4.33 9.99 4.66 10.98 5 12 C6.65 11.67 8.3 11.34 10 11 C9.67 12.32 9.34 13.64 9 15 C8.67 14.67 8.34 14.34 8 14 C6.65252916 13.76924918 5.29622435 13.58846937 3.9375 13.4375 C2.638125 13.293125 1.33875 13.14875 0 13 C-0.66 9.7 -1.32 6.4 -2 3 C-7.28 3 -12.56 3 -18 3 C-18 2.67 -18 2.34 -18 2 C-12.06 2 -6.12 2 0 2 C0 1.34 0 0.68 0 0 Z " fill="#656578" transform="translate(281,243)"/>
<path d="M0 0 C2 2 2 2 2.125 5.625 C2.08375 6.73875 2.0425 7.8525 2 9 C1.34 7.68 0.68 6.36 0 5 C-0.33 5.66 -0.66 6.32 -1 7 C-2.65 6.67 -4.3 6.34 -6 6 C-5.34 5.34 -4.68 4.68 -4 4 C-4 3.34 -4 2.68 -4 2 C-4.99 2.495 -4.99 2.495 -6 3 C-6.73075648 5.3140622 -7.40138258 7.64828869 -8 10 C-8.66 10 -9.32 10 -10 10 C-10.48428405 2.61466822 -10.48428405 2.61466822 -8.375 -0.0625 C-5.19296594 -1.31856608 -3.25787048 -0.92070253 0 0 Z " fill="#323451" transform="translate(362,265)"/>
<path d="M0 0 C0 0.99 0 1.98 0 3 C-2.31 4.32 -4.62 5.64 -7 7 C-6.67 7.66 -6.34 8.32 -6 9 C-10.25566547 10.16063604 -13.6835078 9.76173392 -18 9 C-16.68 8.67 -15.36 8.34 -14 8 C-13.67 6.68 -13.34 5.36 -13 4 C-11.39125 3.566875 -11.39125 3.566875 -9.75 3.125 C-6.54214448 2.16264334 -3.3153523 0 0 0 Z " fill="#1B1C3C" transform="translate(342,266)"/>
<path d="M0 0 C0.33 0 0.66 0 1 0 C1 2.97 1 5.94 1 9 C-2.3 9 -5.6 9 -9 9 C-8 5 -8 5 -7 2 C-4.03 2.495 -4.03 2.495 -1 3 C-0.67 2.01 -0.34 1.02 0 0 Z " fill="#54546F" transform="translate(395,247)"/>
<path d="M0 0 C0.33 0.66 0.66 1.32 1 2 C-0.1446875 1.9071875 -0.1446875 1.9071875 -1.3125 1.8125 C-3.95455169 1.77279641 -3.95455169 1.77279641 -5.63598633 3.09692383 C-7.64619116 5.90156795 -7.43699385 8.21431836 -7.51171875 11.63671875 C-7.54716797 12.93544922 -7.58261719 14.23417969 -7.61914062 15.57226562 C-7.6422405 16.94400517 -7.6650229 18.3157501 -7.6875 19.6875 C-7.72067542 21.07099607 -7.75516531 22.45446129 -7.79101562 23.83789062 C-7.87363241 27.22517883 -7.94274058 30.61220357 -8 34 C-8.33 34 -8.66 34 -9 34 C-9.07418046 29.64009127 -9.12861544 25.28051721 -9.16479492 20.92016602 C-9.17987768 19.43702801 -9.20034689 17.95393456 -9.22631836 16.47094727 C-9.26272616 14.33859255 -9.27973073 12.20682765 -9.29296875 10.07421875 C-9.3086792 8.79119873 -9.32438965 7.50817871 -9.34057617 6.1862793 C-9 3 -9 3 -7.6809082 1.06958008 C-5.15520792 -0.53755034 -2.91485983 -0.19432399 0 0 Z " fill="#8A7BD9" transform="translate(424,302)"/>
<path d="M0 0 C3.5625 0.1875 3.5625 0.1875 5.5625 2.1875 C4.9025 2.1875 4.2425 2.1875 3.5625 2.1875 C3.5625 2.8475 3.5625 3.5075 3.5625 4.1875 C2.9025 4.1875 2.2425 4.1875 1.5625 4.1875 C1.5625 3.1975 1.5625 2.2075 1.5625 1.1875 C-2.25050782 4.4745757 -3.66722246 7.58477838 -5.4375 12.1875 C-6.4275 11.8575 -7.4175 11.5275 -8.4375 11.1875 C-7.7775 10.1975 -7.1175 9.2075 -6.4375 8.1875 C-5.75494011 5.85876625 -5.08699225 3.52567209 -4.4375 1.1875 C-3.4375 0.1875 -3.4375 0.1875 0 0 Z " fill="#4B4A5D" transform="translate(347.4375,223.8125)"/>
<path d="M0 0 C3.93260944 -0.07421454 7.86494722 -0.12863136 11.7980957 -0.16479492 C13.79327701 -0.18728333 15.78826213 -0.22540198 17.78320312 -0.26367188 C19.03681641 -0.27333984 20.29042969 -0.28300781 21.58203125 -0.29296875 C22.73936768 -0.3086792 23.8967041 -0.32438965 25.08911133 -0.34057617 C28 0 28 0 29.8894043 1.2878418 C31.68754087 4.05995254 31.18124557 6.79799487 31 10 C30.67 10 30.34 10 30 10 C29.67 7.69 29.34 5.38 29 3 C23.0827441 1.78174143 17.14248484 1.66352622 11.125 1.4375 C10.05507812 1.39431641 8.98515625 1.35113281 7.8828125 1.30664062 C5.25532246 1.20107183 2.62774578 1.09896209 0 1 C0 0.67 0 0.34 0 0 Z " fill="#7972CF" transform="translate(164,397)"/>
<path d="M0 0 C0.66 0.33 1.32 0.66 2 1 C1.690625 1.70125 1.38125 2.4025 1.0625 3.125 C-0.03302678 6.08936657 -0.56422992 8.87698108 -1 12 C-3.97 11.505 -3.97 11.505 -7 11 C-6.67 9.02 -6.34 7.04 -6 5 C-5.01 4.67 -4.02 4.34 -3 4 C-1.31461399 2.00334686 -1.31461399 2.00334686 0 0 Z " fill="#7975F7" transform="translate(80,73)"/>
<path d="M0 0 C2.33294775 -0.04241723 4.66702567 -0.04092937 7 0 C8 1 8 1 8.09765625 2.84765625 C8.04882812 5.92382812 8.04882812 5.92382812 8 9 C7.01 9.495 7.01 9.495 6 10 C4.68 8.68 3.36 7.36 2 6 C2.33 5.34 2.66 4.68 3 4 C2.01 2.68 1.02 1.36 0 0 Z " fill="#393855" transform="translate(324,203)"/>
<path d="M0 0 C0.33 0.66 0.66 1.32 1 2 C1.66 2 2.32 2 3 2 C2.67 3.65 2.34 5.3 2 7 C4.475 7.99 4.475 7.99 7 9 C7 9.66 7 10.32 7 11 C4.125 11.1875 4.125 11.1875 1 11 C-1.78637633 6.8204355 -0.79562512 4.85331323 0 0 Z " fill="#504F65" transform="translate(301,194)"/>
<path d="M0 0 C2.31 0.33 4.62 0.66 7 1 C6.690625 1.598125 6.38125 2.19625 6.0625 2.8125 C4.89790296 5.08956772 4.89790296 5.08956772 4 8 C2.35 8 0.7 8 -1 8 C-2.2077558 4.37673261 -1.54311128 3.35853631 0 0 Z " fill="#1B1B3D" transform="translate(323,203)"/>
<path d="M0 0 C0.33 0.66 0.66 1.32 1 2 C1.66 2 2.32 2 3 2 C3 2.66 3 3.32 3 4 C4.98 4 6.96 4 9 4 C9 4.33 9 4.66 9 5 C7.02 5.33 5.04 5.66 3 6 C3 11.61 3 17.22 3 23 C2.34 22.67 1.68 22.34 1 22 C1 16.06 1 10.12 1 4 C0.01 3.67 -0.98 3.34 -2 3 C-1.34 2.01 -0.68 1.02 0 0 Z " fill="#8D8E9C" transform="translate(300,231)"/>
<path d="M0 0 C3.3 0 6.6 0 10 0 C10.33 6.27 10.66 12.54 11 19 C9 17 9 17 8.8046875 14.1796875 C8.82789063 13.08914062 8.85109375 11.99859375 8.875 10.875 C8.89304687 9.77929688 8.91109375 8.68359375 8.9296875 7.5546875 C8.95289063 6.71164063 8.97609375 5.86859375 9 5 C7.68 5 6.36 5 5 5 C5.33 4.01 5.66 3.02 6 2 C3.03 1.505 3.03 1.505 0 1 C0 0.67 0 0.34 0 0 Z " fill="#14142E" transform="translate(314,163)"/>
<path d="M0 0 C1.98 0.66 3.96 1.32 6 2 C6.6875 4.8125 6.6875 4.8125 7 8 C5.5625 9.875 5.5625 9.875 4 11 C3.731875 10.2575 3.46375 9.515 3.1875 8.75 C2.05770579 6.13363446 0.79106798 4.19812889 -1 2 C-0.67 1.34 -0.34 0.68 0 0 Z " fill="#8675EA" transform="translate(242,132)"/>
<path d="M0 0 C2 1 2 1 2.875 2.8125 C3 5 3 5 1.6484375 7.15234375 C-2.48466073 10.03575889 -6.38104588 9.1796136 -11.25 8.75 C-12.18585938 8.68425781 -13.12171875 8.61851562 -14.0859375 8.55078125 C-16.39271099 8.38601171 -18.69622128 8.20181863 -21 8 C-21 7.67 -21 7.34 -21 7 C-14.73 7 -8.46 7 -2 7 C-1.67 6.34 -1.34 5.68 -1 5 C-0.67 4.67 -0.34 4.34 0 4 C0 2.68 0 1.36 0 0 Z " fill="#10102A" transform="translate(252,238)"/>
<path d="M0 0 C0.66 0.99 1.32 1.98 2 3 C1.34 3 0.68 3 0 3 C0.33 4.65 0.66 6.3 1 8 C-0.32 8 -1.64 8 -3 8 C-3.33 8.66 -3.66 9.32 -4 10 C-4.79953138 6.71303767 -5.09658936 5.28976808 -4 2 C-1.9375 0.8125 -1.9375 0.8125 0 0 Z " fill="#8476ED" transform="translate(158,82)"/>
<path d="M0 0 C0.66 0.66 1.32 1.32 2 2 C1.625 5.125 1.625 5.125 1 8 C-0.32 8.33 -1.64 8.66 -3 9 C-3.96516243 5.99727245 -4.22393475 3.95784231 -3 1 C-2.01 0.67 -1.02 0.34 0 0 Z " fill="#8E7DF0" transform="translate(247,349)"/>
<path d="M0 0 C2.97 0 5.94 0 9 0 C9 1.65 9 3.3 9 5 C5.625 4.75 5.625 4.75 2 4 C1.34 2.68 0.68 1.36 0 0 Z " fill="#1C1D37" transform="translate(323,225)"/>
<path d="M0 0 C1.32 0 2.64 0 4 0 C4.02688151 1.64574566 4.04634123 3.29161413 4.0625 4.9375 C4.07410156 5.85402344 4.08570313 6.77054688 4.09765625 7.71484375 C4 10 4 10 3 11 C0.66702567 11.04092937 -1.66705225 11.04241723 -4 11 C-3.67 10.34 -3.34 9.68 -3 9 C-1.35 9 0.3 9 2 9 C2 6.36 2 3.72 2 1 C1.34 0.67 0.68 0.34 0 0 Z " fill="#343446" transform="translate(329,184)"/>
<path d="M0 0 C1.4540625 0.0309375 1.4540625 0.0309375 2.9375 0.0625 C2.25 2.9375 2.25 2.9375 0.9375 6.0625 C-1.6875 7.4375 -1.6875 7.4375 -4.0625 8.0625 C-4.10491723 5.72955225 -4.10342937 3.39547433 -4.0625 1.0625 C-3.0625 0.0625 -3.0625 0.0625 0 0 Z " fill="#6E53F6" transform="translate(277.0625,342.9375)"/>
<path d="M0 0 C0.99 0 1.98 0 3 0 C2.67 0.99 2.34 1.98 2 3 C2 4.32 2 5.64 2 7 C1.34 7.66 0.68 8.32 0 9 C-0.33 7.35 -0.66 5.7 -1 4 C-3.97 4 -6.94 4 -10 4 C-10 3.67 -10 3.34 -10 3 C-8.72125 2.87625 -7.4425 2.7525 -6.125 2.625 C-2.65209064 2.30957601 -2.65209064 2.30957601 0 0 Z " fill="#161735" transform="translate(353,241)"/>
<path d="M0 0 C2.31 0.33 4.62 0.66 7 1 C6.67 1.66 6.34 2.32 6 3 C4.68 3 3.36 3 2 3 C2.20625 3.78375 2.4125 4.5675 2.625 5.375 C2.810625 6.674375 2.810625 6.674375 3 8 C2.34 8.66 1.68 9.32 1 10 C-0.80411967 7.24075815 -1.0127245 6.11027897 -0.625 2.75 C-0.41875 1.8425 -0.2125 0.935 0 0 Z " fill="#46465B" transform="translate(250,235)"/>
<path d="M0 0 C0.33 0 0.66 0 1 0 C1.1953125 6.0546875 1.1953125 6.0546875 1 8 C-1 10 -1 10 -2.87939453 10.22705078 C-3.62302246 10.21657715 -4.36665039 10.20610352 -5.1328125 10.1953125 C-6.34130859 10.18564453 -6.34130859 10.18564453 -7.57421875 10.17578125 C-8.41597656 10.15902344 -9.25773437 10.14226562 -10.125 10.125 C-11.39923828 10.11146484 -11.39923828 10.11146484 -12.69921875 10.09765625 C-14.79959884 10.07405647 -16.89983444 10.03818483 -19 10 C-19 9.67 -19 9.34 -19 9 C-17.86820312 8.95101563 -16.73640625 8.90203125 -15.5703125 8.8515625 C-14.08851661 8.77653486 -12.606747 8.70098703 -11.125 8.625 C-10.37863281 8.5940625 -9.63226563 8.563125 -8.86328125 8.53125 C-4.46526812 8.44356169 -4.46526812 8.44356169 -1 6 C-0.60235737 4.01178687 -0.26224651 2.01055661 0 0 Z " fill="#555462" transform="translate(395,317)"/>
<path d="M0 0 C0 0.66 0 1.32 0 2 C-0.61875 2.185625 -1.2375 2.37125 -1.875 2.5625 C-5.05602866 4.71437233 -5.19451947 7.37533763 -6 11 C-6.66 11 -7.32 11 -8 11 C-8.48801743 3.5577342 -8.48801743 3.5577342 -6.25 1 C-4 0 -4 0 0 0 Z " fill="#505161" transform="translate(360,264)"/>
<path d="M0 0 C0.99 0.33 1.98 0.66 3 1 C2.34 1 1.68 1 1 1 C1 1.66 1 2.32 1 3 C0.67 3.33 0.34 3.66 0 4 C1.65 5.65 3.3 7.3 5 9 C3.02 9 1.04 9 -1 9 C-1 8.34 -1 7.68 -1 7 C-1.66 7 -2.32 7 -3 7 C-2.25 2.25 -2.25 2.25 0 0 Z " fill="#171734" transform="translate(304,226)"/>
<path d="M0 0 C1.78409802 3.06246747 2.22880021 5.22079273 2.125 8.75 C2.10695313 9.54921875 2.08890625 10.3484375 2.0703125 11.171875 C2.04710937 11.77515625 2.02390625 12.3784375 2 13 C1.01 13.495 1.01 13.495 0 14 C-1.31164842 11.37670316 -1.13262846 9.36301375 -1.125 6.4375 C-1.12757813 5.44621094 -1.13015625 4.45492188 -1.1328125 3.43359375 C-1 1 -1 1 0 0 Z " fill="#1E1D39" transform="translate(362,309)"/>
<path d="M0 0 C0.33 0.99 0.66 1.98 1 3 C-4.94 3 -10.88 3 -17 3 C-17 2.67 -17 2.34 -17 2 C-15.10507994 1.66151348 -13.20901534 1.32943089 -11.3125 1 C-9.72888672 0.7215625 -9.72888672 0.7215625 -8.11328125 0.4375 C-5.35095938 0.04931926 -2.78257957 -0.08259976 0 0 Z " fill="#79798F" transform="translate(371,253)"/>
<path d="M0 0 C0.66 0 1.32 0 2 0 C2 3.3 2 6.6 2 10 C1.01 10 0.02 10 -1 10 C-1 10.66 -1 11.32 -1 12 C-1.99 12 -2.98 12 -4 12 C-4 11.34 -4 10.68 -4 10 C-3.01 9.34 -2.02 8.68 -1 8 C-0.83333333 5 -0.83333333 5 -1 2 C-0.67 1.34 -0.34 0.68 0 0 Z " fill="#212138" transform="translate(394,273)"/>
<path d="M0 0 C1.98 0.495 1.98 0.495 4 1 C4 1.99 4 2.98 4 4 C6.97 4.495 6.97 4.495 10 5 C10 5.33 10 5.66 10 6 C8.72125 6.144375 7.4425 6.28875 6.125 6.4375 C3.74307106 6.70642746 2.15547309 6.92226346 0 8 C0 5.33333333 0 2.66666667 0 0 Z " fill="#4F4E6D" transform="translate(353,281)"/>
<path d="M0 0 C-0.33 0.66 -0.66 1.32 -1 2 C-1.66 2 -2.32 2 -3 2 C-3.66 3.98 -4.32 5.96 -5 8 C-5.66 7.67 -6.32 7.34 -7 7 C-7 5.02 -7 3.04 -7 1 C-3.375 -1.125 -3.375 -1.125 0 0 Z " fill="#1B1B39" transform="translate(391,267)"/>
<path d="M0 0 C2.97 0.495 2.97 0.495 6 1 C5.34 1.391875 4.68 1.78375 4 2.1875 C1.70833333 3.85416667 1.70833333 3.85416667 1.75 6.6875 C1.8325 7.450625 1.915 8.21375 2 9 C1.01 9 0.02 9 -1 9 C-1.125 2.25 -1.125 2.25 0 0 Z " fill="#46455B" transform="translate(363,184)"/>
<path d="M0 0 C1.0625 1.875 1.0625 1.875 2 4 C1 6 1 6 -0.9375 6.9375 C-3.31971493 7.95345922 -3.31971493 7.95345922 -5 11 C-5.66 10.67 -6.32 10.34 -7 10 C-6.67 9.01 -6.34 8.02 -6 7 C-5.34 7 -4.68 7 -4 7 C-3.34 5.35 -2.68 3.7 -2 2 C-1.34 2 -0.68 2 0 2 C0 1.34 0 0.68 0 0 Z " fill="#8C87E9" transform="translate(82,67)"/>
<path d="M0 0 C0.99 0.33 1.98 0.66 3 1 C2.67 4.3 2.34 7.6 2 11 C4.97 11 7.94 11 11 11 C11 11.33 11 11.66 11 12 C7.7 12 4.4 12 1 12 C1 9.03 1 6.06 1 3 C0.34 2.67 -0.32 2.34 -1 2 C-0.67 1.34 -0.34 0.68 0 0 Z " fill="#565769" transform="translate(351,315)"/>
<path d="M0 0 C2 3 2 3 1.625 6.1875 C1.41875 7.115625 1.2125 8.04375 1 9 C-0.32 8.34 -1.64 7.68 -3 7 C-2.25 2.25 -2.25 2.25 0 0 Z " fill="#6C6D80" transform="translate(261,247)"/>
<path d="M0 0 C0.6875 2.0625 0.6875 2.0625 1 4 C-1.64 3.67 -4.28 3.34 -7 3 C-7.33 2.01 -7.66 1.02 -8 0 C-4.71303767 -0.79953138 -3.28976808 -1.09658936 0 0 Z " fill="#6F55FD" transform="translate(272,378)"/>
<path d="M0 0 C-0.99 0.33 -1.98 0.66 -3 1 C-3 1.99 -3 2.98 -3 4 C-3.598125 3.79375 -4.19625 3.5875 -4.8125 3.375 C-7.28450846 2.69328085 -7.28450846 2.69328085 -10 5 C-9.67 3.35 -9.34 1.7 -9 0 C-2.25 -1.125 -2.25 -1.125 0 0 Z " fill="#484960" transform="translate(311,224)"/>
<path d="M0 0 C3.29714793 0.32971479 4.6226839 0.6226839 7 3 C6.625 6.625 6.625 6.625 6 10 C5.67 10 5.34 10 5 10 C4.67 7.36 4.34 4.72 4 2 C2.02 2 0.04 2 -2 2 C-1.34 1.34 -0.68 0.68 0 0 Z " fill="#8A7AE1" transform="translate(276,341)"/>
<path d="M0 0 C0.66 0 1.32 0 2 0 C3.03159626 3.09478879 2.97482862 4.52631393 2.5625 7.6875 C2.46066406 8.49574219 2.35882813 9.30398438 2.25390625 10.13671875 C2.17011719 10.75160156 2.08632813 11.36648438 2 12 C1.34 12 0.68 12 0 12 C0 8.04 0 4.08 0 0 Z " fill="#181930" transform="translate(373,308)"/>
<path d="M0 0 C0.33 0 0.66 0 1 0 C2.39130435 9.2173913 2.39130435 9.2173913 1 12 C0.34 12 -0.32 12 -1 12 C-2.36884358 7.48281619 -1.47075246 4.41225737 0 0 Z " fill="#5C5D78" transform="translate(343,267)"/>
<path d="M0 0 C0 0.99 0 1.98 0 3 C-0.9075 2.814375 -1.815 2.62875 -2.75 2.4375 C-5.68314324 2.04265379 -7.2644657 2.05308428 -10 3 C-9.67 2.01 -9.34 1.02 -9 0 C-5.93109813 -1.53445094 -3.29905734 -0.54984289 0 0 Z " fill="#62616E" transform="translate(394,265)"/>
<path d="M0 0 C2.00720923 0.28674418 4.0085944 0.61866701 6 1 C6 1.33 6 1.66 6 2 C5.05125 2.28875 4.1025 2.5775 3.125 2.875 C-0.05211578 3.76825109 -0.05211578 3.76825109 -2 6 C-2.33 5.34 -2.66 4.68 -3 4 C-5.32156597 3.59270772 -7.6568787 3.25561323 -10 3 C-10 2.67 -10 2.34 -10 2 C-9.04287109 1.90912109 -9.04287109 1.90912109 -8.06640625 1.81640625 C-6.82697266 1.69072266 -6.82697266 1.69072266 -5.5625 1.5625 C-4.73878906 1.48128906 -3.91507812 1.40007812 -3.06640625 1.31640625 C-1.01337975 1.21069185 -1.01337975 1.21069185 0 0 Z " fill="#767689" transform="translate(323,243)"/>
<path d="M0 0 C0.33 0 0.66 0 1 0 C1.125 5.75 1.125 5.75 0 8 C-1.65 7.67 -3.3 7.34 -5 7 C-4.360625 6.21625 -3.72125 5.4325 -3.0625 4.625 C-1.01857687 2.20460719 -1.01857687 2.20460719 0 0 Z " fill="#212139" transform="translate(342,247)"/>
<path d="M0 0 C0.66 0 1.32 0 2 0 C1.34 3.3 0.68 6.6 0 10 C-0.66 10 -1.32 10 -2 10 C-2.25 3.375 -2.25 3.375 0 0 Z " fill="#3C3D51" transform="translate(232,163)"/>
<path d="M0 0 C-0.66 0.66 -1.32 1.32 -2 2 C-1.67 2.66 -1.34 3.32 -1 4 C-2.65 3.67 -4.3 3.34 -6 3 C-6 2.34 -6 1.68 -6 1 C-6.66 0.67 -7.32 0.34 -8 0 C-4.94736336 -0.98120464 -3.05263664 -0.98120464 0 0 Z " fill="#8273F0" transform="translate(211,354)"/>
<path d="M0 0 C0.33 0 0.66 0 1 0 C1 3.63 1 7.26 1 11 C-0.65 10.67 -2.3 10.34 -4 10 C-4.33 9.01 -4.66 8.02 -5 7 C-3.35 7 -1.7 7 0 7 C0 4.69 0 2.38 0 0 Z " fill="#353550" transform="translate(363,275)"/>
<path d="M0 0 C0.33 0.66 0.66 1.32 1 2 C1.99 2.33 2.98 2.66 4 3 C4 3.66 4 4.32 4 5 C3.01 5.66 2.02 6.32 1 7 C1 7.66 1 8.32 1 9 C0.34 9 -0.32 9 -1 9 C-1.125 2.25 -1.125 2.25 0 0 Z " fill="#424258" transform="translate(231,265)"/>
<path d="M0 0 C0.66 0.33 1.32 0.66 2 1 C2 1.66 2 2.32 2 3 C3.65 2.67 5.3 2.34 7 2 C6.67 3.32 6.34 4.64 6 6 C5.67 5.67 5.34 5.34 5 5 C3.65252916 4.76924918 2.29622435 4.58846937 0.9375 4.4375 C-0.361875 4.293125 -1.66125 4.14875 -3 4 C-2 2 -2 2 0 0 Z " fill="#717189" transform="translate(284,252)"/>
<path d="M0 0 C0.66 0.33 1.32 0.66 2 1 C2 2.32 2 3.64 2 5 C0.35 5.33 -1.3 5.66 -3 6 C-3.33 5.34 -3.66 4.68 -4 4 C-2.68 2.68 -1.36 1.36 0 0 Z " fill="#1C1C3E" transform="translate(370,248)"/>
<path d="M0 0 C0.66 0.33 1.32 0.66 2 1 C1.67 2.98 1.34 4.96 1 7 C0.34 7 -0.32 7 -1 7 C-1 7.99 -1 8.98 -1 10 C-1.66 9.67 -2.32 9.34 -3 9 C-2.69181644 7.68647977 -2.37832335 6.37420428 -2.0625 5.0625 C-1.88847656 4.33160156 -1.71445312 3.60070312 -1.53515625 2.84765625 C-1 1 -1 1 0 0 Z " fill="#403F56" transform="translate(334,234)"/>
<path d="M0 0 C0 0.99 0 1.98 0 3 C-4.75 4.125 -4.75 4.125 -7 3 C-7 2.34 -7 1.68 -7 1 C-4.53721199 -0.231394 -2.7204945 -0.07159196 0 0 Z " fill="#14152B" transform="translate(393,234)"/>
<path d="M0 0 C1.32 1.65 2.64 3.3 4 5 C3.34 5 2.68 5 2 5 C2.33 6.32 2.66 7.64 3 9 C2.01 9 1.02 9 0 9 C-0.33 8.01 -0.66 7.02 -1 6 C-0.34 6 0.32 6 1 6 C0.649375 5.38125 0.29875 4.7625 -0.0625 4.125 C-0.371875 3.42375 -0.68125 2.7225 -1 2 C-0.67 1.34 -0.34 0.68 0 0 Z " fill="#8188F1" transform="translate(87,416)"/>
<path d="M0 0 C0.33 0 0.66 0 1 0 C1.35807422 6.32597793 1.35807422 6.32597793 -0.0625 9 C-3.13335213 10.58495594 -5.72186775 9.68036707 -9 9 C-9 8.67 -9 8.34 -9 8 C-6.36 7.34 -3.72 6.68 -1 6 C-0.67 4.02 -0.34 2.04 0 0 Z " fill="#141529" transform="translate(333,308)"/>
<path d="M0 0 C4.62 0 9.24 0 14 0 C13.34 1.32 12.68 2.64 12 4 C12 3.34 12 2.68 12 2 C8.04 1.67 4.08 1.34 0 1 C0 0.67 0 0.34 0 0 Z " fill="#383850" transform="translate(257,184)"/>
<path d="M0 0 C0.33 0.66 0.66 1.32 1 2 C-0.11375 1.9071875 -0.11375 1.9071875 -1.25 1.8125 C-4.45383006 2.03094296 -5.64031256 2.90250005 -8 5 C-8 3.68 -8 2.36 -8 1 C-5.29120665 -0.35439668 -2.99066732 -0.06501451 0 0 Z " fill="#8371E2" transform="translate(424,302)"/>
<path d="M0 0 C0 0.33 0 0.66 0 1 C-3.96 1 -7.92 1 -12 1 C-7.03483464 -2.31011024 -5.70515444 -1.79606714 0 0 Z " fill="#2D2D43" transform="translate(355,214)"/>
<path d="M0 0 C0.66 0.33 1.32 0.66 2 1 C2 2.32 2 3.64 2 5 C0.02 5 -1.96 5 -4 5 C-2.25 1.125 -2.25 1.125 0 0 Z " fill="#6954F1" transform="translate(244,138)"/>
<path d="M0 0 C0.66 1.32 1.32 2.64 2 4 C-0.5654594 6.5654594 -2.47686668 6.54046087 -6 7 C-4.02 4.69 -2.04 2.38 0 0 Z " fill="#8F7DEB" transform="translate(268,417)"/>
<path d="M0 0 C4.455 1.98 4.455 1.98 9 4 C8.01 4.66 7.02 5.32 6 6 C3.375 5.375 3.375 5.375 1 4 C0.67 2.68 0.34 1.36 0 0 Z " fill="#8787E2" transform="translate(91,421)"/>
<path d="M0 0 C0.99 0 1.98 0 3 0 C3.33 0.66 3.66 1.32 4 2 C4.66 2 5.32 2 6 2 C6 2.66 6 3.32 6 4 C4.02 4.33 2.04 4.66 0 5 C0 3.35 0 1.7 0 0 Z " fill="#161634" transform="translate(321,249)"/>
<path d="M0 0 C1.98 0.495 1.98 0.495 4 1 C3.67 1.66 3.34 2.32 3 3 C2.34 3 1.68 3 1 3 C1.185625 3.61875 1.37125 4.2375 1.5625 4.875 C2 7 2 7 1 9 C0.34 8.67 -0.32 8.34 -1 8 C-0.67 5.36 -0.34 2.72 0 0 Z " fill="#2C2C42" transform="translate(291,235)"/>
<path d="M0 0 C0.99 0 1.98 0 3 0 C2.1875 3.4375 2.1875 3.4375 1 7 C0.01 7.33 -0.98 7.66 -2 8 C-1.47731534 5.23723823 -0.89130413 2.6739124 0 0 Z " fill="#323150" transform="translate(372,184)"/>
<path d="M0 0 C2.99324263 1.0975223 3.84610901 1.67682892 5.25 4.625 C5.4975 5.40875 5.745 6.1925 6 7 C5.34 7 4.68 7 4 7 C4 6.34 4 5.68 4 5 C3.01 4.67 2.02 4.34 1 4 C0.3125 1.9375 0.3125 1.9375 0 0 Z " fill="#7865DF" transform="translate(271,67)"/>
<path d="M0 0 C0.33 0 0.66 0 1 0 C1 2.64 1 5.28 1 8 C0.01 8 -0.98 8 -2 8 C-2.20086443 4.28400809 -2.1519437 3.22791555 0 0 Z " fill="#727183" transform="translate(322,277)"/>
<path d="M0 0 C0.33 0 0.66 0 1 0 C1 2.97 1 5.94 1 9 C-0.32 9 -1.64 9 -3 9 C-2.34 8.01 -1.68 7.02 -1 6 C-0.60986284 4.0103005 -0.26797351 2.00980131 0 0 Z " fill="#636377" transform="translate(342,226)"/>
<path d="M0 0 C0.99 0.495 0.99 0.495 2 1 C3.66392045 1.67349161 5.33032028 2.3409159 7 3 C7 3.66 7 4.32 7 5 C4.625 5.125 4.625 5.125 2 5 C1.34 4.34 0.68 3.68 0 3 C0 2.01 0 1.02 0 0 Z " fill="#7F6FDC" transform="translate(273,147)"/>
</svg>
